G04*
G04 #@! TF.GenerationSoftware,Altium Limited,Altium Designer,25.2.1 (25)*
G04*
G04 Layer_Color=255*
%FSLAX42Y42*%
%MOMM*%
G71*
G04*
G04 #@! TF.SameCoordinates,372558BA-D2E2-4F7E-91D4-F70FF9730948*
G04*
G04*
G04 #@! TF.FilePolarity,Positive*
G04*
G01*
G75*
%ADD14O,5.08X2.03*%
%ADD15R,3.00X1.20*%
%ADD16R,1.20X1.50*%
%ADD23C,2.03*%
%ADD24R,2.03X2.03*%
%ADD26C,1.90*%
%ADD27R,1.90X1.90*%
%ADD28C,2.00*%
D14*
X4751Y9525D02*
D03*
Y9266D02*
D03*
Y9008D02*
D03*
Y8750D02*
D03*
Y8492D02*
D03*
Y8233D02*
D03*
Y7975D02*
D03*
Y7717D02*
D03*
Y7459D02*
D03*
Y7200D02*
D03*
Y6942D02*
D03*
Y6684D02*
D03*
X2973Y9783D02*
D03*
Y9525D02*
D03*
Y9266D02*
D03*
Y9008D02*
D03*
Y8750D02*
D03*
X2960Y8500D02*
D03*
X2973Y8233D02*
D03*
Y7975D02*
D03*
Y7717D02*
D03*
Y7459D02*
D03*
Y7200D02*
D03*
Y6942D02*
D03*
Y6684D02*
D03*
X4751Y9783D02*
D03*
D15*
X299Y7923D02*
D03*
Y8173D02*
D03*
Y8423D02*
D03*
Y8673D02*
D03*
X849Y7923D02*
D03*
Y8173D02*
D03*
Y8423D02*
D03*
Y8673D02*
D03*
D16*
X2452Y8239D02*
D03*
X2242D02*
D03*
X2452Y7721D02*
D03*
X2242D02*
D03*
X2452Y7974D02*
D03*
X2242D02*
D03*
D23*
X6228Y1899D02*
D03*
Y8173D02*
D03*
X5390Y1785D02*
D03*
Y8287D02*
D03*
X5983Y1366D02*
D03*
X5635D02*
D03*
D24*
Y8707D02*
D03*
D26*
X215Y6175D02*
D03*
X1231D02*
D03*
X162Y2363D02*
D03*
X1178D02*
D03*
X190Y4275D02*
D03*
X1206D02*
D03*
X2069Y6175D02*
D03*
X3085D02*
D03*
X2069Y4275D02*
D03*
X3085D02*
D03*
X3974D02*
D03*
X4990D02*
D03*
X3974Y2363D02*
D03*
X4990D02*
D03*
X2069D02*
D03*
X3085D02*
D03*
X3974Y6175D02*
D03*
X4990D02*
D03*
D27*
X723D02*
D03*
X670Y2363D02*
D03*
X698Y4275D02*
D03*
X2577Y6175D02*
D03*
Y4275D02*
D03*
X4482D02*
D03*
Y2363D02*
D03*
X2577D02*
D03*
X4482Y6175D02*
D03*
D28*
X723Y5286D02*
D03*
X670Y1474D02*
D03*
X698Y3386D02*
D03*
X2577Y5286D02*
D03*
Y3386D02*
D03*
X4482D02*
D03*
Y1474D02*
D03*
X2577D02*
D03*
X4482Y5286D02*
D03*
M02*
