G04*
G04 #@! TF.GenerationSoftware,Altium Limited,Altium Designer,25.2.1 (25)*
G04*
G04 Layer_Physical_Order=4*
G04 Layer_Color=16711680*
%FSLAX43Y43*%
%MOMM*%
G71*
G04*
G04 #@! TF.SameCoordinates,37798F80-2AC8-4B0B-9607-FE0DC02C65D2*
G04*
G04*
G04 #@! TF.FilePolarity,Positive*
G04*
G01*
G75*
%ADD13C,0.254*%
%ADD23C,2.032*%
%ADD24R,2.032X2.032*%
%ADD26C,1.900*%
%ADD27R,1.900X1.900*%
%ADD28C,2.000*%
%ADD29C,1.270*%
%ADD39R,1.000X1.500*%
G04:AMPARAMS|DCode=40|XSize=0.45mm|YSize=1.05mm|CornerRadius=0.05mm|HoleSize=0mm|Usage=FLASHONLY|Rotation=0.000|XOffset=0mm|YOffset=0mm|HoleType=Round|Shape=RoundedRectangle|*
%AMROUNDEDRECTD40*
21,1,0.450,0.951,0,0,0.0*
21,1,0.351,1.050,0,0,0.0*
1,1,0.099,0.176,-0.476*
1,1,0.099,-0.176,-0.476*
1,1,0.099,-0.176,0.476*
1,1,0.099,0.176,0.476*
%
%ADD40ROUNDEDRECTD40*%
%ADD41R,1.500X1.000*%
G04:AMPARAMS|DCode=42|XSize=1.3mm|YSize=0.76mm|CornerRadius=0.095mm|HoleSize=0mm|Usage=FLASHONLY|Rotation=270.000|XOffset=0mm|YOffset=0mm|HoleType=Round|Shape=RoundedRectangle|*
%AMROUNDEDRECTD42*
21,1,1.300,0.570,0,0,270.0*
21,1,1.110,0.760,0,0,270.0*
1,1,0.190,-0.285,-0.555*
1,1,0.190,-0.285,0.555*
1,1,0.190,0.285,0.555*
1,1,0.190,0.285,-0.555*
%
%ADD42ROUNDEDRECTD42*%
%ADD43R,0.900X0.950*%
D13*
X8606Y38519D02*
G03*
X8667Y38934I-1381J414D01*
G01*
X7844Y37496D02*
G03*
X8289Y37884I-867J1440D01*
G01*
X11952Y7454D02*
Y13610D01*
X9183Y16380D02*
X11952Y13610D01*
X9183Y16380D02*
Y23722D01*
X8316Y13125D02*
X11121D01*
X11952Y7454D02*
X11952Y7349D01*
X12021Y7280D02*
X15451Y3850D01*
X11952Y7349D02*
X12021Y7280D01*
X7283Y25622D02*
X9183Y23722D01*
X62061Y21510D02*
Y26760D01*
X49772Y9221D02*
X62061Y21510D01*
X49522Y9221D02*
X49772D01*
X49149Y8598D02*
Y8848D01*
X49522Y9221D01*
X58207Y26760D02*
X59357Y25610D01*
X57161Y26760D02*
X58207D01*
X11328Y81284D02*
X25705Y66907D01*
X7283Y25622D02*
Y26760D01*
X42034Y75316D02*
Y75926D01*
X41963Y75997D02*
X42034Y75926D01*
Y75316D02*
X43596Y73754D01*
X39779Y75997D02*
X40663D01*
X38524Y74741D02*
X39779Y75997D01*
X41413Y72311D02*
Y74116D01*
X41316Y74212D02*
X41413Y74116D01*
X41361Y72260D02*
X41413Y72311D01*
X41316Y74212D02*
Y75993D01*
X36812Y48456D02*
Y48575D01*
X35376Y48300D02*
X36656D01*
X36812Y48456D01*
Y48575D02*
X37250Y49013D01*
Y51236D01*
X34970Y48706D02*
X35376Y48300D01*
X34677Y11772D02*
X35923D01*
X37250Y13100D01*
X34483Y11578D02*
X34677Y11772D01*
X15817Y11578D02*
X34483D01*
X33350Y13100D02*
X34677Y11772D01*
X14271Y13100D02*
Y13125D01*
Y13100D02*
X14594Y12777D01*
X14619D01*
X15817Y11578D01*
X33350Y13100D02*
Y13125D01*
X35368Y30477D02*
X35563Y30283D01*
X35084Y30477D02*
X35368D01*
X33350Y32211D02*
X35084Y30477D01*
X33350Y32211D02*
Y32236D01*
X14552Y32211D02*
Y32236D01*
Y32211D02*
X14875Y31888D01*
X14900D01*
X16506Y30283D01*
X35563D01*
X37250Y32211D02*
Y32236D01*
X35563Y30524D02*
X37250Y32211D01*
X35563Y30283D02*
Y30524D01*
X17310Y48706D02*
X34970D01*
X14805Y51211D02*
X17310Y48706D01*
X33350Y50327D02*
X34970Y48706D01*
X33350Y50327D02*
Y51236D01*
X14805Y51211D02*
Y51236D01*
X13417Y81605D02*
X13437D01*
X25723Y69319D01*
X25744D01*
X4660Y77170D02*
X5560Y76270D01*
X7110D01*
X56988Y73070D02*
X57361Y72697D01*
X58555D01*
X59082Y72170D01*
X59357D01*
Y77420D02*
X59369Y77408D01*
X60500D02*
X61638Y76270D01*
X59369Y77408D02*
X60500D01*
X61638Y76270D02*
X61888D01*
X61638Y48795D02*
X61888D01*
X60488Y49945D02*
X61638Y48795D01*
X59357Y49945D02*
X60488D01*
X56988Y45595D02*
X58207D01*
X59357Y44445D01*
X45949Y7298D02*
Y8598D01*
X44799Y6148D02*
X45949Y7298D01*
X6910Y30333D02*
X7283Y29960D01*
X5635Y30333D02*
X6910D01*
X5108Y30860D02*
X5635Y30333D01*
X4833Y30860D02*
X5108D01*
X15451Y8500D02*
X15606Y8344D01*
Y6155D02*
Y8344D01*
X6860Y48795D02*
X7110D01*
X5710Y49945D02*
X6860Y48795D01*
X4660Y49945D02*
X5710D01*
X43689Y93911D02*
Y94961D01*
X42539Y92761D02*
X43689Y93911D01*
X42539Y92511D02*
Y92761D01*
X24182Y92168D02*
X24555Y92541D01*
Y93816D01*
X25082Y94343D01*
Y94618D01*
X2210Y76270D02*
Y78358D01*
X16020Y92168D02*
X20982D01*
X2210Y78358D02*
X16020Y92168D01*
X2210Y50048D02*
X9180Y57017D01*
X2210Y48795D02*
Y50048D01*
X57161Y29960D02*
Y35315D01*
X61888Y40042D01*
Y45595D01*
Y65080D02*
Y73070D01*
X56988Y48795D02*
Y60180D01*
X61888Y65080D01*
X32566Y92511D02*
X39339D01*
X28009Y97068D02*
X32566Y92511D01*
X24182Y97068D02*
X28009D01*
X39339Y97161D02*
Y97411D01*
X37542Y95365D02*
X39339Y97161D01*
X37160Y95365D02*
X37542D01*
X36965Y95170D02*
X37160Y95365D01*
X20982Y96818D02*
Y97068D01*
X19832Y95668D02*
X20982Y96818D01*
X19832Y94618D02*
Y95668D01*
X3510Y73070D02*
X4660Y71920D01*
X2210Y73070D02*
X3510D01*
X9180Y57017D02*
Y71000D01*
X7110Y73070D02*
X9180Y71000D01*
X2210Y45595D02*
X2583Y45222D01*
X3883D01*
X4660Y44445D01*
X7110Y45595D02*
X8667Y44039D01*
Y38934D02*
Y44039D01*
X2383Y29960D02*
Y32035D01*
X8289Y37884D02*
X8516Y38167D01*
X8606Y38519D01*
X2383Y32035D02*
X7844Y37496D01*
X2383Y26760D02*
X2633D01*
X3754Y25258D02*
Y25640D01*
X2633Y26760D02*
X3754Y25640D01*
Y25258D02*
X3948Y25064D01*
X18651Y3600D02*
Y3850D01*
X19801Y5000D01*
Y6050D01*
X18651Y8500D02*
X34105D01*
X38906Y3698D02*
X45949D01*
X34105Y8500D02*
X38906Y3698D01*
X49149D02*
Y3948D01*
X50299Y5098D01*
Y6148D01*
X59357Y31110D02*
X60507Y29960D01*
X62061D01*
X42028Y78382D02*
X43657D01*
X41963Y78447D02*
X42028Y78382D01*
X59760Y13727D02*
X59827Y13659D01*
X40663Y78447D02*
X40707Y78403D01*
X41358Y79752D02*
X45719D01*
X40707Y79101D02*
X41358Y79752D01*
X41313Y78447D02*
X41341Y78419D01*
Y77541D02*
Y78419D01*
Y77541D02*
X41963Y76919D01*
Y75997D02*
Y76919D01*
X53543Y76270D02*
X56988D01*
X50489Y79324D02*
X53543Y76270D01*
X47762Y79324D02*
X50489D01*
X47509Y79577D02*
X47762Y79324D01*
X47509Y79577D02*
Y79752D01*
X40707Y78491D02*
Y79101D01*
X40663Y78447D02*
X40707Y78491D01*
X41313Y75997D02*
X41316Y75993D01*
X15451Y3600D02*
Y3850D01*
X56709Y75991D02*
X56988Y76270D01*
X27395Y51236D02*
X30200D01*
X25775Y52856D02*
X27395Y51236D01*
X8850D02*
X11655D01*
X7230Y52856D02*
X8850Y51236D01*
X27395Y32236D02*
X30200D01*
X25775Y33856D02*
X27395Y32236D01*
X8597D02*
X11402D01*
X6977Y33856D02*
X8597Y32236D01*
X6696Y14745D02*
X8316Y13125D01*
X25775Y14745D02*
X27395Y13125D01*
X30200D01*
X43205D02*
X44825Y14745D01*
X40400Y13125D02*
X43205D01*
Y32236D02*
X44825Y33856D01*
X40400Y32236D02*
X43205D01*
Y51236D02*
X44825Y52856D01*
X40400Y51236D02*
X43205D01*
D23*
X62278Y18993D02*
D03*
Y81731D02*
D03*
X53896Y17850D02*
D03*
Y82874D02*
D03*
X59827Y13659D02*
D03*
X56347D02*
D03*
D24*
Y87065D02*
D03*
D26*
X2150Y61746D02*
D03*
X12310D02*
D03*
X1616Y23635D02*
D03*
X11776D02*
D03*
X1897Y42746D02*
D03*
X12057D02*
D03*
X20695Y61746D02*
D03*
X30855D02*
D03*
X20695Y42746D02*
D03*
X30855D02*
D03*
X39745D02*
D03*
X49905D02*
D03*
X39745Y23635D02*
D03*
X49905D02*
D03*
X20695D02*
D03*
X30855D02*
D03*
X39745Y61746D02*
D03*
X49905D02*
D03*
D27*
X7230D02*
D03*
X6696Y23635D02*
D03*
X6977Y42746D02*
D03*
X25775Y61746D02*
D03*
Y42746D02*
D03*
X44825D02*
D03*
Y23635D02*
D03*
X25775D02*
D03*
X44825Y61746D02*
D03*
D28*
X7230Y52856D02*
D03*
X6696Y14745D02*
D03*
X6977Y33856D02*
D03*
X25775Y52856D02*
D03*
Y33856D02*
D03*
X44825D02*
D03*
Y14745D02*
D03*
X25775D02*
D03*
X44825Y52856D02*
D03*
D29*
X13437Y81605D02*
D03*
X25738Y66874D02*
D03*
X25744Y69319D02*
D03*
X43657Y78382D02*
D03*
X34483Y11578D02*
D03*
X59357Y25610D02*
D03*
X35563Y30283D02*
D03*
X19895Y82418D02*
D03*
X19833Y77246D02*
D03*
X19786Y79756D02*
D03*
X11328Y81284D02*
D03*
D03*
X50832Y86432D02*
D03*
X51832Y92670D02*
D03*
X51812Y95307D02*
D03*
X43596Y73754D02*
D03*
X38524Y74741D02*
D03*
D03*
X36812Y48456D02*
D03*
X41361Y72260D02*
D03*
X4660Y77170D02*
D03*
X33835Y87521D02*
D03*
X33970Y90115D02*
D03*
X59357Y77420D02*
D03*
X4660Y49945D02*
D03*
X4833Y30860D02*
D03*
X15606Y6155D02*
D03*
X44799Y6148D02*
D03*
X59357Y44445D02*
D03*
Y72170D02*
D03*
X25082Y94618D02*
D03*
X43689Y94961D02*
D03*
X4660Y71920D02*
D03*
Y44445D02*
D03*
X3948Y25064D02*
D03*
X19801Y6050D02*
D03*
X36965Y95170D02*
D03*
X19832Y94618D02*
D03*
X50299Y6148D02*
D03*
X59357Y31110D02*
D03*
Y49945D02*
D03*
D39*
X49149Y3698D02*
D03*
Y8598D02*
D03*
X45949Y3698D02*
D03*
Y8598D02*
D03*
X20982Y97068D02*
D03*
Y92168D02*
D03*
X24182Y97068D02*
D03*
Y92168D02*
D03*
X39339Y97411D02*
D03*
Y92511D02*
D03*
X42539Y97411D02*
D03*
Y92511D02*
D03*
X18651Y3600D02*
D03*
Y8500D02*
D03*
X15451Y3600D02*
D03*
Y8500D02*
D03*
D40*
X41963Y78447D02*
D03*
X41313D02*
D03*
X40663D02*
D03*
Y75997D02*
D03*
X41313D02*
D03*
X41963D02*
D03*
D41*
X2210Y45595D02*
D03*
X7110D02*
D03*
X2210Y48795D02*
D03*
X7110D02*
D03*
X2383Y26760D02*
D03*
X7283D02*
D03*
X2383Y29960D02*
D03*
X7283D02*
D03*
X56988Y45595D02*
D03*
X61888D02*
D03*
X56988Y48795D02*
D03*
X61888D02*
D03*
X57161Y26760D02*
D03*
X62061D02*
D03*
X57161Y29960D02*
D03*
X62061D02*
D03*
X56988Y73070D02*
D03*
X61888D02*
D03*
X56988Y76270D02*
D03*
X61888D02*
D03*
X7110D02*
D03*
X2210D02*
D03*
X7110Y73070D02*
D03*
X2210D02*
D03*
D42*
X45719Y79752D02*
D03*
X47509D02*
D03*
D43*
X11121Y13125D02*
D03*
X14271Y13125D02*
D03*
X40400Y13125D02*
D03*
X37250Y13125D02*
D03*
X30200Y13125D02*
D03*
X33350Y13125D02*
D03*
X30200Y51236D02*
D03*
X33350Y51236D02*
D03*
X11655Y51236D02*
D03*
X14805Y51236D02*
D03*
X40400Y32236D02*
D03*
X37250Y32236D02*
D03*
X30200Y32236D02*
D03*
X33350Y32236D02*
D03*
X11402Y32236D02*
D03*
X14552Y32236D02*
D03*
X40400Y51236D02*
D03*
X37250Y51236D02*
D03*
M02*
