M48
;Layer_Color=9474304
;FILE_FORMAT=4:2
METRIC,LZ
;TYPE=PLATED
T01F00S00C0.71
T02F00S00C1.40
T03F00S00C1.50
T04F00S00C1.52
;TYPE=NON_PLATED
T05F00S00C1.55
T06F00S00C2.60
%
T01
X00503Y000615
X003681Y004846
X003852Y007474
X000466Y007717
Y007192
T02
X000162Y002363
X00067
X001178
X002069
X002577
X003085
X003974
X004482
X00499
Y004275
X004482
X003974
Y006175
X004482
X00499
X003085
X002577
X002069
X001231
X000723
X000215
X00019Y004275
X000698
X001206
X002069
X002577
X003085
T03
X00067Y001474
X002577
Y003386
X000698
X004482
Y001474
Y005286
X002577
X000723
T04
X005635Y001366
X005983
X006228Y001899
X00539Y001785
Y008287
X005635Y008707
X006228Y008173
T05
X000162Y001982
X001178
X002069
X003085
Y003894
X002069
X001206
X00019
X003974
X00499
Y001982
X003974
Y005794
X00499
X003085
X002069
X001231
X000215
T06
X00067Y001982
X002577
Y003894
X000698
X004482
Y001982
Y005794
X002577
X000723
M30
