G04*
G04 #@! TF.GenerationSoftware,Altium Limited,Altium Designer,25.2.1 (25)*
G04*
G04 Layer_Color=2752767*
%FSLAX43Y43*%
%MOMM*%
G71*
G04*
G04 #@! TF.SameCoordinates,C051C589-FC01-4A5A-9DFD-27A9FF034E64*
G04*
G04*
G04 #@! TF.FilePolarity,Positive*
G04*
G01*
G75*
%ADD49C,0.127*%
D49*
X11074Y82431D02*
Y82177D01*
X11582D01*
Y82431D01*
X11836D01*
Y82939D01*
X11582D01*
Y83193D01*
X11074D01*
Y82939D01*
X10820D01*
Y82431D01*
X11074D01*
X51578Y92416D02*
Y92162D01*
X52086D01*
Y92416D01*
X52340D01*
Y92924D01*
X52086D01*
Y93178D01*
X51578D01*
Y92924D01*
X51324D01*
Y92416D01*
X51578D01*
X38270Y74487D02*
Y74233D01*
X38778D01*
Y74487D01*
X39032D01*
Y74995D01*
X38778D01*
Y75249D01*
X38270D01*
Y74995D01*
X38016D01*
Y74487D01*
X38270D01*
X34423Y11518D02*
Y11264D01*
X34931D01*
Y11518D01*
X35185D01*
Y12026D01*
X34931D01*
Y12280D01*
X34423D01*
Y12026D01*
X34169D01*
Y11518D01*
X34423D01*
X35309Y30029D02*
Y29775D01*
X35817D01*
Y30029D01*
X36071D01*
Y30537D01*
X35817D01*
Y30791D01*
X35309D01*
Y30537D01*
X35055D01*
Y30029D01*
X35309D01*
X13163Y81351D02*
Y81097D01*
X13671D01*
Y81351D01*
X13925D01*
Y81859D01*
X13671D01*
Y82113D01*
X13163D01*
Y81859D01*
X12909D01*
Y81351D01*
X13163D01*
X25490Y69065D02*
Y68811D01*
X25998D01*
Y69065D01*
X26252D01*
Y69573D01*
X25998D01*
Y69827D01*
X25490D01*
Y69573D01*
X25236D01*
Y69065D01*
X25490D01*
X19579Y76992D02*
Y76738D01*
X20087D01*
Y76992D01*
X20341D01*
Y77500D01*
X20087D01*
Y77754D01*
X19579D01*
Y77500D01*
X19325D01*
Y76992D01*
X19579D01*
X25451Y66653D02*
Y66399D01*
X25959D01*
Y66653D01*
X26213D01*
Y67161D01*
X25959D01*
Y67415D01*
X25451D01*
Y67161D01*
X25197D01*
Y66653D01*
X25451D01*
X33581Y87267D02*
Y87013D01*
X34089D01*
Y87267D01*
X34343D01*
Y87775D01*
X34089D01*
Y88029D01*
X33581D01*
Y87775D01*
X33327D01*
Y87267D01*
X33581D01*
X33716Y89861D02*
Y89607D01*
X34224D01*
Y89861D01*
X34478D01*
Y90369D01*
X34224D01*
Y90623D01*
X33716D01*
Y90369D01*
X33462D01*
Y89861D01*
X33716D01*
X43403Y78128D02*
Y77874D01*
X43911D01*
Y78128D01*
X44165D01*
Y78636D01*
X43911D01*
Y78890D01*
X43403D01*
Y78636D01*
X43149D01*
Y78128D01*
X43403D01*
X19532Y79502D02*
Y79248D01*
X20040D01*
Y79502D01*
X20294D01*
Y80010D01*
X20040D01*
Y80264D01*
X19532D01*
Y80010D01*
X19278D01*
Y79502D01*
X19532D01*
X19641Y82164D02*
Y81910D01*
X20149D01*
Y82164D01*
X20403D01*
Y82672D01*
X20149D01*
Y82926D01*
X19641D01*
Y82672D01*
X19387D01*
Y82164D01*
X19641D01*
M02*
