G04*
G04 #@! TF.GenerationSoftware,Altium Limited,Altium Designer,25.2.1 (25)*
G04*
G04 Layer_Color=32896*
%FSLAX43Y43*%
%MOMM*%
G71*
G04*
G04 #@! TF.SameCoordinates,37798F80-2AC8-4B0B-9607-FE0DC02C65D2*
G04*
G04*
G04 #@! TF.FilePolarity,Positive*
G04*
G01*
G75*
%ADD10C,0.250*%
%ADD12C,0.200*%
%ADD13C,0.254*%
%ADD49C,0.127*%
%ADD50C,0.150*%
%ADD51R,0.508X1.587*%
D10*
X42863Y75997D02*
G03*
X42863Y75997I-125J0D01*
G01*
D12*
X46049Y9898D02*
G03*
X46049Y9898I-100J0D01*
G01*
X24282Y90868D02*
G03*
X24282Y90868I-100J0D01*
G01*
X42639Y91211D02*
G03*
X42639Y91211I-100J0D01*
G01*
X15551Y9800D02*
G03*
X15551Y9800I-100J0D01*
G01*
X8510Y48795D02*
G03*
X8510Y48795I-100J0D01*
G01*
X8683Y29960D02*
G03*
X8683Y29960I-100J0D01*
G01*
X55788Y45595D02*
G03*
X55788Y45595I-100J0D01*
G01*
X55961Y26760D02*
G03*
X55961Y26760I-100J0D01*
G01*
X55788Y73070D02*
G03*
X55788Y73070I-100J0D01*
G01*
X8510Y76270D02*
G03*
X8510Y76270I-100J0D01*
G01*
X40213Y77522D02*
X42413D01*
X40213Y76922D02*
X42413D01*
X40213D02*
Y77522D01*
X42413Y76922D02*
Y77522D01*
X13331Y12350D02*
Y13900D01*
X12061D02*
X13331D01*
X12061Y12350D02*
X13331D01*
X38190D02*
Y13900D01*
Y12350D02*
X39460D01*
X38190Y13900D02*
X39460D01*
X32410Y12350D02*
Y13900D01*
X31140D02*
X32410D01*
X31140Y12350D02*
X32410D01*
Y50461D02*
Y52011D01*
X31140D02*
X32410D01*
X31140Y50461D02*
X32410D01*
X13865D02*
Y52011D01*
X12595D02*
X13865D01*
X12595Y50461D02*
X13865D01*
X38190Y31461D02*
Y33011D01*
Y31461D02*
X39460D01*
X38190Y33011D02*
X39460D01*
X32410Y31461D02*
Y33011D01*
X31140D02*
X32410D01*
X31140Y31461D02*
X32410D01*
X13612D02*
Y33011D01*
X12342D02*
X13612D01*
X12342Y31461D02*
X13612D01*
X38190Y50461D02*
Y52011D01*
Y50461D02*
X39460D01*
X38190Y52011D02*
X39460D01*
D13*
X42723Y81788D02*
Y80518D01*
X42469Y80264D01*
X41961D01*
X41707Y80518D01*
Y81788D01*
X40184Y80264D02*
X41199D01*
X40184Y81280D01*
Y81534D01*
X40438Y81788D01*
X40945D01*
X41199Y81534D01*
X47879Y81382D02*
Y82905D01*
X47117D01*
X46863Y82651D01*
Y82143D01*
X47117Y81889D01*
X47879D01*
X47371D02*
X46863Y81382D01*
X46355D02*
X45848D01*
X46102D01*
Y82905D01*
X46355Y82651D01*
X12708Y46744D02*
Y45220D01*
X11947D01*
X11693Y45474D01*
Y46490D01*
X11947Y46744D01*
X12708D01*
X11185Y45220D02*
X10677D01*
X10931D01*
Y46744D01*
X11185Y46490D01*
X9915Y45474D02*
X9661Y45220D01*
X9153D01*
X8900Y45474D01*
Y46490D01*
X9153Y46744D01*
X9661D01*
X9915Y46490D01*
Y46236D01*
X9661Y45982D01*
X8900D01*
X12658Y27227D02*
Y25704D01*
X11897D01*
X11643Y25958D01*
Y26973D01*
X11897Y27227D01*
X12658D01*
X11135Y25704D02*
X10627D01*
X10881D01*
Y27227D01*
X11135Y26973D01*
X8850Y27227D02*
X9865D01*
Y26465D01*
X9358Y26719D01*
X9104D01*
X8850Y26465D01*
Y25958D01*
X9104Y25704D01*
X9611D01*
X9865Y25958D01*
X24204Y7014D02*
Y5490D01*
X23442D01*
X23188Y5744D01*
Y6760D01*
X23442Y7014D01*
X24204D01*
X22680Y5490D02*
X22173D01*
X22427D01*
Y7014D01*
X22680Y6760D01*
X21411Y5490D02*
X20903D01*
X21157D01*
Y7014D01*
X21411Y6760D01*
X37508Y93446D02*
Y91922D01*
X36746D01*
X36492Y92176D01*
Y93192D01*
X36746Y93446D01*
X37508D01*
X34968D02*
X35476Y93192D01*
X35984Y92684D01*
Y92176D01*
X35730Y91922D01*
X35222D01*
X34968Y92176D01*
Y92430D01*
X35222Y92684D01*
X35984D01*
X18738Y93131D02*
Y91607D01*
X17976D01*
X17722Y91861D01*
Y92877D01*
X17976Y93131D01*
X18738D01*
X16453Y91607D02*
Y93131D01*
X17214Y92369D01*
X16199D01*
X8357Y79730D02*
Y78207D01*
X7595D01*
X7341Y78461D01*
Y79476D01*
X7595Y79730D01*
X8357D01*
X5817Y78207D02*
X6833D01*
X5817Y79222D01*
Y79476D01*
X6071Y79730D01*
X6579D01*
X6833Y79476D01*
X44211Y6611D02*
Y5087D01*
X43450D01*
X43196Y5341D01*
Y6357D01*
X43450Y6611D01*
X44211D01*
X42688D02*
X41672D01*
Y6357D01*
X42688Y5341D01*
Y5087D01*
X62840Y33426D02*
Y31902D01*
X62078D01*
X61824Y32156D01*
Y33172D01*
X62078Y33426D01*
X62840D01*
X60300D02*
X61316D01*
Y32664D01*
X60808Y32918D01*
X60554D01*
X60300Y32664D01*
Y32156D01*
X60554Y31902D01*
X61062D01*
X61316Y32156D01*
X62662Y52252D02*
Y50728D01*
X61900D01*
X61646Y50982D01*
Y51998D01*
X61900Y52252D01*
X62662D01*
X61138Y51998D02*
X60884Y52252D01*
X60377D01*
X60123Y51998D01*
Y51744D01*
X60377Y51490D01*
X60630D01*
X60377D01*
X60123Y51236D01*
Y50982D01*
X60377Y50728D01*
X60884D01*
X61138Y50982D01*
X62662Y79736D02*
Y78213D01*
X61900D01*
X61646Y78467D01*
Y79482D01*
X61900Y79736D01*
X62662D01*
X61138Y78213D02*
X60630D01*
X60884D01*
Y79736D01*
X61138Y79482D01*
X40716Y16306D02*
Y14783D01*
X39954D01*
X39701Y15037D01*
Y16052D01*
X39954Y16306D01*
X40716D01*
X39193Y14783D02*
X38685D01*
X38939D01*
Y16306D01*
X39193Y16052D01*
X37923D02*
X37669Y16306D01*
X37161D01*
X36907Y16052D01*
Y15798D01*
X37161Y15545D01*
X36907Y15291D01*
Y15037D01*
X37161Y14783D01*
X37669D01*
X37923Y15037D01*
Y15291D01*
X37669Y15545D01*
X37923Y15798D01*
Y16052D01*
X37669Y15545D02*
X37161D01*
X33680Y16306D02*
Y14783D01*
X32919D01*
X32665Y15037D01*
Y16052D01*
X32919Y16306D01*
X33680D01*
X32157Y14783D02*
X31649D01*
X31903D01*
Y16306D01*
X32157Y16052D01*
X30887Y16306D02*
X29872D01*
Y16052D01*
X30887Y15037D01*
Y14783D01*
X14580Y16306D02*
Y14783D01*
X13818D01*
X13564Y15037D01*
Y16052D01*
X13818Y16306D01*
X14580D01*
X13056Y14783D02*
X12548D01*
X12802D01*
Y16306D01*
X13056Y16052D01*
X10771Y16306D02*
X11279Y16052D01*
X11786Y15545D01*
Y15037D01*
X11533Y14783D01*
X11025D01*
X10771Y15037D01*
Y15291D01*
X11025Y15545D01*
X11786D01*
X40716Y35433D02*
Y33909D01*
X39954D01*
X39701Y34163D01*
Y35179D01*
X39954Y35433D01*
X40716D01*
X39193Y33909D02*
X38685D01*
X38939D01*
Y35433D01*
X39193Y35179D01*
X37161Y33909D02*
Y35433D01*
X37923Y34671D01*
X36907D01*
X33680Y35433D02*
Y33909D01*
X32919D01*
X32665Y34163D01*
Y35179D01*
X32919Y35433D01*
X33680D01*
X32157Y33909D02*
X31649D01*
X31903D01*
Y35433D01*
X32157Y35179D01*
X30887D02*
X30633Y35433D01*
X30126D01*
X29872Y35179D01*
Y34925D01*
X30126Y34671D01*
X30379D01*
X30126D01*
X29872Y34417D01*
Y34163D01*
X30126Y33909D01*
X30633D01*
X30887Y34163D01*
X14884Y35433D02*
Y33909D01*
X14123D01*
X13869Y34163D01*
Y35179D01*
X14123Y35433D01*
X14884D01*
X13361Y33909D02*
X12853D01*
X13107D01*
Y35433D01*
X13361Y35179D01*
X11076Y33909D02*
X12091D01*
X11076Y34925D01*
Y35179D01*
X11330Y35433D01*
X11837D01*
X12091Y35179D01*
X40716Y54432D02*
Y52908D01*
X39954D01*
X39701Y53162D01*
Y54178D01*
X39954Y54432D01*
X40716D01*
X39193Y52908D02*
X38685D01*
X38939D01*
Y54432D01*
X39193Y54178D01*
X37923D02*
X37669Y54432D01*
X37161D01*
X36907Y54178D01*
Y53162D01*
X37161Y52908D01*
X37669D01*
X37923Y53162D01*
Y54178D01*
X33680Y54432D02*
Y52908D01*
X32919D01*
X32665Y53162D01*
Y54178D01*
X32919Y54432D01*
X33680D01*
X32157Y53162D02*
X31903Y52908D01*
X31395D01*
X31141Y53162D01*
Y54178D01*
X31395Y54432D01*
X31903D01*
X32157Y54178D01*
Y53924D01*
X31903Y53670D01*
X31141D01*
X15138Y54432D02*
Y52908D01*
X14377D01*
X14123Y53162D01*
Y54178D01*
X14377Y54432D01*
X15138D01*
X13615Y54178D02*
X13361Y54432D01*
X12853D01*
X12599Y54178D01*
Y53924D01*
X12853Y53670D01*
X12599Y53416D01*
Y53162D01*
X12853Y52908D01*
X13361D01*
X13615Y53162D01*
Y53416D01*
X13361Y53670D01*
X13615Y53924D01*
Y54178D01*
X13361Y53670D02*
X12853D01*
D49*
X46763Y3648D02*
X48336D01*
X46763Y8648D02*
X48336D01*
X45049Y3648D02*
Y8648D01*
X50049Y3648D02*
Y8648D01*
X21795Y97118D02*
X23368D01*
X21795Y92118D02*
X23368D01*
X25082D02*
Y97118D01*
X20082Y92118D02*
Y97118D01*
X40152Y97461D02*
X41725D01*
X40152Y92461D02*
X41725D01*
X43439D02*
Y97461D01*
X38439Y92461D02*
Y97461D01*
X16265Y3550D02*
X17838D01*
X16265Y8550D02*
X17838D01*
X14551Y3550D02*
Y8550D01*
X19551Y3550D02*
Y8550D01*
X2160Y46409D02*
Y47982D01*
X7160Y46409D02*
Y47982D01*
X2160Y49695D02*
X7160D01*
X2160Y44695D02*
X7160D01*
X2333Y27574D02*
Y29147D01*
X7333Y27574D02*
Y29147D01*
X2333Y30860D02*
X7333D01*
X2333Y25860D02*
X7333D01*
X56938Y49695D02*
X61938D01*
X56938Y44695D02*
X61938D01*
X56938Y46409D02*
Y47982D01*
X61938Y46409D02*
Y47982D01*
X57111Y30860D02*
X62111D01*
X57111Y25860D02*
X62111D01*
X57111Y27574D02*
Y29147D01*
X62111Y27574D02*
Y29147D01*
X56938Y77170D02*
X61938D01*
X56938Y72170D02*
X61938D01*
X56938Y73884D02*
Y75457D01*
X61938Y73884D02*
Y75457D01*
X2160Y72170D02*
X7160D01*
X2160Y77170D02*
X7160D01*
Y73884D02*
Y75457D01*
X2160Y73884D02*
Y75457D01*
D50*
X46319Y79202D02*
X46919D01*
X46319Y80302D02*
X46919D01*
D51*
X13077Y13156D02*
D03*
X38444Y13093D02*
D03*
X32156Y13156D02*
D03*
Y51267D02*
D03*
X13611D02*
D03*
X38444Y32205D02*
D03*
X32156Y32268D02*
D03*
X13358Y32268D02*
D03*
X38444Y51204D02*
D03*
M02*
