G04*
G04 #@! TF.GenerationSoftware,Altium Limited,Altium Designer,25.2.1 (25)*
G04*
G04 Layer_Color=128*
%FSLAX43Y43*%
%MOMM*%
G71*
G04*
G04 #@! TF.SameCoordinates,C051C589-FC01-4A5A-9DFD-27A9FF034E64*
G04*
G04*
G04 #@! TF.FilePolarity,Positive*
G04*
G01*
G75*
%ADD49C,0.127*%
D49*
X10972Y82685D02*
X11684D01*
X11328Y82330D02*
Y83041D01*
X51476Y92670D02*
X52188D01*
X51832Y92315D02*
Y93026D01*
X38168Y74741D02*
X38880D01*
X38524Y74386D02*
Y75097D01*
X34322Y11772D02*
X35033D01*
X34677Y11417D02*
Y12128D01*
X35207Y30283D02*
X35918D01*
X35563Y29927D02*
Y30638D01*
X13061Y81605D02*
X13772D01*
X13417Y81250D02*
Y81961D01*
X25388Y69319D02*
X26099D01*
X25744Y68964D02*
Y69675D01*
X19477Y77246D02*
X20189D01*
X19833Y76891D02*
Y77602D01*
X25349Y66907D02*
X26060D01*
X25705Y66552D02*
Y67263D01*
X33480Y87521D02*
X34191D01*
X33835Y87166D02*
Y87877D01*
X33615Y90115D02*
X34326D01*
X33970Y89760D02*
Y90471D01*
X43301Y78382D02*
X44012D01*
X43657Y78026D02*
Y78737D01*
X19430Y79756D02*
X20142D01*
X19786Y79400D02*
Y80111D01*
X19540Y82418D02*
X20251D01*
X19895Y82063D02*
Y82774D01*
M02*
