%TF.GenerationSoftware,Altium Limited,Altium Designer,25.2.1 (25)*%
G04 Layer_Color=8421504*
%FSLAX45Y45*%
%MOMM*%
%TF.SameCoordinates,DBF3E2B7-33B5-4ACE-A245-667DA10812C1*%
%TF.FilePolarity,Positive*%
%TF.FileFunction,Paste,Top*%
%TF.Part,Single*%
G01*
G75*
%TA.AperFunction,SMDPad,CuDef*%
%ADD11O,5.08000X2.03200*%
%ADD12R,3.00000X1.20000*%
%ADD13R,1.20000X1.50000*%
D11*
X4750921Y9524578D02*
D03*
Y9266345D02*
D03*
Y9008112D02*
D03*
Y8749879D02*
D03*
Y8491646D02*
D03*
Y8233413D02*
D03*
Y7975179D02*
D03*
Y7716946D02*
D03*
Y7458713D02*
D03*
Y7200480D02*
D03*
Y6942247D02*
D03*
Y6684014D02*
D03*
X2972921Y9782812D02*
D03*
Y9524578D02*
D03*
Y9266345D02*
D03*
Y9008112D02*
D03*
Y8749879D02*
D03*
X2960221Y8500112D02*
D03*
X2972921Y8233413D02*
D03*
Y7975179D02*
D03*
Y7716946D02*
D03*
Y7458713D02*
D03*
Y7200480D02*
D03*
Y6942247D02*
D03*
Y6684014D02*
D03*
X4750921Y9782812D02*
D03*
D12*
X298933Y7922843D02*
D03*
Y8172843D02*
D03*
Y8422843D02*
D03*
Y8672843D02*
D03*
X848933Y7922843D02*
D03*
Y8172843D02*
D03*
Y8422843D02*
D03*
Y8672843D02*
D03*
D13*
X2451767Y8239448D02*
D03*
X2241767D02*
D03*
X2451768Y7720792D02*
D03*
X2241768D02*
D03*
X2451767Y7973554D02*
D03*
X2241767D02*
D03*
%TF.MD5,965f26f87d6cbecc5debe1e1b5e32e13*%
M02*
