%TF.GenerationSoftware,Altium Limited,Altium Designer,25.2.1 (25)*%
G04 Layer_Color=65535*
%FSLAX45Y45*%
%MOMM*%
%TF.SameCoordinates,DBF3E2B7-33B5-4ACE-A245-667DA10812C1*%
%TF.FilePolarity,Positive*%
%TF.FileFunction,Legend,Top*%
%TF.Part,Single*%
G01*
G75*
%TA.AperFunction,NonConductor*%
%ADD20C,0.25400*%
%ADD35C,0.25000*%
%ADD36C,0.15240*%
%ADD37C,0.20000*%
D20*
X5085243Y9741126D02*
Y9614167D01*
X5110635Y9588776D01*
X5161418D01*
X5186810Y9614167D01*
Y9741126D01*
X5237594Y9588776D02*
X5288377D01*
X5262986D01*
Y9741126D01*
X5237594Y9715734D01*
X809053Y9054918D02*
X758269D01*
X783661D01*
Y8927959D01*
X758269Y8902567D01*
X732878D01*
X707486Y8927959D01*
X859836Y8902567D02*
X910620D01*
X885228D01*
Y9054918D01*
X859836Y9029526D01*
X954430Y4977549D02*
X929038Y5002941D01*
X878255D01*
X852863Y4977549D01*
Y4952157D01*
X878255Y4926765D01*
X929038D01*
X954430Y4901373D01*
Y4875982D01*
X929038Y4850590D01*
X878255D01*
X852863Y4875982D01*
X1005213Y5002941D02*
Y4850590D01*
X1055997Y4901373D01*
X1106781Y4850590D01*
Y5002941D01*
X1157564Y4850590D02*
X1208348D01*
X1182956D01*
Y5002941D01*
X1157564Y4977549D01*
X894187Y1183821D02*
X868795Y1209213D01*
X818012D01*
X792620Y1183821D01*
Y1158429D01*
X818012Y1133037D01*
X868795D01*
X894187Y1107645D01*
Y1082254D01*
X868795Y1056862D01*
X818012D01*
X792620Y1082254D01*
X944971Y1209213D02*
Y1056862D01*
X995754Y1107645D01*
X1046538Y1056862D01*
Y1209213D01*
X1097321D02*
X1198889D01*
Y1183821D01*
X1097321Y1082254D01*
Y1056862D01*
X929038Y3075707D02*
X903646Y3101098D01*
X852862D01*
X827471Y3075707D01*
Y3050315D01*
X852862Y3024923D01*
X903646D01*
X929038Y2999531D01*
Y2974140D01*
X903646Y2948748D01*
X852862D01*
X827471Y2974140D01*
X979821Y3101098D02*
Y2948748D01*
X1030605Y2999531D01*
X1081388Y2948748D01*
Y3101098D01*
X1208347Y2948748D02*
Y3101098D01*
X1132172Y3024923D01*
X1233739D01*
X6030376Y8914261D02*
Y9066612D01*
X6106551D01*
X6131943Y9041220D01*
Y8990437D01*
X6106551Y8965045D01*
X6030376D01*
X6081159D02*
X6131943Y8914261D01*
X6182726Y9041220D02*
X6208118Y9066612D01*
X6258902D01*
X6284294Y9041220D01*
Y9015829D01*
X6258902Y8990437D01*
X6233510D01*
X6258902D01*
X6284294Y8965045D01*
Y8939653D01*
X6258902Y8914261D01*
X6208118D01*
X6182726Y8939653D01*
X2820923Y4967592D02*
X2795532Y4992984D01*
X2744748D01*
X2719356Y4967592D01*
Y4942200D01*
X2744748Y4916809D01*
X2795532D01*
X2820923Y4891417D01*
Y4866025D01*
X2795532Y4840633D01*
X2744748D01*
X2719356Y4866025D01*
X2871707Y4992984D02*
Y4840633D01*
X2922490Y4891417D01*
X2973274Y4840633D01*
Y4992984D01*
X3125625Y4840633D02*
X3024058D01*
X3125625Y4942200D01*
Y4967592D01*
X3100233Y4992984D01*
X3049450D01*
X3024058Y4967592D01*
X2815945Y3090643D02*
X2790553Y3116034D01*
X2739769D01*
X2714378Y3090643D01*
Y3065251D01*
X2739769Y3039859D01*
X2790553D01*
X2815945Y3014467D01*
Y2989076D01*
X2790553Y2963684D01*
X2739769D01*
X2714378Y2989076D01*
X2866728Y3116034D02*
Y2963684D01*
X2917512Y3014467D01*
X2968296Y2963684D01*
Y3116034D01*
X3120646D02*
X3019079D01*
Y3039859D01*
X3069863Y3065251D01*
X3095254D01*
X3120646Y3039859D01*
Y2989076D01*
X3095254Y2963684D01*
X3044471D01*
X3019079Y2989076D01*
X4792467Y3085664D02*
X4767075Y3111056D01*
X4716292D01*
X4690900Y3085664D01*
Y3060272D01*
X4716292Y3034880D01*
X4767075D01*
X4792467Y3009489D01*
Y2984097D01*
X4767075Y2958705D01*
X4716292D01*
X4690900Y2984097D01*
X4843250Y3111056D02*
Y2958705D01*
X4894034Y3009489D01*
X4944818Y2958705D01*
Y3111056D01*
X5097168D02*
X5046385Y3085664D01*
X4995601Y3034880D01*
Y2984097D01*
X5020993Y2958705D01*
X5071776D01*
X5097168Y2984097D01*
Y3009489D01*
X5071776Y3034880D01*
X4995601D01*
X4777814Y1214079D02*
X4752422Y1239471D01*
X4701639D01*
X4676247Y1214079D01*
Y1188687D01*
X4701639Y1163295D01*
X4752422D01*
X4777814Y1137903D01*
Y1112512D01*
X4752422Y1087120D01*
X4701639D01*
X4676247Y1112512D01*
X4828598Y1239471D02*
Y1087120D01*
X4879381Y1137903D01*
X4930165Y1087120D01*
Y1239471D01*
X4980948Y1112512D02*
X5006340Y1087120D01*
X5057124D01*
X5082516Y1112512D01*
Y1214079D01*
X5057124Y1239471D01*
X5006340D01*
X4980948Y1214079D01*
Y1188687D01*
X5006340Y1163295D01*
X5082516D01*
X2820923Y1178842D02*
X2795532Y1204234D01*
X2744748D01*
X2719356Y1178842D01*
Y1153450D01*
X2744748Y1128058D01*
X2795532D01*
X2820923Y1102667D01*
Y1077275D01*
X2795532Y1051883D01*
X2744748D01*
X2719356Y1077275D01*
X2871707Y1204234D02*
Y1051883D01*
X2922490Y1102667D01*
X2973274Y1051883D01*
Y1204234D01*
X3024058Y1178842D02*
X3049450Y1204234D01*
X3100233D01*
X3125625Y1178842D01*
Y1153450D01*
X3100233Y1128058D01*
X3125625Y1102667D01*
Y1077275D01*
X3100233Y1051883D01*
X3049450D01*
X3024058Y1077275D01*
Y1102667D01*
X3049450Y1128058D01*
X3024058Y1153450D01*
Y1178842D01*
X3049450Y1128058D02*
X3100233D01*
X4722768Y4977550D02*
X4697376Y5002942D01*
X4646592D01*
X4621201Y4977550D01*
Y4952159D01*
X4646592Y4926767D01*
X4697376D01*
X4722768Y4901375D01*
Y4875983D01*
X4697376Y4850592D01*
X4646592D01*
X4621201Y4875983D01*
X4773551Y5002942D02*
Y4850592D01*
X4824335Y4901375D01*
X4875119Y4850592D01*
Y5002942D01*
X4925902Y4977550D02*
X4951294Y5002942D01*
X5002077D01*
X5027469Y4977550D01*
Y4952159D01*
X5002077Y4926767D01*
X4976685D01*
X5002077D01*
X5027469Y4901375D01*
Y4875983D01*
X5002077Y4850592D01*
X4951294D01*
X4925902Y4875983D01*
X1622197Y8175293D02*
Y8327644D01*
X1698372D01*
X1723764Y8302252D01*
Y8251468D01*
X1698372Y8226077D01*
X1622197D01*
X1672980D02*
X1723764Y8175293D01*
X1876115D02*
X1774547D01*
X1876115Y8276860D01*
Y8302252D01*
X1850723Y8327644D01*
X1799939D01*
X1774547Y8302252D01*
X1602693Y7648682D02*
Y7801033D01*
X1678868D01*
X1704260Y7775641D01*
Y7724857D01*
X1678868Y7699465D01*
X1602693D01*
X1653476D02*
X1704260Y7648682D01*
X1856611Y7801033D02*
X1755043D01*
Y7724857D01*
X1805827Y7750249D01*
X1831219D01*
X1856611Y7724857D01*
Y7674074D01*
X1831219Y7648682D01*
X1780435D01*
X1755043Y7674074D01*
X1612445Y7899797D02*
Y8052148D01*
X1688620D01*
X1714012Y8026756D01*
Y7975972D01*
X1688620Y7950580D01*
X1612445D01*
X1663228D02*
X1714012Y7899797D01*
X1840971D02*
Y8052148D01*
X1764796Y7975972D01*
X1866363D01*
D35*
X735506Y6324563D02*
G03*
X735506Y6324563I-12500J0D01*
G01*
X682072Y2513472D02*
G03*
X682072Y2513472I-12500J0D01*
G01*
X710240Y4424605D02*
G03*
X710240Y4424605I-12500J0D01*
G01*
X2589987Y6324563D02*
G03*
X2589987Y6324563I-12500J0D01*
G01*
Y4424605D02*
G03*
X2589987Y4424605I-12500J0D01*
G01*
X4494999D02*
G03*
X4494999Y4424605I-12500J0D01*
G01*
Y2513472D02*
G03*
X4494999Y2513472I-12500J0D01*
G01*
X2589987D02*
G03*
X2589987Y2513472I-12500J0D01*
G01*
X4494999Y6324563D02*
G03*
X4494999Y6324563I-12500J0D01*
G01*
D36*
X5647428Y8909743D02*
G03*
X5647428Y8909743I-12700J0D01*
G01*
X6270998Y8300918D02*
Y8795443D01*
X5346438Y1277043D02*
Y1657268D01*
Y1912818D02*
Y8159668D01*
X6084137Y1277043D02*
X6270998D01*
X5736157D02*
X5881280D01*
X5346438Y8795443D02*
X5499854D01*
X5346438Y8415218D02*
Y8795443D01*
X5769602D02*
X6270998D01*
Y1277043D02*
Y1771568D01*
X5346438Y1277043D02*
X5533300D01*
X6270998Y2027118D02*
Y8045368D01*
D37*
X123006Y5862563D02*
Y6075863D01*
X316506Y6263563D02*
X588006D01*
X123006Y5123563D02*
Y5724563D01*
Y5123563D02*
X1323006D01*
X858006Y6263463D02*
X1129506Y6263563D01*
X1323006Y5123563D02*
Y5724563D01*
Y5862563D02*
X1323036Y6075833D01*
X69572Y2051472D02*
Y2264772D01*
X263072Y2452472D02*
X534572D01*
X69572Y1312472D02*
Y1913472D01*
Y1312472D02*
X1269572D01*
X804572Y2452372D02*
X1076072Y2452472D01*
X1269572Y1312472D02*
Y1913472D01*
Y2051472D02*
X1269602Y2264742D01*
X97740Y3962605D02*
Y4175905D01*
X291240Y4363605D02*
X562740D01*
X97740Y3223605D02*
Y3824605D01*
Y3223605D02*
X1297740D01*
X832740Y4363505D02*
X1104240Y4363605D01*
X1297740Y3223605D02*
Y3824605D01*
Y3962605D02*
X1297770Y4175875D01*
X1977487Y5862563D02*
Y6075863D01*
X2170987Y6263563D02*
X2442487D01*
X1977487Y5123563D02*
Y5724563D01*
Y5123563D02*
X3177487D01*
X2712487Y6263463D02*
X2983987Y6263563D01*
X3177487Y5123563D02*
Y5724563D01*
Y5862563D02*
X3177517Y6075833D01*
X1977487Y3962605D02*
Y4175905D01*
X2170987Y4363605D02*
X2442487D01*
X1977487Y3223605D02*
Y3824605D01*
Y3223605D02*
X3177487D01*
X2712487Y4363505D02*
X2983987Y4363605D01*
X3177487Y3223605D02*
Y3824605D01*
Y3962605D02*
X3177517Y4175875D01*
X3882498Y3962605D02*
Y4175905D01*
X4075998Y4363605D02*
X4347499D01*
X3882498Y3223605D02*
Y3824605D01*
Y3223605D02*
X5082499D01*
X4617499Y4363505D02*
X4888999Y4363605D01*
X5082499Y3223605D02*
Y3824605D01*
Y3962605D02*
X5082529Y4175875D01*
X3882498Y2051472D02*
Y2264772D01*
X4075998Y2452472D02*
X4347499D01*
X3882498Y1312472D02*
Y1913472D01*
Y1312472D02*
X5082499D01*
X4617499Y2452372D02*
X4888999Y2452472D01*
X5082499Y1312472D02*
Y1913472D01*
Y2051472D02*
X5082529Y2264742D01*
X1977487Y2051472D02*
Y2264772D01*
X2170987Y2452472D02*
X2442487D01*
X1977487Y1312472D02*
Y1913472D01*
Y1312472D02*
X3177487D01*
X2712487Y2452372D02*
X2983987Y2452472D01*
X3177487Y1312472D02*
Y1913472D01*
Y2051472D02*
X3177517Y2264742D01*
X3882498Y5862563D02*
Y6075863D01*
X4075998Y6263563D02*
X4347499D01*
X3882498Y5123563D02*
Y5724563D01*
Y5123563D02*
X5082499D01*
X4617499Y6263463D02*
X4888999Y6263563D01*
X5082499Y5123563D02*
Y5724563D01*
Y5862563D02*
X5082529Y6075833D01*
X2341767Y8174448D02*
X2351767D01*
X2341767Y8304448D02*
X2351767D01*
X2341768Y7655792D02*
X2351768D01*
X2341768Y7785792D02*
X2351768D01*
X2341767Y7908554D02*
X2351767D01*
X2341767Y8038554D02*
X2351767D01*
%TF.MD5,051df67f6fdc292ceeceb63f8e5afcf0*%
M02*
