M48
;Layer_Color=9474304
;FILE_FORMAT=4:2
METRIC,LZ
T07F00S00C5.08
%
G90
G05
T07
G00X006551Y-000249
M15
G01X006599Y-000234
G01X006644Y-00021
G01X006682Y-000177
G01X006714Y-000137
G01X006737Y-000092
G01X00675Y-000043
G01X006754Y0
G01X006754Y01
G01X006749Y01005
G01X006734Y010099
G01X00671Y010143
G01X006677Y010182
G01X006637Y010214
G01X006592Y010237
G01X006543Y01025
G01X0065Y010254
G01X0Y010254
G01X-00005Y010249
G01X-000099Y010234
G01X-000143Y01021
G01X-000182Y010177
G01X-000214Y010137
G01X-000237Y010092
G01X-00025Y010043
G01X-000254Y01
G01X-000254Y0
G01X-000249Y-00005
G01X-000234Y-000099
G01X-00021Y-000143
G01X-000177Y-000182
G01X-000137Y-000214
G01X-000092Y-000237
G01X-000043Y-00025
G01X0Y-000254
G01X0065Y-000254
G01X006551Y-000249
M16
M17
M30
