M48
;Layer_Color=9474304
;FILE_FORMAT=4:3
METRIC,LZ
;TYPE=PLATED
T01F00S00C0.711
T02F00S00C1.400
T03F00S00C1.500
T04F00S00C1.524
;TYPE=NON_PLATED
T05F00S00C1.550
T06F00S00C2.600
%
T01
X0015606Y0006155
X0019801Y000605
X0034483Y0011578
X0035563Y0030283
X0004833Y003086
X0003948Y0025064
X0059357Y002561
Y003111
X0050299Y0006148
X0044799
X0059357Y0044445
Y0049945
Y007217
Y007742
X0043657Y0078382
X0043596Y0073754
X0041361Y007226
X0038524Y0074741
X0025744Y0069319
X0025738Y0066874
X0019833Y0077246
X000466Y007717
Y007192
Y0049945
Y0044445
X0036812Y0048456
X0033835Y0087521
X003397Y0090115
X0036965Y009517
X0025082Y0094618
X0019832
X0019895Y0082418
X0019786Y0079756
X0013437Y0081605
X0011328Y0081284
X0050832Y0086432
X0051832Y009267
X0051812Y0095307
X0043689Y0094961
T02
X0001616Y0023635
X0006696
X0011776
X0020695
X0025775
X0030855
X0039745
X0044825
X0049905
Y0042746
X0044825
X0039745
Y0061746
X0044825
X0049905
X0030855
X0025775
X0020695
X001231
X000723
X000215
X0001897Y0042746
X0006977
X0012057
X0020695
X0025775
X0030855
T03
X0006696Y0014745
X0025775
Y0033856
X0006977
X0044825
Y0014745
Y0052856
X0025775
X000723
T04
X0056347Y0013659
X0059827
X0062278Y0018993
X0053896Y001785
Y0082874
X0056347Y0087065
X0062278Y0081731
T05
X0001616Y0019825
X0011776
X0020695
X0030855
Y0038936
X0020695
X0012057
X0001897
X0039745
X0049905
Y0019825
X0039745
Y0057936
X0049905
X0030855
X0020695
X001231
X000215
T06
X0006696Y0019825
X0025775
Y0038936
X0006977
X0044825
Y0019825
Y0057936
X0025775
X000723
M30
