M48
;Layer_Color=9474304
;FILE_FORMAT=4:3
METRIC,LZ
;TYPE=NON_PLATED
T05F00S00C1.550
T06F00S00C2.600
%
T05
X0001616Y0019825
X0011776
X0020695
X0030855
Y0038936
X0020695
X0012057
X0001897
X0039745
X0049905
Y0019825
X0039745
Y0057936
X0049905
X0030855
X0020695
X001231
X000215
T06
X0006696Y0019825
X0025775
Y0038936
X0006977
X0044825
Y0019825
Y0057936
X0025775
X000723
M30
