G04*
G04 #@! TF.GenerationSoftware,Altium Limited,Altium Designer,25.2.1 (25)*
G04*
G04 Layer_Color=2752767*
%FSLAX43Y43*%
%MOMM*%
G71*
G04*
G04 #@! TF.SameCoordinates,C051C589-FC01-4A5A-9DFD-27A9FF034E64*
G04*
G04*
G04 #@! TF.FilePolarity,Positive*
G04*
G01*
G75*
%ADD49C,0.127*%
%ADD56C,0.169*%
D49*
X2150Y57428D02*
X1642Y58444D01*
X2658D01*
X2150Y57428D01*
Y61238D02*
X2404Y61492D01*
X2658D01*
X2404Y61746D01*
X2658Y62000D01*
X2404D01*
X2150Y62254D01*
X1896Y62000D01*
X1642D01*
X1896Y61746D01*
X1642Y61492D01*
X1896D01*
X2150Y61238D01*
X7230D02*
X7484Y61492D01*
X7738D01*
X7484Y61746D01*
X7738Y62000D01*
X7484D01*
X7230Y62254D01*
X6976Y62000D01*
X6722D01*
X6976Y61746D01*
X6722Y61492D01*
X6976D01*
X7230Y61238D01*
X12310D02*
X12564Y61492D01*
X12818D01*
X12564Y61746D01*
X12818Y62000D01*
X12564D01*
X12310Y62254D01*
X12056Y62000D01*
X11802D01*
X12056Y61746D01*
X11802Y61492D01*
X12056D01*
X12310Y61238D01*
Y57428D02*
X11802Y58444D01*
X12818D01*
X12310Y57428D01*
X6722D02*
Y58444D01*
X7738D01*
Y57428D01*
X6722D01*
X1616Y19317D02*
X1108Y20333D01*
X2124D01*
X1616Y19317D01*
Y23127D02*
X1870Y23381D01*
X2124D01*
X1870Y23635D01*
X2124Y23889D01*
X1870D01*
X1616Y24143D01*
X1362Y23889D01*
X1108D01*
X1362Y23635D01*
X1108Y23381D01*
X1362D01*
X1616Y23127D01*
X6696D02*
X6950Y23381D01*
X7204D01*
X6950Y23635D01*
X7204Y23889D01*
X6950D01*
X6696Y24143D01*
X6442Y23889D01*
X6188D01*
X6442Y23635D01*
X6188Y23381D01*
X6442D01*
X6696Y23127D01*
X11776D02*
X12030Y23381D01*
X12284D01*
X12030Y23635D01*
X12284Y23889D01*
X12030D01*
X11776Y24143D01*
X11522Y23889D01*
X11268D01*
X11522Y23635D01*
X11268Y23381D01*
X11522D01*
X11776Y23127D01*
Y19317D02*
X11268Y20333D01*
X12284D01*
X11776Y19317D01*
X6188D02*
Y20333D01*
X7204D01*
Y19317D01*
X6188D01*
X1897Y38428D02*
X1389Y39444D01*
X2405D01*
X1897Y38428D01*
Y42238D02*
X2151Y42492D01*
X2405D01*
X2151Y42746D01*
X2405Y43000D01*
X2151D01*
X1897Y43254D01*
X1643Y43000D01*
X1389D01*
X1643Y42746D01*
X1389Y42492D01*
X1643D01*
X1897Y42238D01*
X6977D02*
X7231Y42492D01*
X7485D01*
X7231Y42746D01*
X7485Y43000D01*
X7231D01*
X6977Y43254D01*
X6723Y43000D01*
X6469D01*
X6723Y42746D01*
X6469Y42492D01*
X6723D01*
X6977Y42238D01*
X12057D02*
X12311Y42492D01*
X12565D01*
X12311Y42746D01*
X12565Y43000D01*
X12311D01*
X12057Y43254D01*
X11803Y43000D01*
X11549D01*
X11803Y42746D01*
X11549Y42492D01*
X11803D01*
X12057Y42238D01*
Y38428D02*
X11549Y39444D01*
X12565D01*
X12057Y38428D01*
X6469D02*
Y39444D01*
X7485D01*
Y38428D01*
X6469D01*
X61770Y18485D02*
X62024Y18993D01*
X61770Y19501D01*
X62278Y19247D01*
X62786Y19501D01*
X62532Y18993D01*
X62786Y18485D01*
X62278Y18739D01*
X61770Y18485D01*
Y81223D02*
X62024Y81731D01*
X61770Y82239D01*
X62278Y81985D01*
X62786Y82239D01*
X62532Y81731D01*
X62786Y81223D01*
X62278Y81477D01*
X61770Y81223D01*
X53388Y17342D02*
X53642Y17850D01*
X53388Y18358D01*
X53896Y18104D01*
X54404Y18358D01*
X54150Y17850D01*
X54404Y17342D01*
X53896Y17596D01*
X53388Y17342D01*
Y82366D02*
X53642Y82874D01*
X53388Y83382D01*
X53896Y83128D01*
X54404Y83382D01*
X54150Y82874D01*
X54404Y82366D01*
X53896Y82620D01*
X53388Y82366D01*
X59319Y13151D02*
X59573Y13659D01*
X59319Y14167D01*
X59827Y13913D01*
X60335Y14167D01*
X60081Y13659D01*
X60335Y13151D01*
X59827Y13405D01*
X59319Y13151D01*
X55839D02*
X56093Y13659D01*
X55839Y14167D01*
X56347Y13913D01*
X56855Y14167D01*
X56601Y13659D01*
X56855Y13151D01*
X56347Y13405D01*
X55839Y13151D01*
Y86557D02*
X56093Y87065D01*
X55839Y87573D01*
X56347Y87319D01*
X56855Y87573D01*
X56601Y87065D01*
X56855Y86557D01*
X56347Y86811D01*
X55839Y86557D01*
X20695Y57428D02*
X20187Y58444D01*
X21203D01*
X20695Y57428D01*
Y61238D02*
X20949Y61492D01*
X21203D01*
X20949Y61746D01*
X21203Y62000D01*
X20949D01*
X20695Y62254D01*
X20441Y62000D01*
X20187D01*
X20441Y61746D01*
X20187Y61492D01*
X20441D01*
X20695Y61238D01*
X25775D02*
X26029Y61492D01*
X26283D01*
X26029Y61746D01*
X26283Y62000D01*
X26029D01*
X25775Y62254D01*
X25521Y62000D01*
X25267D01*
X25521Y61746D01*
X25267Y61492D01*
X25521D01*
X25775Y61238D01*
X30855D02*
X31109Y61492D01*
X31363D01*
X31109Y61746D01*
X31363Y62000D01*
X31109D01*
X30855Y62254D01*
X30601Y62000D01*
X30347D01*
X30601Y61746D01*
X30347Y61492D01*
X30601D01*
X30855Y61238D01*
Y57428D02*
X30347Y58444D01*
X31363D01*
X30855Y57428D01*
X25267D02*
Y58444D01*
X26283D01*
Y57428D01*
X25267D01*
X20695Y38428D02*
X20187Y39444D01*
X21203D01*
X20695Y38428D01*
Y42238D02*
X20949Y42492D01*
X21203D01*
X20949Y42746D01*
X21203Y43000D01*
X20949D01*
X20695Y43254D01*
X20441Y43000D01*
X20187D01*
X20441Y42746D01*
X20187Y42492D01*
X20441D01*
X20695Y42238D01*
X25775D02*
X26029Y42492D01*
X26283D01*
X26029Y42746D01*
X26283Y43000D01*
X26029D01*
X25775Y43254D01*
X25521Y43000D01*
X25267D01*
X25521Y42746D01*
X25267Y42492D01*
X25521D01*
X25775Y42238D01*
X30855D02*
X31109Y42492D01*
X31363D01*
X31109Y42746D01*
X31363Y43000D01*
X31109D01*
X30855Y43254D01*
X30601Y43000D01*
X30347D01*
X30601Y42746D01*
X30347Y42492D01*
X30601D01*
X30855Y42238D01*
Y38428D02*
X30347Y39444D01*
X31363D01*
X30855Y38428D01*
X25267D02*
Y39444D01*
X26283D01*
Y38428D01*
X25267D01*
X39745D02*
X39237Y39444D01*
X40253D01*
X39745Y38428D01*
Y42238D02*
X39999Y42492D01*
X40253D01*
X39999Y42746D01*
X40253Y43000D01*
X39999D01*
X39745Y43254D01*
X39491Y43000D01*
X39237D01*
X39491Y42746D01*
X39237Y42492D01*
X39491D01*
X39745Y42238D01*
X44825D02*
X45079Y42492D01*
X45333D01*
X45079Y42746D01*
X45333Y43000D01*
X45079D01*
X44825Y43254D01*
X44571Y43000D01*
X44317D01*
X44571Y42746D01*
X44317Y42492D01*
X44571D01*
X44825Y42238D01*
X49905D02*
X50159Y42492D01*
X50413D01*
X50159Y42746D01*
X50413Y43000D01*
X50159D01*
X49905Y43254D01*
X49651Y43000D01*
X49397D01*
X49651Y42746D01*
X49397Y42492D01*
X49651D01*
X49905Y42238D01*
Y38428D02*
X49397Y39444D01*
X50413D01*
X49905Y38428D01*
X44317D02*
Y39444D01*
X45333D01*
Y38428D01*
X44317D01*
X39745Y19317D02*
X39237Y20333D01*
X40253D01*
X39745Y19317D01*
Y23127D02*
X39999Y23381D01*
X40253D01*
X39999Y23635D01*
X40253Y23889D01*
X39999D01*
X39745Y24143D01*
X39491Y23889D01*
X39237D01*
X39491Y23635D01*
X39237Y23381D01*
X39491D01*
X39745Y23127D01*
X44825D02*
X45079Y23381D01*
X45333D01*
X45079Y23635D01*
X45333Y23889D01*
X45079D01*
X44825Y24143D01*
X44571Y23889D01*
X44317D01*
X44571Y23635D01*
X44317Y23381D01*
X44571D01*
X44825Y23127D01*
X49905D02*
X50159Y23381D01*
X50413D01*
X50159Y23635D01*
X50413Y23889D01*
X50159D01*
X49905Y24143D01*
X49651Y23889D01*
X49397D01*
X49651Y23635D01*
X49397Y23381D01*
X49651D01*
X49905Y23127D01*
Y19317D02*
X49397Y20333D01*
X50413D01*
X49905Y19317D01*
X44317D02*
Y20333D01*
X45333D01*
Y19317D01*
X44317D01*
X20695D02*
X20187Y20333D01*
X21203D01*
X20695Y19317D01*
Y23127D02*
X20949Y23381D01*
X21203D01*
X20949Y23635D01*
X21203Y23889D01*
X20949D01*
X20695Y24143D01*
X20441Y23889D01*
X20187D01*
X20441Y23635D01*
X20187Y23381D01*
X20441D01*
X20695Y23127D01*
X25775D02*
X26029Y23381D01*
X26283D01*
X26029Y23635D01*
X26283Y23889D01*
X26029D01*
X25775Y24143D01*
X25521Y23889D01*
X25267D01*
X25521Y23635D01*
X25267Y23381D01*
X25521D01*
X25775Y23127D01*
X30855D02*
X31109Y23381D01*
X31363D01*
X31109Y23635D01*
X31363Y23889D01*
X31109D01*
X30855Y24143D01*
X30601Y23889D01*
X30347D01*
X30601Y23635D01*
X30347Y23381D01*
X30601D01*
X30855Y23127D01*
Y19317D02*
X30347Y20333D01*
X31363D01*
X30855Y19317D01*
X25267D02*
Y20333D01*
X26283D01*
Y19317D01*
X25267D01*
X39745Y57428D02*
X39237Y58444D01*
X40253D01*
X39745Y57428D01*
Y61238D02*
X39999Y61492D01*
X40253D01*
X39999Y61746D01*
X40253Y62000D01*
X39999D01*
X39745Y62254D01*
X39491Y62000D01*
X39237D01*
X39491Y61746D01*
X39237Y61492D01*
X39491D01*
X39745Y61238D01*
X44825D02*
X45079Y61492D01*
X45333D01*
X45079Y61746D01*
X45333Y62000D01*
X45079D01*
X44825Y62254D01*
X44571Y62000D01*
X44317D01*
X44571Y61746D01*
X44317Y61492D01*
X44571D01*
X44825Y61238D01*
X49905D02*
X50159Y61492D01*
X50413D01*
X50159Y61746D01*
X50413Y62000D01*
X50159D01*
X49905Y62254D01*
X49651Y62000D01*
X49397D01*
X49651Y61746D01*
X49397Y61492D01*
X49651D01*
X49905Y61238D01*
Y57428D02*
X49397Y58444D01*
X50413D01*
X49905Y57428D01*
X44317D02*
Y58444D01*
X45333D01*
Y57428D01*
X44317D01*
X38270Y74487D02*
Y74233D01*
X38778D01*
Y74487D01*
X39032D01*
Y74995D01*
X38778D01*
Y75249D01*
X38270D01*
Y74995D01*
X38016D01*
Y74487D01*
X38270D01*
X36558Y48202D02*
Y47948D01*
X37066D01*
Y48202D01*
X37320D01*
Y48710D01*
X37066D01*
Y48964D01*
X36558D01*
Y48710D01*
X36304D01*
Y48202D01*
X36558D01*
X4406Y76916D02*
Y76662D01*
X4914D01*
Y76916D01*
X5168D01*
Y77424D01*
X4914D01*
Y77678D01*
X4406D01*
Y77424D01*
X4152D01*
Y76916D01*
X4406D01*
Y71666D02*
Y71412D01*
X4914D01*
Y71666D01*
X5168D01*
Y72174D01*
X4914D01*
Y72428D01*
X4406D01*
Y72174D01*
X4152D01*
Y71666D01*
X4406D01*
X50045Y5894D02*
Y5640D01*
X50553D01*
Y5894D01*
X50807D01*
Y6402D01*
X50553D01*
Y6656D01*
X50045D01*
Y6402D01*
X49791D01*
Y5894D01*
X50045D01*
D56*
X7738Y52856D02*
G03*
X7738Y52856I-508J0D01*
G01*
X7204Y14745D02*
G03*
X7204Y14745I-508J0D01*
G01*
X7485Y33856D02*
G03*
X7485Y33856I-508J0D01*
G01*
X26283Y52856D02*
G03*
X26283Y52856I-508J0D01*
G01*
Y33856D02*
G03*
X26283Y33856I-508J0D01*
G01*
X45333D02*
G03*
X45333Y33856I-508J0D01*
G01*
Y14745D02*
G03*
X45333Y14745I-508J0D01*
G01*
X26283D02*
G03*
X26283Y14745I-508J0D01*
G01*
X45333Y52856D02*
G03*
X45333Y52856I-508J0D01*
G01*
M02*
