G04*
G04 #@! TF.GenerationSoftware,Altium Limited,Altium Designer,25.2.1 (25)*
G04*
G04 Layer_Color=16711935*
%FSLAX43Y43*%
%MOMM*%
G71*
G04*
G04 #@! TF.SameCoordinates,37798F80-2AC8-4B0B-9607-FE0DC02C65D2*
G04*
G04*
G04 #@! TF.FilePolarity,Negative*
G04*
G01*
G75*
%ADD20C,2.103*%
%ADD21R,2.103X2.103*%
%ADD22C,2.203*%
%ADD23C,2.032*%
%ADD24R,2.032X2.032*%
%ADD25C,1.473*%
%ADD44R,1.203X1.703*%
G04:AMPARAMS|DCode=45|XSize=0.653mm|YSize=1.253mm|CornerRadius=0.151mm|HoleSize=0mm|Usage=FLASHONLY|Rotation=0.000|XOffset=0mm|YOffset=0mm|HoleType=Round|Shape=RoundedRectangle|*
%AMROUNDEDRECTD45*
21,1,0.653,0.951,0,0,0.0*
21,1,0.351,1.253,0,0,0.0*
1,1,0.302,0.176,-0.476*
1,1,0.302,-0.176,-0.476*
1,1,0.302,-0.176,0.476*
1,1,0.302,0.176,0.476*
%
%ADD45ROUNDEDRECTD45*%
%ADD46R,1.703X1.203*%
G04:AMPARAMS|DCode=47|XSize=1.503mm|YSize=0.963mm|CornerRadius=0.197mm|HoleSize=0mm|Usage=FLASHONLY|Rotation=270.000|XOffset=0mm|YOffset=0mm|HoleType=Round|Shape=RoundedRectangle|*
%AMROUNDEDRECTD47*
21,1,1.503,0.570,0,0,270.0*
21,1,1.110,0.963,0,0,270.0*
1,1,0.393,-0.285,-0.555*
1,1,0.393,-0.285,0.555*
1,1,0.393,0.285,0.555*
1,1,0.393,0.285,-0.555*
%
%ADD47ROUNDEDRECTD47*%
%ADD48R,1.103X1.153*%
D20*
X2150Y61746D02*
D03*
X12310D02*
D03*
X1616Y23635D02*
D03*
X11776D02*
D03*
X1897Y42746D02*
D03*
X12057D02*
D03*
X20695Y61746D02*
D03*
X30855D02*
D03*
X20695Y42746D02*
D03*
X30855D02*
D03*
X39745D02*
D03*
X49905D02*
D03*
X39745Y23635D02*
D03*
X49905D02*
D03*
X20695D02*
D03*
X30855D02*
D03*
X39745Y61746D02*
D03*
X49905D02*
D03*
D21*
X7230D02*
D03*
X6696Y23635D02*
D03*
X6977Y42746D02*
D03*
X25775Y61746D02*
D03*
Y42746D02*
D03*
X44825D02*
D03*
Y23635D02*
D03*
X25775D02*
D03*
X44825Y61746D02*
D03*
D22*
X7230Y52856D02*
D03*
X6696Y14745D02*
D03*
X6977Y33856D02*
D03*
X25775Y52856D02*
D03*
Y33856D02*
D03*
X44825D02*
D03*
Y14745D02*
D03*
X25775D02*
D03*
X44825Y52856D02*
D03*
D23*
X62278Y18993D02*
D03*
Y81731D02*
D03*
X53896Y17850D02*
D03*
Y82874D02*
D03*
X59827Y13659D02*
D03*
X56347D02*
D03*
D24*
Y87065D02*
D03*
D25*
X13437Y81605D02*
D03*
X25738Y66874D02*
D03*
X25744Y69319D02*
D03*
X43657Y78382D02*
D03*
X34483Y11578D02*
D03*
X59357Y25610D02*
D03*
X35563Y30283D02*
D03*
X19895Y82418D02*
D03*
X19833Y77246D02*
D03*
X19786Y79756D02*
D03*
X11328Y81284D02*
D03*
D03*
X50832Y86432D02*
D03*
X51832Y92670D02*
D03*
X51812Y95307D02*
D03*
X43596Y73754D02*
D03*
X38524Y74741D02*
D03*
D03*
X36812Y48456D02*
D03*
X41361Y72260D02*
D03*
X4660Y77170D02*
D03*
X33835Y87521D02*
D03*
X33970Y90115D02*
D03*
X59357Y77420D02*
D03*
X4660Y49945D02*
D03*
X4833Y30860D02*
D03*
X15606Y6155D02*
D03*
X44799Y6148D02*
D03*
X59357Y44445D02*
D03*
Y72170D02*
D03*
X25082Y94618D02*
D03*
X43689Y94961D02*
D03*
X4660Y71920D02*
D03*
Y44445D02*
D03*
X3948Y25064D02*
D03*
X19801Y6050D02*
D03*
X36965Y95170D02*
D03*
X19832Y94618D02*
D03*
X50299Y6148D02*
D03*
X59357Y31110D02*
D03*
Y49945D02*
D03*
D44*
X49149Y3698D02*
D03*
Y8598D02*
D03*
X45949Y3698D02*
D03*
Y8598D02*
D03*
X20982Y97068D02*
D03*
Y92168D02*
D03*
X24182Y97068D02*
D03*
Y92168D02*
D03*
X39339Y97411D02*
D03*
Y92511D02*
D03*
X42539Y97411D02*
D03*
Y92511D02*
D03*
X18651Y3600D02*
D03*
Y8500D02*
D03*
X15451Y3600D02*
D03*
Y8500D02*
D03*
D45*
X41963Y78447D02*
D03*
X41313D02*
D03*
X40663D02*
D03*
Y75997D02*
D03*
X41313D02*
D03*
X41963D02*
D03*
D46*
X2210Y45595D02*
D03*
X7110D02*
D03*
X2210Y48795D02*
D03*
X7110D02*
D03*
X2383Y26760D02*
D03*
X7283D02*
D03*
X2383Y29960D02*
D03*
X7283D02*
D03*
X56988Y45595D02*
D03*
X61888D02*
D03*
X56988Y48795D02*
D03*
X61888D02*
D03*
X57161Y26760D02*
D03*
X62061D02*
D03*
X57161Y29960D02*
D03*
X62061D02*
D03*
X56988Y73070D02*
D03*
X61888D02*
D03*
X56988Y76270D02*
D03*
X61888D02*
D03*
X7110D02*
D03*
X2210D02*
D03*
X7110Y73070D02*
D03*
X2210D02*
D03*
D47*
X45719Y79752D02*
D03*
X47509D02*
D03*
D48*
X11121Y13125D02*
D03*
X14271Y13125D02*
D03*
X40400Y13125D02*
D03*
X37250Y13125D02*
D03*
X30200Y13125D02*
D03*
X33350Y13125D02*
D03*
X30200Y51236D02*
D03*
X33350Y51236D02*
D03*
X11655Y51236D02*
D03*
X14805Y51236D02*
D03*
X40400Y32236D02*
D03*
X37250Y32236D02*
D03*
X30200Y32236D02*
D03*
X33350Y32236D02*
D03*
X11402Y32236D02*
D03*
X14552Y32236D02*
D03*
X40400Y51236D02*
D03*
X37250Y51236D02*
D03*
M02*
