G04*
G04 #@! TF.GenerationSoftware,Altium Limited,Altium Designer,25.2.1 (25)*
G04*
G04 Layer_Color=128*
%FSLAX43Y43*%
%MOMM*%
G71*
G04*
G04 #@! TF.SameCoordinates,C051C589-FC01-4A5A-9DFD-27A9FF034E64*
G04*
G04*
G04 #@! TF.FilePolarity,Positive*
G04*
G01*
G75*
%ADD49C,0.127*%
D49*
X10972Y82685D02*
X11684D01*
X11328Y82330D02*
Y83041D01*
X34322Y11772D02*
X35033D01*
X34677Y11417D02*
Y12128D01*
X35207Y30283D02*
X35918D01*
X35563Y29927D02*
Y30638D01*
X41005Y72260D02*
X41717D01*
X41361Y71904D02*
Y72615D01*
X13061Y81605D02*
X13772D01*
X13417Y81250D02*
Y81961D01*
X25388Y69319D02*
X26099D01*
X25744Y68964D02*
Y69675D01*
X25349Y66907D02*
X26060D01*
X25705Y66552D02*
Y67263D01*
X4305Y49945D02*
X5016D01*
X4660Y49590D02*
Y50301D01*
X4478Y30860D02*
X5189D01*
X4833Y30505D02*
Y31216D01*
X15251Y6155D02*
X15962D01*
X15606Y5799D02*
Y6510D01*
X44444Y6148D02*
X45155D01*
X44799Y5793D02*
Y6504D01*
X59002Y25610D02*
X59713D01*
X59357Y25255D02*
Y25966D01*
X59002Y44445D02*
X59713D01*
X59357Y44090D02*
Y44801D01*
X59002Y72170D02*
X59713D01*
X59357Y71814D02*
Y72526D01*
X24726Y94618D02*
X25437D01*
X25082Y94263D02*
Y94974D01*
X43333Y94961D02*
X44044D01*
X43689Y94605D02*
Y95317D01*
X43301Y78382D02*
X44012D01*
X43657Y78026D02*
Y78737D01*
M02*
