G04*
G04 #@! TF.GenerationSoftware,Altium Limited,Altium Designer,25.2.1 (25)*
G04*
G04 Layer_Color=2752767*
%FSLAX44Y44*%
%MOMM*%
G71*
G04*
G04 #@! TF.SameCoordinates,6FBFE696-48CE-430D-A149-04A0BAA6C4F4*
G04*
G04*
G04 #@! TF.FilePolarity,Positive*
G04*
G01*
G75*
%ADD49C,0.1270*%
D49*
X433420Y734996D02*
Y732456D01*
X438500D01*
Y734996D01*
X441040D01*
Y740076D01*
X438500D01*
Y742616D01*
X433420D01*
Y740076D01*
X430880D01*
Y734996D01*
X433420D01*
X591032Y771661D02*
Y769121D01*
X596112D01*
Y771661D01*
X598652D01*
Y776741D01*
X596112D01*
Y779281D01*
X591032D01*
Y776741D01*
X588492D01*
Y771661D01*
X591032D01*
X44062Y441914D02*
Y439374D01*
X49142D01*
Y441914D01*
X51682D01*
Y446994D01*
X49142D01*
Y449534D01*
X44062D01*
Y446994D01*
X41522D01*
Y441914D01*
X44062D01*
X36943Y248099D02*
Y245559D01*
X42023D01*
Y248099D01*
X44563D01*
Y253179D01*
X42023D01*
Y255719D01*
X36943D01*
Y253179D01*
X34403D01*
Y248099D01*
X36943D01*
X195471Y57957D02*
Y55417D01*
X200551D01*
Y57957D01*
X203091D01*
Y63037D01*
X200551D01*
Y65577D01*
X195471D01*
Y63037D01*
X192931D01*
Y57957D01*
X195471D01*
X367111Y949165D02*
Y946625D01*
X372191D01*
Y949165D01*
X374731D01*
Y954245D01*
X372191D01*
Y956785D01*
X367111D01*
Y954245D01*
X364571D01*
Y949165D01*
X367111D01*
X195777Y943643D02*
Y941103D01*
X200857D01*
Y943643D01*
X203397D01*
Y948723D01*
X200857D01*
Y951263D01*
X195777D01*
Y948723D01*
X193237D01*
Y943643D01*
X195777D01*
X591032Y308562D02*
Y306022D01*
X596112D01*
Y308562D01*
X598652D01*
Y313642D01*
X596112D01*
Y316182D01*
X591032D01*
Y313642D01*
X588492D01*
Y308562D01*
X591032D01*
Y496914D02*
Y494374D01*
X596112D01*
Y496914D01*
X598652D01*
Y501994D01*
X596112D01*
Y504534D01*
X591032D01*
Y501994D01*
X588492D01*
Y496914D01*
X591032D01*
M02*
