%TF.GenerationSoftware,Altium Limited,Altium Designer,25.2.1 (25)*%
G04 Layer_Color=128*
%FSLAX45Y45*%
%MOMM*%
%TF.SameCoordinates,DBF3E2B7-33B5-4ACE-A245-667DA10812C1*%
%TF.FilePolarity,Positive*%
%TF.FileFunction,Drillmap*%
%TF.Part,Single*%
G01*
G75*
%TA.AperFunction,NonConductor*%
%ADD38C,0.12700*%
D38*
X3816850Y7474135D02*
X3887970D01*
X3852410Y7438575D02*
Y7509695D01*
X3432151Y1177248D02*
X3503271D01*
X3467711Y1141688D02*
Y1212808D01*
X3520706Y3028264D02*
X3591826D01*
X3556266Y2992704D02*
Y3063824D01*
X1306122Y8160521D02*
X1377242D01*
X1341682Y8124961D02*
Y8196081D01*
X2538819Y6931920D02*
X2609939D01*
X2574379Y6896360D02*
Y6967480D01*
X1076783Y8277240D02*
X1147903D01*
X1112343Y8241680D02*
Y8312800D01*
X1947741Y7724617D02*
X2018861D01*
X1983301Y7689057D02*
Y7760177D01*
X2534916Y6690736D02*
X2606036D01*
X2570476Y6655176D02*
Y6726296D01*
X4875809Y9267572D02*
X4946929D01*
X4911369Y9232012D02*
Y9303132D01*
X3347984Y8752119D02*
X3419104D01*
X3383544Y8716559D02*
Y8787679D01*
X3361459Y9011529D02*
X3432579D01*
X3397019Y8975969D02*
Y9047089D01*
X4330102Y7838164D02*
X4401222D01*
X4365662Y7802604D02*
Y7873724D01*
X1943041Y7975586D02*
X2014161D01*
X1978601Y7940026D02*
Y8011146D01*
X1953989Y8241814D02*
X2025109D01*
X1989549Y8206254D02*
Y8277374D01*
%TF.MD5,d64f3498214af6d16223c2fc121b7797*%
M02*
