G04*
G04 #@! TF.GenerationSoftware,Altium Limited,Altium Designer,25.2.1 (25)*
G04*
G04 Layer_Color=128*
%FSLAX44Y44*%
%MOMM*%
G71*
G04*
G04 #@! TF.SameCoordinates,6FBFE696-48CE-430D-A149-04A0BAA6C4F4*
G04*
G04*
G04 #@! TF.FilePolarity,Positive*
G04*
G01*
G75*
%ADD49C,0.1270*%
D49*
X13751Y579356D02*
X29251D01*
X21501Y571606D02*
Y587106D01*
X14501Y617456D02*
X28501D01*
X21501Y610456D02*
Y624456D01*
X65301Y617456D02*
X79301D01*
X72301Y610456D02*
Y624456D01*
X116101Y617456D02*
X130101D01*
X123101Y610456D02*
Y624456D01*
X115351Y579356D02*
X130851D01*
X123101Y571606D02*
Y587106D01*
X64801Y528556D02*
X79801D01*
X72301Y521056D02*
Y536056D01*
X59301Y579356D02*
X85301D01*
X72301Y566356D02*
Y592356D01*
X8407Y198247D02*
X23907D01*
X16157Y190497D02*
Y205997D01*
X9157Y236347D02*
X23157D01*
X16157Y229347D02*
Y243347D01*
X59957Y236347D02*
X73957D01*
X66957Y229347D02*
Y243347D01*
X110757Y236347D02*
X124757D01*
X117757Y229347D02*
Y243347D01*
X110007Y198247D02*
X125507D01*
X117757Y190497D02*
Y205997D01*
X59457Y147447D02*
X74457D01*
X66957Y139947D02*
Y154947D01*
X53957Y198247D02*
X79957D01*
X66957Y185247D02*
Y211247D01*
X11224Y389361D02*
X26724D01*
X18974Y381610D02*
Y397110D01*
X11974Y427461D02*
X25974D01*
X18974Y420461D02*
Y434460D01*
X62774Y427461D02*
X76774D01*
X69774Y420461D02*
Y434460D01*
X113574Y427461D02*
X127574D01*
X120574Y420461D02*
Y434460D01*
X112824Y389361D02*
X128324D01*
X120574Y381610D02*
Y397110D01*
X62274Y338560D02*
X77274D01*
X69774Y331060D02*
Y346060D01*
X56774Y389361D02*
X82774D01*
X69774Y376361D02*
Y402360D01*
X615162Y189934D02*
X630402D01*
X622782Y182314D02*
Y197554D01*
X615162Y817314D02*
X630402D01*
X622782Y809694D02*
Y824934D01*
X531342Y178504D02*
X546582D01*
X538962Y170884D02*
Y186124D01*
X531342Y828744D02*
X546582D01*
X538962Y821124D02*
Y836364D01*
X590651Y136594D02*
X605891D01*
X598271Y128974D02*
Y144214D01*
X555853Y136594D02*
X571093D01*
X563473Y128974D02*
Y144214D01*
X555853Y870654D02*
X571093D01*
X563473Y863034D02*
Y878274D01*
X199199Y579356D02*
X214699D01*
X206949Y571606D02*
Y587106D01*
X199949Y617456D02*
X213949D01*
X206949Y610456D02*
Y624456D01*
X250749Y617456D02*
X264749D01*
X257749Y610456D02*
Y624456D01*
X301549Y617456D02*
X315549D01*
X308549Y610456D02*
Y624456D01*
X300799Y579356D02*
X316299D01*
X308549Y571606D02*
Y587106D01*
X250249Y528556D02*
X265249D01*
X257749Y521056D02*
Y536056D01*
X244749Y579356D02*
X270749D01*
X257749Y566356D02*
Y592356D01*
X199199Y389361D02*
X214699D01*
X206949Y381610D02*
Y397110D01*
X199949Y427461D02*
X213949D01*
X206949Y420461D02*
Y434460D01*
X250749Y427461D02*
X264749D01*
X257749Y420461D02*
Y434460D01*
X301549Y427461D02*
X315549D01*
X308549Y420461D02*
Y434460D01*
X300799Y389361D02*
X316299D01*
X308549Y381610D02*
Y397110D01*
X250249Y338560D02*
X265249D01*
X257749Y331060D02*
Y346060D01*
X244749Y389361D02*
X270749D01*
X257749Y376361D02*
Y402360D01*
X389700Y389361D02*
X405200D01*
X397450Y381610D02*
Y397110D01*
X390450Y427461D02*
X404450D01*
X397450Y420461D02*
Y434460D01*
X441250Y427461D02*
X455250D01*
X448250Y420461D02*
Y434460D01*
X492050Y427461D02*
X506050D01*
X499050Y420461D02*
Y434460D01*
X491300Y389361D02*
X506800D01*
X499050Y381610D02*
Y397110D01*
X440750Y338560D02*
X455750D01*
X448250Y331060D02*
Y346060D01*
X435250Y389361D02*
X461250D01*
X448250Y376361D02*
Y402360D01*
X389700Y198247D02*
X405200D01*
X397450Y190497D02*
Y205997D01*
X390450Y236347D02*
X404450D01*
X397450Y229347D02*
Y243347D01*
X441250Y236347D02*
X455250D01*
X448250Y229347D02*
Y243347D01*
X492050Y236347D02*
X506050D01*
X499050Y229347D02*
Y243347D01*
X491300Y198247D02*
X506800D01*
X499050Y190497D02*
Y205997D01*
X440750Y147447D02*
X455750D01*
X448250Y139947D02*
Y154947D01*
X435250Y198247D02*
X461250D01*
X448250Y185247D02*
Y211247D01*
X199199Y198247D02*
X214699D01*
X206949Y190497D02*
Y205997D01*
X199949Y236347D02*
X213949D01*
X206949Y229347D02*
Y243347D01*
X250749Y236347D02*
X264749D01*
X257749Y229347D02*
Y243347D01*
X301549Y236347D02*
X315549D01*
X308549Y229347D02*
Y243347D01*
X300799Y198247D02*
X316299D01*
X308549Y190497D02*
Y205997D01*
X250249Y147447D02*
X265249D01*
X257749Y139947D02*
Y154947D01*
X244749Y198247D02*
X270749D01*
X257749Y185247D02*
Y211247D01*
X389700Y579356D02*
X405200D01*
X397450Y571606D02*
Y587106D01*
X390450Y617456D02*
X404450D01*
X397450Y610456D02*
Y624456D01*
X441250Y617456D02*
X455250D01*
X448250Y610456D02*
Y624456D01*
X492050Y617456D02*
X506050D01*
X499050Y610456D02*
Y624456D01*
X491300Y579356D02*
X506800D01*
X499050Y571606D02*
Y587106D01*
X440750Y528556D02*
X455750D01*
X448250Y521056D02*
Y536056D01*
X435250Y579356D02*
X461250D01*
X448250Y566356D02*
Y592356D01*
X381685Y747413D02*
X388797D01*
X385241Y743857D02*
Y750969D01*
X364561Y484563D02*
X371673D01*
X368117Y481007D02*
Y488119D01*
X43046Y771701D02*
X50158D01*
X46602Y768145D02*
Y775257D01*
X43046Y719201D02*
X50158D01*
X46602Y715645D02*
Y722757D01*
X499437Y61481D02*
X506549D01*
X502993Y57925D02*
Y65037D01*
M02*
