G04*
G04 #@! TF.GenerationSoftware,Altium Limited,Altium Designer,25.2.1 (25)*
G04*
G04 Layer_Color=32896*
%FSLAX42Y42*%
%MOMM*%
G71*
G04*
G04 #@! TF.SameCoordinates,372558BA-D2E2-4F7E-91D4-F70FF9730948*
G04*
G04*
G04 #@! TF.FilePolarity,Positive*
G04*
G01*
G75*
G36*
X4562Y7977D02*
X4561Y7976D01*
X4560Y7975D01*
X4560Y7975D01*
X4559Y7974D01*
X4559Y7973D01*
X4559Y7973D01*
X4558Y7973D01*
X4558Y7973D01*
X4558Y7973D01*
X4558Y7972D01*
X4558Y7972D01*
X4558Y7972D01*
X4557Y7972D01*
X4557Y7972D01*
X4556Y7971D01*
X4556Y7971D01*
X4555Y7971D01*
X4555Y7971D01*
X4555Y7971D01*
X4555Y7971D01*
X4555Y7970D01*
X4555D01*
X4556Y7970D01*
X4557Y7970D01*
X4558Y7970D01*
X4558Y7970D01*
X4559Y7969D01*
X4560Y7969D01*
X4560Y7969D01*
X4561Y7968D01*
X4561Y7968D01*
X4562Y7968D01*
X4562Y7968D01*
X4562Y7967D01*
X4563Y7967D01*
X4563Y7967D01*
X4563Y7967D01*
X4563Y7967D01*
X4563Y7966D01*
X4564Y7966D01*
X4564Y7965D01*
X4564Y7965D01*
X4565Y7964D01*
X4565Y7964D01*
X4565Y7963D01*
X4565Y7962D01*
X4565Y7962D01*
X4565Y7961D01*
X4565Y7961D01*
X4565Y7961D01*
X4565Y7960D01*
Y7960D01*
Y7960D01*
Y7960D01*
Y7959D01*
X4565Y7959D01*
X4565Y7958D01*
X4565Y7957D01*
X4565Y7956D01*
X4565Y7956D01*
X4564Y7955D01*
X4564Y7955D01*
X4564Y7955D01*
X4564Y7955D01*
X4564Y7954D01*
X4564Y7954D01*
X4564Y7954D01*
X4563Y7953D01*
X4563Y7953D01*
X4562Y7952D01*
X4561Y7952D01*
X4561Y7951D01*
X4560Y7951D01*
X4560Y7951D01*
X4560Y7951D01*
X4560Y7951D01*
X4560Y7951D01*
X4560D01*
X4559Y7950D01*
X4559Y7950D01*
X4557Y7950D01*
X4556Y7950D01*
X4555Y7950D01*
X4554Y7950D01*
X4554Y7950D01*
X4553D01*
X4553Y7950D01*
X4535D01*
Y7988D01*
X4540D01*
Y7971D01*
X4547D01*
X4547Y7971D01*
X4548Y7971D01*
X4548D01*
X4548Y7971D01*
X4549Y7971D01*
X4549Y7971D01*
X4549D01*
X4549Y7971D01*
X4550Y7971D01*
X4550Y7972D01*
X4550Y7972D01*
X4551Y7972D01*
X4551Y7972D01*
X4551Y7972D01*
X4551Y7972D01*
X4551Y7972D01*
X4552Y7973D01*
X4552Y7973D01*
X4553Y7974D01*
X4553Y7974D01*
X4553Y7974D01*
X4553Y7975D01*
X4554Y7975D01*
Y7975D01*
X4554Y7975D01*
X4554Y7975D01*
X4555Y7976D01*
X4555Y7977D01*
X4556Y7978D01*
X4556Y7979D01*
X4557Y7979D01*
X4557Y7979D01*
X4557Y7980D01*
X4557Y7980D01*
X4557Y7980D01*
X4557Y7980D01*
X4562Y7988D01*
X4569D01*
X4562Y7977D01*
D02*
G37*
G36*
X4589Y7949D02*
X4586D01*
X4586Y7950D01*
X4586Y7950D01*
X4585Y7951D01*
X4584Y7952D01*
X4584Y7953D01*
X4583Y7953D01*
X4583Y7954D01*
X4583Y7954D01*
X4582Y7954D01*
X4582Y7954D01*
X4582Y7954D01*
X4582Y7955D01*
X4582Y7955D01*
X4581Y7956D01*
X4580Y7956D01*
X4579Y7957D01*
X4577Y7958D01*
X4577Y7958D01*
X4577Y7958D01*
X4576Y7959D01*
X4576Y7959D01*
X4576Y7959D01*
X4575Y7959D01*
X4575Y7959D01*
X4575Y7959D01*
Y7964D01*
X4576Y7963D01*
X4577Y7963D01*
X4578Y7962D01*
X4578Y7962D01*
X4579Y7962D01*
X4579Y7962D01*
X4580Y7961D01*
X4580Y7961D01*
X4580Y7961D01*
X4580Y7961D01*
X4580D01*
X4581Y7961D01*
X4582Y7960D01*
X4583Y7959D01*
X4583Y7959D01*
X4584Y7959D01*
X4584Y7958D01*
X4584Y7958D01*
X4584Y7958D01*
X4584Y7958D01*
X4585D01*
Y7988D01*
X4589D01*
Y7949D01*
D02*
G37*
%LPC*%
G36*
X4551Y7967D02*
X4540D01*
Y7954D01*
X4553D01*
X4554Y7954D01*
X4554Y7954D01*
X4555Y7954D01*
X4555Y7954D01*
X4556Y7954D01*
X4556Y7955D01*
X4557Y7955D01*
X4557Y7955D01*
X4557Y7955D01*
X4558Y7955D01*
X4558Y7955D01*
X4558Y7955D01*
X4558Y7956D01*
X4558Y7956D01*
X4558Y7956D01*
X4559Y7956D01*
X4559Y7956D01*
X4559Y7957D01*
X4559Y7957D01*
X4560Y7958D01*
X4560Y7958D01*
X4560Y7959D01*
X4560Y7959D01*
X4560Y7960D01*
X4560Y7960D01*
Y7960D01*
Y7960D01*
Y7960D01*
X4560Y7961D01*
X4560Y7961D01*
X4560Y7962D01*
X4560Y7962D01*
X4560Y7963D01*
X4559Y7963D01*
X4559Y7963D01*
X4559Y7963D01*
Y7964D01*
X4559Y7964D01*
X4558Y7965D01*
X4558Y7965D01*
X4557Y7965D01*
X4557Y7966D01*
X4557Y7966D01*
X4556Y7966D01*
X4556Y7966D01*
X4556D01*
X4555Y7966D01*
X4555Y7966D01*
X4554Y7966D01*
X4553Y7966D01*
X4552D01*
X4552Y7966D01*
X4552D01*
X4551Y7967D01*
D02*
G37*
%LPD*%
M02*
