%TF.GenerationSoftware,Altium Limited,Altium Designer,25.2.1 (25)*%
G04 Layer_Color=128*
%FSLAX45Y45*%
%MOMM*%
%TF.SameCoordinates,DBF3E2B7-33B5-4ACE-A245-667DA10812C1*%
%TF.FilePolarity,Positive*%
%TF.FileFunction,Drillmap*%
%TF.Part,Single*%
G01*
G75*
%TA.AperFunction,NonConductor*%
%ADD38C,0.12700*%
D38*
X137506Y5793563D02*
X292506D01*
X215006Y5716063D02*
Y5871063D01*
X145006Y6174563D02*
X285006D01*
X215006Y6104563D02*
Y6244563D01*
X653006Y6174563D02*
X793006D01*
X723006Y6104563D02*
Y6244563D01*
X1161006Y6174563D02*
X1301006D01*
X1231006Y6104563D02*
Y6244563D01*
X1153506Y5793563D02*
X1308506D01*
X1231006Y5716063D02*
Y5871063D01*
X648006Y5285563D02*
X798006D01*
X723006Y5210563D02*
Y5360563D01*
X593006Y5793563D02*
X853006D01*
X723006Y5663563D02*
Y5923563D01*
X84072Y1982472D02*
X239072D01*
X161572Y1904972D02*
Y2059972D01*
X91572Y2363472D02*
X231572D01*
X161572Y2293472D02*
Y2433472D01*
X599572Y2363472D02*
X739572D01*
X669572Y2293472D02*
Y2433472D01*
X1107572Y2363472D02*
X1247572D01*
X1177572Y2293472D02*
Y2433472D01*
X1100072Y1982472D02*
X1255072D01*
X1177572Y1904972D02*
Y2059972D01*
X594572Y1474472D02*
X744572D01*
X669572Y1399472D02*
Y1549472D01*
X539572Y1982472D02*
X799572D01*
X669572Y1852472D02*
Y2112472D01*
X112240Y3893605D02*
X267240D01*
X189740Y3816105D02*
Y3971105D01*
X119740Y4274605D02*
X259740D01*
X189740Y4204605D02*
Y4344605D01*
X627740Y4274605D02*
X767740D01*
X697740Y4204605D02*
Y4344605D01*
X1135740Y4274605D02*
X1275740D01*
X1205740Y4204605D02*
Y4344605D01*
X1128240Y3893605D02*
X1283240D01*
X1205740Y3816105D02*
Y3971105D01*
X622740Y3385605D02*
X772740D01*
X697740Y3310605D02*
Y3460605D01*
X567740Y3893605D02*
X827740D01*
X697740Y3763605D02*
Y4023605D01*
X6151618Y1899343D02*
X6304018D01*
X6227818Y1823143D02*
Y1975543D01*
X6151618Y8173143D02*
X6304018D01*
X6227818Y8096943D02*
Y8249343D01*
X5313418Y1785043D02*
X5465818D01*
X5389618Y1708843D02*
Y1861243D01*
X5313418Y8287443D02*
X5465818D01*
X5389618Y8211243D02*
Y8363643D01*
X5906508Y1365943D02*
X6058908D01*
X5982708Y1289743D02*
Y1442143D01*
X5558528Y1365943D02*
X5710928D01*
X5634728Y1289743D02*
Y1442143D01*
X5558528Y8706543D02*
X5710928D01*
X5634728Y8630343D02*
Y8782743D01*
X1991987Y5793563D02*
X2146987D01*
X2069487Y5716063D02*
Y5871063D01*
X1999487Y6174563D02*
X2139487D01*
X2069487Y6104563D02*
Y6244563D01*
X2507487Y6174563D02*
X2647487D01*
X2577487Y6104563D02*
Y6244563D01*
X3015487Y6174563D02*
X3155487D01*
X3085487Y6104563D02*
Y6244563D01*
X3007987Y5793563D02*
X3162987D01*
X3085487Y5716063D02*
Y5871063D01*
X2502487Y5285563D02*
X2652487D01*
X2577487Y5210563D02*
Y5360563D01*
X2447487Y5793563D02*
X2707487D01*
X2577487Y5663563D02*
Y5923563D01*
X1991987Y3893605D02*
X2146987D01*
X2069487Y3816105D02*
Y3971105D01*
X1999487Y4274605D02*
X2139487D01*
X2069487Y4204605D02*
Y4344605D01*
X2507487Y4274605D02*
X2647487D01*
X2577487Y4204605D02*
Y4344605D01*
X3015487Y4274605D02*
X3155487D01*
X3085487Y4204605D02*
Y4344605D01*
X3007987Y3893605D02*
X3162987D01*
X3085487Y3816105D02*
Y3971105D01*
X2502487Y3385605D02*
X2652487D01*
X2577487Y3310605D02*
Y3460605D01*
X2447487Y3893605D02*
X2707487D01*
X2577487Y3763605D02*
Y4023605D01*
X3896999Y3893605D02*
X4051998D01*
X3974499Y3816105D02*
Y3971105D01*
X3904499Y4274605D02*
X4044498D01*
X3974499Y4204605D02*
Y4344605D01*
X4412499Y4274605D02*
X4552498D01*
X4482499Y4204605D02*
Y4344605D01*
X4920499Y4274605D02*
X5060498D01*
X4990499Y4204605D02*
Y4344605D01*
X4912999Y3893605D02*
X5067998D01*
X4990499Y3816105D02*
Y3971105D01*
X4407499Y3385605D02*
X4557498D01*
X4482499Y3310605D02*
Y3460605D01*
X4352499Y3893605D02*
X4612499D01*
X4482499Y3763605D02*
Y4023605D01*
X3896999Y1982472D02*
X4051998D01*
X3974499Y1904972D02*
Y2059972D01*
X3904499Y2363472D02*
X4044498D01*
X3974499Y2293472D02*
Y2433472D01*
X4412499Y2363472D02*
X4552498D01*
X4482499Y2293472D02*
Y2433472D01*
X4920499Y2363472D02*
X5060498D01*
X4990499Y2293472D02*
Y2433472D01*
X4912999Y1982472D02*
X5067998D01*
X4990499Y1904972D02*
Y2059972D01*
X4407499Y1474472D02*
X4557498D01*
X4482499Y1399472D02*
Y1549472D01*
X4352499Y1982472D02*
X4612499D01*
X4482499Y1852472D02*
Y2112472D01*
X1991987Y1982472D02*
X2146987D01*
X2069487Y1904972D02*
Y2059972D01*
X1999487Y2363472D02*
X2139487D01*
X2069487Y2293472D02*
Y2433472D01*
X2507487Y2363472D02*
X2647487D01*
X2577487Y2293472D02*
Y2433472D01*
X3015487Y2363472D02*
X3155487D01*
X3085487Y2293472D02*
Y2433472D01*
X3007987Y1982472D02*
X3162987D01*
X3085487Y1904972D02*
Y2059972D01*
X2502487Y1474472D02*
X2652487D01*
X2577487Y1399472D02*
Y1549472D01*
X2447487Y1982472D02*
X2707487D01*
X2577487Y1852472D02*
Y2112472D01*
X3896999Y5793563D02*
X4051998D01*
X3974499Y5716063D02*
Y5871063D01*
X3904499Y6174563D02*
X4044498D01*
X3974499Y6104563D02*
Y6244563D01*
X4412499Y6174563D02*
X4552498D01*
X4482499Y6104563D02*
Y6244563D01*
X4920499Y6174563D02*
X5060498D01*
X4990499Y6104563D02*
Y6244563D01*
X4912999Y5793563D02*
X5067998D01*
X4990499Y5716063D02*
Y5871063D01*
X4407499Y5285563D02*
X4557498D01*
X4482499Y5210563D02*
Y5360563D01*
X4352499Y5793563D02*
X4612499D01*
X4482499Y5663563D02*
Y5923563D01*
X3816850Y7474135D02*
X3887970D01*
X3852410Y7438575D02*
Y7509695D01*
X3645611Y4845631D02*
X3716731D01*
X3681171Y4810071D02*
Y4881191D01*
X430464Y7717008D02*
X501584D01*
X466024Y7681448D02*
Y7752568D01*
X430464Y7192008D02*
X501584D01*
X466024Y7156448D02*
Y7227568D01*
X4994366Y614811D02*
X5065486D01*
X5029926Y579251D02*
Y650371D01*
%TF.MD5,6c33486f39142c6659b62f7fb4eabb56*%
M02*
