G04*
G04 #@! TF.GenerationSoftware,Altium Limited,Altium Designer,25.2.1 (25)*
G04*
G04 Layer_Physical_Order=1*
G04 Layer_Color=255*
%FSLAX44Y44*%
%MOMM*%
G71*
G04*
G04 #@! TF.SameCoordinates,6FBFE696-48CE-430D-A149-04A0BAA6C4F4*
G04*
G04*
G04 #@! TF.FilePolarity,Positive*
G04*
G01*
G75*
%ADD13C,0.2540*%
%ADD14O,5.0800X2.0320*%
%ADD15R,3.0000X1.2000*%
%ADD16R,1.2000X1.5000*%
%ADD23C,2.0320*%
%ADD24R,2.0320X2.0320*%
%ADD26C,1.9000*%
%ADD27R,1.9000X1.9000*%
%ADD28C,2.0000*%
%ADD29C,1.2700*%
D13*
X322953Y788214D02*
G03*
X312532Y811488I-10421J9304D01*
G01*
X106686Y817284D02*
X108482Y819080D01*
Y819307D02*
X113281Y824105D01*
Y826855D01*
X115281Y835745D02*
Y838285D01*
X115225Y835688D02*
X115281Y835745D01*
X84893Y817284D02*
X106686D01*
X108482Y819080D02*
Y819307D01*
X115225Y828799D02*
Y835688D01*
X101471Y852094D02*
X115281Y838285D01*
X113281Y826855D02*
X115225Y828799D01*
X494902Y874988D02*
X505574Y864316D01*
X475092Y874988D02*
X494902D01*
X505574Y864316D02*
X508323D01*
X436566Y929172D02*
X459852Y952458D01*
X436566Y783816D02*
Y929172D01*
X518285Y926670D02*
X518321Y926705D01*
X475127Y926670D02*
X518285D01*
X475092Y926635D02*
X475127Y926670D01*
X475092Y952458D02*
X475401Y952766D01*
X517812D02*
X518121Y953075D01*
X475401Y952766D02*
X517812D01*
X459852Y952458D02*
X475092D01*
X428590Y669171D02*
X429360Y668401D01*
X384371Y715999D02*
X428590Y669171D01*
X384371Y715999D02*
Y717045D01*
X429360Y668401D02*
X475092D01*
X379331Y713913D02*
X425701Y642110D01*
X375506Y743881D02*
X379331Y713913D01*
X361300Y799973D02*
X375506Y743881D01*
X384371Y717045D02*
X384372Y717081D01*
X385241Y747413D01*
X425701Y640005D02*
Y642110D01*
X360556Y800717D02*
X361300Y799973D01*
X361531Y492337D02*
X368117Y485751D01*
X361145Y505525D02*
X361531Y505139D01*
X368117Y484563D02*
Y485751D01*
X361531Y492337D02*
Y505139D01*
X360707Y505964D02*
Y679445D01*
Y505964D02*
X361145Y505525D01*
X355627Y302826D02*
Y677341D01*
X348216Y684751D02*
X355627Y677341D01*
X348216Y684751D02*
Y737128D01*
X321422Y756738D02*
X343136Y735024D01*
Y429566D02*
Y735024D01*
X326502Y758842D02*
X348216Y737128D01*
X343136Y429566D02*
X345467Y427236D01*
Y119029D02*
Y427236D01*
Y119029D02*
X346771Y117725D01*
X321422Y756738D02*
Y760828D01*
X310555Y771695D02*
X321422Y760828D01*
X297292Y771695D02*
X310555D01*
X331582Y760946D02*
Y779585D01*
X326502Y758842D02*
Y777481D01*
X356106Y684045D02*
Y736422D01*
Y684045D02*
X360707Y679445D01*
X331582Y760946D02*
X356106Y736422D01*
X322953Y788214D02*
X331582Y779585D01*
X318319Y785665D02*
X326502Y777481D01*
X297292Y785665D02*
X318319D01*
X297292D02*
Y797518D01*
X300688Y811488D02*
X312532D01*
X299400Y812776D02*
X300688Y811488D01*
X297292Y823341D02*
X299400Y812776D01*
X245780Y823341D02*
X297292D01*
X311262Y850011D02*
X360556Y800717D01*
X29893Y867284D02*
X38893D01*
X49003Y857174D01*
X103576D01*
X134168Y826582D01*
Y816052D02*
Y826582D01*
X84893Y792284D02*
X110400D01*
X134168Y816052D01*
X257438Y693192D02*
X258471Y694225D01*
X297292D01*
X68315Y852094D02*
X101471D01*
X97755Y642911D02*
X150402Y695558D01*
Y833325D02*
X269535Y952458D01*
X150402Y695558D02*
Y833325D01*
X198330Y772462D02*
X223794D01*
X224177Y772079D01*
X29893Y842284D02*
X58505D01*
X68315Y852094D01*
X257048Y669074D02*
X257384Y668737D01*
X296956D01*
X297292Y668401D01*
X32262Y789916D02*
X46602D01*
X29893Y792284D02*
X32262Y789916D01*
X46602D02*
Y805382D01*
X41262Y789916D02*
X43623Y787554D01*
X79913Y842284D02*
X84893D01*
X75183Y833962D02*
Y837554D01*
X46602Y805382D02*
X75183Y833962D01*
X46602Y771701D02*
Y789916D01*
X75183Y837554D02*
X79913Y842284D01*
X7285Y803676D02*
Y878938D01*
Y803676D02*
X20893Y817284D01*
X7285Y758519D02*
Y803676D01*
X20893Y817284D02*
X29893D01*
X75893Y867284D02*
X84893D01*
X60233Y882944D02*
X75893Y867284D01*
X11291Y882944D02*
X60233D01*
X7285Y878938D02*
X11291Y882944D01*
X7285Y758519D02*
X46602Y719201D01*
X338242Y875100D02*
X338354Y875212D01*
X297404Y875100D02*
X338242D01*
X297292Y874988D02*
X297404Y875100D01*
X339531Y900982D02*
X339702Y901153D01*
X297463Y900982D02*
X339531D01*
X297292Y900811D02*
X297463Y900982D01*
X475092Y771695D02*
X491145D01*
X563473Y699367D01*
Y136594D02*
Y699367D01*
X197860Y797559D02*
X223973D01*
X224177Y797355D01*
X198955Y824181D02*
X199191Y823945D01*
X224177D01*
X425701Y640005D02*
X448250Y617456D01*
X425701Y450009D02*
Y640005D01*
Y450009D02*
X448250Y427461D01*
X432908Y251689D02*
X448250Y236347D01*
X432813Y251689D02*
X432908D01*
X425701Y258802D02*
X432813Y251689D01*
X425701Y258802D02*
Y450009D01*
X296022Y850011D02*
X311262D01*
X235367Y639061D02*
X236144D01*
X257749Y617456D01*
X235367Y639061D02*
Y893919D01*
Y448812D02*
X236397D01*
X257749Y427461D01*
X235367Y448812D02*
Y639061D01*
Y258729D02*
X257749Y236347D01*
X235367Y258729D02*
Y448812D01*
Y893919D02*
X268082Y926635D01*
X297292D01*
X97341Y455028D02*
X97755D01*
X69774Y427461D02*
X97341Y455028D01*
X97755D02*
Y642911D01*
X66957Y236347D02*
X97755Y267145D01*
Y455028D01*
X72301Y617456D02*
X97755Y642911D01*
X269535Y952458D02*
X297292D01*
X245177Y823945D02*
X245780Y823341D01*
X245177Y797355D02*
X245339Y797518D01*
X297292D01*
X245177Y772079D02*
X245561Y771695D01*
X297292D01*
D14*
X475092Y952458D02*
D03*
Y926635D02*
D03*
Y900811D02*
D03*
Y874988D02*
D03*
Y849165D02*
D03*
Y823341D02*
D03*
Y797518D02*
D03*
Y771695D02*
D03*
Y745871D02*
D03*
Y720048D02*
D03*
Y694225D02*
D03*
Y668401D02*
D03*
X297292Y978281D02*
D03*
Y952458D02*
D03*
Y926635D02*
D03*
Y900811D02*
D03*
Y874988D02*
D03*
X296022Y850011D02*
D03*
X297292Y823341D02*
D03*
Y797518D02*
D03*
Y771695D02*
D03*
Y745871D02*
D03*
Y720048D02*
D03*
Y694225D02*
D03*
Y668401D02*
D03*
X475092Y978281D02*
D03*
D15*
X29893Y792284D02*
D03*
Y817284D02*
D03*
Y842284D02*
D03*
Y867284D02*
D03*
X84893Y792284D02*
D03*
Y817284D02*
D03*
Y842284D02*
D03*
Y867284D02*
D03*
D16*
X245177Y823945D02*
D03*
X224177D02*
D03*
X245177Y772079D02*
D03*
X224177D02*
D03*
X245177Y797355D02*
D03*
X224177D02*
D03*
D23*
X622782Y189934D02*
D03*
Y817314D02*
D03*
X538962Y178504D02*
D03*
Y828744D02*
D03*
X598271Y136594D02*
D03*
X563473D02*
D03*
D24*
Y870654D02*
D03*
D26*
X21501Y617456D02*
D03*
X123101D02*
D03*
X16157Y236347D02*
D03*
X117757D02*
D03*
X18974Y427461D02*
D03*
X120574D02*
D03*
X206949Y617456D02*
D03*
X308549D02*
D03*
X206949Y427461D02*
D03*
X308549D02*
D03*
X397450D02*
D03*
X499050D02*
D03*
X397450Y236347D02*
D03*
X499050D02*
D03*
X206949D02*
D03*
X308549D02*
D03*
X397450Y617456D02*
D03*
X499050D02*
D03*
D27*
X72301D02*
D03*
X66957Y236347D02*
D03*
X69774Y427461D02*
D03*
X257749Y617456D02*
D03*
Y427461D02*
D03*
X448250D02*
D03*
Y236347D02*
D03*
X257749D02*
D03*
X448250Y617456D02*
D03*
D28*
X72301Y528556D02*
D03*
X66957Y147447D02*
D03*
X69774Y338560D02*
D03*
X257749Y528556D02*
D03*
Y338560D02*
D03*
X448250D02*
D03*
Y147447D02*
D03*
X257749D02*
D03*
X448250Y528556D02*
D03*
D29*
X113281Y826855D02*
D03*
X508323Y864316D02*
D03*
X518321Y926705D02*
D03*
X518121Y953075D02*
D03*
X385241Y747413D02*
D03*
D03*
X368117Y484563D02*
D03*
X346771Y117725D02*
D03*
X355627Y302826D02*
D03*
X134168Y816052D02*
D03*
X257438Y693192D02*
D03*
X198330Y772462D02*
D03*
X257048Y669074D02*
D03*
X46602Y771701D02*
D03*
X338354Y875212D02*
D03*
X339702Y901153D02*
D03*
X46602Y719201D02*
D03*
X502993Y61481D02*
D03*
X436566Y783816D02*
D03*
X197860Y797559D02*
D03*
X198955Y824181D02*
D03*
M02*
