M48
;Layer_Color=9474304
;FILE_FORMAT=4:2
METRIC,LZ
;TYPE=PLATED
T01F00S00C0.71
T02F00S00C1.40
T03F00S00C1.50
T04F00S00C1.52
;TYPE=NON_PLATED
T05F00S00C1.55
T06F00S00C2.60
%
T01
X001561Y000615
X00198Y000605
X003468Y001177
X003556Y003028
X000483Y003086
X000395Y002506
X005936Y002561
Y003111
X00503Y000615
X00448
X005936Y004445
Y004995
Y007217
Y007742
X004366Y007838
X00436Y007375
X004136Y007226
X003852Y007474
X002574Y006932
X00257Y006691
X001983Y007725
X000466Y007717
Y007192
Y004995
Y004445
X003681Y004846
X003384Y008752
X003397Y009012
X003697Y009517
X002508Y009462
X001983
X00199Y008242
X001979Y007976
X001342Y008161
X001133Y008269
X005083Y008643
X005183Y009267
X005181Y009531
X004369Y009496
T02
X000162Y002363
X00067
X001178
X002069
X002577
X003085
X003974
X004482
X00499
Y004275
X004482
X003974
Y006175
X004482
X00499
X003085
X002577
X002069
X001231
X000723
X000215
X00019Y004275
X000698
X001206
X002069
X002577
X003085
T03
X00067Y001474
X002577
Y003386
X000698
X004482
Y001474
Y005286
X002577
X000723
T04
X005635Y001366
X005983
X006228Y001899
X00539Y001785
Y008287
X005635Y008707
X006228Y008173
T05
X000162Y001982
X001178
X002069
X003085
Y003894
X002069
X001206
X00019
X003974
X00499
Y001982
X003974
Y005794
X00499
X003085
X002069
X001231
X000215
T06
X00067Y001982
X002577
Y003894
X000698
X004482
Y001982
Y005794
X002577
X000723
M30
