G04*
G04 #@! TF.GenerationSoftware,Altium Limited,Altium Designer,25.2.1 (25)*
G04*
G04 Layer_Color=2752767*
%FSLAX44Y44*%
%MOMM*%
G71*
G04*
G04 #@! TF.SameCoordinates,6FBFE696-48CE-430D-A149-04A0BAA6C4F4*
G04*
G04*
G04 #@! TF.FilePolarity,Positive*
G04*
G01*
G75*
%ADD49C,0.1270*%
D49*
X110741Y824315D02*
Y821775D01*
X115821D01*
Y824315D01*
X118361D01*
Y829395D01*
X115821D01*
Y831935D01*
X110741D01*
Y829395D01*
X108201D01*
Y824315D01*
X110741D01*
X344231Y115185D02*
Y112645D01*
X349311D01*
Y115185D01*
X351851D01*
Y120265D01*
X349311D01*
Y122805D01*
X344231D01*
Y120265D01*
X341691D01*
Y115185D01*
X344231D01*
X353087Y300286D02*
Y297746D01*
X358167D01*
Y300286D01*
X360707D01*
Y305366D01*
X358167D01*
Y307906D01*
X353087D01*
Y305366D01*
X350547D01*
Y300286D01*
X353087D01*
X411070Y720056D02*
Y717516D01*
X416150D01*
Y720056D01*
X418690D01*
Y725136D01*
X416150D01*
Y727676D01*
X411070D01*
Y725136D01*
X408530D01*
Y720056D01*
X411070D01*
X131628Y813512D02*
Y810972D01*
X136708D01*
Y813512D01*
X139248D01*
Y818592D01*
X136708D01*
Y821132D01*
X131628D01*
Y818592D01*
X129088D01*
Y813512D01*
X131628D01*
X254898Y690652D02*
Y688112D01*
X259978D01*
Y690652D01*
X262518D01*
Y695732D01*
X259978D01*
Y698272D01*
X254898D01*
Y695732D01*
X252358D01*
Y690652D01*
X254898D01*
X254508Y666534D02*
Y663994D01*
X259588D01*
Y666534D01*
X262128D01*
Y671614D01*
X259588D01*
Y674154D01*
X254508D01*
Y671614D01*
X251968D01*
Y666534D01*
X254508D01*
X44062Y496914D02*
Y494374D01*
X49142D01*
Y496914D01*
X51682D01*
Y501994D01*
X49142D01*
Y504534D01*
X44062D01*
Y501994D01*
X41522D01*
Y496914D01*
X44062D01*
X45794Y306062D02*
Y303522D01*
X50874D01*
Y306062D01*
X53414D01*
Y311142D01*
X50874D01*
Y313682D01*
X45794D01*
Y311142D01*
X43254D01*
Y306062D01*
X45794D01*
X153524Y59008D02*
Y56468D01*
X158604D01*
Y59008D01*
X161144D01*
Y64088D01*
X158604D01*
Y66628D01*
X153524D01*
Y64088D01*
X150984D01*
Y59008D01*
X153524D01*
X445453Y58941D02*
Y56401D01*
X450533D01*
Y58941D01*
X453073D01*
Y64021D01*
X450533D01*
Y66561D01*
X445453D01*
Y64021D01*
X442913D01*
Y58941D01*
X445453D01*
X591032Y253562D02*
Y251022D01*
X596112D01*
Y253562D01*
X598652D01*
Y258642D01*
X596112D01*
Y261182D01*
X591032D01*
Y258642D01*
X588492D01*
Y253562D01*
X591032D01*
Y441914D02*
Y439374D01*
X596112D01*
Y441914D01*
X598652D01*
Y446994D01*
X596112D01*
Y449534D01*
X591032D01*
Y446994D01*
X588492D01*
Y441914D01*
X591032D01*
Y719161D02*
Y716621D01*
X596112D01*
Y719161D01*
X598652D01*
Y724241D01*
X596112D01*
Y726781D01*
X591032D01*
Y724241D01*
X588492D01*
Y719161D01*
X591032D01*
X248277Y943643D02*
Y941103D01*
X253357D01*
Y943643D01*
X255897D01*
Y948723D01*
X253357D01*
Y951263D01*
X248277D01*
Y948723D01*
X245737D01*
Y943643D01*
X248277D01*
X434345Y947070D02*
Y944530D01*
X439425D01*
Y947070D01*
X441965D01*
Y952150D01*
X439425D01*
Y954690D01*
X434345D01*
Y952150D01*
X431805D01*
Y947070D01*
X434345D01*
X434026Y781276D02*
Y778736D01*
X439106D01*
Y781276D01*
X441646D01*
Y786356D01*
X439106D01*
Y788896D01*
X434026D01*
Y786356D01*
X431486D01*
Y781276D01*
X434026D01*
M02*
