%TF.GenerationSoftware,Altium Limited,Altium Designer,25.2.1 (25)*%
G04 Layer_Color=0*
%FSLAX45Y45*%
%MOMM*%
%TF.SameCoordinates,DBF3E2B7-33B5-4ACE-A245-667DA10812C1*%
%TF.FilePolarity,Positive*%
%TF.FileFunction,Profile,NP*%
%TF.Part,Single*%
G01*
G75*
%TA.AperFunction,Profile*%
%ADD57C,0.02540*%
G36*
X5874999Y9205000D02*
X5858256D01*
X5825412Y9211533D01*
X5794474Y9224348D01*
X5766631Y9242952D01*
X5742952Y9266631D01*
X5724347Y9294474D01*
X5711532Y9325413D01*
X5705000Y9358256D01*
Y9375000D01*
Y9391743D01*
X5711532Y9424587D01*
X5724347Y9455525D01*
X5742952Y9483368D01*
X5766631Y9507047D01*
X5794474Y9525652D01*
X5825412Y9538467D01*
X5858256Y9545000D01*
X5874999D01*
X5891743D01*
X5924586Y9538467D01*
X5955525Y9525652D01*
X5983368Y9507047D01*
X6007047Y9483368D01*
X6025651Y9455525D01*
X6038466Y9424587D01*
X6044999Y9391743D01*
Y9375000D01*
Y9358256D01*
X6038466Y9325413D01*
X6025651Y9294474D01*
X6007047Y9266631D01*
X5983368Y9242952D01*
X5955525Y9224348D01*
X5924586Y9211533D01*
X5891743Y9205000D01*
X5874999D01*
D01*
D02*
G37*
G36*
X625000Y9205000D02*
X608256D01*
X575413Y9211533D01*
X544475Y9224348D01*
X516631Y9242952D01*
X492952Y9266631D01*
X474348Y9294475D01*
X461533Y9325413D01*
X455000Y9358256D01*
Y9375000D01*
Y9391743D01*
X461533Y9424587D01*
X474348Y9455525D01*
X492952Y9483369D01*
X516631Y9507048D01*
X544475Y9525652D01*
X575413Y9538467D01*
X608256Y9545000D01*
X625000D01*
X641743D01*
X674587Y9538467D01*
X705525Y9525652D01*
X733369Y9507048D01*
X757048Y9483369D01*
X775652Y9455525D01*
X788467Y9424587D01*
X795000Y9391743D01*
Y9375000D01*
Y9358256D01*
X788467Y9325413D01*
X775652Y9294475D01*
X757048Y9266631D01*
X733369Y9242952D01*
X705525Y9224348D01*
X674587Y9211533D01*
X641743Y9205000D01*
X625000D01*
D01*
D02*
G37*
G36*
X5705000Y625000D02*
Y608256D01*
X5711532Y575413D01*
X5724347Y544475D01*
X5742952Y516631D01*
X5766631Y492952D01*
X5794474Y474348D01*
X5825412Y461533D01*
X5858256Y455000D01*
X5874999D01*
X5891743D01*
X5924586Y461533D01*
X5955525Y474348D01*
X5983368Y492952D01*
X6007047Y516631D01*
X6025651Y544475D01*
X6038466Y575413D01*
X6044999Y608256D01*
Y625000D01*
Y641743D01*
X6038466Y674587D01*
X6025651Y705525D01*
X6007047Y733369D01*
X5983368Y757048D01*
X5955525Y775652D01*
X5924586Y788467D01*
X5891743Y795000D01*
X5874999D01*
X5858256D01*
X5825412Y788467D01*
X5794474Y775652D01*
X5766631Y757048D01*
X5742952Y733369D01*
X5724347Y705525D01*
X5711532Y674587D01*
X5705000Y641743D01*
Y625000D01*
D01*
D02*
G37*
G36*
X625000Y9205000D02*
X608256D01*
X575413Y9211533D01*
X544475Y9224348D01*
X516631Y9242952D01*
X492952Y9266631D01*
X474348Y9294475D01*
X461533Y9325413D01*
X455000Y9358256D01*
Y9375000D01*
Y9391743D01*
X461533Y9424587D01*
X474348Y9455525D01*
X492952Y9483369D01*
X516631Y9507048D01*
X544475Y9525652D01*
X575413Y9538467D01*
X608256Y9545000D01*
X625000D01*
X641743D01*
X674587Y9538467D01*
X705525Y9525652D01*
X733369Y9507048D01*
X757048Y9483369D01*
X775652Y9455525D01*
X788467Y9424587D01*
X795000Y9391743D01*
Y9375000D01*
Y9358256D01*
X788467Y9325413D01*
X775652Y9294475D01*
X757048Y9266631D01*
X733369Y9242952D01*
X705525Y9224348D01*
X674587Y9211533D01*
X641743Y9205000D01*
X625000D01*
D01*
D02*
G37*
G36*
Y455000D02*
X608256D01*
X575413Y461533D01*
X544475Y474348D01*
X516631Y492952D01*
X492952Y516631D01*
X474348Y544475D01*
X461533Y575413D01*
X455000Y608256D01*
Y625000D01*
Y641743D01*
X461533Y674587D01*
X474348Y705525D01*
X492952Y733369D01*
X516631Y757048D01*
X544475Y775652D01*
X575413Y788467D01*
X608256Y795000D01*
X625000D01*
X641743D01*
X674587Y788467D01*
X705525Y775652D01*
X733369Y757048D01*
X757048Y733369D01*
X775652Y705525D01*
X788467Y674587D01*
X795000Y641743D01*
Y625000D01*
Y608256D01*
X788467Y575413D01*
X775652Y544475D01*
X757048Y516631D01*
X733369Y492952D01*
X705525Y474348D01*
X674587Y461533D01*
X641743Y455000D01*
X625000D01*
D01*
D02*
G37*
D57*
X0Y0D02*
X6500037D01*
Y9999987D01*
X0D01*
Y0D01*
%TF.MD5,e16de85e652da72b137d1678db554329*%
M02*
