G04*
G04 #@! TF.GenerationSoftware,Altium Limited,Altium Designer,25.2.1 (25)*
G04*
G04 Layer_Color=32768*
%FSLAX44Y44*%
%MOMM*%
G71*
G04*
G04 #@! TF.SameCoordinates,6FBFE696-48CE-430D-A149-04A0BAA6C4F4*
G04*
G04*
G04 #@! TF.FilePolarity,Positive*
G04*
G01*
G75*
%ADD11C,0.1524*%
%ADD52C,0.0500*%
%ADD54C,0.1000*%
G36*
X628370Y126434D02*
X610971D01*
Y123894D01*
X550773D01*
Y126434D01*
X533374D01*
Y880814D01*
X550773D01*
Y883354D01*
X576173D01*
Y880814D01*
X628370D01*
Y126434D01*
D02*
G37*
D11*
Y880814D01*
X576173D02*
X628370D01*
X576173D02*
Y883354D01*
X550773D02*
X576173D01*
X550773Y880814D02*
Y883354D01*
X533374Y880814D02*
X550773D01*
X533374Y126434D02*
Y880814D01*
Y126434D02*
X550773D01*
Y123894D02*
Y126434D01*
Y123894D02*
X610971D01*
Y126434D01*
X628370D01*
D52*
X11001Y511356D02*
Y627956D01*
X133601D01*
Y511356D02*
Y627956D01*
X11001Y511356D02*
X133601D01*
X5657Y130247D02*
Y246847D01*
X128257D01*
Y130247D02*
Y246847D01*
X5657Y130247D02*
X128257D01*
X8474Y321361D02*
Y437961D01*
X131074D01*
Y321361D02*
Y437961D01*
X8474Y321361D02*
X131074D01*
X447993Y95981D02*
X502993D01*
Y26981D02*
Y95981D01*
X447993Y26981D02*
X502993D01*
X447993D02*
Y95981D01*
X198317Y911683D02*
X253317D01*
X198317D02*
Y980683D01*
X253317D01*
Y911683D02*
Y980683D01*
X381885Y915110D02*
X436885D01*
X381885D02*
Y984110D01*
X436885D01*
Y915110D02*
Y984110D01*
X397125Y749717D02*
Y794717D01*
X429125Y749717D02*
Y794717D01*
X397125D02*
X429125D01*
X397125Y749717D02*
X429125D01*
X143011Y94997D02*
X198011D01*
Y25997D02*
Y94997D01*
X143011Y25997D02*
X198011D01*
X143011D02*
Y94997D01*
X81102Y444454D02*
Y499454D01*
X12102Y444454D02*
X81102D01*
X12102D02*
Y499454D01*
X81102D01*
X82834Y256102D02*
Y311102D01*
X13834Y256102D02*
X82834D01*
X13834D02*
Y311102D01*
X82834D01*
X196449Y511356D02*
Y627956D01*
X319049D01*
Y511356D02*
Y627956D01*
X196449Y511356D02*
X319049D01*
X196449Y321361D02*
Y437961D01*
X319049D01*
Y321361D02*
Y437961D01*
X196449Y321361D02*
X319049D01*
X386950D02*
Y437961D01*
X509550D01*
Y321361D02*
Y437961D01*
X386950Y321361D02*
X509550D01*
X386950Y130247D02*
Y246847D01*
X509550D01*
Y130247D02*
Y246847D01*
X386950Y130247D02*
X509550D01*
X196449D02*
Y246847D01*
X319049D01*
Y130247D02*
Y246847D01*
X196449Y130247D02*
X319049D01*
X386950Y511356D02*
Y627956D01*
X509550D01*
Y511356D02*
Y627956D01*
X386950Y511356D02*
X509550D01*
X213177Y811445D02*
X256177D01*
X213177Y836445D02*
X256177D01*
Y811445D02*
Y836445D01*
X213177Y811445D02*
Y836445D01*
X213177Y759579D02*
X256177D01*
X213177Y784579D02*
X256177D01*
Y759579D02*
Y784579D01*
X213177Y759579D02*
Y784579D01*
X213177Y784855D02*
X256177D01*
X213177Y809855D02*
X256177D01*
Y784855D02*
Y809855D01*
X213177Y784855D02*
Y809855D01*
X105707Y122497D02*
X148207D01*
Y139997D01*
X105707D02*
X148207D01*
X105707Y122497D02*
Y139997D01*
X367000D02*
X409500D01*
X367000Y122497D02*
Y139997D01*
Y122497D02*
X409500D01*
Y139997D01*
X296499Y122497D02*
X338999D01*
Y139997D01*
X296499D02*
X338999D01*
X296499Y122497D02*
Y139997D01*
Y503606D02*
X338999D01*
Y521106D01*
X296499D02*
X338999D01*
X296499Y503606D02*
Y521106D01*
X111051Y503606D02*
X153551D01*
Y521106D01*
X111051D02*
X153551D01*
X111051Y503606D02*
Y521106D01*
X367000Y331110D02*
X409500D01*
X367000Y313610D02*
Y331110D01*
Y313610D02*
X409500D01*
Y331110D01*
X296499Y313610D02*
X338999D01*
Y331110D01*
X296499D02*
X338999D01*
X296499Y313610D02*
Y331110D01*
X108524Y313610D02*
X151024D01*
Y331110D01*
X108524D02*
X151024D01*
X108524Y313610D02*
Y331110D01*
X367000Y521106D02*
X409500D01*
X367000Y503606D02*
Y521106D01*
Y503606D02*
X409500D01*
Y521106D01*
X559881Y444454D02*
X628881D01*
Y499454D01*
X559881D02*
X628881D01*
X559881Y444454D02*
Y499454D01*
X561612Y256102D02*
X630612D01*
Y311102D01*
X561612D02*
X630612D01*
X561612Y256102D02*
Y311102D01*
X559881Y719201D02*
X628881D01*
Y774201D01*
X559881D02*
X628881D01*
X559881Y719201D02*
Y774201D01*
X12102D02*
X81102D01*
X12102Y719201D02*
Y774201D01*
Y719201D02*
X81102D01*
Y774201D01*
D54*
X67301Y579356D02*
X77301D01*
X72301Y574356D02*
Y584356D01*
X61957Y198247D02*
X71957D01*
X66957Y193247D02*
Y203247D01*
X64774Y389361D02*
X74774D01*
X69774Y384361D02*
Y394361D01*
X408125Y772217D02*
X418125D01*
X413125Y767217D02*
Y777217D01*
X252749Y579356D02*
X262749D01*
X257749Y574356D02*
Y584356D01*
X252749Y389361D02*
X262749D01*
X257749Y384361D02*
Y394361D01*
X443250Y389361D02*
X453250D01*
X448250Y384361D02*
Y394361D01*
X443250Y198247D02*
X453250D01*
X448250Y193247D02*
Y203247D01*
X252749Y198247D02*
X262749D01*
X257749Y193247D02*
Y203247D01*
X443250Y579356D02*
X453250D01*
X448250Y574356D02*
Y584356D01*
X234677Y818945D02*
Y828945D01*
X229677Y823945D02*
X239677D01*
X234677Y767079D02*
Y777079D01*
X229677Y772079D02*
X239677D01*
X234677Y792355D02*
Y802355D01*
X229677Y797355D02*
X239677D01*
X121957Y131247D02*
X131957D01*
X126957Y126247D02*
Y136247D01*
X383250Y131247D02*
X393250D01*
X388250Y126247D02*
Y136247D01*
X312749Y131247D02*
X322749D01*
X317749Y126247D02*
Y136247D01*
X312749Y512356D02*
X322749D01*
X317749Y507356D02*
Y517356D01*
X127301Y512356D02*
X137301D01*
X132301Y507356D02*
Y517356D01*
X383250Y322360D02*
X393250D01*
X388250Y317360D02*
Y327360D01*
X312749Y322360D02*
X322749D01*
X317749Y317360D02*
Y327360D01*
X124774Y322360D02*
X134774D01*
X129774Y317360D02*
Y327360D01*
X383250Y512356D02*
X393250D01*
X388250Y507356D02*
Y517356D01*
M02*
