G04*
G04 #@! TF.GenerationSoftware,Altium Limited,Altium Designer,25.2.1 (25)*
G04*
G04 Layer_Color=255*
%FSLAX44Y44*%
%MOMM*%
G71*
G04*
G04 #@! TF.SameCoordinates,6FBFE696-48CE-430D-A149-04A0BAA6C4F4*
G04*
G04*
G04 #@! TF.FilePolarity,Positive*
G04*
G01*
G75*
%ADD14O,5.0800X2.0320*%
%ADD15R,3.0000X1.2000*%
%ADD16R,1.2000X1.5000*%
%ADD23C,2.0320*%
%ADD24R,2.0320X2.0320*%
%ADD26C,1.9000*%
%ADD27R,1.9000X1.9000*%
%ADD28C,2.0000*%
D14*
X475092Y952458D02*
D03*
Y926635D02*
D03*
Y900811D02*
D03*
Y874988D02*
D03*
Y849165D02*
D03*
Y823341D02*
D03*
Y797518D02*
D03*
Y771695D02*
D03*
Y745871D02*
D03*
Y720048D02*
D03*
Y694225D02*
D03*
Y668401D02*
D03*
X297292Y978281D02*
D03*
Y952458D02*
D03*
Y926635D02*
D03*
Y900811D02*
D03*
Y874988D02*
D03*
X296022Y850011D02*
D03*
X297292Y823341D02*
D03*
Y797518D02*
D03*
Y771695D02*
D03*
Y745871D02*
D03*
Y720048D02*
D03*
Y694225D02*
D03*
Y668401D02*
D03*
X475092Y978281D02*
D03*
D15*
X29893Y792284D02*
D03*
Y817284D02*
D03*
Y842284D02*
D03*
Y867284D02*
D03*
X84893Y792284D02*
D03*
Y817284D02*
D03*
Y842284D02*
D03*
Y867284D02*
D03*
D16*
X245177Y823945D02*
D03*
X224177D02*
D03*
X245177Y772079D02*
D03*
X224177D02*
D03*
X245177Y797355D02*
D03*
X224177D02*
D03*
D23*
X622782Y189934D02*
D03*
Y817314D02*
D03*
X538962Y178504D02*
D03*
Y828744D02*
D03*
X598271Y136594D02*
D03*
X563473D02*
D03*
D24*
Y870654D02*
D03*
D26*
X21501Y617456D02*
D03*
X123101D02*
D03*
X16157Y236347D02*
D03*
X117757D02*
D03*
X18974Y427461D02*
D03*
X120574D02*
D03*
X206949Y617456D02*
D03*
X308549D02*
D03*
X206949Y427461D02*
D03*
X308549D02*
D03*
X397450D02*
D03*
X499050D02*
D03*
X397450Y236347D02*
D03*
X499050D02*
D03*
X206949D02*
D03*
X308549D02*
D03*
X397450Y617456D02*
D03*
X499050D02*
D03*
D27*
X72301D02*
D03*
X66957Y236347D02*
D03*
X69774Y427461D02*
D03*
X257749Y617456D02*
D03*
Y427461D02*
D03*
X448250D02*
D03*
Y236347D02*
D03*
X257749D02*
D03*
X448250Y617456D02*
D03*
D28*
X72301Y528556D02*
D03*
X66957Y147447D02*
D03*
X69774Y338560D02*
D03*
X257749Y528556D02*
D03*
Y338560D02*
D03*
X448250D02*
D03*
Y147447D02*
D03*
X257749D02*
D03*
X448250Y528556D02*
D03*
M02*
