G04*
G04 #@! TF.GenerationSoftware,Altium Limited,Altium Designer,25.2.1 (25)*
G04*
G04 Layer_Color=128*
%FSLAX44Y44*%
%MOMM*%
G71*
G04*
G04 #@! TF.SameCoordinates,6FBFE696-48CE-430D-A149-04A0BAA6C4F4*
G04*
G04*
G04 #@! TF.FilePolarity,Positive*
G04*
G01*
G75*
%ADD49C,0.1270*%
D49*
X109725Y826855D02*
X116837D01*
X113281Y823299D02*
Y830411D01*
X343215Y117725D02*
X350327D01*
X346771Y114169D02*
Y121281D01*
X352071Y302826D02*
X359183D01*
X355627Y299270D02*
Y306382D01*
X410054Y722596D02*
X417166D01*
X413610Y719040D02*
Y726152D01*
X130612Y816052D02*
X137724D01*
X134168Y812496D02*
Y819608D01*
X253882Y693192D02*
X260994D01*
X257438Y689636D02*
Y696748D01*
X253492Y669074D02*
X260604D01*
X257048Y665518D02*
Y672630D01*
X43046Y499454D02*
X50158D01*
X46602Y495898D02*
Y503010D01*
X44778Y308602D02*
X51890D01*
X48334Y305046D02*
Y312158D01*
X152508Y61548D02*
X159620D01*
X156064Y57992D02*
Y65104D01*
X444437Y61481D02*
X451549D01*
X447993Y57925D02*
Y65037D01*
X590016Y256102D02*
X597128D01*
X593572Y252546D02*
Y259658D01*
X590016Y444454D02*
X597128D01*
X593572Y440898D02*
Y448010D01*
X590016Y721701D02*
X597128D01*
X593572Y718145D02*
Y725257D01*
X247261Y946183D02*
X254373D01*
X250817Y942627D02*
Y949739D01*
X433329Y949610D02*
X440441D01*
X436885Y946054D02*
Y953166D01*
X433010Y783816D02*
X440122D01*
X436566Y780260D02*
Y787372D01*
M02*
