G04*
G04 #@! TF.GenerationSoftware,Altium Limited,Altium Designer,25.2.1 (25)*
G04*
G04 Layer_Physical_Order=4*
G04 Layer_Color=16711680*
%FSLAX42Y42*%
%MOMM*%
G71*
G04*
G04 #@! TF.SameCoordinates,372558BA-D2E2-4F7E-91D4-F70FF9730948*
G04*
G04*
G04 #@! TF.FilePolarity,Positive*
G04*
G01*
G75*
%ADD13C,0.25*%
%ADD23C,2.03*%
%ADD24R,2.03X2.03*%
%ADD26C,1.90*%
%ADD27R,1.90X1.90*%
%ADD28C,2.00*%
%ADD29C,1.27*%
%ADD39R,1.00X1.50*%
G04:AMPARAMS|DCode=40|XSize=0.45mm|YSize=1.05mm|CornerRadius=0.05mm|HoleSize=0mm|Usage=FLASHONLY|Rotation=0.000|XOffset=0mm|YOffset=0mm|HoleType=Round|Shape=RoundedRectangle|*
%AMROUNDEDRECTD40*
21,1,0.45,0.95,0,0,0.0*
21,1,0.35,1.05,0,0,0.0*
1,1,0.10,0.18,-0.48*
1,1,0.10,-0.18,-0.48*
1,1,0.10,-0.18,0.48*
1,1,0.10,0.18,0.48*
%
%ADD40ROUNDEDRECTD40*%
%ADD41R,1.50X1.00*%
G04:AMPARAMS|DCode=42|XSize=1.3mm|YSize=0.76mm|CornerRadius=0.1mm|HoleSize=0mm|Usage=FLASHONLY|Rotation=270.000|XOffset=0mm|YOffset=0mm|HoleType=Round|Shape=RoundedRectangle|*
%AMROUNDEDRECTD42*
21,1,1.30,0.57,0,0,270.0*
21,1,1.11,0.76,0,0,270.0*
1,1,0.19,-0.28,-0.56*
1,1,0.19,-0.28,0.56*
1,1,0.19,0.28,0.56*
1,1,0.19,0.28,-0.56*
%
%ADD42ROUNDEDRECTD42*%
%ADD43R,0.90X0.95*%
D13*
X812Y2361D02*
G03*
X847Y2234I662J113D01*
G01*
Y2234D02*
G03*
X1059Y1907I873J334D01*
G01*
X861Y3852D02*
G03*
X867Y3893I-138J41D01*
G01*
X784Y3750D02*
G03*
X829Y3788I-87J144D01*
G01*
X1176Y1859D02*
G03*
X1173Y1860I-6J-25D01*
G01*
X1101Y1879D02*
G03*
X1173Y1860I102J236D01*
G01*
X1190Y1850D02*
G03*
X1184Y1856I-20J-16D01*
G01*
X1059Y1907D02*
G03*
X1101Y1879I94J94D01*
G01*
X1112Y7734D02*
Y7977D01*
X1133Y7998D01*
Y8269D01*
X1112Y7734D02*
X1874Y6972D01*
X728Y2562D02*
Y2676D01*
Y2562D02*
X812Y2478D01*
Y2361D02*
Y2478D01*
X6381Y1510D02*
Y2146D01*
X5731Y860D02*
X6381Y1510D01*
X6206Y2321D02*
X6381Y2146D01*
X4203Y7532D02*
Y7593D01*
X4196Y7600D02*
X4203Y7593D01*
Y7532D02*
X4360Y7375D01*
X3978Y7600D02*
X4066D01*
X3852Y7474D02*
X3978Y7600D01*
X4141Y7231D02*
Y7412D01*
X4132Y7421D02*
X4141Y7412D01*
X4136Y7226D02*
X4141Y7231D01*
X4132Y7421D02*
Y7599D01*
X3681Y4846D02*
Y4858D01*
X3538Y4830D02*
X3666D01*
X3681Y4846D01*
Y4858D02*
X3725Y4901D01*
Y5124D01*
X3497Y4871D02*
X3538Y4830D01*
X3468Y1177D02*
X3592D01*
X3725Y1310D01*
X3448Y1158D02*
X3468Y1177D01*
X1582Y1158D02*
X3448D01*
X3335Y1310D02*
X3468Y1177D01*
X1427Y1310D02*
Y1312D01*
Y1310D02*
X1459Y1278D01*
X1462D01*
X1582Y1158D01*
X3335Y1310D02*
Y1312D01*
X3537Y3048D02*
X3556Y3028D01*
X3508Y3048D02*
X3537D01*
X3335Y3221D02*
X3508Y3048D01*
X3335Y3221D02*
Y3224D01*
X1455Y3221D02*
Y3224D01*
Y3221D02*
X1488Y3189D01*
X1490D01*
X1651Y3028D01*
X3556D01*
X3725Y3221D02*
Y3224D01*
X3556Y3052D02*
X3725Y3221D01*
X3556Y3028D02*
Y3052D01*
X1731Y4871D02*
X3497D01*
X1481Y5121D02*
X1731Y4871D01*
X3335Y5033D02*
X3497Y4871D01*
X3335Y5033D02*
Y5124D01*
X1481Y5121D02*
Y5124D01*
X1342Y8161D02*
X1344D01*
X2572Y6932D01*
X2574D01*
X2289Y6972D02*
X2570Y6691D01*
X1874Y6972D02*
X2289D01*
X466Y7717D02*
X556Y7627D01*
X711D01*
X5699Y7307D02*
X5736Y7270D01*
X5856D01*
X5908Y7217D01*
X5936D01*
Y7742D02*
X5937Y7741D01*
X6050D02*
X6164Y7627D01*
X5937Y7741D02*
X6050D01*
X6164Y7627D02*
X6189D01*
X6164Y4880D02*
X6189D01*
X6049Y4995D02*
X6164Y4880D01*
X5936Y4995D02*
X6049D01*
X5699Y4560D02*
X5821D01*
X5936Y4445D01*
X5716Y2676D02*
X5821D01*
X5936Y2561D01*
X4595Y730D02*
Y860D01*
X4480Y615D02*
X4595Y730D01*
X691Y3033D02*
X728Y2996D01*
X564Y3033D02*
X691D01*
X511Y3086D02*
X564Y3033D01*
X483Y3086D02*
X511D01*
X1545Y850D02*
X1561Y834D01*
Y615D02*
Y834D01*
X686Y4880D02*
X711D01*
X571Y4995D02*
X686Y4880D01*
X466Y4995D02*
X571D01*
X4369Y9391D02*
Y9496D01*
X4254Y9276D02*
X4369Y9391D01*
X4254Y9251D02*
Y9276D01*
X2418Y9217D02*
X2455Y9254D01*
Y9382D01*
X2508Y9434D01*
Y9462D01*
X221Y7627D02*
Y7836D01*
X1602Y9217D02*
X2098D01*
X221Y7836D02*
X1602Y9217D01*
X221Y5005D02*
X918Y5702D01*
X221Y4880D02*
Y5005D01*
X5716Y2996D02*
Y3532D01*
X6189Y4004D01*
Y4560D01*
Y6508D02*
Y7307D01*
X5699Y4880D02*
Y6018D01*
X6189Y6508D01*
X3257Y9251D02*
X3934D01*
X2801Y9707D02*
X3257Y9251D01*
X2418Y9707D02*
X2801D01*
X3934Y9716D02*
Y9741D01*
X3754Y9536D02*
X3934Y9716D01*
X3716Y9536D02*
X3754D01*
X3697Y9517D02*
X3716Y9536D01*
X2098Y9682D02*
Y9707D01*
X1983Y9567D02*
X2098Y9682D01*
X1983Y9462D02*
Y9567D01*
X351Y7307D02*
X466Y7192D01*
X221Y7307D02*
X351D01*
X918Y5702D02*
Y7100D01*
X711Y7307D02*
X918Y7100D01*
X221Y4560D02*
X258Y4522D01*
X388D01*
X466Y4445D01*
X711Y4560D02*
X867Y4404D01*
Y3893D02*
Y4404D01*
X238Y2996D02*
Y3203D01*
X829Y3788D02*
X852Y3817D01*
X861Y3852D01*
X238Y3203D02*
X784Y3750D01*
X238Y2676D02*
X263D01*
X375Y2526D02*
Y2564D01*
X263Y2676D02*
X375Y2564D01*
Y2526D02*
X395Y2506D01*
X1059Y1907D02*
X1059Y1907D01*
X1190Y1850D02*
X1195Y1843D01*
X1180Y1858D02*
X1184Y1856D01*
X1176Y1859D02*
X1180Y1858D01*
X1195Y745D02*
Y1843D01*
Y745D02*
X1195Y735D01*
X1202Y728D01*
X1545Y385D01*
X1865Y360D02*
Y385D01*
X1980Y500D01*
Y605D01*
X1865Y850D02*
X3410D01*
X3891Y370D02*
X4595D01*
X3410Y850D02*
X3891Y370D01*
X4915D02*
Y395D01*
X5030Y510D01*
Y615D01*
X5936Y3111D02*
X6051Y2996D01*
X6206D01*
X4203Y7838D02*
X4366D01*
X4196Y7845D02*
X4203Y7838D01*
X5976Y1373D02*
X5983Y1366D01*
X4915Y860D02*
X5731D01*
X4066Y7845D02*
X4071Y7840D01*
X4136Y7975D02*
X4572D01*
X4071Y7910D02*
X4136Y7975D01*
X4131Y7845D02*
X4134Y7842D01*
Y7754D02*
Y7842D01*
Y7754D02*
X4196Y7692D01*
Y7600D02*
Y7692D01*
X5354Y7627D02*
X5699D01*
X5049Y7932D02*
X5354Y7627D01*
X4776Y7932D02*
X5049D01*
X4751Y7958D02*
X4776Y7932D01*
X4751Y7958D02*
Y7975D01*
X4071Y7849D02*
Y7910D01*
X4066Y7845D02*
X4071Y7849D01*
X4131Y7600D02*
X4132Y7599D01*
X1545Y360D02*
Y385D01*
X6206Y2321D02*
Y2676D01*
X5671Y7599D02*
X5699Y7627D01*
X2739Y5124D02*
X3020D01*
X2577Y5286D02*
X2739Y5124D01*
X885D02*
X1166D01*
X723Y5286D02*
X885Y5124D01*
X2739Y3224D02*
X3020D01*
X2577Y3386D02*
X2739Y3224D01*
X860D02*
X1140D01*
X698Y3386D02*
X860Y3224D01*
X670Y1474D02*
X832Y1312D01*
X1112D01*
X2577Y1474D02*
X2739Y1312D01*
X3020D01*
X4320D02*
X4482Y1474D01*
X4040Y1312D02*
X4320D01*
Y3224D02*
X4482Y3386D01*
X4040Y3224D02*
X4320D01*
Y5124D02*
X4482Y5286D01*
X4040Y5124D02*
X4320D01*
D23*
X6228Y1899D02*
D03*
Y8173D02*
D03*
X5390Y1785D02*
D03*
Y8287D02*
D03*
X5983Y1366D02*
D03*
X5635D02*
D03*
D24*
Y8707D02*
D03*
D26*
X215Y6175D02*
D03*
X1231D02*
D03*
X162Y2363D02*
D03*
X1178D02*
D03*
X190Y4275D02*
D03*
X1206D02*
D03*
X2069Y6175D02*
D03*
X3085D02*
D03*
X2069Y4275D02*
D03*
X3085D02*
D03*
X3974D02*
D03*
X4990D02*
D03*
X3974Y2363D02*
D03*
X4990D02*
D03*
X2069D02*
D03*
X3085D02*
D03*
X3974Y6175D02*
D03*
X4990D02*
D03*
D27*
X723D02*
D03*
X670Y2363D02*
D03*
X698Y4275D02*
D03*
X2577Y6175D02*
D03*
Y4275D02*
D03*
X4482D02*
D03*
Y2363D02*
D03*
X2577D02*
D03*
X4482Y6175D02*
D03*
D28*
X723Y5286D02*
D03*
X670Y1474D02*
D03*
X698Y3386D02*
D03*
X2577Y5286D02*
D03*
Y3386D02*
D03*
X4482D02*
D03*
Y1474D02*
D03*
X2577D02*
D03*
X4482Y5286D02*
D03*
D29*
X1133Y8269D02*
D03*
X4360Y7375D02*
D03*
X3852Y7474D02*
D03*
X3681Y4846D02*
D03*
X3468Y1177D02*
D03*
X3556Y3028D02*
D03*
X4136Y7226D02*
D03*
X1342Y8161D02*
D03*
X2574Y6932D02*
D03*
X2570Y6691D02*
D03*
X466Y7717D02*
D03*
X5936Y7742D02*
D03*
X466Y4995D02*
D03*
X483Y3086D02*
D03*
X1561Y615D02*
D03*
X4480Y615D02*
D03*
X5936Y2561D02*
D03*
Y4445D02*
D03*
Y7217D02*
D03*
X2508Y9462D02*
D03*
X4369Y9496D02*
D03*
X466Y7192D02*
D03*
Y4445D02*
D03*
X395Y2506D02*
D03*
X1980Y605D02*
D03*
X3697Y9517D02*
D03*
X1983Y9462D02*
D03*
X5030Y615D02*
D03*
X5936Y3111D02*
D03*
Y4995D02*
D03*
X4366Y7838D02*
D03*
D39*
X4915Y370D02*
D03*
Y860D02*
D03*
X4595Y370D02*
D03*
Y860D02*
D03*
X2098Y9707D02*
D03*
Y9217D02*
D03*
X2418Y9707D02*
D03*
Y9217D02*
D03*
X3934Y9741D02*
D03*
Y9251D02*
D03*
X4254Y9741D02*
D03*
Y9251D02*
D03*
X1865Y360D02*
D03*
Y850D02*
D03*
X1545Y360D02*
D03*
Y850D02*
D03*
D40*
X4196Y7845D02*
D03*
X4131D02*
D03*
X4066D02*
D03*
Y7600D02*
D03*
X4131D02*
D03*
X4196D02*
D03*
D41*
X221Y4560D02*
D03*
X711D02*
D03*
X221Y4880D02*
D03*
X711D02*
D03*
X238Y2676D02*
D03*
X728D02*
D03*
X238Y2996D02*
D03*
X728D02*
D03*
X5699Y4560D02*
D03*
X6189D02*
D03*
X5699Y4880D02*
D03*
X6189D02*
D03*
X5716Y2676D02*
D03*
X6206D02*
D03*
X5716Y2996D02*
D03*
X6206D02*
D03*
X5699Y7307D02*
D03*
X6189D02*
D03*
X5699Y7627D02*
D03*
X6189D02*
D03*
X711D02*
D03*
X221D02*
D03*
X711Y7307D02*
D03*
X221D02*
D03*
D42*
X4572Y7975D02*
D03*
X4751D02*
D03*
D43*
X1112Y1312D02*
D03*
X1427Y1312D02*
D03*
X4040Y1312D02*
D03*
X3725Y1312D02*
D03*
X3020Y1312D02*
D03*
X3335Y1312D02*
D03*
X3020Y5124D02*
D03*
X3335Y5124D02*
D03*
X1166Y5124D02*
D03*
X1481Y5124D02*
D03*
X4040Y3224D02*
D03*
X3725Y3224D02*
D03*
X3020Y3224D02*
D03*
X3335Y3224D02*
D03*
X1140Y3224D02*
D03*
X1455Y3224D02*
D03*
X4040Y5124D02*
D03*
X3725Y5124D02*
D03*
M02*
