%TF.GenerationSoftware,Altium Limited,Altium Designer,25.2.1 (25)*%
G04 Layer_Color=2752767*
%FSLAX45Y45*%
%MOMM*%
%TF.SameCoordinates,DBF3E2B7-33B5-4ACE-A245-667DA10812C1*%
%TF.FilePolarity,Positive*%
%TF.FileFunction,Drawing*%
%TF.Part,Single*%
G01*
G75*
%TA.AperFunction,NonConductor*%
%ADD38C,0.12700*%
%ADD65C,0.16933*%
D38*
X215006Y5742763D02*
X164206Y5844363D01*
X265806D01*
X215006Y5742763D01*
Y6123763D02*
X240406Y6149163D01*
X265806D01*
X240406Y6174563D01*
X265806Y6199963D01*
X240406D01*
X215006Y6225363D01*
X189606Y6199963D01*
X164206D01*
X189606Y6174563D01*
X164206Y6149163D01*
X189606D01*
X215006Y6123763D01*
X723006D02*
X748406Y6149163D01*
X773806D01*
X748406Y6174563D01*
X773806Y6199963D01*
X748406D01*
X723006Y6225363D01*
X697606Y6199963D01*
X672206D01*
X697606Y6174563D01*
X672206Y6149163D01*
X697606D01*
X723006Y6123763D01*
X1231006D02*
X1256406Y6149163D01*
X1281806D01*
X1256406Y6174563D01*
X1281806Y6199963D01*
X1256406D01*
X1231006Y6225363D01*
X1205606Y6199963D01*
X1180206D01*
X1205606Y6174563D01*
X1180206Y6149163D01*
X1205606D01*
X1231006Y6123763D01*
Y5742763D02*
X1180206Y5844363D01*
X1281806D01*
X1231006Y5742763D01*
X672206D02*
Y5844363D01*
X773806D01*
Y5742763D01*
X672206D01*
X161572Y1931672D02*
X110772Y2033272D01*
X212372D01*
X161572Y1931672D01*
Y2312672D02*
X186972Y2338072D01*
X212372D01*
X186972Y2363472D01*
X212372Y2388872D01*
X186972D01*
X161572Y2414272D01*
X136172Y2388872D01*
X110772D01*
X136172Y2363472D01*
X110772Y2338072D01*
X136172D01*
X161572Y2312672D01*
X669572D02*
X694972Y2338072D01*
X720372D01*
X694972Y2363472D01*
X720372Y2388872D01*
X694972D01*
X669572Y2414272D01*
X644172Y2388872D01*
X618772D01*
X644172Y2363472D01*
X618772Y2338072D01*
X644172D01*
X669572Y2312672D01*
X1177572D02*
X1202972Y2338072D01*
X1228372D01*
X1202972Y2363472D01*
X1228372Y2388872D01*
X1202972D01*
X1177572Y2414272D01*
X1152172Y2388872D01*
X1126772D01*
X1152172Y2363472D01*
X1126772Y2338072D01*
X1152172D01*
X1177572Y2312672D01*
Y1931672D02*
X1126772Y2033272D01*
X1228372D01*
X1177572Y1931672D01*
X618772D02*
Y2033272D01*
X720372D01*
Y1931672D01*
X618772D01*
X189740Y3842805D02*
X138940Y3944405D01*
X240540D01*
X189740Y3842805D01*
Y4223805D02*
X215140Y4249205D01*
X240540D01*
X215140Y4274605D01*
X240540Y4300005D01*
X215140D01*
X189740Y4325405D01*
X164340Y4300005D01*
X138940D01*
X164340Y4274605D01*
X138940Y4249205D01*
X164340D01*
X189740Y4223805D01*
X697740D02*
X723140Y4249205D01*
X748540D01*
X723140Y4274605D01*
X748540Y4300005D01*
X723140D01*
X697740Y4325405D01*
X672340Y4300005D01*
X646940D01*
X672340Y4274605D01*
X646940Y4249205D01*
X672340D01*
X697740Y4223805D01*
X1205740D02*
X1231140Y4249205D01*
X1256540D01*
X1231140Y4274605D01*
X1256540Y4300005D01*
X1231140D01*
X1205740Y4325405D01*
X1180340Y4300005D01*
X1154940D01*
X1180340Y4274605D01*
X1154940Y4249205D01*
X1180340D01*
X1205740Y4223805D01*
Y3842805D02*
X1154940Y3944405D01*
X1256540D01*
X1205740Y3842805D01*
X646940D02*
Y3944405D01*
X748540D01*
Y3842805D01*
X646940D01*
X6177018Y1848543D02*
X6202418Y1899343D01*
X6177018Y1950143D01*
X6227818Y1924743D01*
X6278618Y1950143D01*
X6253218Y1899343D01*
X6278618Y1848543D01*
X6227818Y1873943D01*
X6177018Y1848543D01*
Y8122343D02*
X6202418Y8173143D01*
X6177018Y8223943D01*
X6227818Y8198543D01*
X6278618Y8223943D01*
X6253218Y8173143D01*
X6278618Y8122343D01*
X6227818Y8147743D01*
X6177018Y8122343D01*
X5338818Y1734243D02*
X5364218Y1785043D01*
X5338818Y1835843D01*
X5389618Y1810443D01*
X5440418Y1835843D01*
X5415018Y1785043D01*
X5440418Y1734243D01*
X5389618Y1759643D01*
X5338818Y1734243D01*
Y8236643D02*
X5364218Y8287443D01*
X5338818Y8338243D01*
X5389618Y8312843D01*
X5440418Y8338243D01*
X5415018Y8287443D01*
X5440418Y8236643D01*
X5389618Y8262043D01*
X5338818Y8236643D01*
X5931908Y1315143D02*
X5957308Y1365943D01*
X5931908Y1416743D01*
X5982708Y1391343D01*
X6033508Y1416743D01*
X6008108Y1365943D01*
X6033508Y1315143D01*
X5982708Y1340543D01*
X5931908Y1315143D01*
X5583928D02*
X5609328Y1365943D01*
X5583928Y1416743D01*
X5634728Y1391343D01*
X5685528Y1416743D01*
X5660128Y1365943D01*
X5685528Y1315143D01*
X5634728Y1340543D01*
X5583928Y1315143D01*
Y8655743D02*
X5609328Y8706543D01*
X5583928Y8757343D01*
X5634728Y8731943D01*
X5685528Y8757343D01*
X5660128Y8706543D01*
X5685528Y8655743D01*
X5634728Y8681143D01*
X5583928Y8655743D01*
X2069487Y5742763D02*
X2018687Y5844363D01*
X2120287D01*
X2069487Y5742763D01*
Y6123763D02*
X2094887Y6149163D01*
X2120287D01*
X2094887Y6174563D01*
X2120287Y6199963D01*
X2094887D01*
X2069487Y6225363D01*
X2044087Y6199963D01*
X2018687D01*
X2044087Y6174563D01*
X2018687Y6149163D01*
X2044087D01*
X2069487Y6123763D01*
X2577487D02*
X2602887Y6149163D01*
X2628287D01*
X2602887Y6174563D01*
X2628287Y6199963D01*
X2602887D01*
X2577487Y6225363D01*
X2552087Y6199963D01*
X2526687D01*
X2552087Y6174563D01*
X2526687Y6149163D01*
X2552087D01*
X2577487Y6123763D01*
X3085487D02*
X3110887Y6149163D01*
X3136287D01*
X3110887Y6174563D01*
X3136287Y6199963D01*
X3110887D01*
X3085487Y6225363D01*
X3060087Y6199963D01*
X3034687D01*
X3060087Y6174563D01*
X3034687Y6149163D01*
X3060087D01*
X3085487Y6123763D01*
Y5742763D02*
X3034687Y5844363D01*
X3136287D01*
X3085487Y5742763D01*
X2526687D02*
Y5844363D01*
X2628287D01*
Y5742763D01*
X2526687D01*
X2069487Y3842805D02*
X2018687Y3944405D01*
X2120287D01*
X2069487Y3842805D01*
Y4223805D02*
X2094887Y4249205D01*
X2120287D01*
X2094887Y4274605D01*
X2120287Y4300005D01*
X2094887D01*
X2069487Y4325405D01*
X2044087Y4300005D01*
X2018687D01*
X2044087Y4274605D01*
X2018687Y4249205D01*
X2044087D01*
X2069487Y4223805D01*
X2577487D02*
X2602887Y4249205D01*
X2628287D01*
X2602887Y4274605D01*
X2628287Y4300005D01*
X2602887D01*
X2577487Y4325405D01*
X2552087Y4300005D01*
X2526687D01*
X2552087Y4274605D01*
X2526687Y4249205D01*
X2552087D01*
X2577487Y4223805D01*
X3085487D02*
X3110887Y4249205D01*
X3136287D01*
X3110887Y4274605D01*
X3136287Y4300005D01*
X3110887D01*
X3085487Y4325405D01*
X3060087Y4300005D01*
X3034687D01*
X3060087Y4274605D01*
X3034687Y4249205D01*
X3060087D01*
X3085487Y4223805D01*
Y3842805D02*
X3034687Y3944405D01*
X3136287D01*
X3085487Y3842805D01*
X2526687D02*
Y3944405D01*
X2628287D01*
Y3842805D01*
X2526687D01*
X3974499D02*
X3923699Y3944405D01*
X4025299D01*
X3974499Y3842805D01*
Y4223805D02*
X3999899Y4249205D01*
X4025299D01*
X3999899Y4274605D01*
X4025299Y4300005D01*
X3999899D01*
X3974499Y4325405D01*
X3949099Y4300005D01*
X3923699D01*
X3949099Y4274605D01*
X3923699Y4249205D01*
X3949099D01*
X3974499Y4223805D01*
X4482499D02*
X4507899Y4249205D01*
X4533299D01*
X4507899Y4274605D01*
X4533299Y4300005D01*
X4507899D01*
X4482499Y4325405D01*
X4457099Y4300005D01*
X4431699D01*
X4457099Y4274605D01*
X4431699Y4249205D01*
X4457099D01*
X4482499Y4223805D01*
X4990499D02*
X5015899Y4249205D01*
X5041299D01*
X5015899Y4274605D01*
X5041299Y4300005D01*
X5015899D01*
X4990499Y4325405D01*
X4965099Y4300005D01*
X4939699D01*
X4965099Y4274605D01*
X4939699Y4249205D01*
X4965099D01*
X4990499Y4223805D01*
Y3842805D02*
X4939699Y3944405D01*
X5041299D01*
X4990499Y3842805D01*
X4431699D02*
Y3944405D01*
X4533299D01*
Y3842805D01*
X4431699D01*
X3974499Y1931672D02*
X3923699Y2033272D01*
X4025299D01*
X3974499Y1931672D01*
Y2312672D02*
X3999899Y2338072D01*
X4025299D01*
X3999899Y2363472D01*
X4025299Y2388872D01*
X3999899D01*
X3974499Y2414272D01*
X3949099Y2388872D01*
X3923699D01*
X3949099Y2363472D01*
X3923699Y2338072D01*
X3949099D01*
X3974499Y2312672D01*
X4482499D02*
X4507899Y2338072D01*
X4533299D01*
X4507899Y2363472D01*
X4533299Y2388872D01*
X4507899D01*
X4482499Y2414272D01*
X4457099Y2388872D01*
X4431699D01*
X4457099Y2363472D01*
X4431699Y2338072D01*
X4457099D01*
X4482499Y2312672D01*
X4990499D02*
X5015899Y2338072D01*
X5041299D01*
X5015899Y2363472D01*
X5041299Y2388872D01*
X5015899D01*
X4990499Y2414272D01*
X4965099Y2388872D01*
X4939699D01*
X4965099Y2363472D01*
X4939699Y2338072D01*
X4965099D01*
X4990499Y2312672D01*
Y1931672D02*
X4939699Y2033272D01*
X5041299D01*
X4990499Y1931672D01*
X4431699D02*
Y2033272D01*
X4533299D01*
Y1931672D01*
X4431699D01*
X2069487D02*
X2018687Y2033272D01*
X2120287D01*
X2069487Y1931672D01*
Y2312672D02*
X2094887Y2338072D01*
X2120287D01*
X2094887Y2363472D01*
X2120287Y2388872D01*
X2094887D01*
X2069487Y2414272D01*
X2044087Y2388872D01*
X2018687D01*
X2044087Y2363472D01*
X2018687Y2338072D01*
X2044087D01*
X2069487Y2312672D01*
X2577487D02*
X2602887Y2338072D01*
X2628287D01*
X2602887Y2363472D01*
X2628287Y2388872D01*
X2602887D01*
X2577487Y2414272D01*
X2552087Y2388872D01*
X2526687D01*
X2552087Y2363472D01*
X2526687Y2338072D01*
X2552087D01*
X2577487Y2312672D01*
X3085487D02*
X3110887Y2338072D01*
X3136287D01*
X3110887Y2363472D01*
X3136287Y2388872D01*
X3110887D01*
X3085487Y2414272D01*
X3060087Y2388872D01*
X3034687D01*
X3060087Y2363472D01*
X3034687Y2338072D01*
X3060087D01*
X3085487Y2312672D01*
Y1931672D02*
X3034687Y2033272D01*
X3136287D01*
X3085487Y1931672D01*
X2526687D02*
Y2033272D01*
X2628287D01*
Y1931672D01*
X2526687D01*
X3974499Y5742763D02*
X3923699Y5844363D01*
X4025299D01*
X3974499Y5742763D01*
Y6123763D02*
X3999899Y6149163D01*
X4025299D01*
X3999899Y6174563D01*
X4025299Y6199963D01*
X3999899D01*
X3974499Y6225363D01*
X3949099Y6199963D01*
X3923699D01*
X3949099Y6174563D01*
X3923699Y6149163D01*
X3949099D01*
X3974499Y6123763D01*
X4482499D02*
X4507899Y6149163D01*
X4533299D01*
X4507899Y6174563D01*
X4533299Y6199963D01*
X4507899D01*
X4482499Y6225363D01*
X4457099Y6199963D01*
X4431699D01*
X4457099Y6174563D01*
X4431699Y6149163D01*
X4457099D01*
X4482499Y6123763D01*
X4990499D02*
X5015899Y6149163D01*
X5041299D01*
X5015899Y6174563D01*
X5041299Y6199963D01*
X5015899D01*
X4990499Y6225363D01*
X4965099Y6199963D01*
X4939699D01*
X4965099Y6174563D01*
X4939699Y6149163D01*
X4965099D01*
X4990499Y6123763D01*
Y5742763D02*
X4939699Y5844363D01*
X5041299D01*
X4990499Y5742763D01*
X4431699D02*
Y5844363D01*
X4533299D01*
Y5742763D01*
X4431699D01*
X3827010Y7448735D02*
Y7423335D01*
X3877810D01*
Y7448735D01*
X3903210D01*
Y7499535D01*
X3877810D01*
Y7524935D01*
X3827010D01*
Y7499535D01*
X3801610D01*
Y7448735D01*
X3827010D01*
X3655771Y4820231D02*
Y4794831D01*
X3706571D01*
Y4820231D01*
X3731971D01*
Y4871031D01*
X3706571D01*
Y4896431D01*
X3655771D01*
Y4871031D01*
X3630371D01*
Y4820231D01*
X3655771D01*
X440624Y7691608D02*
Y7666208D01*
X491424D01*
Y7691608D01*
X516824D01*
Y7742408D01*
X491424D01*
Y7767808D01*
X440624D01*
Y7742408D01*
X415224D01*
Y7691608D01*
X440624D01*
Y7166608D02*
Y7141208D01*
X491424D01*
Y7166608D01*
X516824D01*
Y7217408D01*
X491424D01*
Y7242808D01*
X440624D01*
Y7217408D01*
X415224D01*
Y7166608D01*
X440624D01*
X5004526Y589411D02*
Y564011D01*
X5055326D01*
Y589411D01*
X5080726D01*
Y640211D01*
X5055326D01*
Y665611D01*
X5004526D01*
Y640211D01*
X4979126D01*
Y589411D01*
X5004526D01*
D65*
X773806Y5285563D02*
G03*
X773806Y5285563I-50800J0D01*
G01*
X720372Y1474472D02*
G03*
X720372Y1474472I-50800J0D01*
G01*
X748540Y3385605D02*
G03*
X748540Y3385605I-50800J0D01*
G01*
X2628287Y5285563D02*
G03*
X2628287Y5285563I-50800J0D01*
G01*
Y3385605D02*
G03*
X2628287Y3385605I-50800J0D01*
G01*
X4533299D02*
G03*
X4533299Y3385605I-50800J0D01*
G01*
Y1474472D02*
G03*
X4533299Y1474472I-50800J0D01*
G01*
X2628287D02*
G03*
X2628287Y1474472I-50800J0D01*
G01*
X4533299Y5285563D02*
G03*
X4533299Y5285563I-50800J0D01*
G01*
%TF.MD5,e228dbe1acd5209985b29f595942abf0*%
M02*
