G04*
G04 #@! TF.GenerationSoftware,Altium Limited,Altium Designer,25.2.1 (25)*
G04*
G04 Layer_Color=8421504*
%FSLAX43Y43*%
%MOMM*%
G71*
G04*
G04 #@! TF.SameCoordinates,240BC811-237E-46BC-B66A-058C9D4012AB*
G04*
G04*
G04 #@! TF.FilePolarity,Positive*
G04*
G01*
G75*
%ADD14O,5.080X2.032*%
%ADD15R,3.000X1.200*%
%ADD16R,1.200X1.500*%
D14*
X47509Y95246D02*
D03*
Y92663D02*
D03*
Y90081D02*
D03*
Y87499D02*
D03*
Y84916D02*
D03*
Y82334D02*
D03*
Y79752D02*
D03*
Y77169D02*
D03*
Y74587D02*
D03*
Y72005D02*
D03*
Y69422D02*
D03*
Y66840D02*
D03*
X29729Y97828D02*
D03*
Y95246D02*
D03*
Y92663D02*
D03*
Y90081D02*
D03*
Y87499D02*
D03*
X29602Y85001D02*
D03*
X29729Y82334D02*
D03*
Y79752D02*
D03*
Y77169D02*
D03*
Y74587D02*
D03*
Y72005D02*
D03*
Y69422D02*
D03*
Y66840D02*
D03*
X47509Y97828D02*
D03*
D15*
X2989Y79228D02*
D03*
Y81728D02*
D03*
Y84228D02*
D03*
Y86728D02*
D03*
X8489Y79228D02*
D03*
Y81728D02*
D03*
Y84228D02*
D03*
Y86728D02*
D03*
D16*
X24518Y82394D02*
D03*
X22418D02*
D03*
X24518Y77208D02*
D03*
X22418D02*
D03*
X24518Y79736D02*
D03*
X22418D02*
D03*
M02*
