%TF.GenerationSoftware,Altium Limited,Altium Designer,25.2.1 (25)*%
G04 Layer_Physical_Order=4*
G04 Layer_Color=16711680*
%FSLAX45Y45*%
%MOMM*%
%TF.SameCoordinates,DBF3E2B7-33B5-4ACE-A245-667DA10812C1*%
%TF.FilePolarity,Positive*%
%TF.FileFunction,Copper,L4,Bot,Signal*%
%TF.Part,Single*%
G01*
G75*
%TA.AperFunction,Conductor*%
%ADD10C,0.25400*%
%TA.AperFunction,ComponentPad*%
%ADD14C,1.90000*%
%ADD15R,1.90000X1.90000*%
%ADD16C,2.00000*%
%ADD17C,2.03200*%
%ADD18R,2.03200X2.03200*%
%TA.AperFunction,ViaPad*%
%ADD19C,1.27000*%
%TA.AperFunction,SMDPad,CuDef*%
%ADD30R,1.00000X1.50000*%
G04:AMPARAMS|DCode=31|XSize=0.45mm|YSize=1.05mm|CornerRadius=0.0495mm|HoleSize=0mm|Usage=FLASHONLY|Rotation=0.000|XOffset=0mm|YOffset=0mm|HoleType=Round|Shape=RoundedRectangle|*
%AMROUNDEDRECTD31*
21,1,0.45000,0.95100,0,0,0.0*
21,1,0.35100,1.05000,0,0,0.0*
1,1,0.09900,0.17550,-0.47550*
1,1,0.09900,-0.17550,-0.47550*
1,1,0.09900,-0.17550,0.47550*
1,1,0.09900,0.17550,0.47550*
%
%ADD31ROUNDEDRECTD31*%
%ADD32R,1.50000X1.00000*%
G04:AMPARAMS|DCode=33|XSize=1.3mm|YSize=0.76mm|CornerRadius=0.095mm|HoleSize=0mm|Usage=FLASHONLY|Rotation=270.000|XOffset=0mm|YOffset=0mm|HoleType=Round|Shape=RoundedRectangle|*
%AMROUNDEDRECTD33*
21,1,1.30000,0.57000,0,0,270.0*
21,1,1.11000,0.76000,0,0,270.0*
1,1,0.19000,-0.28500,-0.55500*
1,1,0.19000,-0.28500,0.55500*
1,1,0.19000,0.28500,0.55500*
1,1,0.19000,0.28500,-0.55500*
%
%ADD33ROUNDEDRECTD33*%
%ADD34R,0.90000X0.95000*%
D10*
X812272Y2361105D02*
G03*
X847107Y2234029I661963J113147D01*
G01*
Y2234029D02*
G03*
X1059135Y1907264I873241J334449D01*
G01*
X860588Y3851913D02*
G03*
X866672Y3893355I-138100J41443D01*
G01*
X784418Y3749575D02*
G03*
X828865Y3788420I-86678J144030D01*
G01*
X1175538Y1859403D02*
G03*
X1172749Y1859892I-5766J-24737D01*
G01*
X1100642Y1879120D02*
G03*
X1172749Y1859892I101544J235980D01*
G01*
X1189785Y1850308D02*
G03*
X1184297Y1855504I-20012J-15642D01*
G01*
X1059136Y1907265D02*
G03*
X1100642Y1879120I94116J94116D01*
G01*
X728339Y2562163D02*
Y2676019D01*
Y2562163D02*
X812272Y2478230D01*
Y2361105D02*
Y2478230D01*
X6380928Y1510163D02*
Y2145991D01*
X5730576Y859811D02*
X6380928Y1510163D01*
X6206122Y2320797D02*
X6380928Y2145991D01*
X4203359Y7531599D02*
Y7592567D01*
X4196252Y7599674D02*
X4203359Y7592567D01*
Y7531599D02*
X4359601Y7375356D01*
X3977948Y7599674D02*
X4066252D01*
X3852410Y7474135D02*
X3977948Y7599674D01*
X4141266Y7231130D02*
Y7411556D01*
X4131611Y7421211D02*
X4141266Y7411556D01*
X4136096Y7225960D02*
X4141266Y7231130D01*
X4131611Y7421211D02*
Y7599315D01*
X3681171Y4845631D02*
Y4857511D01*
X3537622Y4830018D02*
X3665558D01*
X3681171Y4845631D01*
Y4857511D02*
X3724998Y4901338D01*
Y5123564D01*
X3497028Y4870613D02*
X3537622Y4830018D01*
X3467711Y1177248D02*
X3592274D01*
X3724998Y1309972D01*
X3448271Y1157808D02*
X3467711Y1177248D01*
X1581736Y1157808D02*
X3448271D01*
X3334987Y1309972D02*
X3467711Y1177248D01*
X1427072Y1309972D02*
Y1312472D01*
Y1309972D02*
X1459372Y1277672D01*
X1461872D01*
X1581736Y1157808D01*
X3334987Y1309972D02*
Y1312472D01*
X3536826Y3047705D02*
X3556266Y3028264D01*
X3508387Y3047705D02*
X3536826D01*
X3334987Y3221105D02*
X3508387Y3047705D01*
X3334987Y3221105D02*
Y3223605D01*
X1455240Y3221105D02*
Y3223605D01*
Y3221105D02*
X1487541Y3188805D01*
X1490040D01*
X1650581Y3028264D01*
X3556266D01*
X3724998Y3221105D02*
Y3223605D01*
X3556266Y3052373D02*
X3724998Y3221105D01*
X3556266Y3028264D02*
Y3052373D01*
X1730956Y4870613D02*
X3497028D01*
X1480506Y5121063D02*
X1730956Y4870613D01*
X3334987Y5032653D02*
X3497028Y4870613D01*
X3334987Y5032653D02*
Y5123563D01*
X1480506Y5121063D02*
Y5123563D01*
X1341682Y8160521D02*
X1343730D01*
X2572331Y6931920D01*
X2574379D01*
X1112343Y7734154D02*
X1874348Y6972150D01*
X2289063D02*
X2570476Y6690736D01*
X1874348Y6972150D02*
X2289063D01*
X1112343Y7734154D02*
Y8277240D01*
X466024Y7717008D02*
X556024Y7627008D01*
X711024D01*
X5698806Y7307008D02*
X5736106Y7269708D01*
X5855526D01*
X5908226Y7217008D01*
X5935718D01*
Y7742008D02*
X5936931Y7740795D01*
X6050019D02*
X6163806Y7627008D01*
X5936931Y7740795D02*
X6050019D01*
X6163806Y7627008D02*
X6188806D01*
X6163806Y4879537D02*
X6188806D01*
X6048806Y4994537D02*
X6163806Y4879537D01*
X5935718Y4994537D02*
X6048806D01*
X5698806Y4559537D02*
X5820718D01*
X5935718Y4444537D01*
X5716122Y2676020D02*
X5820718D01*
X5935718Y2561020D01*
X4594926Y729811D02*
Y859811D01*
X4479926Y614811D02*
X4594926Y729811D01*
X691040Y3033320D02*
X728340Y2996020D01*
X563533Y3033320D02*
X691040D01*
X510833Y3086020D02*
X563533Y3033320D01*
X483340Y3086020D02*
X510833D01*
X1545111Y849969D02*
X1560644Y834435D01*
Y615483D02*
Y834435D01*
X686024Y4879537D02*
X711024D01*
X571024Y4994537D02*
X686024Y4879537D01*
X466024Y4994537D02*
X571024D01*
X4368853Y9391103D02*
Y9496103D01*
X4253853Y9276103D02*
X4368853Y9391103D01*
X4253853Y9251103D02*
Y9276103D01*
X2418172Y9216826D02*
X2455472Y9254126D01*
Y9381634D01*
X2508172Y9434333D01*
Y9461826D01*
X221024Y7627008D02*
Y7835841D01*
X1602009Y9216826D02*
X2098172D01*
X221024Y7835841D02*
X1602009Y9216826D01*
X221024Y5004753D02*
X918004Y5701733D01*
X221024Y4879537D02*
Y5004753D01*
X5716122Y2996020D02*
Y3531543D01*
X6188806Y4004227D01*
Y4559537D01*
Y6507968D02*
Y7307008D01*
X5698806Y4879537D02*
Y6017968D01*
X6188806Y6507968D01*
X3256625Y9251103D02*
X3933853D01*
X2800901Y9706826D02*
X3256625Y9251103D01*
X2418172Y9706826D02*
X2800901D01*
X3933853Y9716103D02*
Y9741103D01*
X3754238Y9536488D02*
X3933853Y9716103D01*
X3715953Y9536488D02*
X3754238D01*
X3696513Y9517048D02*
X3715953Y9536488D01*
X2098172Y9681826D02*
Y9706826D01*
X1983172Y9566826D02*
X2098172Y9681826D01*
X1983172Y9461826D02*
Y9566826D01*
X351024Y7307008D02*
X466024Y7192008D01*
X221024Y7307008D02*
X351024D01*
X918004Y5701733D02*
Y7100028D01*
X711024Y7307008D02*
X918004Y7100028D01*
X221024Y4559537D02*
X258324Y4522237D01*
X388324D01*
X466024Y4444537D01*
X711024Y4559537D02*
X866672Y4403889D01*
Y3893355D02*
Y4403889D01*
X238340Y2996020D02*
Y3203494D01*
X828865Y3788420D02*
X851583Y3816741D01*
X860588Y3851913D01*
X238340Y3203494D02*
X784418Y3749575D01*
X238340Y2676020D02*
X263340D01*
X375388Y2525833D02*
Y2563972D01*
X263340Y2676020D02*
X375388Y2563972D01*
Y2525833D02*
X394828Y2506393D01*
X1059135Y1907264D02*
X1059136Y1907265D01*
X1189785Y1850308D02*
X1195172Y1843416D01*
X1180293Y1858295D02*
X1184297Y1855504D01*
X1175538Y1859403D02*
X1180293Y1858295D01*
X1195172Y745413D02*
Y1843416D01*
Y745412D02*
X1195172Y734907D01*
X1202109Y727970D01*
X1545111Y384968D01*
X1865111Y359969D02*
Y384968D01*
X1980111Y499969D01*
Y604969D01*
X1865111Y849969D02*
X3410471D01*
X3890629Y369811D02*
X4594926D01*
X3410471Y849969D02*
X3890629Y369811D01*
X4914926D02*
Y394810D01*
X5029926Y509811D01*
Y614811D01*
X5935718Y3111020D02*
X6050718Y2996020D01*
X6206122D01*
X4202762Y7838164D02*
X4365662D01*
X4196252Y7844674D02*
X4202762Y7838164D01*
X5975957Y1372695D02*
X5982708Y1365943D01*
X4914926Y859811D02*
X5730576D01*
X4066252Y7844674D02*
X4070652Y7840274D01*
X4135776Y7975179D02*
X4571920D01*
X4070652Y7910056D02*
X4135776Y7975179D01*
X4131252Y7844674D02*
X4134052Y7841874D01*
Y7754074D02*
Y7841874D01*
Y7754074D02*
X4196252Y7691874D01*
Y7599674D02*
Y7691874D01*
X5354299Y7627008D02*
X5698806D01*
X5048928Y7932379D02*
X5354299Y7627008D01*
X4776221Y7932379D02*
X5048928D01*
X4750921Y7957680D02*
X4776221Y7932379D01*
X4750921Y7957680D02*
Y7975179D01*
X4070652Y7849073D02*
Y7910056D01*
X4066252Y7844674D02*
X4070652Y7849073D01*
X4131252Y7599674D02*
X4131611Y7599315D01*
X1545111Y359969D02*
Y384968D01*
X6206122Y2320797D02*
Y2676020D01*
X5670938Y7599140D02*
X5698806Y7627008D01*
X2739487Y5123563D02*
X3019987D01*
X2577487Y5285563D02*
X2739487Y5123563D01*
X885006D02*
X1165506D01*
X723006Y5285563D02*
X885006Y5123563D01*
X2739487Y3223605D02*
X3019987D01*
X2577487Y3385605D02*
X2739487Y3223605D01*
X859740D02*
X1140240D01*
X697740Y3385605D02*
X859740Y3223605D01*
X669572Y1474472D02*
X831572Y1312472D01*
X1112072D01*
X2577487Y1474472D02*
X2739487Y1312472D01*
X3019987D01*
X4320499D02*
X4482499Y1474472D01*
X4039999Y1312472D02*
X4320499D01*
Y3223605D02*
X4482499Y3385605D01*
X4039999Y3223605D02*
X4320499D01*
Y5123563D02*
X4482499Y5285563D01*
X4039999Y5123563D02*
X4320499D01*
D14*
X215006Y6174563D02*
D03*
X1231006D02*
D03*
X161572Y2363472D02*
D03*
X1177572D02*
D03*
X189740Y4274605D02*
D03*
X1205740D02*
D03*
X2069487Y6174563D02*
D03*
X3085487D02*
D03*
X2069487Y4274605D02*
D03*
X3085487D02*
D03*
X3974499D02*
D03*
X4990499D02*
D03*
X3974499Y2363472D02*
D03*
X4990499D02*
D03*
X2069487D02*
D03*
X3085487D02*
D03*
X3974499Y6174563D02*
D03*
X4990499D02*
D03*
D15*
X723006D02*
D03*
X669572Y2363472D02*
D03*
X697740Y4274605D02*
D03*
X2577487Y6174563D02*
D03*
Y4274605D02*
D03*
X4482499D02*
D03*
Y2363472D02*
D03*
X2577487D02*
D03*
X4482499Y6174563D02*
D03*
D16*
X723006Y5285563D02*
D03*
X669572Y1474472D02*
D03*
X697740Y3385605D02*
D03*
X2577487Y5285563D02*
D03*
Y3385605D02*
D03*
X4482499D02*
D03*
Y1474472D02*
D03*
X2577487D02*
D03*
X4482499Y5285563D02*
D03*
D17*
X6227818Y1899343D02*
D03*
Y8173143D02*
D03*
X5389618Y1785043D02*
D03*
Y8287443D02*
D03*
X5982708Y1365943D02*
D03*
X5634728D02*
D03*
D18*
Y8706543D02*
D03*
D19*
X4359602Y7375356D02*
D03*
X3852410Y7474135D02*
D03*
X3681171Y4845631D02*
D03*
X3467711Y1177248D02*
D03*
X3556266Y3028264D02*
D03*
X4136096Y7225960D02*
D03*
X1341682Y8160521D02*
D03*
X2574379Y6931920D02*
D03*
X1112343Y8277240D02*
D03*
X2570476Y6690736D02*
D03*
X466024Y7717008D02*
D03*
X5935718Y7742008D02*
D03*
X466024Y4994537D02*
D03*
X483340Y3086020D02*
D03*
X1560644Y615483D02*
D03*
X4479926Y614811D02*
D03*
X5935718Y2561020D02*
D03*
Y4444537D02*
D03*
Y7217008D02*
D03*
X2508172Y9461826D02*
D03*
X4368853Y9496103D02*
D03*
X466024Y7192008D02*
D03*
Y4444537D02*
D03*
X394828Y2506393D02*
D03*
X1980111Y604969D02*
D03*
X3696513Y9517048D02*
D03*
X1983172Y9461826D02*
D03*
X5029926Y614811D02*
D03*
X5935718Y3111020D02*
D03*
Y4994537D02*
D03*
X4365662Y7838164D02*
D03*
D30*
X4914926Y369811D02*
D03*
Y859811D02*
D03*
X4594926Y369811D02*
D03*
Y859811D02*
D03*
X2098172Y9706826D02*
D03*
Y9216826D02*
D03*
X2418172Y9706826D02*
D03*
Y9216826D02*
D03*
X3933853Y9741103D02*
D03*
Y9251103D02*
D03*
X4253853Y9741103D02*
D03*
Y9251103D02*
D03*
X1865111Y359969D02*
D03*
Y849969D02*
D03*
X1545111Y359969D02*
D03*
Y849969D02*
D03*
D31*
X4196252Y7844674D02*
D03*
X4131252D02*
D03*
X4066252D02*
D03*
Y7599674D02*
D03*
X4131252D02*
D03*
X4196252D02*
D03*
D32*
X221024Y4559537D02*
D03*
X711024D02*
D03*
X221024Y4879537D02*
D03*
X711024D02*
D03*
X238340Y2676020D02*
D03*
X728340D02*
D03*
X238340Y2996020D02*
D03*
X728340D02*
D03*
X5698806Y4559537D02*
D03*
X6188806D02*
D03*
X5698806Y4879537D02*
D03*
X6188806D02*
D03*
X5716122Y2676020D02*
D03*
X6206122D02*
D03*
X5716122Y2996020D02*
D03*
X6206122D02*
D03*
X5698806Y7307008D02*
D03*
X6188806D02*
D03*
X5698806Y7627008D02*
D03*
X6188806D02*
D03*
X711024D02*
D03*
X221024D02*
D03*
X711024Y7307008D02*
D03*
X221024D02*
D03*
D33*
X4571920Y7975179D02*
D03*
X4750921D02*
D03*
D34*
X1112072Y1312472D02*
D03*
X1427072Y1312472D02*
D03*
X4039999Y1312472D02*
D03*
X3724998Y1312472D02*
D03*
X3019987Y1312472D02*
D03*
X3334987Y1312472D02*
D03*
X3019987Y5123563D02*
D03*
X3334987Y5123563D02*
D03*
X1165506Y5123563D02*
D03*
X1480506Y5123563D02*
D03*
X4039999Y3223605D02*
D03*
X3724998Y3223605D02*
D03*
X3019987Y3223605D02*
D03*
X3334987Y3223605D02*
D03*
X1140240Y3223605D02*
D03*
X1455240Y3223605D02*
D03*
X4039999Y5123563D02*
D03*
X3724998Y5123564D02*
D03*
%TF.MD5,c09ac48cfeb9fe68f0dd348c99b42379*%
M02*
