%TF.GenerationSoftware,Altium Limited,Altium Designer,25.2.1 (25)*%
G04 Layer_Color=0*
%FSLAX45Y45*%
%MOMM*%
%TF.SameCoordinates,DBF3E2B7-33B5-4ACE-A245-667DA10812C1*%
%TF.FilePolarity,Positive*%
%TF.FileFunction,Plated,1,4,PTH,Drill*%
%TF.Part,Single*%
G01*
G75*
%TA.AperFunction,ComponentDrill*%
%ADD60C,1.40000*%
%ADD61C,1.50000*%
%ADD62C,1.52400*%
%TA.AperFunction,ViaDrill,NotFilled*%
%ADD63C,0.71120*%
D60*
X215006Y6174563D02*
D03*
X723006D02*
D03*
X1231006D02*
D03*
X161572Y2363472D02*
D03*
X669572D02*
D03*
X1177572D02*
D03*
X189740Y4274605D02*
D03*
X697740D02*
D03*
X1205740D02*
D03*
X2069487Y6174563D02*
D03*
X2577487D02*
D03*
X3085487D02*
D03*
X2069487Y4274605D02*
D03*
X2577487D02*
D03*
X3085487D02*
D03*
X3974499D02*
D03*
X4482499D02*
D03*
X4990499D02*
D03*
X3974499Y2363472D02*
D03*
X4482499D02*
D03*
X4990499D02*
D03*
X2069487D02*
D03*
X2577487D02*
D03*
X3085487D02*
D03*
X3974499Y6174563D02*
D03*
X4482499D02*
D03*
X4990499D02*
D03*
D61*
X723006Y5285563D02*
D03*
X669572Y1474472D02*
D03*
X697740Y3385605D02*
D03*
X2577487Y5285563D02*
D03*
Y3385605D02*
D03*
X4482499D02*
D03*
Y1474472D02*
D03*
X2577487D02*
D03*
X4482499Y5285563D02*
D03*
D62*
X6227818Y1899343D02*
D03*
Y8173143D02*
D03*
X5389618Y1785043D02*
D03*
Y8287443D02*
D03*
X5982708Y1365943D02*
D03*
X5634728D02*
D03*
Y8706543D02*
D03*
D63*
X3852410Y7474135D02*
D03*
X3681171Y4845631D02*
D03*
X466024Y7717008D02*
D03*
Y7192008D02*
D03*
X5029926Y614811D02*
D03*
%TF.MD5,355225c99932c213075f2d1f3118a821*%
M02*
