G04*
G04 #@! TF.GenerationSoftware,Altium Limited,Altium Designer,25.2.1 (25)*
G04*
G04 Layer_Color=32768*
%FSLAX43Y43*%
%MOMM*%
G71*
G04*
G04 #@! TF.SameCoordinates,240BC811-237E-46BC-B66A-058C9D4012AB*
G04*
G04*
G04 #@! TF.FilePolarity,Positive*
G04*
G01*
G75*
%ADD11C,0.152*%
%ADD52C,0.050*%
%ADD54C,0.100*%
G36*
X62837Y12643D02*
X61097D01*
Y12389D01*
X55077D01*
Y12643D01*
X53337D01*
Y88081D01*
X55077D01*
Y88335D01*
X57617D01*
Y88081D01*
X62837D01*
Y12643D01*
D02*
G37*
D11*
Y88081D01*
X57617D02*
X62837D01*
X57617D02*
Y88335D01*
X55077D02*
X57617D01*
X55077Y88081D02*
Y88335D01*
X53337Y88081D02*
X55077D01*
X53337Y12643D02*
Y88081D01*
Y12643D02*
X55077D01*
Y12389D02*
Y12643D01*
Y12389D02*
X61097D01*
Y12643D01*
X62837D01*
D52*
X1100Y51136D02*
Y62796D01*
X13360D01*
Y51136D02*
Y62796D01*
X1100Y51136D02*
X13360D01*
X566Y13025D02*
Y24685D01*
X12826D01*
Y13025D02*
Y24685D01*
X566Y13025D02*
X12826D01*
X847Y32136D02*
Y43796D01*
X13107D01*
Y32136D02*
Y43796D01*
X847Y32136D02*
X13107D01*
X44799Y9598D02*
X50299D01*
Y2698D02*
Y9598D01*
X44799Y2698D02*
X50299D01*
X44799D02*
Y9598D01*
X19832Y91168D02*
X25332D01*
X19832D02*
Y98068D01*
X25332D01*
Y91168D02*
Y98068D01*
X38189Y91511D02*
X43689D01*
X38189D02*
Y98411D01*
X43689D01*
Y91511D02*
Y98411D01*
X39713Y74972D02*
Y79472D01*
X42913Y74972D02*
Y79472D01*
X39713D02*
X42913D01*
X39713Y74972D02*
X42913D01*
X14301Y9500D02*
X19801D01*
Y2600D02*
Y9500D01*
X14301Y2600D02*
X19801D01*
X14301D02*
Y9500D01*
X8110Y44445D02*
Y49945D01*
X1210Y44445D02*
X8110D01*
X1210D02*
Y49945D01*
X8110D01*
X8283Y25610D02*
Y31110D01*
X1383Y25610D02*
X8283D01*
X1383D02*
Y31110D01*
X8283D01*
X19645Y51136D02*
Y62796D01*
X31905D01*
Y51136D02*
Y62796D01*
X19645Y51136D02*
X31905D01*
X19645Y32136D02*
Y43796D01*
X31905D01*
Y32136D02*
Y43796D01*
X19645Y32136D02*
X31905D01*
X38695D02*
Y43796D01*
X50955D01*
Y32136D02*
Y43796D01*
X38695Y32136D02*
X50955D01*
X38695Y13025D02*
Y24685D01*
X50955D01*
Y13025D02*
Y24685D01*
X38695Y13025D02*
X50955D01*
X19645D02*
Y24685D01*
X31905D01*
Y13025D02*
Y24685D01*
X19645Y13025D02*
X31905D01*
X38695Y51136D02*
Y62796D01*
X50955D01*
Y51136D02*
Y62796D01*
X38695Y51136D02*
X50955D01*
X21318Y81144D02*
X25618D01*
X21318Y83644D02*
X25618D01*
Y81144D02*
Y83644D01*
X21318Y81144D02*
Y83644D01*
X21318Y75958D02*
X25618D01*
X21318Y78458D02*
X25618D01*
Y75958D02*
Y78458D01*
X21318Y75958D02*
Y78458D01*
X21318Y78486D02*
X25618D01*
X21318Y80986D02*
X25618D01*
Y78486D02*
Y80986D01*
X21318Y78486D02*
Y80986D01*
X10571Y12250D02*
X14821D01*
Y14000D01*
X10571D02*
X14821D01*
X10571Y12250D02*
Y14000D01*
X36700D02*
X40950D01*
X36700Y12250D02*
Y14000D01*
Y12250D02*
X40950D01*
Y14000D01*
X29650Y12250D02*
X33900D01*
Y14000D01*
X29650D02*
X33900D01*
X29650Y12250D02*
Y14000D01*
Y50361D02*
X33900D01*
Y52111D01*
X29650D02*
X33900D01*
X29650Y50361D02*
Y52111D01*
X11105Y50361D02*
X15355D01*
Y52111D01*
X11105D02*
X15355D01*
X11105Y50361D02*
Y52111D01*
X36700Y33111D02*
X40950D01*
X36700Y31361D02*
Y33111D01*
Y31361D02*
X40950D01*
Y33111D01*
X29650Y31361D02*
X33900D01*
Y33111D01*
X29650D02*
X33900D01*
X29650Y31361D02*
Y33111D01*
X10852Y31361D02*
X15102D01*
Y33111D01*
X10852D02*
X15102D01*
X10852Y31361D02*
Y33111D01*
X36700Y52111D02*
X40950D01*
X36700Y50361D02*
Y52111D01*
Y50361D02*
X40950D01*
Y52111D01*
X55988Y44445D02*
X62888D01*
Y49945D01*
X55988D02*
X62888D01*
X55988Y44445D02*
Y49945D01*
X56161Y25610D02*
X63061D01*
Y31110D01*
X56161D02*
X63061D01*
X56161Y25610D02*
Y31110D01*
X55988Y71920D02*
X62888D01*
Y77420D01*
X55988D02*
X62888D01*
X55988Y71920D02*
Y77420D01*
X1210D02*
X8110D01*
X1210Y71920D02*
Y77420D01*
Y71920D02*
X8110D01*
Y77420D01*
D54*
X6730Y57936D02*
X7730D01*
X7230Y57436D02*
Y58436D01*
X6196Y19825D02*
X7196D01*
X6696Y19325D02*
Y20325D01*
X6477Y38936D02*
X7477D01*
X6977Y38436D02*
Y39436D01*
X40813Y77222D02*
X41813D01*
X41313Y76722D02*
Y77722D01*
X25275Y57936D02*
X26275D01*
X25775Y57436D02*
Y58436D01*
X25275Y38936D02*
X26275D01*
X25775Y38436D02*
Y39436D01*
X44325Y38936D02*
X45325D01*
X44825Y38436D02*
Y39436D01*
X44325Y19825D02*
X45325D01*
X44825Y19325D02*
Y20325D01*
X25275Y19825D02*
X26275D01*
X25775Y19325D02*
Y20325D01*
X44325Y57936D02*
X45325D01*
X44825Y57436D02*
Y58436D01*
X23468Y81894D02*
Y82894D01*
X22968Y82394D02*
X23968D01*
X23468Y76708D02*
Y77708D01*
X22968Y77208D02*
X23968D01*
X23468Y79236D02*
Y80236D01*
X22968Y79736D02*
X23968D01*
X12196Y13125D02*
X13196D01*
X12696Y12625D02*
Y13625D01*
X38325Y13125D02*
X39325D01*
X38825Y12625D02*
Y13625D01*
X31275Y13125D02*
X32275D01*
X31775Y12625D02*
Y13625D01*
X31275Y51236D02*
X32275D01*
X31775Y50736D02*
Y51736D01*
X12730Y51236D02*
X13730D01*
X13230Y50736D02*
Y51736D01*
X38325Y32236D02*
X39325D01*
X38825Y31736D02*
Y32736D01*
X31275Y32236D02*
X32275D01*
X31775Y31736D02*
Y32736D01*
X12477Y32236D02*
X13477D01*
X12977Y31736D02*
Y32736D01*
X38325Y51236D02*
X39325D01*
X38825Y50736D02*
Y51736D01*
M02*
