%TF.GenerationSoftware,Altium Limited,Altium Designer,25.2.1 (25)*%
G04 Layer_Color=128*
%FSLAX45Y45*%
%MOMM*%
%TF.SameCoordinates,DBF3E2B7-33B5-4ACE-A245-667DA10812C1*%
%TF.FilePolarity,Positive*%
%TF.FileFunction,Drillmap*%
%TF.Part,Single*%
G01*
G75*
%TA.AperFunction,NonConductor*%
%ADD38C,0.12700*%
D38*
X3432151Y1177248D02*
X3503271D01*
X3467711Y1141688D02*
Y1212808D01*
X3520706Y3028264D02*
X3591826D01*
X3556266Y2992704D02*
Y3063824D01*
X4100536Y7225960D02*
X4171656D01*
X4136096Y7190400D02*
Y7261520D01*
X1306122Y8160521D02*
X1377242D01*
X1341682Y8124961D02*
Y8196081D01*
X2538819Y6931920D02*
X2609939D01*
X2574379Y6896360D02*
Y6967480D01*
X1076783Y8277240D02*
X1147903D01*
X1112343Y8241680D02*
Y8312800D01*
X2534916Y6690736D02*
X2606036D01*
X2570476Y6655176D02*
Y6726296D01*
X430464Y4994537D02*
X501584D01*
X466024Y4958977D02*
Y5030097D01*
X447780Y3086020D02*
X518900D01*
X483340Y3050460D02*
Y3121580D01*
X1525084Y615483D02*
X1596204D01*
X1560644Y579923D02*
Y651043D01*
X4444366Y614811D02*
X4515486D01*
X4479926Y579251D02*
Y650371D01*
X5900158Y2561020D02*
X5971278D01*
X5935718Y2525460D02*
Y2596580D01*
X5900158Y4444537D02*
X5971278D01*
X5935718Y4408977D02*
Y4480097D01*
X5900158Y7217008D02*
X5971278D01*
X5935718Y7181448D02*
Y7252568D01*
X2472612Y9461826D02*
X2543732D01*
X2508172Y9426266D02*
Y9497386D01*
X4333293Y9496103D02*
X4404413D01*
X4368853Y9460543D02*
Y9531663D01*
X4330102Y7838164D02*
X4401222D01*
X4365662Y7802604D02*
Y7873724D01*
%TF.MD5,4333d3a2b457ed710a9dc3e779359466*%
M02*
