G04*
G04 #@! TF.GenerationSoftware,Altium Limited,Altium Designer,25.2.1 (25)*
G04*
G04 Layer_Color=128*
%FSLAX43Y43*%
%MOMM*%
G71*
G04*
G04 #@! TF.SameCoordinates,240BC811-237E-46BC-B66A-058C9D4012AB*
G04*
G04*
G04 #@! TF.FilePolarity,Positive*
G04*
G01*
G75*
%ADD39R,1.000X1.500*%
G04:AMPARAMS|DCode=40|XSize=0.45mm|YSize=1.05mm|CornerRadius=0.05mm|HoleSize=0mm|Usage=FLASHONLY|Rotation=0.000|XOffset=0mm|YOffset=0mm|HoleType=Round|Shape=RoundedRectangle|*
%AMROUNDEDRECTD40*
21,1,0.450,0.951,0,0,0.0*
21,1,0.351,1.050,0,0,0.0*
1,1,0.099,0.176,-0.476*
1,1,0.099,-0.176,-0.476*
1,1,0.099,-0.176,0.476*
1,1,0.099,0.176,0.476*
%
%ADD40ROUNDEDRECTD40*%
%ADD41R,1.500X1.000*%
G04:AMPARAMS|DCode=42|XSize=1.3mm|YSize=0.76mm|CornerRadius=0.095mm|HoleSize=0mm|Usage=FLASHONLY|Rotation=270.000|XOffset=0mm|YOffset=0mm|HoleType=Round|Shape=RoundedRectangle|*
%AMROUNDEDRECTD42*
21,1,1.300,0.570,0,0,270.0*
21,1,1.110,0.760,0,0,270.0*
1,1,0.190,-0.285,-0.555*
1,1,0.190,-0.285,0.555*
1,1,0.190,0.285,0.555*
1,1,0.190,0.285,-0.555*
%
%ADD42ROUNDEDRECTD42*%
%ADD43R,0.900X0.950*%
D39*
X49149Y3698D02*
D03*
Y8598D02*
D03*
X45949Y3698D02*
D03*
Y8598D02*
D03*
X20982Y97068D02*
D03*
Y92168D02*
D03*
X24182Y97068D02*
D03*
Y92168D02*
D03*
X39339Y97411D02*
D03*
Y92511D02*
D03*
X42539Y97411D02*
D03*
Y92511D02*
D03*
X18651Y3600D02*
D03*
Y8500D02*
D03*
X15451Y3600D02*
D03*
Y8500D02*
D03*
D40*
X41963Y78447D02*
D03*
X41313D02*
D03*
X40663D02*
D03*
Y75997D02*
D03*
X41313D02*
D03*
X41963D02*
D03*
D41*
X2210Y45595D02*
D03*
X7110D02*
D03*
X2210Y48795D02*
D03*
X7110D02*
D03*
X2383Y26760D02*
D03*
X7283D02*
D03*
X2383Y29960D02*
D03*
X7283D02*
D03*
X56988Y45595D02*
D03*
X61888D02*
D03*
X56988Y48795D02*
D03*
X61888D02*
D03*
X57161Y26760D02*
D03*
X62061D02*
D03*
X57161Y29960D02*
D03*
X62061D02*
D03*
X56988Y73070D02*
D03*
X61888D02*
D03*
X56988Y76270D02*
D03*
X61888D02*
D03*
X7110D02*
D03*
X2210D02*
D03*
X7110Y73070D02*
D03*
X2210D02*
D03*
D42*
X45719Y79752D02*
D03*
X47509D02*
D03*
D43*
X11121Y13125D02*
D03*
X14271Y13125D02*
D03*
X40400Y13125D02*
D03*
X37250Y13125D02*
D03*
X30200Y13125D02*
D03*
X33350Y13125D02*
D03*
X30200Y51236D02*
D03*
X33350Y51236D02*
D03*
X11655Y51236D02*
D03*
X14805Y51236D02*
D03*
X40400Y32236D02*
D03*
X37250Y32236D02*
D03*
X30200Y32236D02*
D03*
X33350Y32236D02*
D03*
X11402Y32236D02*
D03*
X14552Y32236D02*
D03*
X40400Y51236D02*
D03*
X37250Y51236D02*
D03*
M02*
