G04*
G04 #@! TF.GenerationSoftware,Altium Limited,Altium Designer,25.2.1 (25)*
G04*
G04 Layer_Color=128*
%FSLAX44Y44*%
%MOMM*%
G71*
G04*
G04 #@! TF.SameCoordinates,6FBFE696-48CE-430D-A149-04A0BAA6C4F4*
G04*
G04*
G04 #@! TF.FilePolarity,Positive*
G04*
G01*
G75*
%ADD39R,1.0000X1.5000*%
G04:AMPARAMS|DCode=40|XSize=0.45mm|YSize=1.05mm|CornerRadius=0.0495mm|HoleSize=0mm|Usage=FLASHONLY|Rotation=0.000|XOffset=0mm|YOffset=0mm|HoleType=Round|Shape=RoundedRectangle|*
%AMROUNDEDRECTD40*
21,1,0.4500,0.9510,0,0,0.0*
21,1,0.3510,1.0500,0,0,0.0*
1,1,0.0990,0.1755,-0.4755*
1,1,0.0990,-0.1755,-0.4755*
1,1,0.0990,-0.1755,0.4755*
1,1,0.0990,0.1755,0.4755*
%
%ADD40ROUNDEDRECTD40*%
%ADD41R,1.5000X1.0000*%
G04:AMPARAMS|DCode=42|XSize=1.3mm|YSize=0.76mm|CornerRadius=0.095mm|HoleSize=0mm|Usage=FLASHONLY|Rotation=270.000|XOffset=0mm|YOffset=0mm|HoleType=Round|Shape=RoundedRectangle|*
%AMROUNDEDRECTD42*
21,1,1.3000,0.5700,0,0,270.0*
21,1,1.1100,0.7600,0,0,270.0*
1,1,0.1900,-0.2850,-0.5550*
1,1,0.1900,-0.2850,0.5550*
1,1,0.1900,0.2850,0.5550*
1,1,0.1900,0.2850,-0.5550*
%
%ADD42ROUNDEDRECTD42*%
%ADD43R,0.9000X0.9500*%
D39*
X491493Y36981D02*
D03*
Y85981D02*
D03*
X459493Y36981D02*
D03*
Y85981D02*
D03*
X209817Y970683D02*
D03*
Y921683D02*
D03*
X241817Y970683D02*
D03*
Y921683D02*
D03*
X393385Y974110D02*
D03*
Y925110D02*
D03*
X425385Y974110D02*
D03*
Y925110D02*
D03*
X186511Y35997D02*
D03*
Y84997D02*
D03*
X154511Y35997D02*
D03*
Y84997D02*
D03*
D40*
X419625Y784467D02*
D03*
X413125D02*
D03*
X406625D02*
D03*
Y759967D02*
D03*
X413125D02*
D03*
X419625D02*
D03*
D41*
X22102Y455954D02*
D03*
X71102D02*
D03*
X22102Y487954D02*
D03*
X71102D02*
D03*
X23834Y267602D02*
D03*
X72834D02*
D03*
X23834Y299602D02*
D03*
X72834D02*
D03*
X569881Y455954D02*
D03*
X618881D02*
D03*
X569881Y487954D02*
D03*
X618881D02*
D03*
X571612Y267602D02*
D03*
X620612D02*
D03*
X571612Y299602D02*
D03*
X620612D02*
D03*
X569881Y730701D02*
D03*
X618881D02*
D03*
X569881Y762701D02*
D03*
X618881D02*
D03*
X71102D02*
D03*
X22102D02*
D03*
X71102Y730701D02*
D03*
X22102D02*
D03*
D42*
X457192Y797518D02*
D03*
X475092D02*
D03*
D43*
X111207Y131247D02*
D03*
X142707Y131247D02*
D03*
X404000Y131247D02*
D03*
X372500Y131247D02*
D03*
X301999Y131247D02*
D03*
X333499Y131247D02*
D03*
X301999Y512356D02*
D03*
X333499Y512356D02*
D03*
X116551Y512356D02*
D03*
X148051Y512356D02*
D03*
X404000Y322360D02*
D03*
X372500Y322360D02*
D03*
X301999Y322360D02*
D03*
X333499Y322360D02*
D03*
X114024Y322360D02*
D03*
X145524Y322360D02*
D03*
X404000Y512356D02*
D03*
X372500Y512356D02*
D03*
M02*
