G04*
G04 #@! TF.GenerationSoftware,Altium Limited,Altium Designer,25.2.1 (25)*
G04*
G04 Layer_Color=16711935*
%FSLAX42Y42*%
%MOMM*%
G71*
G04*
G04 #@! TF.SameCoordinates,372558BA-D2E2-4F7E-91D4-F70FF9730948*
G04*
G04*
G04 #@! TF.FilePolarity,Negative*
G04*
G01*
G75*
%ADD20C,2.10*%
%ADD21R,2.10X2.10*%
%ADD22C,2.20*%
%ADD23C,2.03*%
%ADD24R,2.03X2.03*%
%ADD25C,1.47*%
%ADD44R,1.20X1.70*%
G04:AMPARAMS|DCode=45|XSize=0.65mm|YSize=1.25mm|CornerRadius=0.15mm|HoleSize=0mm|Usage=FLASHONLY|Rotation=0.000|XOffset=0mm|YOffset=0mm|HoleType=Round|Shape=RoundedRectangle|*
%AMROUNDEDRECTD45*
21,1,0.65,0.95,0,0,0.0*
21,1,0.35,1.25,0,0,0.0*
1,1,0.30,0.18,-0.48*
1,1,0.30,-0.18,-0.48*
1,1,0.30,-0.18,0.48*
1,1,0.30,0.18,0.48*
%
%ADD45ROUNDEDRECTD45*%
%ADD46R,1.70X1.20*%
G04:AMPARAMS|DCode=47|XSize=1.5mm|YSize=0.96mm|CornerRadius=0.2mm|HoleSize=0mm|Usage=FLASHONLY|Rotation=270.000|XOffset=0mm|YOffset=0mm|HoleType=Round|Shape=RoundedRectangle|*
%AMROUNDEDRECTD47*
21,1,1.50,0.57,0,0,270.0*
21,1,1.11,0.96,0,0,270.0*
1,1,0.39,-0.28,-0.56*
1,1,0.39,-0.28,0.56*
1,1,0.39,0.28,0.56*
1,1,0.39,0.28,-0.56*
%
%ADD47ROUNDEDRECTD47*%
%ADD48R,1.10X1.15*%
D20*
X215Y6175D02*
D03*
X1231D02*
D03*
X162Y2363D02*
D03*
X1178D02*
D03*
X190Y4275D02*
D03*
X1206D02*
D03*
X2069Y6175D02*
D03*
X3085D02*
D03*
X2069Y4275D02*
D03*
X3085D02*
D03*
X3974D02*
D03*
X4990D02*
D03*
X3974Y2363D02*
D03*
X4990D02*
D03*
X2069D02*
D03*
X3085D02*
D03*
X3974Y6175D02*
D03*
X4990D02*
D03*
D21*
X723D02*
D03*
X670Y2363D02*
D03*
X698Y4275D02*
D03*
X2577Y6175D02*
D03*
Y4275D02*
D03*
X4482D02*
D03*
Y2363D02*
D03*
X2577D02*
D03*
X4482Y6175D02*
D03*
D22*
X723Y5286D02*
D03*
X670Y1474D02*
D03*
X698Y3386D02*
D03*
X2577Y5286D02*
D03*
Y3386D02*
D03*
X4482D02*
D03*
Y1474D02*
D03*
X2577D02*
D03*
X4482Y5286D02*
D03*
D23*
X6228Y1899D02*
D03*
Y8173D02*
D03*
X5390Y1785D02*
D03*
Y8287D02*
D03*
X5983Y1366D02*
D03*
X5635D02*
D03*
D24*
Y8707D02*
D03*
D25*
X1133Y8269D02*
D03*
X4360Y7375D02*
D03*
X3852Y7474D02*
D03*
X3681Y4846D02*
D03*
X3468Y1177D02*
D03*
X3556Y3028D02*
D03*
X4136Y7226D02*
D03*
X1342Y8161D02*
D03*
X2574Y6932D02*
D03*
X2570Y6691D02*
D03*
X466Y7717D02*
D03*
X5936Y7742D02*
D03*
X466Y4995D02*
D03*
X483Y3086D02*
D03*
X1561Y615D02*
D03*
X4480Y615D02*
D03*
X5936Y2561D02*
D03*
Y4445D02*
D03*
Y7217D02*
D03*
X2508Y9462D02*
D03*
X4369Y9496D02*
D03*
X466Y7192D02*
D03*
Y4445D02*
D03*
X395Y2506D02*
D03*
X1980Y605D02*
D03*
X3697Y9517D02*
D03*
X1983Y9462D02*
D03*
X5030Y615D02*
D03*
X5936Y3111D02*
D03*
Y4995D02*
D03*
X4366Y7838D02*
D03*
D44*
X4915Y370D02*
D03*
Y860D02*
D03*
X4595Y370D02*
D03*
Y860D02*
D03*
X2098Y9707D02*
D03*
Y9217D02*
D03*
X2418Y9707D02*
D03*
Y9217D02*
D03*
X3934Y9741D02*
D03*
Y9251D02*
D03*
X4254Y9741D02*
D03*
Y9251D02*
D03*
X1865Y360D02*
D03*
Y850D02*
D03*
X1545Y360D02*
D03*
Y850D02*
D03*
D45*
X4196Y7845D02*
D03*
X4131D02*
D03*
X4066D02*
D03*
Y7600D02*
D03*
X4131D02*
D03*
X4196D02*
D03*
D46*
X221Y4560D02*
D03*
X711D02*
D03*
X221Y4880D02*
D03*
X711D02*
D03*
X238Y2676D02*
D03*
X728D02*
D03*
X238Y2996D02*
D03*
X728D02*
D03*
X5699Y4560D02*
D03*
X6189D02*
D03*
X5699Y4880D02*
D03*
X6189D02*
D03*
X5716Y2676D02*
D03*
X6206D02*
D03*
X5716Y2996D02*
D03*
X6206D02*
D03*
X5699Y7307D02*
D03*
X6189D02*
D03*
X5699Y7627D02*
D03*
X6189D02*
D03*
X711D02*
D03*
X221D02*
D03*
X711Y7307D02*
D03*
X221D02*
D03*
D47*
X4572Y7975D02*
D03*
X4751D02*
D03*
D48*
X1112Y1312D02*
D03*
X1427Y1312D02*
D03*
X4040Y1312D02*
D03*
X3725Y1312D02*
D03*
X3020Y1312D02*
D03*
X3335Y1312D02*
D03*
X3020Y5124D02*
D03*
X3335Y5124D02*
D03*
X1166Y5124D02*
D03*
X1481Y5124D02*
D03*
X4040Y3224D02*
D03*
X3725Y3224D02*
D03*
X3020Y3224D02*
D03*
X3335Y3224D02*
D03*
X1140Y3224D02*
D03*
X1455Y3224D02*
D03*
X4040Y5124D02*
D03*
X3725Y5124D02*
D03*
M02*
