G04*
G04 #@! TF.GenerationSoftware,Altium Limited,Altium Designer,25.2.1 (25)*
G04*
G04 Layer_Color=32768*
%FSLAX42Y42*%
%MOMM*%
G71*
G04*
G04 #@! TF.SameCoordinates,372558BA-D2E2-4F7E-91D4-F70FF9730948*
G04*
G04*
G04 #@! TF.FilePolarity,Positive*
G04*
G01*
G75*
%ADD11C,0.15*%
%ADD52C,0.05*%
%ADD54C,0.10*%
G36*
X6284Y1264D02*
X6110D01*
Y1239D01*
X5508D01*
Y1264D01*
X5334D01*
Y8808D01*
X5508D01*
Y8834D01*
X5762D01*
Y8808D01*
X6284D01*
Y1264D01*
D02*
G37*
D11*
Y8808D01*
X5762D02*
X6284D01*
X5762D02*
Y8834D01*
X5508D02*
X5762D01*
X5508Y8808D02*
Y8834D01*
X5334Y8808D02*
X5508D01*
X5334Y1264D02*
Y8808D01*
Y1264D02*
X5508D01*
Y1239D02*
Y1264D01*
Y1239D02*
X6110D01*
Y1264D01*
X6284D01*
D52*
X110Y5114D02*
Y6280D01*
X1336D01*
Y5114D02*
Y6280D01*
X110Y5114D02*
X1336D01*
X57Y1302D02*
Y2468D01*
X1283D01*
Y1302D02*
Y2468D01*
X57Y1302D02*
X1283D01*
X85Y3214D02*
Y4380D01*
X1311D01*
Y3214D02*
Y4380D01*
X85Y3214D02*
X1311D01*
X4480Y960D02*
X5030D01*
Y270D02*
Y960D01*
X4480Y270D02*
X5030D01*
X4480D02*
Y960D01*
X1983Y9117D02*
X2533D01*
X1983D02*
Y9807D01*
X2533D01*
Y9117D02*
Y9807D01*
X3819Y9151D02*
X4369D01*
X3819D02*
Y9841D01*
X4369D01*
Y9151D02*
Y9841D01*
X3971Y7497D02*
Y7947D01*
X4291Y7497D02*
Y7947D01*
X3971D02*
X4291D01*
X3971Y7497D02*
X4291D01*
X1430Y950D02*
X1980D01*
Y260D02*
Y950D01*
X1430Y260D02*
X1980D01*
X1430D02*
Y950D01*
X811Y4445D02*
Y4995D01*
X121Y4445D02*
X811D01*
X121D02*
Y4995D01*
X811D01*
X828Y2561D02*
Y3111D01*
X138Y2561D02*
X828D01*
X138D02*
Y3111D01*
X828D01*
X1964Y5114D02*
Y6280D01*
X3190D01*
Y5114D02*
Y6280D01*
X1964Y5114D02*
X3190D01*
X1964Y3214D02*
Y4380D01*
X3190D01*
Y3214D02*
Y4380D01*
X1964Y3214D02*
X3190D01*
X3869D02*
Y4380D01*
X5095D01*
Y3214D02*
Y4380D01*
X3869Y3214D02*
X5095D01*
X3869Y1302D02*
Y2468D01*
X5095D01*
Y1302D02*
Y2468D01*
X3869Y1302D02*
X5095D01*
X1964D02*
Y2468D01*
X3190D01*
Y1302D02*
Y2468D01*
X1964Y1302D02*
X3190D01*
X3869Y5114D02*
Y6280D01*
X5095D01*
Y5114D02*
Y6280D01*
X3869Y5114D02*
X5095D01*
X2132Y8114D02*
X2562D01*
X2132Y8364D02*
X2562D01*
Y8114D02*
Y8364D01*
X2132Y8114D02*
Y8364D01*
X2132Y7596D02*
X2562D01*
X2132Y7846D02*
X2562D01*
Y7596D02*
Y7846D01*
X2132Y7596D02*
Y7846D01*
X2132Y7849D02*
X2562D01*
X2132Y8099D02*
X2562D01*
Y7849D02*
Y8099D01*
X2132Y7849D02*
Y8099D01*
X1057Y1225D02*
X1482D01*
Y1400D01*
X1057D02*
X1482D01*
X1057Y1225D02*
Y1400D01*
X3670D02*
X4095D01*
X3670Y1225D02*
Y1400D01*
Y1225D02*
X4095D01*
Y1400D01*
X2965Y1225D02*
X3390D01*
Y1400D01*
X2965D02*
X3390D01*
X2965Y1225D02*
Y1400D01*
Y5036D02*
X3390D01*
Y5211D01*
X2965D02*
X3390D01*
X2965Y5036D02*
Y5211D01*
X1111Y5036D02*
X1536D01*
Y5211D01*
X1111D02*
X1536D01*
X1111Y5036D02*
Y5211D01*
X3670Y3311D02*
X4095D01*
X3670Y3136D02*
Y3311D01*
Y3136D02*
X4095D01*
Y3311D01*
X2965Y3136D02*
X3390D01*
Y3311D01*
X2965D02*
X3390D01*
X2965Y3136D02*
Y3311D01*
X1085Y3136D02*
X1510D01*
Y3311D01*
X1085D02*
X1510D01*
X1085Y3136D02*
Y3311D01*
X3670Y5211D02*
X4095D01*
X3670Y5036D02*
Y5211D01*
Y5036D02*
X4095D01*
Y5211D01*
X5599Y4445D02*
X6289D01*
Y4995D01*
X5599D02*
X6289D01*
X5599Y4445D02*
Y4995D01*
X5616Y2561D02*
X6306D01*
Y3111D01*
X5616D02*
X6306D01*
X5616Y2561D02*
Y3111D01*
X5599Y7192D02*
X6289D01*
Y7742D01*
X5599D02*
X6289D01*
X5599Y7192D02*
Y7742D01*
X121D02*
X811D01*
X121Y7192D02*
Y7742D01*
Y7192D02*
X811D01*
Y7742D01*
D54*
X673Y5794D02*
X773D01*
X723Y5744D02*
Y5844D01*
X620Y1982D02*
X720D01*
X670Y1932D02*
Y2032D01*
X648Y3894D02*
X748D01*
X698Y3844D02*
Y3944D01*
X4081Y7722D02*
X4181D01*
X4131Y7672D02*
Y7772D01*
X2527Y5794D02*
X2627D01*
X2577Y5744D02*
Y5844D01*
X2527Y3894D02*
X2627D01*
X2577Y3844D02*
Y3944D01*
X4432Y3894D02*
X4532D01*
X4482Y3844D02*
Y3944D01*
X4432Y1982D02*
X4532D01*
X4482Y1932D02*
Y2032D01*
X2527Y1982D02*
X2627D01*
X2577Y1932D02*
Y2032D01*
X4432Y5794D02*
X4532D01*
X4482Y5744D02*
Y5844D01*
X2347Y8189D02*
Y8289D01*
X2297Y8239D02*
X2397D01*
X2347Y7671D02*
Y7771D01*
X2297Y7721D02*
X2397D01*
X2347Y7924D02*
Y8024D01*
X2297Y7974D02*
X2397D01*
X1220Y1312D02*
X1320D01*
X1270Y1262D02*
Y1362D01*
X3832Y1312D02*
X3932D01*
X3882Y1262D02*
Y1362D01*
X3127Y1312D02*
X3227D01*
X3177Y1262D02*
Y1362D01*
X3127Y5124D02*
X3227D01*
X3177Y5074D02*
Y5174D01*
X1273Y5124D02*
X1373D01*
X1323Y5074D02*
Y5174D01*
X3832Y3224D02*
X3932D01*
X3882Y3174D02*
Y3274D01*
X3127Y3224D02*
X3227D01*
X3177Y3174D02*
Y3274D01*
X1248Y3224D02*
X1348D01*
X1298Y3174D02*
Y3274D01*
X3832Y5124D02*
X3932D01*
X3882Y5074D02*
Y5174D01*
M02*
