%TF.GenerationSoftware,Altium Limited,Altium Designer,25.2.1 (25)*%
G04 Layer_Color=16711935*
%FSLAX45Y45*%
%MOMM*%
%TF.SameCoordinates,DBF3E2B7-33B5-4ACE-A245-667DA10812C1*%
%TF.FilePolarity,Negative*%
%TF.FileFunction,Soldermask,Bot*%
%TF.Part,Single*%
G01*
G75*
%TA.AperFunction,ComponentPad*%
%ADD17C,2.03200*%
%ADD18R,2.03200X2.03200*%
%ADD44C,2.10320*%
%ADD45R,2.10320X2.10320*%
%ADD46C,2.20320*%
%TA.AperFunction,ViaPad*%
%ADD47C,1.47320*%
%TA.AperFunction,SMDPad,CuDef*%
%ADD48R,1.20320X1.70320*%
G04:AMPARAMS|DCode=49|XSize=0.6532mm|YSize=1.2532mm|CornerRadius=0.1511mm|HoleSize=0mm|Usage=FLASHONLY|Rotation=0.000|XOffset=0mm|YOffset=0mm|HoleType=Round|Shape=RoundedRectangle|*
%AMROUNDEDRECTD49*
21,1,0.65320,0.95100,0,0,0.0*
21,1,0.35100,1.25320,0,0,0.0*
1,1,0.30220,0.17550,-0.47550*
1,1,0.30220,-0.17550,-0.47550*
1,1,0.30220,-0.17550,0.47550*
1,1,0.30220,0.17550,0.47550*
%
%ADD49ROUNDEDRECTD49*%
%ADD50R,1.70320X1.20320*%
G04:AMPARAMS|DCode=51|XSize=1.5032mm|YSize=0.9632mm|CornerRadius=0.1966mm|HoleSize=0mm|Usage=FLASHONLY|Rotation=270.000|XOffset=0mm|YOffset=0mm|HoleType=Round|Shape=RoundedRectangle|*
%AMROUNDEDRECTD51*
21,1,1.50320,0.57000,0,0,270.0*
21,1,1.11000,0.96320,0,0,270.0*
1,1,0.39320,-0.28500,-0.55500*
1,1,0.39320,-0.28500,0.55500*
1,1,0.39320,0.28500,0.55500*
1,1,0.39320,0.28500,-0.55500*
%
%ADD51ROUNDEDRECTD51*%
%ADD52R,1.10320X1.15320*%
D17*
X6227818Y1899343D02*
D03*
Y8173143D02*
D03*
X5389618Y1785043D02*
D03*
Y8287443D02*
D03*
X5982708Y1365943D02*
D03*
X5634728D02*
D03*
D18*
Y8706543D02*
D03*
D44*
X215006Y6174563D02*
D03*
X1231006D02*
D03*
X161572Y2363472D02*
D03*
X1177572D02*
D03*
X189740Y4274605D02*
D03*
X1205740D02*
D03*
X2069487Y6174563D02*
D03*
X3085487D02*
D03*
X2069487Y4274605D02*
D03*
X3085487D02*
D03*
X3974499D02*
D03*
X4990499D02*
D03*
X3974499Y2363472D02*
D03*
X4990499D02*
D03*
X2069487D02*
D03*
X3085487D02*
D03*
X3974499Y6174563D02*
D03*
X4990499D02*
D03*
D45*
X723006D02*
D03*
X669572Y2363472D02*
D03*
X697740Y4274605D02*
D03*
X2577487Y6174563D02*
D03*
Y4274605D02*
D03*
X4482499D02*
D03*
Y2363472D02*
D03*
X2577487D02*
D03*
X4482499Y6174563D02*
D03*
D46*
X723006Y5285563D02*
D03*
X669572Y1474472D02*
D03*
X697740Y3385605D02*
D03*
X2577487Y5285563D02*
D03*
Y3385605D02*
D03*
X4482499D02*
D03*
Y1474472D02*
D03*
X2577487D02*
D03*
X4482499Y5285563D02*
D03*
D47*
X4359602Y7375356D02*
D03*
X3852410Y7474135D02*
D03*
X3681171Y4845631D02*
D03*
X3467711Y1177248D02*
D03*
X3556266Y3028264D02*
D03*
X4136096Y7225960D02*
D03*
X1341682Y8160521D02*
D03*
X2574379Y6931920D02*
D03*
X1112343Y8277240D02*
D03*
X2570476Y6690736D02*
D03*
X466024Y7717008D02*
D03*
X5935718Y7742008D02*
D03*
X466024Y4994537D02*
D03*
X483340Y3086020D02*
D03*
X1560644Y615483D02*
D03*
X4479926Y614811D02*
D03*
X5935718Y2561020D02*
D03*
Y4444537D02*
D03*
Y7217008D02*
D03*
X2508172Y9461826D02*
D03*
X4368853Y9496103D02*
D03*
X466024Y7192008D02*
D03*
Y4444537D02*
D03*
X394828Y2506393D02*
D03*
X1980111Y604969D02*
D03*
X3696513Y9517048D02*
D03*
X1983172Y9461826D02*
D03*
X5029926Y614811D02*
D03*
X5935718Y3111020D02*
D03*
Y4994537D02*
D03*
X4365662Y7838164D02*
D03*
D48*
X4914926Y369811D02*
D03*
Y859811D02*
D03*
X4594926Y369811D02*
D03*
Y859811D02*
D03*
X2098172Y9706826D02*
D03*
Y9216826D02*
D03*
X2418172Y9706826D02*
D03*
Y9216826D02*
D03*
X3933853Y9741103D02*
D03*
Y9251103D02*
D03*
X4253853Y9741103D02*
D03*
Y9251103D02*
D03*
X1865111Y359969D02*
D03*
Y849969D02*
D03*
X1545111Y359969D02*
D03*
Y849969D02*
D03*
D49*
X4196252Y7844674D02*
D03*
X4131252D02*
D03*
X4066252D02*
D03*
Y7599674D02*
D03*
X4131252D02*
D03*
X4196252D02*
D03*
D50*
X221024Y4559537D02*
D03*
X711024D02*
D03*
X221024Y4879537D02*
D03*
X711024D02*
D03*
X238340Y2676020D02*
D03*
X728340D02*
D03*
X238340Y2996020D02*
D03*
X728340D02*
D03*
X5698806Y4559537D02*
D03*
X6188806D02*
D03*
X5698806Y4879537D02*
D03*
X6188806D02*
D03*
X5716122Y2676020D02*
D03*
X6206122D02*
D03*
X5716122Y2996020D02*
D03*
X6206122D02*
D03*
X5698806Y7307008D02*
D03*
X6188806D02*
D03*
X5698806Y7627008D02*
D03*
X6188806D02*
D03*
X711024D02*
D03*
X221024D02*
D03*
X711024Y7307008D02*
D03*
X221024D02*
D03*
D51*
X4571920Y7975179D02*
D03*
X4750921D02*
D03*
D52*
X1112072Y1312472D02*
D03*
X1427072Y1312472D02*
D03*
X4039999Y1312472D02*
D03*
X3724998Y1312472D02*
D03*
X3019987Y1312472D02*
D03*
X3334987Y1312472D02*
D03*
X3019987Y5123563D02*
D03*
X3334987Y5123563D02*
D03*
X1165506Y5123563D02*
D03*
X1480506Y5123563D02*
D03*
X4039999Y3223605D02*
D03*
X3724998Y3223605D02*
D03*
X3019987Y3223605D02*
D03*
X3334987Y3223605D02*
D03*
X1140240Y3223605D02*
D03*
X1455240Y3223605D02*
D03*
X4039999Y5123563D02*
D03*
X3724998Y5123564D02*
D03*
%TF.MD5,8fab7af557a68b7511c8245ec6d16c88*%
M02*
