G04*
G04 #@! TF.GenerationSoftware,Altium Limited,Altium Designer,25.2.1 (25)*
G04*
G04 Layer_Physical_Order=3*
G04 Layer_Color=128*
%FSLAX43Y43*%
%MOMM*%
G71*
G04*
G04 #@! TF.SameCoordinates,37798F80-2AC8-4B0B-9607-FE0DC02C65D2*
G04*
G04*
G04 #@! TF.FilePolarity,Negative*
G04*
G01*
G75*
%ADD30C,1.016*%
%ADD31C,2.566*%
%ADD32C,2.416*%
%ADD33C,2.516*%
%ADD34C,3.616*%
%ADD35C,2.540*%
G04:AMPARAMS|DCode=36|XSize=3.048mm|YSize=3.048mm|CornerRadius=0mm|HoleSize=0mm|Usage=FLASHONLY|Rotation=0.000|XOffset=0mm|YOffset=0mm|HoleType=Round|Shape=Relief|Width=0.254mm|Gap=0.254mm|Entries=4|*
%AMTHD36*
7,0,0,3.048,2.540,0.254,45*
%
%ADD36THD36*%
%ADD37C,1.727*%
G04:AMPARAMS|DCode=38|XSize=2.2352mm|YSize=2.2352mm|CornerRadius=0mm|HoleSize=0mm|Usage=FLASHONLY|Rotation=0.000|XOffset=0mm|YOffset=0mm|HoleType=Round|Shape=Relief|Width=0.254mm|Gap=0.254mm|Entries=4|*
%AMTHD38*
7,0,0,2.235,1.727,0.254,45*
%
%ADD38THD38*%
G36*
X6746Y95385D02*
X7055Y95257D01*
X7334Y95070D01*
X7570Y94834D01*
X7757Y94555D01*
X7885Y94246D01*
X7950Y93917D01*
Y93750D01*
Y93583D01*
X7885Y93254D01*
X7757Y92945D01*
X7570Y92666D01*
X7334Y92430D01*
X7055Y92243D01*
X6746Y92115D01*
X6417Y92050D01*
X6083D01*
X5754Y92115D01*
X5445Y92243D01*
X5166Y92430D01*
X4930Y92666D01*
X4743Y92945D01*
X4615Y93254D01*
X4550Y93583D01*
Y93750D01*
Y93917D01*
X4615Y94246D01*
X4743Y94555D01*
X4930Y94834D01*
X5166Y95070D01*
X5445Y95257D01*
X5754Y95385D01*
X6083Y95450D01*
X6417D01*
X6746Y95385D01*
D02*
G37*
G36*
X59246Y95385D02*
X59555Y95257D01*
X59834Y95070D01*
X60070Y94834D01*
X60257Y94555D01*
X60385Y94246D01*
X60450Y93917D01*
Y93750D01*
Y93583D01*
X60385Y93254D01*
X60257Y92945D01*
X60070Y92666D01*
X59834Y92430D01*
X59555Y92243D01*
X59246Y92115D01*
X58917Y92050D01*
X58583D01*
X58254Y92115D01*
X57945Y92243D01*
X57666Y92430D01*
X57430Y92666D01*
X57243Y92945D01*
X57115Y93254D01*
X57050Y93583D01*
Y93750D01*
Y93917D01*
X57115Y94246D01*
X57243Y94555D01*
X57430Y94834D01*
X57666Y95070D01*
X57945Y95257D01*
X58254Y95385D01*
X58583Y95450D01*
X58917D01*
X59246Y95385D01*
D02*
G37*
G36*
Y7885D02*
X59555Y7757D01*
X59834Y7570D01*
X60070Y7334D01*
X60257Y7055D01*
X60385Y6746D01*
X60450Y6417D01*
Y6250D01*
Y6083D01*
X60385Y5754D01*
X60257Y5445D01*
X60070Y5166D01*
X59834Y4930D01*
X59555Y4743D01*
X59246Y4615D01*
X58917Y4550D01*
X58583D01*
X58254Y4615D01*
X57945Y4743D01*
X57666Y4930D01*
X57430Y5166D01*
X57243Y5445D01*
X57115Y5754D01*
X57050Y6083D01*
Y6250D01*
Y6417D01*
X57115Y6746D01*
X57243Y7055D01*
X57430Y7334D01*
X57666Y7570D01*
X57945Y7757D01*
X58254Y7885D01*
X58583Y7950D01*
X58917D01*
X59246Y7885D01*
D02*
G37*
G36*
X6746D02*
X7055Y7757D01*
X7334Y7570D01*
X7570Y7334D01*
X7757Y7055D01*
X7885Y6746D01*
X7950Y6417D01*
Y6250D01*
Y6083D01*
X7885Y5754D01*
X7757Y5445D01*
X7570Y5166D01*
X7334Y4930D01*
X7055Y4743D01*
X6746Y4615D01*
X6417Y4550D01*
X6083D01*
X5754Y4615D01*
X5445Y4743D01*
X5166Y4930D01*
X4930Y5166D01*
X4743Y5445D01*
X4615Y5754D01*
X4550Y6083D01*
Y6250D01*
Y6417D01*
X4615Y6746D01*
X4743Y7055D01*
X4930Y7334D01*
X5166Y7570D01*
X5445Y7757D01*
X5754Y7885D01*
X6083Y7950D01*
X6417D01*
X6746Y7885D01*
D02*
G37*
D30*
X58917Y95450D02*
X59246Y95385D01*
X59555Y95257D01*
X59834Y95070D01*
X60070Y94834D01*
X60257Y94555D01*
X60385Y94246D01*
X60450Y93917D01*
Y93750D02*
Y93917D01*
Y93583D02*
Y93750D01*
X60385Y93254D02*
X60450Y93583D01*
X60257Y92945D02*
X60385Y93254D01*
X60070Y92666D02*
X60257Y92945D01*
X59834Y92430D02*
X60070Y92666D01*
X59555Y92243D02*
X59834Y92430D01*
X59246Y92115D02*
X59555Y92243D01*
X58917Y92050D02*
X59246Y92115D01*
X58583Y92050D02*
X58917D01*
X58254Y92115D02*
X58583Y92050D01*
X57945Y92243D02*
X58254Y92115D01*
X57666Y92430D02*
X57945Y92243D01*
X57430Y92666D02*
X57666Y92430D01*
X57243Y92945D02*
X57430Y92666D01*
X57115Y93254D02*
X57243Y92945D01*
X57050Y93583D02*
X57115Y93254D01*
X57050Y93583D02*
Y93750D01*
Y93917D01*
X57115Y94246D01*
X57243Y94555D01*
X57430Y94834D01*
X57666Y95070D01*
X57945Y95257D01*
X58254Y95385D01*
X58583Y95450D01*
X58917D01*
X6417Y95450D02*
X6746Y95385D01*
X7055Y95257D01*
X7334Y95070D01*
X7570Y94834D01*
X7757Y94555D01*
X7885Y94246D01*
X7950Y93917D01*
Y93750D02*
Y93917D01*
Y93583D02*
Y93750D01*
X7885Y93254D02*
X7950Y93583D01*
X7757Y92945D02*
X7885Y93254D01*
X7570Y92666D02*
X7757Y92945D01*
X7334Y92430D02*
X7570Y92666D01*
X7055Y92243D02*
X7334Y92430D01*
X6746Y92115D02*
X7055Y92243D01*
X5754Y95385D02*
X6083Y95450D01*
X6417D01*
Y92050D02*
X6746Y92115D01*
X6083Y92050D02*
X6417D01*
X5754Y92115D02*
X6083Y92050D01*
X5445Y92243D02*
X5754Y92115D01*
X5166Y92430D02*
X5445Y92243D01*
X4930Y92666D02*
X5166Y92430D01*
X4743Y92945D02*
X4930Y92666D01*
X4615Y93254D02*
X4743Y92945D01*
X4550Y93750D02*
Y93917D01*
X4615Y94246D01*
X4743Y94555D01*
X4930Y94834D01*
X5166Y95070D01*
X5445Y95257D01*
X5754Y95385D01*
X58917Y7950D02*
X59246Y7885D01*
X59555Y7757D01*
X59834Y7570D01*
X60070Y7334D01*
X60257Y7055D01*
X60385Y6746D01*
X60450Y6417D01*
Y6250D02*
Y6417D01*
Y6083D02*
Y6250D01*
X60385Y5754D02*
X60450Y6083D01*
X60257Y5445D02*
X60385Y5754D01*
X60070Y5166D02*
X60257Y5445D01*
X59834Y4930D02*
X60070Y5166D01*
X59555Y4743D02*
X59834Y4930D01*
X59246Y4615D02*
X59555Y4743D01*
X58917Y4550D02*
X59246Y4615D01*
X58583Y4550D02*
X58917D01*
X58254Y4615D02*
X58583Y4550D01*
X57945Y4743D02*
X58254Y4615D01*
X57666Y4930D02*
X57945Y4743D01*
X57430Y5166D02*
X57666Y4930D01*
X57243Y5445D02*
X57430Y5166D01*
X57115Y5754D02*
X57243Y5445D01*
X57050Y6083D02*
X57115Y5754D01*
X57050Y6083D02*
Y6250D01*
Y6417D01*
X57115Y6746D01*
X57243Y7055D01*
X57430Y7334D01*
X57666Y7570D01*
X57945Y7757D01*
X58254Y7885D01*
X58583Y7950D01*
X58917D01*
X0Y100000D02*
X65000D01*
X4550Y93583D02*
X4615Y93254D01*
X4550Y93583D02*
Y93750D01*
X6417Y7950D02*
X6746Y7885D01*
X7055Y7757D01*
X7334Y7570D01*
X7570Y7334D01*
X7757Y7055D01*
X7885Y6746D01*
X7950Y6417D01*
Y6250D02*
Y6417D01*
Y6083D02*
Y6250D01*
X7885Y5754D02*
X7950Y6083D01*
X7757Y5445D02*
X7885Y5754D01*
X7570Y5166D02*
X7757Y5445D01*
X7334Y4930D02*
X7570Y5166D01*
X7055Y4743D02*
X7334Y4930D01*
X6746Y4615D02*
X7055Y4743D01*
X6417Y4550D02*
X6746Y4615D01*
X6083Y4550D02*
X6417D01*
X5754Y4615D02*
X6083Y4550D01*
X5445Y4743D02*
X5754Y4615D01*
X5166Y4930D02*
X5445Y4743D01*
X4930Y5166D02*
X5166Y4930D01*
X4743Y5445D02*
X4930Y5166D01*
X4615Y5754D02*
X4743Y5445D01*
X4550Y6083D02*
X4615Y5754D01*
X4550Y6083D02*
Y6250D01*
Y6417D01*
X4615Y6746D01*
X4743Y7055D01*
X4930Y7334D01*
X5166Y7570D01*
X5445Y7757D01*
X5754Y7885D01*
X6083Y7950D01*
X6417D01*
X0Y0D02*
Y100000D01*
X65000Y0D02*
Y100000D01*
X0Y0D02*
X65000D01*
D31*
X2150Y57936D02*
D03*
X12310D02*
D03*
X1616Y19825D02*
D03*
X11776D02*
D03*
X1897Y38936D02*
D03*
X12057D02*
D03*
X20695Y57936D02*
D03*
X30855D02*
D03*
X20695Y38936D02*
D03*
X30855D02*
D03*
X39745D02*
D03*
X49905D02*
D03*
X39745Y19825D02*
D03*
X49905D02*
D03*
X20695D02*
D03*
X30855D02*
D03*
X39745Y57936D02*
D03*
X49905D02*
D03*
D32*
X2150Y61746D02*
D03*
X7230D02*
D03*
X12310D02*
D03*
X1616Y23635D02*
D03*
X6696D02*
D03*
X11776D02*
D03*
X1897Y42746D02*
D03*
X6977D02*
D03*
X12057D02*
D03*
X20695Y61746D02*
D03*
X25775D02*
D03*
X30855D02*
D03*
X20695Y42746D02*
D03*
X25775D02*
D03*
X30855D02*
D03*
X39745D02*
D03*
X44825D02*
D03*
X49905D02*
D03*
X39745Y23635D02*
D03*
X44825D02*
D03*
X49905D02*
D03*
X20695D02*
D03*
X25775D02*
D03*
X30855D02*
D03*
X39745Y61746D02*
D03*
X44825D02*
D03*
X49905D02*
D03*
D33*
X7230Y52856D02*
D03*
X6696Y14745D02*
D03*
X6977Y33856D02*
D03*
X25775Y52856D02*
D03*
Y33856D02*
D03*
X44825D02*
D03*
Y14745D02*
D03*
X25775D02*
D03*
X44825Y52856D02*
D03*
D34*
X7230Y57936D02*
D03*
X6696Y19825D02*
D03*
X6977Y38936D02*
D03*
X25775Y57936D02*
D03*
Y38936D02*
D03*
X44825D02*
D03*
Y19825D02*
D03*
X25775D02*
D03*
X44825Y57936D02*
D03*
D35*
X62278Y18993D02*
D03*
Y81731D02*
D03*
X53896Y17850D02*
D03*
Y82874D02*
D03*
X59827Y13659D02*
D03*
X56347D02*
D03*
D36*
Y87065D02*
D03*
D37*
X13437Y81605D02*
D03*
X25738Y66874D02*
D03*
X25744Y69319D02*
D03*
X43657Y78382D02*
D03*
X34483Y11578D02*
D03*
X35563Y30283D02*
D03*
X11328Y81284D02*
D03*
D03*
X50832Y86432D02*
D03*
X51812Y95307D02*
D03*
X43596Y73754D02*
D03*
X38524Y74741D02*
D03*
D03*
X36812Y48456D02*
D03*
X59357Y77420D02*
D03*
X4660Y71920D02*
D03*
Y44445D02*
D03*
X3948Y25064D02*
D03*
X19801Y6050D02*
D03*
X36965Y95170D02*
D03*
X19832Y94618D02*
D03*
X50299Y6148D02*
D03*
X59357Y31110D02*
D03*
Y49945D02*
D03*
D38*
Y25610D02*
D03*
X19895Y82418D02*
D03*
X19833Y77246D02*
D03*
X19786Y79756D02*
D03*
X51832Y92670D02*
D03*
X41361Y72260D02*
D03*
X4660Y77170D02*
D03*
X33835Y87521D02*
D03*
X33970Y90115D02*
D03*
X4660Y49945D02*
D03*
X4833Y30860D02*
D03*
X15606Y6155D02*
D03*
X44799Y6148D02*
D03*
X59357Y44445D02*
D03*
Y72170D02*
D03*
X25082Y94618D02*
D03*
X43689Y94961D02*
D03*
M02*
