%TF.GenerationSoftware,Altium Limited,Altium Designer,25.2.1 (25)*%
G04 Layer_Color=255*
%FSLAX45Y45*%
%MOMM*%
%TF.SameCoordinates,DBF3E2B7-33B5-4ACE-A245-667DA10812C1*%
%TF.FilePolarity,Positive*%
%TF.FileFunction,Pads,Top*%
%TF.Part,Single*%
G01*
G75*
%TA.AperFunction,SMDPad,CuDef*%
%ADD11O,5.08000X2.03200*%
%ADD12R,3.00000X1.20000*%
%ADD13R,1.20000X1.50000*%
%TA.AperFunction,ComponentPad*%
%ADD14C,1.90000*%
%ADD15R,1.90000X1.90000*%
%ADD16C,2.00000*%
%ADD17C,2.03200*%
%ADD18R,2.03200X2.03200*%
D11*
X4750921Y9524578D02*
D03*
Y9266345D02*
D03*
Y9008112D02*
D03*
Y8749879D02*
D03*
Y8491646D02*
D03*
Y8233413D02*
D03*
Y7975179D02*
D03*
Y7716946D02*
D03*
Y7458713D02*
D03*
Y7200480D02*
D03*
Y6942247D02*
D03*
Y6684014D02*
D03*
X2972921Y9782812D02*
D03*
Y9524578D02*
D03*
Y9266345D02*
D03*
Y9008112D02*
D03*
Y8749879D02*
D03*
X2960221Y8500112D02*
D03*
X2972921Y8233413D02*
D03*
Y7975179D02*
D03*
Y7716946D02*
D03*
Y7458713D02*
D03*
Y7200480D02*
D03*
Y6942247D02*
D03*
Y6684014D02*
D03*
X4750921Y9782812D02*
D03*
D12*
X298933Y7922843D02*
D03*
Y8172843D02*
D03*
Y8422843D02*
D03*
Y8672843D02*
D03*
X848933Y7922843D02*
D03*
Y8172843D02*
D03*
Y8422843D02*
D03*
Y8672843D02*
D03*
D13*
X2451767Y8239448D02*
D03*
X2241767D02*
D03*
X2451768Y7720792D02*
D03*
X2241768D02*
D03*
X2451767Y7973554D02*
D03*
X2241767D02*
D03*
D14*
X215006Y6174563D02*
D03*
X1231006D02*
D03*
X161572Y2363472D02*
D03*
X1177572D02*
D03*
X189740Y4274605D02*
D03*
X1205740D02*
D03*
X2069487Y6174563D02*
D03*
X3085487D02*
D03*
X2069487Y4274605D02*
D03*
X3085487D02*
D03*
X3974499D02*
D03*
X4990499D02*
D03*
X3974499Y2363472D02*
D03*
X4990499D02*
D03*
X2069487D02*
D03*
X3085487D02*
D03*
X3974499Y6174563D02*
D03*
X4990499D02*
D03*
D15*
X723006D02*
D03*
X669572Y2363472D02*
D03*
X697740Y4274605D02*
D03*
X2577487Y6174563D02*
D03*
Y4274605D02*
D03*
X4482499D02*
D03*
Y2363472D02*
D03*
X2577487D02*
D03*
X4482499Y6174563D02*
D03*
D16*
X723006Y5285563D02*
D03*
X669572Y1474472D02*
D03*
X697740Y3385605D02*
D03*
X2577487Y5285563D02*
D03*
Y3385605D02*
D03*
X4482499D02*
D03*
Y1474472D02*
D03*
X2577487D02*
D03*
X4482499Y5285563D02*
D03*
D17*
X6227818Y1899343D02*
D03*
Y8173143D02*
D03*
X5389618Y1785043D02*
D03*
Y8287443D02*
D03*
X5982708Y1365943D02*
D03*
X5634728D02*
D03*
D18*
Y8706543D02*
D03*
%TF.MD5,f353501e1e9d75d88894a0aefcf8109a*%
M02*
