G04*
G04 #@! TF.GenerationSoftware,Altium Limited,Altium Designer,25.2.1 (25)*
G04*
G04 Layer_Color=2752767*
%FSLAX44Y44*%
%MOMM*%
G71*
G04*
G04 #@! TF.SameCoordinates,6FBFE696-48CE-430D-A149-04A0BAA6C4F4*
G04*
G04*
G04 #@! TF.FilePolarity,Positive*
G04*
G01*
G75*
%ADD49C,0.1270*%
%ADD56C,0.1693*%
D49*
X21501Y574276D02*
X16421Y584436D01*
X26581D01*
X21501Y574276D01*
Y612376D02*
X24041Y614916D01*
X26581D01*
X24041Y617456D01*
X26581Y619996D01*
X24041D01*
X21501Y622536D01*
X18961Y619996D01*
X16421D01*
X18961Y617456D01*
X16421Y614916D01*
X18961D01*
X21501Y612376D01*
X72301D02*
X74841Y614916D01*
X77381D01*
X74841Y617456D01*
X77381Y619996D01*
X74841D01*
X72301Y622536D01*
X69761Y619996D01*
X67221D01*
X69761Y617456D01*
X67221Y614916D01*
X69761D01*
X72301Y612376D01*
X123101D02*
X125641Y614916D01*
X128181D01*
X125641Y617456D01*
X128181Y619996D01*
X125641D01*
X123101Y622536D01*
X120561Y619996D01*
X118021D01*
X120561Y617456D01*
X118021Y614916D01*
X120561D01*
X123101Y612376D01*
Y574276D02*
X118021Y584436D01*
X128181D01*
X123101Y574276D01*
X67221D02*
Y584436D01*
X77381D01*
Y574276D01*
X67221D01*
X16157Y193167D02*
X11077Y203327D01*
X21237D01*
X16157Y193167D01*
Y231267D02*
X18697Y233807D01*
X21237D01*
X18697Y236347D01*
X21237Y238887D01*
X18697D01*
X16157Y241427D01*
X13617Y238887D01*
X11077D01*
X13617Y236347D01*
X11077Y233807D01*
X13617D01*
X16157Y231267D01*
X66957D02*
X69497Y233807D01*
X72037D01*
X69497Y236347D01*
X72037Y238887D01*
X69497D01*
X66957Y241427D01*
X64417Y238887D01*
X61877D01*
X64417Y236347D01*
X61877Y233807D01*
X64417D01*
X66957Y231267D01*
X117757D02*
X120297Y233807D01*
X122837D01*
X120297Y236347D01*
X122837Y238887D01*
X120297D01*
X117757Y241427D01*
X115217Y238887D01*
X112677D01*
X115217Y236347D01*
X112677Y233807D01*
X115217D01*
X117757Y231267D01*
Y193167D02*
X112677Y203327D01*
X122837D01*
X117757Y193167D01*
X61877D02*
Y203327D01*
X72037D01*
Y193167D01*
X61877D01*
X18974Y384281D02*
X13894Y394440D01*
X24054D01*
X18974Y384281D01*
Y422380D02*
X21514Y424921D01*
X24054D01*
X21514Y427461D01*
X24054Y430000D01*
X21514D01*
X18974Y432541D01*
X16434Y430000D01*
X13894D01*
X16434Y427461D01*
X13894Y424921D01*
X16434D01*
X18974Y422380D01*
X69774D02*
X72314Y424921D01*
X74854D01*
X72314Y427461D01*
X74854Y430000D01*
X72314D01*
X69774Y432541D01*
X67234Y430000D01*
X64694D01*
X67234Y427461D01*
X64694Y424921D01*
X67234D01*
X69774Y422380D01*
X120574D02*
X123114Y424921D01*
X125654D01*
X123114Y427461D01*
X125654Y430000D01*
X123114D01*
X120574Y432541D01*
X118034Y430000D01*
X115494D01*
X118034Y427461D01*
X115494Y424921D01*
X118034D01*
X120574Y422380D01*
Y384281D02*
X115494Y394440D01*
X125654D01*
X120574Y384281D01*
X64694D02*
Y394440D01*
X74854D01*
Y384281D01*
X64694D01*
X617702Y184854D02*
X620242Y189934D01*
X617702Y195014D01*
X622782Y192474D01*
X627862Y195014D01*
X625322Y189934D01*
X627862Y184854D01*
X622782Y187394D01*
X617702Y184854D01*
Y812234D02*
X620242Y817314D01*
X617702Y822394D01*
X622782Y819854D01*
X627862Y822394D01*
X625322Y817314D01*
X627862Y812234D01*
X622782Y814774D01*
X617702Y812234D01*
X533882Y173424D02*
X536422Y178504D01*
X533882Y183584D01*
X538962Y181044D01*
X544042Y183584D01*
X541502Y178504D01*
X544042Y173424D01*
X538962Y175964D01*
X533882Y173424D01*
Y823664D02*
X536422Y828744D01*
X533882Y833824D01*
X538962Y831284D01*
X544042Y833824D01*
X541502Y828744D01*
X544042Y823664D01*
X538962Y826204D01*
X533882Y823664D01*
X593191Y131514D02*
X595731Y136594D01*
X593191Y141674D01*
X598271Y139134D01*
X603351Y141674D01*
X600811Y136594D01*
X603351Y131514D01*
X598271Y134054D01*
X593191Y131514D01*
X558393D02*
X560933Y136594D01*
X558393Y141674D01*
X563473Y139134D01*
X568553Y141674D01*
X566013Y136594D01*
X568553Y131514D01*
X563473Y134054D01*
X558393Y131514D01*
Y865574D02*
X560933Y870654D01*
X558393Y875734D01*
X563473Y873194D01*
X568553Y875734D01*
X566013Y870654D01*
X568553Y865574D01*
X563473Y868114D01*
X558393Y865574D01*
X206949Y574276D02*
X201869Y584436D01*
X212029D01*
X206949Y574276D01*
Y612376D02*
X209489Y614916D01*
X212029D01*
X209489Y617456D01*
X212029Y619996D01*
X209489D01*
X206949Y622536D01*
X204409Y619996D01*
X201869D01*
X204409Y617456D01*
X201869Y614916D01*
X204409D01*
X206949Y612376D01*
X257749D02*
X260289Y614916D01*
X262829D01*
X260289Y617456D01*
X262829Y619996D01*
X260289D01*
X257749Y622536D01*
X255209Y619996D01*
X252669D01*
X255209Y617456D01*
X252669Y614916D01*
X255209D01*
X257749Y612376D01*
X308549D02*
X311089Y614916D01*
X313629D01*
X311089Y617456D01*
X313629Y619996D01*
X311089D01*
X308549Y622536D01*
X306009Y619996D01*
X303469D01*
X306009Y617456D01*
X303469Y614916D01*
X306009D01*
X308549Y612376D01*
Y574276D02*
X303469Y584436D01*
X313629D01*
X308549Y574276D01*
X252669D02*
Y584436D01*
X262829D01*
Y574276D01*
X252669D01*
X206949Y384281D02*
X201869Y394440D01*
X212029D01*
X206949Y384281D01*
Y422380D02*
X209489Y424921D01*
X212029D01*
X209489Y427461D01*
X212029Y430000D01*
X209489D01*
X206949Y432541D01*
X204409Y430000D01*
X201869D01*
X204409Y427461D01*
X201869Y424921D01*
X204409D01*
X206949Y422380D01*
X257749D02*
X260289Y424921D01*
X262829D01*
X260289Y427461D01*
X262829Y430000D01*
X260289D01*
X257749Y432541D01*
X255209Y430000D01*
X252669D01*
X255209Y427461D01*
X252669Y424921D01*
X255209D01*
X257749Y422380D01*
X308549D02*
X311089Y424921D01*
X313629D01*
X311089Y427461D01*
X313629Y430000D01*
X311089D01*
X308549Y432541D01*
X306009Y430000D01*
X303469D01*
X306009Y427461D01*
X303469Y424921D01*
X306009D01*
X308549Y422380D01*
Y384281D02*
X303469Y394440D01*
X313629D01*
X308549Y384281D01*
X252669D02*
Y394440D01*
X262829D01*
Y384281D01*
X252669D01*
X397450D02*
X392370Y394440D01*
X402530D01*
X397450Y384281D01*
Y422380D02*
X399990Y424921D01*
X402530D01*
X399990Y427461D01*
X402530Y430000D01*
X399990D01*
X397450Y432541D01*
X394910Y430000D01*
X392370D01*
X394910Y427461D01*
X392370Y424921D01*
X394910D01*
X397450Y422380D01*
X448250D02*
X450790Y424921D01*
X453330D01*
X450790Y427461D01*
X453330Y430000D01*
X450790D01*
X448250Y432541D01*
X445710Y430000D01*
X443170D01*
X445710Y427461D01*
X443170Y424921D01*
X445710D01*
X448250Y422380D01*
X499050D02*
X501590Y424921D01*
X504130D01*
X501590Y427461D01*
X504130Y430000D01*
X501590D01*
X499050Y432541D01*
X496510Y430000D01*
X493970D01*
X496510Y427461D01*
X493970Y424921D01*
X496510D01*
X499050Y422380D01*
Y384281D02*
X493970Y394440D01*
X504130D01*
X499050Y384281D01*
X443170D02*
Y394440D01*
X453330D01*
Y384281D01*
X443170D01*
X397450Y193167D02*
X392370Y203327D01*
X402530D01*
X397450Y193167D01*
Y231267D02*
X399990Y233807D01*
X402530D01*
X399990Y236347D01*
X402530Y238887D01*
X399990D01*
X397450Y241427D01*
X394910Y238887D01*
X392370D01*
X394910Y236347D01*
X392370Y233807D01*
X394910D01*
X397450Y231267D01*
X448250D02*
X450790Y233807D01*
X453330D01*
X450790Y236347D01*
X453330Y238887D01*
X450790D01*
X448250Y241427D01*
X445710Y238887D01*
X443170D01*
X445710Y236347D01*
X443170Y233807D01*
X445710D01*
X448250Y231267D01*
X499050D02*
X501590Y233807D01*
X504130D01*
X501590Y236347D01*
X504130Y238887D01*
X501590D01*
X499050Y241427D01*
X496510Y238887D01*
X493970D01*
X496510Y236347D01*
X493970Y233807D01*
X496510D01*
X499050Y231267D01*
Y193167D02*
X493970Y203327D01*
X504130D01*
X499050Y193167D01*
X443170D02*
Y203327D01*
X453330D01*
Y193167D01*
X443170D01*
X206949D02*
X201869Y203327D01*
X212029D01*
X206949Y193167D01*
Y231267D02*
X209489Y233807D01*
X212029D01*
X209489Y236347D01*
X212029Y238887D01*
X209489D01*
X206949Y241427D01*
X204409Y238887D01*
X201869D01*
X204409Y236347D01*
X201869Y233807D01*
X204409D01*
X206949Y231267D01*
X257749D02*
X260289Y233807D01*
X262829D01*
X260289Y236347D01*
X262829Y238887D01*
X260289D01*
X257749Y241427D01*
X255209Y238887D01*
X252669D01*
X255209Y236347D01*
X252669Y233807D01*
X255209D01*
X257749Y231267D01*
X308549D02*
X311089Y233807D01*
X313629D01*
X311089Y236347D01*
X313629Y238887D01*
X311089D01*
X308549Y241427D01*
X306009Y238887D01*
X303469D01*
X306009Y236347D01*
X303469Y233807D01*
X306009D01*
X308549Y231267D01*
Y193167D02*
X303469Y203327D01*
X313629D01*
X308549Y193167D01*
X252669D02*
Y203327D01*
X262829D01*
Y193167D01*
X252669D01*
X397450Y574276D02*
X392370Y584436D01*
X402530D01*
X397450Y574276D01*
Y612376D02*
X399990Y614916D01*
X402530D01*
X399990Y617456D01*
X402530Y619996D01*
X399990D01*
X397450Y622536D01*
X394910Y619996D01*
X392370D01*
X394910Y617456D01*
X392370Y614916D01*
X394910D01*
X397450Y612376D01*
X448250D02*
X450790Y614916D01*
X453330D01*
X450790Y617456D01*
X453330Y619996D01*
X450790D01*
X448250Y622536D01*
X445710Y619996D01*
X443170D01*
X445710Y617456D01*
X443170Y614916D01*
X445710D01*
X448250Y612376D01*
X499050D02*
X501590Y614916D01*
X504130D01*
X501590Y617456D01*
X504130Y619996D01*
X501590D01*
X499050Y622536D01*
X496510Y619996D01*
X493970D01*
X496510Y617456D01*
X493970Y614916D01*
X496510D01*
X499050Y612376D01*
Y574276D02*
X493970Y584436D01*
X504130D01*
X499050Y574276D01*
X443170D02*
Y584436D01*
X453330D01*
Y574276D01*
X443170D01*
X382701Y744874D02*
Y742334D01*
X387781D01*
Y744874D01*
X390321D01*
Y749954D01*
X387781D01*
Y752494D01*
X382701D01*
Y749954D01*
X380161D01*
Y744874D01*
X382701D01*
X365577Y482023D02*
Y479483D01*
X370657D01*
Y482023D01*
X373197D01*
Y487103D01*
X370657D01*
Y489643D01*
X365577D01*
Y487103D01*
X363037D01*
Y482023D01*
X365577D01*
X44062Y769161D02*
Y766621D01*
X49142D01*
Y769161D01*
X51682D01*
Y774241D01*
X49142D01*
Y776781D01*
X44062D01*
Y774241D01*
X41522D01*
Y769161D01*
X44062D01*
Y716661D02*
Y714121D01*
X49142D01*
Y716661D01*
X51682D01*
Y721741D01*
X49142D01*
Y724281D01*
X44062D01*
Y721741D01*
X41522D01*
Y716661D01*
X44062D01*
X500453Y58941D02*
Y56401D01*
X505533D01*
Y58941D01*
X508073D01*
Y64021D01*
X505533D01*
Y66561D01*
X500453D01*
Y64021D01*
X497913D01*
Y58941D01*
X500453D01*
D56*
X77381Y528556D02*
G03*
X77381Y528556I-5080J0D01*
G01*
X72037Y147447D02*
G03*
X72037Y147447I-5080J0D01*
G01*
X74854Y338560D02*
G03*
X74854Y338560I-5080J0D01*
G01*
X262829Y528556D02*
G03*
X262829Y528556I-5080J0D01*
G01*
Y338560D02*
G03*
X262829Y338560I-5080J0D01*
G01*
X453330D02*
G03*
X453330Y338560I-5080J0D01*
G01*
Y147447D02*
G03*
X453330Y147447I-5080J0D01*
G01*
X262829D02*
G03*
X262829Y147447I-5080J0D01*
G01*
X453330Y528556D02*
G03*
X453330Y528556I-5080J0D01*
G01*
M02*
