G04*
G04 #@! TF.GenerationSoftware,Altium Limited,Altium Designer,25.2.1 (25)*
G04*
G04 Layer_Color=2752767*
%FSLAX43Y43*%
%MOMM*%
G71*
G04*
G04 #@! TF.SameCoordinates,37798F80-2AC8-4B0B-9607-FE0DC02C65D2*
G04*
G04*
G04 #@! TF.FilePolarity,Positive*
G04*
G01*
G75*
%ADD49C,0.127*%
%ADD56C,0.169*%
D49*
X2150Y57428D02*
X1642Y58444D01*
X2658D01*
X2150Y57428D01*
Y61238D02*
X2404Y61492D01*
X2658D01*
X2404Y61746D01*
X2658Y62000D01*
X2404D01*
X2150Y62254D01*
X1896Y62000D01*
X1642D01*
X1896Y61746D01*
X1642Y61492D01*
X1896D01*
X2150Y61238D01*
X7230D02*
X7484Y61492D01*
X7738D01*
X7484Y61746D01*
X7738Y62000D01*
X7484D01*
X7230Y62254D01*
X6976Y62000D01*
X6722D01*
X6976Y61746D01*
X6722Y61492D01*
X6976D01*
X7230Y61238D01*
X12310D02*
X12564Y61492D01*
X12818D01*
X12564Y61746D01*
X12818Y62000D01*
X12564D01*
X12310Y62254D01*
X12056Y62000D01*
X11802D01*
X12056Y61746D01*
X11802Y61492D01*
X12056D01*
X12310Y61238D01*
Y57428D02*
X11802Y58444D01*
X12818D01*
X12310Y57428D01*
X6722D02*
Y58444D01*
X7738D01*
Y57428D01*
X6722D01*
X1616Y19317D02*
X1108Y20333D01*
X2124D01*
X1616Y19317D01*
Y23127D02*
X1870Y23381D01*
X2124D01*
X1870Y23635D01*
X2124Y23889D01*
X1870D01*
X1616Y24143D01*
X1362Y23889D01*
X1108D01*
X1362Y23635D01*
X1108Y23381D01*
X1362D01*
X1616Y23127D01*
X6696D02*
X6950Y23381D01*
X7204D01*
X6950Y23635D01*
X7204Y23889D01*
X6950D01*
X6696Y24143D01*
X6442Y23889D01*
X6188D01*
X6442Y23635D01*
X6188Y23381D01*
X6442D01*
X6696Y23127D01*
X11776D02*
X12030Y23381D01*
X12284D01*
X12030Y23635D01*
X12284Y23889D01*
X12030D01*
X11776Y24143D01*
X11522Y23889D01*
X11268D01*
X11522Y23635D01*
X11268Y23381D01*
X11522D01*
X11776Y23127D01*
Y19317D02*
X11268Y20333D01*
X12284D01*
X11776Y19317D01*
X6188D02*
Y20333D01*
X7204D01*
Y19317D01*
X6188D01*
X1897Y38428D02*
X1389Y39444D01*
X2405D01*
X1897Y38428D01*
Y42238D02*
X2151Y42492D01*
X2405D01*
X2151Y42746D01*
X2405Y43000D01*
X2151D01*
X1897Y43254D01*
X1643Y43000D01*
X1389D01*
X1643Y42746D01*
X1389Y42492D01*
X1643D01*
X1897Y42238D01*
X6977D02*
X7231Y42492D01*
X7485D01*
X7231Y42746D01*
X7485Y43000D01*
X7231D01*
X6977Y43254D01*
X6723Y43000D01*
X6469D01*
X6723Y42746D01*
X6469Y42492D01*
X6723D01*
X6977Y42238D01*
X12057D02*
X12311Y42492D01*
X12565D01*
X12311Y42746D01*
X12565Y43000D01*
X12311D01*
X12057Y43254D01*
X11803Y43000D01*
X11549D01*
X11803Y42746D01*
X11549Y42492D01*
X11803D01*
X12057Y42238D01*
Y38428D02*
X11549Y39444D01*
X12565D01*
X12057Y38428D01*
X6469D02*
Y39444D01*
X7485D01*
Y38428D01*
X6469D01*
X61770Y18485D02*
X62024Y18993D01*
X61770Y19501D01*
X62278Y19247D01*
X62786Y19501D01*
X62532Y18993D01*
X62786Y18485D01*
X62278Y18739D01*
X61770Y18485D01*
Y81223D02*
X62024Y81731D01*
X61770Y82239D01*
X62278Y81985D01*
X62786Y82239D01*
X62532Y81731D01*
X62786Y81223D01*
X62278Y81477D01*
X61770Y81223D01*
X53388Y17342D02*
X53642Y17850D01*
X53388Y18358D01*
X53896Y18104D01*
X54404Y18358D01*
X54150Y17850D01*
X54404Y17342D01*
X53896Y17596D01*
X53388Y17342D01*
Y82366D02*
X53642Y82874D01*
X53388Y83382D01*
X53896Y83128D01*
X54404Y83382D01*
X54150Y82874D01*
X54404Y82366D01*
X53896Y82620D01*
X53388Y82366D01*
X59319Y13151D02*
X59573Y13659D01*
X59319Y14167D01*
X59827Y13913D01*
X60335Y14167D01*
X60081Y13659D01*
X60335Y13151D01*
X59827Y13405D01*
X59319Y13151D01*
X55839D02*
X56093Y13659D01*
X55839Y14167D01*
X56347Y13913D01*
X56855Y14167D01*
X56601Y13659D01*
X56855Y13151D01*
X56347Y13405D01*
X55839Y13151D01*
Y86557D02*
X56093Y87065D01*
X55839Y87573D01*
X56347Y87319D01*
X56855Y87573D01*
X56601Y87065D01*
X56855Y86557D01*
X56347Y86811D01*
X55839Y86557D01*
X20695Y57428D02*
X20187Y58444D01*
X21203D01*
X20695Y57428D01*
Y61238D02*
X20949Y61492D01*
X21203D01*
X20949Y61746D01*
X21203Y62000D01*
X20949D01*
X20695Y62254D01*
X20441Y62000D01*
X20187D01*
X20441Y61746D01*
X20187Y61492D01*
X20441D01*
X20695Y61238D01*
X25775D02*
X26029Y61492D01*
X26283D01*
X26029Y61746D01*
X26283Y62000D01*
X26029D01*
X25775Y62254D01*
X25521Y62000D01*
X25267D01*
X25521Y61746D01*
X25267Y61492D01*
X25521D01*
X25775Y61238D01*
X30855D02*
X31109Y61492D01*
X31363D01*
X31109Y61746D01*
X31363Y62000D01*
X31109D01*
X30855Y62254D01*
X30601Y62000D01*
X30347D01*
X30601Y61746D01*
X30347Y61492D01*
X30601D01*
X30855Y61238D01*
Y57428D02*
X30347Y58444D01*
X31363D01*
X30855Y57428D01*
X25267D02*
Y58444D01*
X26283D01*
Y57428D01*
X25267D01*
X20695Y38428D02*
X20187Y39444D01*
X21203D01*
X20695Y38428D01*
Y42238D02*
X20949Y42492D01*
X21203D01*
X20949Y42746D01*
X21203Y43000D01*
X20949D01*
X20695Y43254D01*
X20441Y43000D01*
X20187D01*
X20441Y42746D01*
X20187Y42492D01*
X20441D01*
X20695Y42238D01*
X25775D02*
X26029Y42492D01*
X26283D01*
X26029Y42746D01*
X26283Y43000D01*
X26029D01*
X25775Y43254D01*
X25521Y43000D01*
X25267D01*
X25521Y42746D01*
X25267Y42492D01*
X25521D01*
X25775Y42238D01*
X30855D02*
X31109Y42492D01*
X31363D01*
X31109Y42746D01*
X31363Y43000D01*
X31109D01*
X30855Y43254D01*
X30601Y43000D01*
X30347D01*
X30601Y42746D01*
X30347Y42492D01*
X30601D01*
X30855Y42238D01*
Y38428D02*
X30347Y39444D01*
X31363D01*
X30855Y38428D01*
X25267D02*
Y39444D01*
X26283D01*
Y38428D01*
X25267D01*
X39745D02*
X39237Y39444D01*
X40253D01*
X39745Y38428D01*
Y42238D02*
X39999Y42492D01*
X40253D01*
X39999Y42746D01*
X40253Y43000D01*
X39999D01*
X39745Y43254D01*
X39491Y43000D01*
X39237D01*
X39491Y42746D01*
X39237Y42492D01*
X39491D01*
X39745Y42238D01*
X44825D02*
X45079Y42492D01*
X45333D01*
X45079Y42746D01*
X45333Y43000D01*
X45079D01*
X44825Y43254D01*
X44571Y43000D01*
X44317D01*
X44571Y42746D01*
X44317Y42492D01*
X44571D01*
X44825Y42238D01*
X49905D02*
X50159Y42492D01*
X50413D01*
X50159Y42746D01*
X50413Y43000D01*
X50159D01*
X49905Y43254D01*
X49651Y43000D01*
X49397D01*
X49651Y42746D01*
X49397Y42492D01*
X49651D01*
X49905Y42238D01*
Y38428D02*
X49397Y39444D01*
X50413D01*
X49905Y38428D01*
X44317D02*
Y39444D01*
X45333D01*
Y38428D01*
X44317D01*
X39745Y19317D02*
X39237Y20333D01*
X40253D01*
X39745Y19317D01*
Y23127D02*
X39999Y23381D01*
X40253D01*
X39999Y23635D01*
X40253Y23889D01*
X39999D01*
X39745Y24143D01*
X39491Y23889D01*
X39237D01*
X39491Y23635D01*
X39237Y23381D01*
X39491D01*
X39745Y23127D01*
X44825D02*
X45079Y23381D01*
X45333D01*
X45079Y23635D01*
X45333Y23889D01*
X45079D01*
X44825Y24143D01*
X44571Y23889D01*
X44317D01*
X44571Y23635D01*
X44317Y23381D01*
X44571D01*
X44825Y23127D01*
X49905D02*
X50159Y23381D01*
X50413D01*
X50159Y23635D01*
X50413Y23889D01*
X50159D01*
X49905Y24143D01*
X49651Y23889D01*
X49397D01*
X49651Y23635D01*
X49397Y23381D01*
X49651D01*
X49905Y23127D01*
Y19317D02*
X49397Y20333D01*
X50413D01*
X49905Y19317D01*
X44317D02*
Y20333D01*
X45333D01*
Y19317D01*
X44317D01*
X20695D02*
X20187Y20333D01*
X21203D01*
X20695Y19317D01*
Y23127D02*
X20949Y23381D01*
X21203D01*
X20949Y23635D01*
X21203Y23889D01*
X20949D01*
X20695Y24143D01*
X20441Y23889D01*
X20187D01*
X20441Y23635D01*
X20187Y23381D01*
X20441D01*
X20695Y23127D01*
X25775D02*
X26029Y23381D01*
X26283D01*
X26029Y23635D01*
X26283Y23889D01*
X26029D01*
X25775Y24143D01*
X25521Y23889D01*
X25267D01*
X25521Y23635D01*
X25267Y23381D01*
X25521D01*
X25775Y23127D01*
X30855D02*
X31109Y23381D01*
X31363D01*
X31109Y23635D01*
X31363Y23889D01*
X31109D01*
X30855Y24143D01*
X30601Y23889D01*
X30347D01*
X30601Y23635D01*
X30347Y23381D01*
X30601D01*
X30855Y23127D01*
Y19317D02*
X30347Y20333D01*
X31363D01*
X30855Y19317D01*
X25267D02*
Y20333D01*
X26283D01*
Y19317D01*
X25267D01*
X39745Y57428D02*
X39237Y58444D01*
X40253D01*
X39745Y57428D01*
Y61238D02*
X39999Y61492D01*
X40253D01*
X39999Y61746D01*
X40253Y62000D01*
X39999D01*
X39745Y62254D01*
X39491Y62000D01*
X39237D01*
X39491Y61746D01*
X39237Y61492D01*
X39491D01*
X39745Y61238D01*
X44825D02*
X45079Y61492D01*
X45333D01*
X45079Y61746D01*
X45333Y62000D01*
X45079D01*
X44825Y62254D01*
X44571Y62000D01*
X44317D01*
X44571Y61746D01*
X44317Y61492D01*
X44571D01*
X44825Y61238D01*
X49905D02*
X50159Y61492D01*
X50413D01*
X50159Y61746D01*
X50413Y62000D01*
X50159D01*
X49905Y62254D01*
X49651Y62000D01*
X49397D01*
X49651Y61746D01*
X49397Y61492D01*
X49651D01*
X49905Y61238D01*
Y57428D02*
X49397Y58444D01*
X50413D01*
X49905Y57428D01*
X44317D02*
Y58444D01*
X45333D01*
Y57428D01*
X44317D01*
X13183Y81351D02*
Y81097D01*
X13691D01*
Y81351D01*
X13945D01*
Y81859D01*
X13691D01*
Y82113D01*
X13183D01*
Y81859D01*
X12929D01*
Y81351D01*
X13183D01*
X25484Y66620D02*
Y66366D01*
X25992D01*
Y66620D01*
X26246D01*
Y67128D01*
X25992D01*
Y67382D01*
X25484D01*
Y67128D01*
X25230D01*
Y66620D01*
X25484D01*
X25490Y69065D02*
Y68811D01*
X25998D01*
Y69065D01*
X26252D01*
Y69573D01*
X25998D01*
Y69827D01*
X25490D01*
Y69573D01*
X25236D01*
Y69065D01*
X25490D01*
X43403Y78128D02*
Y77874D01*
X43911D01*
Y78128D01*
X44165D01*
Y78636D01*
X43911D01*
Y78890D01*
X43403D01*
Y78636D01*
X43149D01*
Y78128D01*
X43403D01*
X34229Y11324D02*
Y11070D01*
X34737D01*
Y11324D01*
X34991D01*
Y11832D01*
X34737D01*
Y12086D01*
X34229D01*
Y11832D01*
X33975D01*
Y11324D01*
X34229D01*
X59103Y25356D02*
Y25102D01*
X59611D01*
Y25356D01*
X59865D01*
Y25864D01*
X59611D01*
Y26118D01*
X59103D01*
Y25864D01*
X58849D01*
Y25356D01*
X59103D01*
X35309Y30029D02*
Y29775D01*
X35817D01*
Y30029D01*
X36071D01*
Y30537D01*
X35817D01*
Y30791D01*
X35309D01*
Y30537D01*
X35055D01*
Y30029D01*
X35309D01*
X19641Y82164D02*
Y81910D01*
X20149D01*
Y82164D01*
X20403D01*
Y82672D01*
X20149D01*
Y82926D01*
X19641D01*
Y82672D01*
X19387D01*
Y82164D01*
X19641D01*
X19579Y76992D02*
Y76738D01*
X20087D01*
Y76992D01*
X20341D01*
Y77500D01*
X20087D01*
Y77754D01*
X19579D01*
Y77500D01*
X19325D01*
Y76992D01*
X19579D01*
X19532Y79502D02*
Y79248D01*
X20040D01*
Y79502D01*
X20294D01*
Y80010D01*
X20040D01*
Y80264D01*
X19532D01*
Y80010D01*
X19278D01*
Y79502D01*
X19532D01*
X11074Y81030D02*
Y80776D01*
X11582D01*
Y81030D01*
X11836D01*
Y81538D01*
X11582D01*
Y81792D01*
X11074D01*
Y81538D01*
X10820D01*
Y81030D01*
X11074D01*
X50578Y86178D02*
Y85924D01*
X51086D01*
Y86178D01*
X51340D01*
Y86686D01*
X51086D01*
Y86940D01*
X50578D01*
Y86686D01*
X50324D01*
Y86178D01*
X50578D01*
X51578Y92416D02*
Y92162D01*
X52086D01*
Y92416D01*
X52340D01*
Y92924D01*
X52086D01*
Y93178D01*
X51578D01*
Y92924D01*
X51324D01*
Y92416D01*
X51578D01*
X51558Y95053D02*
Y94799D01*
X52066D01*
Y95053D01*
X52320D01*
Y95561D01*
X52066D01*
Y95815D01*
X51558D01*
Y95561D01*
X51304D01*
Y95053D01*
X51558D01*
X43342Y73500D02*
Y73246D01*
X43850D01*
Y73500D01*
X44104D01*
Y74008D01*
X43850D01*
Y74262D01*
X43342D01*
Y74008D01*
X43088D01*
Y73500D01*
X43342D01*
X38270Y74487D02*
Y74233D01*
X38778D01*
Y74487D01*
X39032D01*
Y74995D01*
X38778D01*
Y75249D01*
X38270D01*
Y74995D01*
X38016D01*
Y74487D01*
X38270D01*
X36558Y48202D02*
Y47948D01*
X37066D01*
Y48202D01*
X37320D01*
Y48710D01*
X37066D01*
Y48964D01*
X36558D01*
Y48710D01*
X36304D01*
Y48202D01*
X36558D01*
X41107Y72006D02*
Y71752D01*
X41615D01*
Y72006D01*
X41869D01*
Y72514D01*
X41615D01*
Y72768D01*
X41107D01*
Y72514D01*
X40853D01*
Y72006D01*
X41107D01*
X4406Y76916D02*
Y76662D01*
X4914D01*
Y76916D01*
X5168D01*
Y77424D01*
X4914D01*
Y77678D01*
X4406D01*
Y77424D01*
X4152D01*
Y76916D01*
X4406D01*
X33581Y87267D02*
Y87013D01*
X34089D01*
Y87267D01*
X34343D01*
Y87775D01*
X34089D01*
Y88029D01*
X33581D01*
Y87775D01*
X33327D01*
Y87267D01*
X33581D01*
X33716Y89861D02*
Y89607D01*
X34224D01*
Y89861D01*
X34478D01*
Y90369D01*
X34224D01*
Y90623D01*
X33716D01*
Y90369D01*
X33462D01*
Y89861D01*
X33716D01*
X59103Y77166D02*
Y76912D01*
X59611D01*
Y77166D01*
X59865D01*
Y77674D01*
X59611D01*
Y77928D01*
X59103D01*
Y77674D01*
X58849D01*
Y77166D01*
X59103D01*
X4406Y49691D02*
Y49437D01*
X4914D01*
Y49691D01*
X5168D01*
Y50199D01*
X4914D01*
Y50453D01*
X4406D01*
Y50199D01*
X4152D01*
Y49691D01*
X4406D01*
X4579Y30606D02*
Y30352D01*
X5087D01*
Y30606D01*
X5341D01*
Y31114D01*
X5087D01*
Y31368D01*
X4579D01*
Y31114D01*
X4325D01*
Y30606D01*
X4579D01*
X15352Y5901D02*
Y5647D01*
X15860D01*
Y5901D01*
X16114D01*
Y6409D01*
X15860D01*
Y6663D01*
X15352D01*
Y6409D01*
X15098D01*
Y5901D01*
X15352D01*
X44545Y5894D02*
Y5640D01*
X45053D01*
Y5894D01*
X45307D01*
Y6402D01*
X45053D01*
Y6656D01*
X44545D01*
Y6402D01*
X44291D01*
Y5894D01*
X44545D01*
X59103Y44191D02*
Y43937D01*
X59611D01*
Y44191D01*
X59865D01*
Y44699D01*
X59611D01*
Y44953D01*
X59103D01*
Y44699D01*
X58849D01*
Y44191D01*
X59103D01*
Y71916D02*
Y71662D01*
X59611D01*
Y71916D01*
X59865D01*
Y72424D01*
X59611D01*
Y72678D01*
X59103D01*
Y72424D01*
X58849D01*
Y71916D01*
X59103D01*
X24828Y94364D02*
Y94110D01*
X25336D01*
Y94364D01*
X25590D01*
Y94872D01*
X25336D01*
Y95126D01*
X24828D01*
Y94872D01*
X24574D01*
Y94364D01*
X24828D01*
X43435Y94707D02*
Y94453D01*
X43943D01*
Y94707D01*
X44197D01*
Y95215D01*
X43943D01*
Y95469D01*
X43435D01*
Y95215D01*
X43181D01*
Y94707D01*
X43435D01*
X4406Y71666D02*
Y71412D01*
X4914D01*
Y71666D01*
X5168D01*
Y72174D01*
X4914D01*
Y72428D01*
X4406D01*
Y72174D01*
X4152D01*
Y71666D01*
X4406D01*
Y44191D02*
Y43937D01*
X4914D01*
Y44191D01*
X5168D01*
Y44699D01*
X4914D01*
Y44953D01*
X4406D01*
Y44699D01*
X4152D01*
Y44191D01*
X4406D01*
X3694Y24810D02*
Y24556D01*
X4202D01*
Y24810D01*
X4456D01*
Y25318D01*
X4202D01*
Y25572D01*
X3694D01*
Y25318D01*
X3440D01*
Y24810D01*
X3694D01*
X19547Y5796D02*
Y5542D01*
X20055D01*
Y5796D01*
X20309D01*
Y6304D01*
X20055D01*
Y6558D01*
X19547D01*
Y6304D01*
X19293D01*
Y5796D01*
X19547D01*
X36711Y94916D02*
Y94662D01*
X37219D01*
Y94916D01*
X37473D01*
Y95424D01*
X37219D01*
Y95678D01*
X36711D01*
Y95424D01*
X36457D01*
Y94916D01*
X36711D01*
X19578Y94364D02*
Y94110D01*
X20086D01*
Y94364D01*
X20340D01*
Y94872D01*
X20086D01*
Y95126D01*
X19578D01*
Y94872D01*
X19324D01*
Y94364D01*
X19578D01*
X50045Y5894D02*
Y5640D01*
X50553D01*
Y5894D01*
X50807D01*
Y6402D01*
X50553D01*
Y6656D01*
X50045D01*
Y6402D01*
X49791D01*
Y5894D01*
X50045D01*
X59103Y30856D02*
Y30602D01*
X59611D01*
Y30856D01*
X59865D01*
Y31364D01*
X59611D01*
Y31618D01*
X59103D01*
Y31364D01*
X58849D01*
Y30856D01*
X59103D01*
Y49691D02*
Y49437D01*
X59611D01*
Y49691D01*
X59865D01*
Y50199D01*
X59611D01*
Y50453D01*
X59103D01*
Y50199D01*
X58849D01*
Y49691D01*
X59103D01*
D56*
X7738Y52856D02*
G03*
X7738Y52856I-508J0D01*
G01*
X7204Y14745D02*
G03*
X7204Y14745I-508J0D01*
G01*
X7485Y33856D02*
G03*
X7485Y33856I-508J0D01*
G01*
X26283Y52856D02*
G03*
X26283Y52856I-508J0D01*
G01*
Y33856D02*
G03*
X26283Y33856I-508J0D01*
G01*
X45333D02*
G03*
X45333Y33856I-508J0D01*
G01*
Y14745D02*
G03*
X45333Y14745I-508J0D01*
G01*
X26283D02*
G03*
X26283Y14745I-508J0D01*
G01*
X45333Y52856D02*
G03*
X45333Y52856I-508J0D01*
G01*
M02*
