G04*
G04 #@! TF.GenerationSoftware,Altium Limited,Altium Designer,25.2.1 (25)*
G04*
G04 Layer_Color=32896*
%FSLAX43Y43*%
%MOMM*%
G71*
G04*
G04 #@! TF.SameCoordinates,D6CE34D0-499B-4028-90F5-37400721FD41*
G04*
G04*
G04 #@! TF.FilePolarity,Positive*
G04*
G01*
G75*
G36*
X45620Y79775D02*
X45612Y79764D01*
X45605Y79754D01*
X45597Y79745D01*
X45591Y79738D01*
X45588Y79735D01*
X45586Y79732D01*
X45583Y79729D01*
X45581Y79728D01*
X45580Y79726D01*
X45579Y79725D01*
X45578Y79724D01*
X45578Y79724D01*
X45573Y79720D01*
X45568Y79717D01*
X45564Y79714D01*
X45559Y79711D01*
X45554Y79709D01*
X45550Y79706D01*
X45549Y79706D01*
X45548Y79705D01*
X45547Y79705D01*
X45547D01*
X45557Y79703D01*
X45567Y79701D01*
X45575Y79699D01*
X45583Y79696D01*
X45590Y79693D01*
X45597Y79690D01*
X45603Y79687D01*
X45608Y79684D01*
X45613Y79681D01*
X45617Y79679D01*
X45621Y79676D01*
X45624Y79674D01*
X45626Y79672D01*
X45627Y79670D01*
X45628Y79670D01*
X45628Y79669D01*
X45633Y79664D01*
X45637Y79659D01*
X45641Y79653D01*
X45644Y79647D01*
X45646Y79641D01*
X45649Y79635D01*
X45650Y79630D01*
X45652Y79625D01*
X45653Y79620D01*
X45654Y79615D01*
X45654Y79611D01*
X45655Y79607D01*
X45655Y79605D01*
Y79602D01*
Y79601D01*
Y79601D01*
Y79595D01*
X45654Y79589D01*
X45652Y79578D01*
X45650Y79569D01*
X45647Y79560D01*
X45646Y79556D01*
X45644Y79553D01*
X45643Y79550D01*
X45642Y79548D01*
X45640Y79546D01*
X45640Y79544D01*
X45639Y79544D01*
X45639Y79543D01*
X45633Y79534D01*
X45626Y79526D01*
X45618Y79520D01*
X45612Y79515D01*
X45606Y79511D01*
X45603Y79510D01*
X45601Y79508D01*
X45599Y79508D01*
X45597Y79507D01*
X45597Y79507D01*
X45596D01*
X45591Y79505D01*
X45586Y79503D01*
X45573Y79501D01*
X45560Y79499D01*
X45547Y79497D01*
X45542Y79497D01*
X45536Y79496D01*
X45531D01*
X45527Y79496D01*
X45349D01*
Y79879D01*
X45400D01*
Y79709D01*
X45465D01*
X45471Y79709D01*
X45476Y79710D01*
X45480D01*
X45483Y79710D01*
X45485Y79710D01*
X45486Y79711D01*
X45487D01*
X45491Y79712D01*
X45495Y79714D01*
X45499Y79715D01*
X45502Y79717D01*
X45505Y79719D01*
X45508Y79720D01*
X45509Y79721D01*
X45509Y79721D01*
X45514Y79724D01*
X45518Y79728D01*
X45522Y79732D01*
X45527Y79737D01*
X45530Y79740D01*
X45533Y79744D01*
X45534Y79746D01*
X45535Y79746D01*
Y79747D01*
X45538Y79750D01*
X45541Y79754D01*
X45547Y79763D01*
X45553Y79771D01*
X45559Y79780D01*
X45564Y79787D01*
X45566Y79791D01*
X45568Y79794D01*
X45569Y79796D01*
X45571Y79798D01*
X45571Y79799D01*
X45572Y79799D01*
X45623Y79879D01*
X45686D01*
X45620Y79775D01*
D02*
G37*
G36*
X45892Y79495D02*
X45861D01*
X45859Y79499D01*
X45856Y79504D01*
X45850Y79513D01*
X45843Y79522D01*
X45836Y79530D01*
X45833Y79533D01*
X45830Y79536D01*
X45827Y79539D01*
X45825Y79542D01*
X45823Y79544D01*
X45821Y79545D01*
X45820Y79546D01*
X45820Y79546D01*
X45808Y79555D01*
X45797Y79564D01*
X45785Y79572D01*
X45774Y79578D01*
X45770Y79581D01*
X45765Y79583D01*
X45761Y79586D01*
X45758Y79588D01*
X45755Y79589D01*
X45753Y79590D01*
X45752Y79591D01*
X45751Y79591D01*
Y79636D01*
X45760Y79633D01*
X45768Y79629D01*
X45776Y79625D01*
X45784Y79621D01*
X45791Y79618D01*
X45793Y79616D01*
X45796Y79615D01*
X45798Y79614D01*
X45799Y79613D01*
X45800Y79612D01*
X45800D01*
X45810Y79606D01*
X45819Y79600D01*
X45827Y79595D01*
X45833Y79590D01*
X45838Y79586D01*
X45842Y79582D01*
X45843Y79581D01*
X45844Y79580D01*
X45845Y79580D01*
X45845D01*
Y79879D01*
X45892D01*
Y79495D01*
D02*
G37*
%LPC*%
G36*
X45514Y79665D02*
X45400D01*
Y79538D01*
X45529D01*
X45536Y79539D01*
X45542Y79540D01*
X45549Y79541D01*
X45554Y79542D01*
X45559Y79544D01*
X45564Y79545D01*
X45568Y79547D01*
X45571Y79549D01*
X45574Y79550D01*
X45577Y79552D01*
X45579Y79553D01*
X45581Y79554D01*
X45582Y79555D01*
X45583Y79555D01*
X45583Y79556D01*
X45586Y79559D01*
X45590Y79563D01*
X45592Y79566D01*
X45595Y79570D01*
X45598Y79578D01*
X45600Y79585D01*
X45602Y79591D01*
X45602Y79594D01*
X45602Y79596D01*
X45603Y79598D01*
Y79600D01*
Y79600D01*
Y79601D01*
X45602Y79607D01*
X45601Y79614D01*
X45599Y79620D01*
X45597Y79625D01*
X45596Y79629D01*
X45594Y79632D01*
X45593Y79635D01*
X45592Y79635D01*
Y79635D01*
X45588Y79641D01*
X45583Y79645D01*
X45578Y79650D01*
X45574Y79653D01*
X45569Y79655D01*
X45566Y79657D01*
X45564Y79658D01*
X45563Y79658D01*
X45563D01*
X45555Y79660D01*
X45546Y79662D01*
X45537Y79663D01*
X45528Y79664D01*
X45524D01*
X45521Y79665D01*
X45517D01*
X45514Y79665D01*
D02*
G37*
%LPD*%
M02*
