G04*
G04 #@! TF.GenerationSoftware,Altium Limited,Altium Designer,25.2.1 (25)*
G04*
G04 Layer_Color=2752767*
%FSLAX43Y43*%
%MOMM*%
G71*
G04*
G04 #@! TF.SameCoordinates,C051C589-FC01-4A5A-9DFD-27A9FF034E64*
G04*
G04*
G04 #@! TF.FilePolarity,Positive*
G04*
G01*
G75*
%ADD49C,0.127*%
D49*
X43342Y73500D02*
Y73246D01*
X43850D01*
Y73500D01*
X44104D01*
Y74008D01*
X43850D01*
Y74262D01*
X43342D01*
Y74008D01*
X43088D01*
Y73500D01*
X43342D01*
X59103Y77166D02*
Y76912D01*
X59611D01*
Y77166D01*
X59865D01*
Y77674D01*
X59611D01*
Y77928D01*
X59103D01*
Y77674D01*
X58849D01*
Y77166D01*
X59103D01*
X4406Y44191D02*
Y43937D01*
X4914D01*
Y44191D01*
X5168D01*
Y44699D01*
X4914D01*
Y44953D01*
X4406D01*
Y44699D01*
X4152D01*
Y44191D01*
X4406D01*
X3694Y24810D02*
Y24556D01*
X4202D01*
Y24810D01*
X4456D01*
Y25318D01*
X4202D01*
Y25572D01*
X3694D01*
Y25318D01*
X3440D01*
Y24810D01*
X3694D01*
X19547Y5796D02*
Y5542D01*
X20055D01*
Y5796D01*
X20309D01*
Y6304D01*
X20055D01*
Y6558D01*
X19547D01*
Y6304D01*
X19293D01*
Y5796D01*
X19547D01*
X36711Y94916D02*
Y94662D01*
X37219D01*
Y94916D01*
X37473D01*
Y95424D01*
X37219D01*
Y95678D01*
X36711D01*
Y95424D01*
X36457D01*
Y94916D01*
X36711D01*
X19578Y94364D02*
Y94110D01*
X20086D01*
Y94364D01*
X20340D01*
Y94872D01*
X20086D01*
Y95126D01*
X19578D01*
Y94872D01*
X19324D01*
Y94364D01*
X19578D01*
X59103Y30856D02*
Y30602D01*
X59611D01*
Y30856D01*
X59865D01*
Y31364D01*
X59611D01*
Y31618D01*
X59103D01*
Y31364D01*
X58849D01*
Y30856D01*
X59103D01*
Y49691D02*
Y49437D01*
X59611D01*
Y49691D01*
X59865D01*
Y50199D01*
X59611D01*
Y50453D01*
X59103D01*
Y50199D01*
X58849D01*
Y49691D01*
X59103D01*
M02*
