G04*
G04 #@! TF.GenerationSoftware,Altium Limited,Altium Designer,25.2.1 (25)*
G04*
G04 Layer_Physical_Order=2*
G04 Layer_Color=10964583*
%FSLAX44Y44*%
%MOMM*%
G71*
G04*
G04 #@! TF.SameCoordinates,6FBFE696-48CE-430D-A149-04A0BAA6C4F4*
G04*
G04*
G04 #@! TF.FilePolarity,Negative*
G04*
G01*
G75*
%ADD13C,0.2540*%
%ADD30C,1.0160*%
%ADD31C,2.5660*%
%ADD32C,2.4160*%
%ADD33C,2.5160*%
%ADD34C,3.6160*%
%ADD35C,2.5400*%
G04:AMPARAMS|DCode=36|XSize=3.048mm|YSize=3.048mm|CornerRadius=0mm|HoleSize=0mm|Usage=FLASHONLY|Rotation=0.000|XOffset=0mm|YOffset=0mm|HoleType=Round|Shape=Relief|Width=0.254mm|Gap=0.254mm|Entries=4|*
%AMTHD36*
7,0,0,3.0480,2.5400,0.2540,45*
%
%ADD36THD36*%
%ADD37C,1.7272*%
G04:AMPARAMS|DCode=38|XSize=2.2352mm|YSize=2.2352mm|CornerRadius=0mm|HoleSize=0mm|Usage=FLASHONLY|Rotation=0.000|XOffset=0mm|YOffset=0mm|HoleType=Round|Shape=Relief|Width=0.254mm|Gap=0.254mm|Entries=4|*
%AMTHD38*
7,0,0,2.2352,1.7272,0.2540,45*
%
%ADD38THD38*%
G36*
X67459Y953847D02*
X70553Y952565D01*
X73337Y950705D01*
X75705Y948337D01*
X77565Y945553D01*
X78847Y942459D01*
X79500Y939174D01*
Y937500D01*
Y935826D01*
X78847Y932541D01*
X77565Y929447D01*
X75705Y926663D01*
X73337Y924295D01*
X70553Y922435D01*
X67459Y921153D01*
X64174Y920500D01*
X60826D01*
X57541Y921153D01*
X54447Y922435D01*
X51663Y924295D01*
X49295Y926663D01*
X47435Y929447D01*
X46153Y932541D01*
X45500Y935826D01*
Y937500D01*
Y939174D01*
X46153Y942459D01*
X47435Y945553D01*
X49295Y948337D01*
X51663Y950705D01*
X54447Y952565D01*
X57541Y953847D01*
X60826Y954500D01*
X64174D01*
X67459Y953847D01*
D02*
G37*
G36*
X592459Y953847D02*
X595552Y952565D01*
X598337Y950705D01*
X600705Y948337D01*
X602565Y945553D01*
X603847Y942459D01*
X604500Y939174D01*
Y937500D01*
Y935826D01*
X603847Y932541D01*
X602565Y929447D01*
X600705Y926663D01*
X598337Y924295D01*
X595552Y922435D01*
X592459Y921153D01*
X589174Y920500D01*
X585826D01*
X582541Y921153D01*
X579447Y922435D01*
X576663Y924295D01*
X574295Y926663D01*
X572435Y929447D01*
X571153Y932541D01*
X570500Y935826D01*
Y937500D01*
Y939174D01*
X571153Y942459D01*
X572435Y945553D01*
X574295Y948337D01*
X576663Y950705D01*
X579447Y952565D01*
X582541Y953847D01*
X585826Y954500D01*
X589174D01*
X592459Y953847D01*
D02*
G37*
G36*
Y78847D02*
X595552Y77565D01*
X598337Y75705D01*
X600705Y73337D01*
X602565Y70553D01*
X603847Y67459D01*
X604500Y64174D01*
Y62500D01*
Y60826D01*
X603847Y57541D01*
X602565Y54447D01*
X600705Y51663D01*
X598337Y49295D01*
X595552Y47435D01*
X592459Y46153D01*
X589174Y45500D01*
X585826D01*
X582541Y46153D01*
X579447Y47435D01*
X576663Y49295D01*
X574295Y51663D01*
X572435Y54447D01*
X571153Y57541D01*
X570500Y60826D01*
Y62500D01*
Y64174D01*
X571153Y67459D01*
X572435Y70553D01*
X574295Y73337D01*
X576663Y75705D01*
X579447Y77565D01*
X582541Y78847D01*
X585826Y79500D01*
X589174D01*
X592459Y78847D01*
D02*
G37*
G36*
X67459D02*
X70553Y77565D01*
X73337Y75705D01*
X75705Y73337D01*
X77565Y70553D01*
X78847Y67459D01*
X79500Y64174D01*
Y62500D01*
Y60826D01*
X78847Y57541D01*
X77565Y54447D01*
X75705Y51663D01*
X73337Y49295D01*
X70553Y47435D01*
X67459Y46153D01*
X64174Y45500D01*
X60826D01*
X57541Y46153D01*
X54447Y47435D01*
X51663Y49295D01*
X49295Y51663D01*
X47435Y54447D01*
X46153Y57541D01*
X45500Y60826D01*
Y62500D01*
Y64174D01*
X46153Y67459D01*
X47435Y70553D01*
X49295Y73337D01*
X51663Y75705D01*
X54447Y77565D01*
X57541Y78847D01*
X60826Y79500D01*
X64174D01*
X67459Y78847D01*
D02*
G37*
D13*
X83157Y137067D02*
X111875Y108350D01*
X83157Y137067D02*
Y794311D01*
X177269Y888423D01*
X512238D01*
X520216Y880444D01*
Y254320D02*
Y880444D01*
Y254320D02*
X627100Y147437D01*
Y112913D02*
Y147437D01*
X622537Y108350D02*
X627100Y112913D01*
X111875Y108350D02*
X622537D01*
D30*
X589174Y954500D02*
X592459Y953847D01*
X595552Y952565D01*
X598337Y950705D01*
X600705Y948337D01*
X602565Y945553D01*
X603847Y942459D01*
X604500Y939174D01*
Y937500D02*
Y939174D01*
Y935826D02*
Y937500D01*
X603847Y932541D02*
X604500Y935826D01*
X602565Y929447D02*
X603847Y932541D01*
X600705Y926663D02*
X602565Y929447D01*
X598337Y924295D02*
X600705Y926663D01*
X595552Y922435D02*
X598337Y924295D01*
X592459Y921153D02*
X595552Y922435D01*
X589174Y920500D02*
X592459Y921153D01*
X585826Y920500D02*
X589174D01*
X582541Y921153D02*
X585826Y920500D01*
X579447Y922435D02*
X582541Y921153D01*
X576663Y924295D02*
X579447Y922435D01*
X574295Y926663D02*
X576663Y924295D01*
X572435Y929447D02*
X574295Y926663D01*
X571153Y932541D02*
X572435Y929447D01*
X570500Y935826D02*
X571153Y932541D01*
X570500Y935826D02*
Y937500D01*
Y939174D01*
X571153Y942459D01*
X572435Y945553D01*
X574295Y948337D01*
X576663Y950705D01*
X579447Y952565D01*
X582541Y953847D01*
X585826Y954500D01*
X589174D01*
X64174Y954500D02*
X67459Y953847D01*
X70553Y952565D01*
X73337Y950705D01*
X75705Y948337D01*
X77565Y945553D01*
X78847Y942459D01*
X79500Y939174D01*
Y937500D02*
Y939174D01*
Y935826D02*
Y937500D01*
X78847Y932541D02*
X79500Y935826D01*
X77565Y929447D02*
X78847Y932541D01*
X75705Y926663D02*
X77565Y929447D01*
X73337Y924295D02*
X75705Y926663D01*
X70553Y922435D02*
X73337Y924295D01*
X67459Y921153D02*
X70553Y922435D01*
X57541Y953847D02*
X60826Y954500D01*
X64174D01*
Y920500D02*
X67459Y921153D01*
X60826Y920500D02*
X64174D01*
X57541Y921153D02*
X60826Y920500D01*
X54447Y922435D02*
X57541Y921153D01*
X51663Y924295D02*
X54447Y922435D01*
X49295Y926663D02*
X51663Y924295D01*
X47435Y929447D02*
X49295Y926663D01*
X46153Y932541D02*
X47435Y929447D01*
X45500Y937500D02*
Y939174D01*
X46153Y942459D01*
X47435Y945553D01*
X49295Y948337D01*
X51663Y950705D01*
X54447Y952565D01*
X57541Y953847D01*
X589174Y79500D02*
X592459Y78847D01*
X595552Y77565D01*
X598337Y75705D01*
X600705Y73337D01*
X602565Y70553D01*
X603847Y67459D01*
X604500Y64174D01*
Y62500D02*
Y64174D01*
Y60826D02*
Y62500D01*
X603847Y57541D02*
X604500Y60826D01*
X602565Y54447D02*
X603847Y57541D01*
X600705Y51663D02*
X602565Y54447D01*
X598337Y49295D02*
X600705Y51663D01*
X595552Y47435D02*
X598337Y49295D01*
X592459Y46153D02*
X595552Y47435D01*
X589174Y45500D02*
X592459Y46153D01*
X585826Y45500D02*
X589174D01*
X582541Y46153D02*
X585826Y45500D01*
X579447Y47435D02*
X582541Y46153D01*
X576663Y49295D02*
X579447Y47435D01*
X574295Y51663D02*
X576663Y49295D01*
X572435Y54447D02*
X574295Y51663D01*
X571153Y57541D02*
X572435Y54447D01*
X570500Y60826D02*
X571153Y57541D01*
X570500Y60826D02*
Y62500D01*
Y64174D01*
X571153Y67459D01*
X572435Y70553D01*
X574295Y73337D01*
X576663Y75705D01*
X579447Y77565D01*
X582541Y78847D01*
X585826Y79500D01*
X589174D01*
X0Y999999D02*
X650004D01*
X45500Y935826D02*
X46153Y932541D01*
X45500Y935826D02*
Y937500D01*
X64174Y79500D02*
X67459Y78847D01*
X70553Y77565D01*
X73337Y75705D01*
X75705Y73337D01*
X77565Y70553D01*
X78847Y67459D01*
X79500Y64174D01*
Y62500D02*
Y64174D01*
Y60826D02*
Y62500D01*
X78847Y57541D02*
X79500Y60826D01*
X77565Y54447D02*
X78847Y57541D01*
X75705Y51663D02*
X77565Y54447D01*
X73337Y49295D02*
X75705Y51663D01*
X70553Y47435D02*
X73337Y49295D01*
X67459Y46153D02*
X70553Y47435D01*
X64174Y45500D02*
X67459Y46153D01*
X60826Y45500D02*
X64174D01*
X57541Y46153D02*
X60826Y45500D01*
X54447Y47435D02*
X57541Y46153D01*
X51663Y49295D02*
X54447Y47435D01*
X49295Y51663D02*
X51663Y49295D01*
X47435Y54447D02*
X49295Y51663D01*
X46153Y57541D02*
X47435Y54447D01*
X45500Y60826D02*
X46153Y57541D01*
X45500Y60826D02*
Y62500D01*
Y64174D01*
X46153Y67459D01*
X47435Y70553D01*
X49295Y73337D01*
X51663Y75705D01*
X54447Y77565D01*
X57541Y78847D01*
X60826Y79500D01*
X64174D01*
X0Y0D02*
Y999999D01*
X650004Y0D02*
Y999999D01*
X0Y0D02*
X650004D01*
D31*
X21501Y579356D02*
D03*
X123101D02*
D03*
X16157Y198247D02*
D03*
X117757D02*
D03*
X18974Y389361D02*
D03*
X120574D02*
D03*
X206949Y579356D02*
D03*
X308549D02*
D03*
X206949Y389361D02*
D03*
X308549D02*
D03*
X397450D02*
D03*
X499050D02*
D03*
X397450Y198247D02*
D03*
X499050D02*
D03*
X206949D02*
D03*
X308549D02*
D03*
X397450Y579356D02*
D03*
X499050D02*
D03*
D32*
X21501Y617456D02*
D03*
X72301D02*
D03*
X123101D02*
D03*
X16157Y236347D02*
D03*
X66957D02*
D03*
X117757D02*
D03*
X18974Y427461D02*
D03*
X69774D02*
D03*
X120574D02*
D03*
X206949Y617456D02*
D03*
X257749D02*
D03*
X308549D02*
D03*
X206949Y427461D02*
D03*
X257749D02*
D03*
X308549D02*
D03*
X397450D02*
D03*
X448250D02*
D03*
X499050D02*
D03*
X397450Y236347D02*
D03*
X448250D02*
D03*
X499050D02*
D03*
X206949D02*
D03*
X257749D02*
D03*
X308549D02*
D03*
X397450Y617456D02*
D03*
X448250D02*
D03*
X499050D02*
D03*
D33*
X72301Y528556D02*
D03*
X66957Y147447D02*
D03*
X69774Y338560D02*
D03*
X257749Y528556D02*
D03*
Y338560D02*
D03*
X448250D02*
D03*
Y147447D02*
D03*
X257749D02*
D03*
X448250Y528556D02*
D03*
D34*
X72301Y579356D02*
D03*
X66957Y198247D02*
D03*
X69774Y389361D02*
D03*
X257749Y579356D02*
D03*
Y389361D02*
D03*
X448250D02*
D03*
Y198247D02*
D03*
X257749D02*
D03*
X448250Y579356D02*
D03*
D35*
X622782Y189934D02*
D03*
Y817314D02*
D03*
X538962Y178504D02*
D03*
Y828744D02*
D03*
X563473Y136594D02*
D03*
Y870654D02*
D03*
D36*
X598271Y136594D02*
D03*
D37*
X113281Y826855D02*
D03*
X518321Y926705D02*
D03*
X385241Y747413D02*
D03*
D03*
X368117Y484563D02*
D03*
X346771Y117725D02*
D03*
X355627Y302826D02*
D03*
X134168Y816052D02*
D03*
X257438Y693192D02*
D03*
X198330Y772462D02*
D03*
X257048Y669074D02*
D03*
X46602Y771701D02*
D03*
X338354Y875212D02*
D03*
X339702Y901153D02*
D03*
X436566Y783816D02*
D03*
X197860Y797559D02*
D03*
X198955Y824181D02*
D03*
D38*
X508323Y864316D02*
D03*
X518121Y953075D02*
D03*
X435960Y737536D02*
D03*
X593572Y774201D02*
D03*
X46602Y719201D02*
D03*
Y444454D02*
D03*
X39483Y250639D02*
D03*
X198011Y60497D02*
D03*
X369651Y951705D02*
D03*
X198317Y946183D02*
D03*
X502993Y61481D02*
D03*
X593572Y311102D02*
D03*
Y499454D02*
D03*
M02*
