G04*
G04 #@! TF.GenerationSoftware,Altium Limited,Altium Designer,25.2.1 (25)*
G04*
G04 Layer_Color=128*
%FSLAX43Y43*%
%MOMM*%
G71*
G04*
G04 #@! TF.SameCoordinates,D6CE34D0-499B-4028-90F5-37400721FD41*
G04*
G04*
G04 #@! TF.FilePolarity,Positive*
G04*
G01*
G75*
%ADD49C,0.127*%
D49*
X1375Y57936D02*
X2925D01*
X2150Y57161D02*
Y58711D01*
X1450Y61746D02*
X2850D01*
X2150Y61046D02*
Y62446D01*
X6530Y61746D02*
X7930D01*
X7230Y61046D02*
Y62446D01*
X11610Y61746D02*
X13010D01*
X12310Y61046D02*
Y62446D01*
X11535Y57936D02*
X13085D01*
X12310Y57161D02*
Y58711D01*
X6480Y52856D02*
X7980D01*
X7230Y52106D02*
Y53606D01*
X5930Y57936D02*
X8530D01*
X7230Y56636D02*
Y59236D01*
X841Y19825D02*
X2391D01*
X1616Y19050D02*
Y20600D01*
X916Y23635D02*
X2316D01*
X1616Y22935D02*
Y24335D01*
X5996Y23635D02*
X7396D01*
X6696Y22935D02*
Y24335D01*
X11076Y23635D02*
X12476D01*
X11776Y22935D02*
Y24335D01*
X11001Y19825D02*
X12551D01*
X11776Y19050D02*
Y20600D01*
X5946Y14745D02*
X7446D01*
X6696Y13995D02*
Y15495D01*
X5396Y19825D02*
X7996D01*
X6696Y18525D02*
Y21125D01*
X1122Y38936D02*
X2672D01*
X1897Y38161D02*
Y39711D01*
X1197Y42746D02*
X2597D01*
X1897Y42046D02*
Y43446D01*
X6277Y42746D02*
X7677D01*
X6977Y42046D02*
Y43446D01*
X11357Y42746D02*
X12757D01*
X12057Y42046D02*
Y43446D01*
X11282Y38936D02*
X12832D01*
X12057Y38161D02*
Y39711D01*
X6227Y33856D02*
X7727D01*
X6977Y33106D02*
Y34606D01*
X5677Y38936D02*
X8277D01*
X6977Y37636D02*
Y40236D01*
X61516Y18993D02*
X63040D01*
X62278Y18231D02*
Y19755D01*
X61516Y81731D02*
X63040D01*
X62278Y80969D02*
Y82493D01*
X53134Y17850D02*
X54658D01*
X53896Y17088D02*
Y18612D01*
X53134Y82874D02*
X54658D01*
X53896Y82112D02*
Y83636D01*
X59065Y13659D02*
X60589D01*
X59827Y12897D02*
Y14421D01*
X55585Y13659D02*
X57109D01*
X56347Y12897D02*
Y14421D01*
X55585Y87065D02*
X57109D01*
X56347Y86303D02*
Y87827D01*
X19920Y57936D02*
X21470D01*
X20695Y57161D02*
Y58711D01*
X19995Y61746D02*
X21395D01*
X20695Y61046D02*
Y62446D01*
X25075Y61746D02*
X26475D01*
X25775Y61046D02*
Y62446D01*
X30155Y61746D02*
X31555D01*
X30855Y61046D02*
Y62446D01*
X30080Y57936D02*
X31630D01*
X30855Y57161D02*
Y58711D01*
X25025Y52856D02*
X26525D01*
X25775Y52106D02*
Y53606D01*
X24475Y57936D02*
X27075D01*
X25775Y56636D02*
Y59236D01*
X19920Y38936D02*
X21470D01*
X20695Y38161D02*
Y39711D01*
X19995Y42746D02*
X21395D01*
X20695Y42046D02*
Y43446D01*
X25075Y42746D02*
X26475D01*
X25775Y42046D02*
Y43446D01*
X30155Y42746D02*
X31555D01*
X30855Y42046D02*
Y43446D01*
X30080Y38936D02*
X31630D01*
X30855Y38161D02*
Y39711D01*
X25025Y33856D02*
X26525D01*
X25775Y33106D02*
Y34606D01*
X24475Y38936D02*
X27075D01*
X25775Y37636D02*
Y40236D01*
X38970Y38936D02*
X40520D01*
X39745Y38161D02*
Y39711D01*
X39045Y42746D02*
X40445D01*
X39745Y42046D02*
Y43446D01*
X44125Y42746D02*
X45525D01*
X44825Y42046D02*
Y43446D01*
X49205Y42746D02*
X50605D01*
X49905Y42046D02*
Y43446D01*
X49130Y38936D02*
X50680D01*
X49905Y38161D02*
Y39711D01*
X44075Y33856D02*
X45575D01*
X44825Y33106D02*
Y34606D01*
X43525Y38936D02*
X46125D01*
X44825Y37636D02*
Y40236D01*
X38970Y19825D02*
X40520D01*
X39745Y19050D02*
Y20600D01*
X39045Y23635D02*
X40445D01*
X39745Y22935D02*
Y24335D01*
X44125Y23635D02*
X45525D01*
X44825Y22935D02*
Y24335D01*
X49205Y23635D02*
X50605D01*
X49905Y22935D02*
Y24335D01*
X49130Y19825D02*
X50680D01*
X49905Y19050D02*
Y20600D01*
X44075Y14745D02*
X45575D01*
X44825Y13995D02*
Y15495D01*
X43525Y19825D02*
X46125D01*
X44825Y18525D02*
Y21125D01*
X19920Y19825D02*
X21470D01*
X20695Y19050D02*
Y20600D01*
X19995Y23635D02*
X21395D01*
X20695Y22935D02*
Y24335D01*
X25075Y23635D02*
X26475D01*
X25775Y22935D02*
Y24335D01*
X30155Y23635D02*
X31555D01*
X30855Y22935D02*
Y24335D01*
X30080Y19825D02*
X31630D01*
X30855Y19050D02*
Y20600D01*
X25025Y14745D02*
X26525D01*
X25775Y13995D02*
Y15495D01*
X24475Y19825D02*
X27075D01*
X25775Y18525D02*
Y21125D01*
X38970Y57936D02*
X40520D01*
X39745Y57161D02*
Y58711D01*
X39045Y61746D02*
X40445D01*
X39745Y61046D02*
Y62446D01*
X44125Y61746D02*
X45525D01*
X44825Y61046D02*
Y62446D01*
X49205Y61746D02*
X50605D01*
X49905Y61046D02*
Y62446D01*
X49130Y57936D02*
X50680D01*
X49905Y57161D02*
Y58711D01*
X44075Y52856D02*
X45575D01*
X44825Y52106D02*
Y53606D01*
X43525Y57936D02*
X46125D01*
X44825Y56636D02*
Y59236D01*
X10972Y82685D02*
X11684D01*
X11328Y82330D02*
Y83041D01*
X10972Y82685D02*
X11684D01*
X11328Y82330D02*
Y83041D01*
X50477Y86432D02*
X51188D01*
X50832Y86076D02*
Y86787D01*
X51476Y92670D02*
X52188D01*
X51832Y92315D02*
Y93026D01*
X51456Y95307D02*
X52168D01*
X51812Y94952D02*
Y95663D01*
X43240Y73754D02*
X43952D01*
X43596Y73398D02*
Y74109D01*
X38168Y74741D02*
X38880D01*
X38524Y74386D02*
Y75097D01*
X38168Y74741D02*
X38880D01*
X38524Y74386D02*
Y75097D01*
X36456Y48456D02*
X37167D01*
X36812Y48101D02*
Y48812D01*
X34322Y11772D02*
X35033D01*
X34677Y11417D02*
Y12128D01*
X34322Y11772D02*
X35033D01*
X34677Y11417D02*
Y12128D01*
X35207Y30283D02*
X35918D01*
X35563Y29927D02*
Y30638D01*
X41005Y72260D02*
X41717D01*
X41361Y71904D02*
Y72615D01*
X13061Y81605D02*
X13772D01*
X13417Y81250D02*
Y81961D01*
X25388Y69319D02*
X26099D01*
X25744Y68964D02*
Y69675D01*
X19477Y77246D02*
X20189D01*
X19833Y76891D02*
Y77602D01*
X25349Y66907D02*
X26060D01*
X25705Y66552D02*
Y67263D01*
X4305Y77170D02*
X5016D01*
X4660Y76814D02*
Y77526D01*
X33480Y87521D02*
X34191D01*
X33835Y87166D02*
Y87877D01*
X33615Y90115D02*
X34326D01*
X33970Y89760D02*
Y90471D01*
X59002Y77420D02*
X59713D01*
X59357Y77064D02*
Y77776D01*
X4305Y49945D02*
X5016D01*
X4660Y49590D02*
Y50301D01*
X4478Y30860D02*
X5189D01*
X4833Y30505D02*
Y31216D01*
X15251Y6155D02*
X15962D01*
X15606Y5799D02*
Y6510D01*
X44444Y6148D02*
X45155D01*
X44799Y5793D02*
Y6504D01*
X59002Y25610D02*
X59713D01*
X59357Y25255D02*
Y25966D01*
X59002Y44445D02*
X59713D01*
X59357Y44090D02*
Y44801D01*
X59002Y72170D02*
X59713D01*
X59357Y71814D02*
Y72526D01*
X24726Y94618D02*
X25437D01*
X25082Y94263D02*
Y94974D01*
X43333Y94961D02*
X44044D01*
X43689Y94605D02*
Y95317D01*
X4305Y71920D02*
X5016D01*
X4660Y71564D02*
Y72276D01*
X4305Y44445D02*
X5016D01*
X4660Y44090D02*
Y44801D01*
X3593Y25064D02*
X4304D01*
X3948Y24708D02*
Y25420D01*
X19446Y6050D02*
X20157D01*
X19801Y5694D02*
Y6405D01*
X36610Y95170D02*
X37321D01*
X36965Y94815D02*
Y95526D01*
X19476Y94618D02*
X20187D01*
X19832Y94263D02*
Y94974D01*
X49944Y6148D02*
X50655D01*
X50299Y5793D02*
Y6504D01*
X59002Y31110D02*
X59713D01*
X59357Y30755D02*
Y31466D01*
X59002Y49945D02*
X59713D01*
X59357Y49590D02*
Y50301D01*
X43301Y78382D02*
X44012D01*
X43657Y78026D02*
Y78737D01*
X19430Y79756D02*
X20142D01*
X19786Y79400D02*
Y80111D01*
X19540Y82418D02*
X20251D01*
X19895Y82063D02*
Y82774D01*
M02*
