%TF.GenerationSoftware,Altium Limited,Altium Designer,25.2.1 (25)*%
G04 Layer_Color=8388736*
%FSLAX45Y45*%
%MOMM*%
%TF.SameCoordinates,DBF3E2B7-33B5-4ACE-A245-667DA10812C1*%
%TF.FilePolarity,Negative*%
%TF.FileFunction,Soldermask,Top*%
%TF.Part,Single*%
G01*
G75*
%TA.AperFunction,ComponentPad*%
%ADD17C,2.03200*%
%ADD18R,2.03200X2.03200*%
%TA.AperFunction,SMDPad,CuDef*%
%ADD41O,5.28320X2.23520*%
%ADD42R,3.20320X1.40320*%
%ADD43R,1.40320X1.70320*%
%TA.AperFunction,ComponentPad*%
%ADD44C,2.10320*%
%ADD45R,2.10320X2.10320*%
%ADD46C,2.20320*%
%TA.AperFunction,ViaPad*%
%ADD47C,1.47320*%
D17*
X6227818Y1899343D02*
D03*
Y8173143D02*
D03*
X5389618Y1785043D02*
D03*
Y8287443D02*
D03*
X5982708Y1365943D02*
D03*
X5634728D02*
D03*
D18*
Y8706543D02*
D03*
D41*
X4750921Y9524578D02*
D03*
Y9266345D02*
D03*
Y9008112D02*
D03*
Y8749879D02*
D03*
Y8491646D02*
D03*
Y8233413D02*
D03*
Y7975179D02*
D03*
Y7716946D02*
D03*
Y7458713D02*
D03*
Y7200480D02*
D03*
Y6942247D02*
D03*
Y6684014D02*
D03*
X2972921Y9782812D02*
D03*
Y9524578D02*
D03*
Y9266345D02*
D03*
Y9008112D02*
D03*
Y8749879D02*
D03*
X2960221Y8500112D02*
D03*
X2972921Y8233413D02*
D03*
Y7975179D02*
D03*
Y7716946D02*
D03*
Y7458713D02*
D03*
Y7200480D02*
D03*
Y6942247D02*
D03*
Y6684014D02*
D03*
X4750921Y9782812D02*
D03*
D42*
X298933Y7922843D02*
D03*
Y8172843D02*
D03*
Y8422843D02*
D03*
Y8672843D02*
D03*
X848933Y7922843D02*
D03*
Y8172843D02*
D03*
Y8422843D02*
D03*
Y8672843D02*
D03*
D43*
X2451767Y8239448D02*
D03*
X2241767D02*
D03*
X2451768Y7720792D02*
D03*
X2241768D02*
D03*
X2451767Y7973554D02*
D03*
X2241767D02*
D03*
D44*
X215006Y6174563D02*
D03*
X1231006D02*
D03*
X161572Y2363472D02*
D03*
X1177572D02*
D03*
X189740Y4274605D02*
D03*
X1205740D02*
D03*
X2069487Y6174563D02*
D03*
X3085487D02*
D03*
X2069487Y4274605D02*
D03*
X3085487D02*
D03*
X3974499D02*
D03*
X4990499D02*
D03*
X3974499Y2363472D02*
D03*
X4990499D02*
D03*
X2069487D02*
D03*
X3085487D02*
D03*
X3974499Y6174563D02*
D03*
X4990499D02*
D03*
D45*
X723006D02*
D03*
X669572Y2363472D02*
D03*
X697740Y4274605D02*
D03*
X2577487Y6174563D02*
D03*
Y4274605D02*
D03*
X4482499D02*
D03*
Y2363472D02*
D03*
X2577487D02*
D03*
X4482499Y6174563D02*
D03*
D46*
X723006Y5285563D02*
D03*
X669572Y1474472D02*
D03*
X697740Y3385605D02*
D03*
X2577487Y5285563D02*
D03*
Y3385605D02*
D03*
X4482499D02*
D03*
Y1474472D02*
D03*
X2577487D02*
D03*
X4482499Y5285563D02*
D03*
D47*
X3852410Y7474135D02*
D03*
D03*
X3681171Y4845631D02*
D03*
X3467711Y1177248D02*
D03*
X3556266Y3028264D02*
D03*
X1341682Y8160521D02*
D03*
X2574379Y6931920D02*
D03*
X1112343Y8277240D02*
D03*
X1983301Y7724617D02*
D03*
X2570476Y6690736D02*
D03*
X466024Y7717008D02*
D03*
X4911369Y9267572D02*
D03*
X3383544Y8752119D02*
D03*
X3397019Y9011529D02*
D03*
X466024Y7192008D02*
D03*
X5029926Y614811D02*
D03*
X4598521Y9524578D02*
D03*
X4365662Y7838164D02*
D03*
X4605234Y8749681D02*
D03*
X1978601Y7975586D02*
D03*
X1989549Y8241814D02*
D03*
%TF.MD5,7dcced13dee4296a79cc72cdf140b667*%
M02*
