G04*
G04 #@! TF.GenerationSoftware,Altium Limited,Altium Designer,25.2.1 (25)*
G04*
G04 Layer_Color=8388736*
%FSLAX43Y43*%
%MOMM*%
G71*
G04*
G04 #@! TF.SameCoordinates,D6CE34D0-499B-4028-90F5-37400721FD41*
G04*
G04*
G04 #@! TF.FilePolarity,Negative*
G04*
G01*
G75*
%ADD17O,5.283X2.235*%
%ADD18R,3.203X1.403*%
%ADD19R,1.403X1.703*%
%ADD20C,2.103*%
%ADD21R,2.103X2.103*%
%ADD22C,2.203*%
%ADD23C,2.032*%
%ADD24R,2.032X2.032*%
%ADD25C,1.473*%
D17*
X47509Y95246D02*
D03*
Y92663D02*
D03*
Y90081D02*
D03*
Y87499D02*
D03*
Y84916D02*
D03*
Y82334D02*
D03*
Y79752D02*
D03*
Y77169D02*
D03*
Y74587D02*
D03*
Y72005D02*
D03*
Y69422D02*
D03*
Y66840D02*
D03*
X29729Y97828D02*
D03*
Y95246D02*
D03*
Y92663D02*
D03*
Y90081D02*
D03*
Y87499D02*
D03*
X29602Y85001D02*
D03*
X29729Y82334D02*
D03*
Y79752D02*
D03*
Y77169D02*
D03*
Y74587D02*
D03*
Y72005D02*
D03*
Y69422D02*
D03*
Y66840D02*
D03*
X47509Y97828D02*
D03*
D18*
X2989Y79228D02*
D03*
Y81728D02*
D03*
Y84228D02*
D03*
Y86728D02*
D03*
X8489Y79228D02*
D03*
Y81728D02*
D03*
Y84228D02*
D03*
Y86728D02*
D03*
D19*
X24518Y82394D02*
D03*
X22418D02*
D03*
X24518Y77208D02*
D03*
X22418D02*
D03*
X24518Y79736D02*
D03*
X22418D02*
D03*
D20*
X2150Y61746D02*
D03*
X12310D02*
D03*
X1616Y23635D02*
D03*
X11776D02*
D03*
X1897Y42746D02*
D03*
X12057D02*
D03*
X20695Y61746D02*
D03*
X30855D02*
D03*
X20695Y42746D02*
D03*
X30855D02*
D03*
X39745D02*
D03*
X49905D02*
D03*
X39745Y23635D02*
D03*
X49905D02*
D03*
X20695D02*
D03*
X30855D02*
D03*
X39745Y61746D02*
D03*
X49905D02*
D03*
D21*
X7230D02*
D03*
X6696Y23635D02*
D03*
X6977Y42746D02*
D03*
X25775Y61746D02*
D03*
Y42746D02*
D03*
X44825D02*
D03*
Y23635D02*
D03*
X25775D02*
D03*
X44825Y61746D02*
D03*
D22*
X7230Y52856D02*
D03*
X6696Y14745D02*
D03*
X6977Y33856D02*
D03*
X25775Y52856D02*
D03*
Y33856D02*
D03*
X44825D02*
D03*
Y14745D02*
D03*
X25775D02*
D03*
X44825Y52856D02*
D03*
D23*
X62278Y18993D02*
D03*
Y81731D02*
D03*
X53896Y17850D02*
D03*
Y82874D02*
D03*
X59827Y13659D02*
D03*
X56347D02*
D03*
D24*
Y87065D02*
D03*
D25*
X11328Y82685D02*
D03*
D03*
X50832Y86432D02*
D03*
X51832Y92670D02*
D03*
X51812Y95307D02*
D03*
X43596Y73754D02*
D03*
X38524Y74741D02*
D03*
D03*
X36812Y48456D02*
D03*
X34677Y11772D02*
D03*
D03*
X35563Y30283D02*
D03*
X41361Y72260D02*
D03*
X13417Y81605D02*
D03*
X25744Y69319D02*
D03*
X19833Y77246D02*
D03*
X25705Y66907D02*
D03*
X4660Y77170D02*
D03*
X33835Y87521D02*
D03*
X33970Y90115D02*
D03*
X59357Y77420D02*
D03*
X4660Y49945D02*
D03*
X4833Y30860D02*
D03*
X15606Y6155D02*
D03*
X44799Y6148D02*
D03*
X59357Y25610D02*
D03*
Y44445D02*
D03*
Y72170D02*
D03*
X25082Y94618D02*
D03*
X43689Y94961D02*
D03*
X4660Y71920D02*
D03*
Y44445D02*
D03*
X3948Y25064D02*
D03*
X19801Y6050D02*
D03*
X36965Y95170D02*
D03*
X19832Y94618D02*
D03*
X50299Y6148D02*
D03*
X59357Y31110D02*
D03*
Y49945D02*
D03*
X43657Y78382D02*
D03*
D03*
X19786Y79756D02*
D03*
X19895Y82418D02*
D03*
M02*
