G04*
G04 #@! TF.GenerationSoftware,Altium Limited,Altium Designer,25.2.1 (25)*
G04*
G04 Layer_Color=2752767*
%FSLAX42Y42*%
%MOMM*%
G71*
G04*
G04 #@! TF.SameCoordinates,372558BA-D2E2-4F7E-91D4-F70FF9730948*
G04*
G04*
G04 #@! TF.FilePolarity,Positive*
G04*
G01*
G75*
%ADD49C,0.13*%
D49*
X4334Y7350D02*
Y7325D01*
X4385D01*
Y7350D01*
X4410D01*
Y7401D01*
X4385D01*
Y7426D01*
X4334D01*
Y7401D01*
X4309D01*
Y7350D01*
X4334D01*
X5910Y7717D02*
Y7691D01*
X5961D01*
Y7717D01*
X5987D01*
Y7767D01*
X5961D01*
Y7793D01*
X5910D01*
Y7767D01*
X5885D01*
Y7717D01*
X5910D01*
X441Y4419D02*
Y4394D01*
X491D01*
Y4419D01*
X517D01*
Y4470D01*
X491D01*
Y4495D01*
X441D01*
Y4470D01*
X415D01*
Y4419D01*
X441D01*
X369Y2481D02*
Y2456D01*
X420D01*
Y2481D01*
X446D01*
Y2532D01*
X420D01*
Y2557D01*
X369D01*
Y2532D01*
X344D01*
Y2481D01*
X369D01*
X1955Y580D02*
Y554D01*
X2006D01*
Y580D01*
X2031D01*
Y630D01*
X2006D01*
Y656D01*
X1955D01*
Y630D01*
X1929D01*
Y580D01*
X1955D01*
X3671Y9492D02*
Y9466D01*
X3722D01*
Y9492D01*
X3747D01*
Y9542D01*
X3722D01*
Y9568D01*
X3671D01*
Y9542D01*
X3646D01*
Y9492D01*
X3671D01*
X1958Y9436D02*
Y9411D01*
X2009D01*
Y9436D01*
X2034D01*
Y9487D01*
X2009D01*
Y9513D01*
X1958D01*
Y9487D01*
X1932D01*
Y9436D01*
X1958D01*
X5910Y3086D02*
Y3060D01*
X5961D01*
Y3086D01*
X5987D01*
Y3136D01*
X5961D01*
Y3162D01*
X5910D01*
Y3136D01*
X5885D01*
Y3086D01*
X5910D01*
Y4969D02*
Y4944D01*
X5961D01*
Y4969D01*
X5987D01*
Y5020D01*
X5961D01*
Y5045D01*
X5910D01*
Y5020D01*
X5885D01*
Y4969D01*
X5910D01*
M02*
