%TF.GenerationSoftware,Altium Limited,Altium Designer,25.2.1 (25)*%
G04 Layer_Color=16711935*
%FSLAX45Y45*%
%MOMM*%
%TF.SameCoordinates,DBF3E2B7-33B5-4ACE-A245-667DA10812C1*%
%TF.FilePolarity,Positive*%
%TF.FileFunction,Other,Mechanical_13*%
%TF.Part,Single*%
G01*
G75*
%TA.AperFunction,NonConductor*%
%ADD36C,0.15240*%
%ADD37C,0.20000*%
%ADD38C,0.12700*%
%ADD54C,0.00000*%
%ADD55C,0.10000*%
%ADD56C,0.02540*%
G36*
X5935718Y2290503D02*
X5681718D01*
Y7802303D01*
X5935718D01*
Y2290503D01*
D02*
G37*
D36*
X5681718D02*
X5935718D01*
Y7781983D01*
X5681718D02*
X5935718D01*
X5681718Y2290503D02*
Y7781983D01*
D37*
X4604926Y989811D02*
G03*
X4604926Y989811I-10000J0D01*
G01*
X2428172Y9086826D02*
G03*
X2428172Y9086826I-10000J0D01*
G01*
X4263853Y9121103D02*
G03*
X4263853Y9121103I-10000J0D01*
G01*
X1555111Y979969D02*
G03*
X1555111Y979969I-10000J0D01*
G01*
X851024Y4879537D02*
G03*
X851024Y4879537I-10000J0D01*
G01*
X868340Y2996020D02*
G03*
X868340Y2996020I-10000J0D01*
G01*
X5578806Y4559537D02*
G03*
X5578806Y4559537I-10000J0D01*
G01*
X5596122Y2676020D02*
G03*
X5596122Y2676020I-10000J0D01*
G01*
X5578806Y7307008D02*
G03*
X5578806Y7307008I-10000J0D01*
G01*
X851024Y7627008D02*
G03*
X851024Y7627008I-10000J0D01*
G01*
D38*
X4504926Y864811D02*
X5004926D01*
X4504926Y364811D02*
Y864811D01*
Y364811D02*
X5004926D01*
Y864811D01*
X2008172Y9211826D02*
X2508172D01*
Y9711826D01*
X2008172D02*
X2508172D01*
X2008172Y9211826D02*
Y9711826D01*
X3843853Y9246103D02*
X4343853D01*
Y9746103D01*
X3843853D02*
X4343853D01*
X3843853Y9246103D02*
Y9746103D01*
X1455111Y854969D02*
X1955111D01*
X1455111Y354969D02*
Y854969D01*
Y354969D02*
X1955111D01*
Y854969D01*
X716024Y4469537D02*
Y4969537D01*
X216024D02*
X716024D01*
X216024Y4469537D02*
Y4969537D01*
Y4469537D02*
X716024D01*
X733340Y2586020D02*
Y3086020D01*
X233340D02*
X733340D01*
X233340Y2586020D02*
Y3086020D01*
Y2586020D02*
X733340D01*
X5693806Y4969537D02*
X6193806D01*
Y4469537D02*
Y4969537D01*
X5693806Y4469537D02*
X6193806D01*
X5693806D02*
Y4969537D01*
X5711122Y3086020D02*
X6211122D01*
Y2586020D02*
Y3086020D01*
X5711122Y2586020D02*
X6211122D01*
X5711122D02*
Y3086020D01*
X5693806Y7717008D02*
X6193806D01*
Y7217008D02*
Y7717008D01*
X5693806Y7217008D02*
X6193806D01*
X5693806D02*
Y7717008D01*
X216024Y7217008D02*
X716024D01*
X216024D02*
Y7717008D01*
X716024D01*
Y7217008D02*
Y7717008D01*
D54*
X5647428Y8744643D02*
G03*
X5647428Y8744643I-12700J0D01*
G01*
D55*
X123006Y5123563D02*
X1323006D01*
Y6263563D01*
X123006D02*
X1323006D01*
X123006Y5123563D02*
Y6263563D01*
X69572Y1312472D02*
X1269572D01*
Y2452472D01*
X69572D02*
X1269572D01*
X69572Y1312472D02*
Y2452472D01*
X97740Y3223605D02*
X1297740D01*
Y4363605D01*
X97740D02*
X1297740D01*
X97740Y3223605D02*
Y4363605D01*
X4023752Y7652174D02*
Y7792174D01*
X4238752Y7652174D02*
Y7792174D01*
X4023752D02*
X4238752D01*
X4023752Y7652174D02*
X4238752D01*
X1977487Y5123563D02*
X3177487D01*
Y6263563D01*
X1977487D02*
X3177487D01*
X1977487Y5123563D02*
Y6263563D01*
Y3223605D02*
X3177487D01*
Y4363605D01*
X1977487D02*
X3177487D01*
X1977487Y3223605D02*
Y4363605D01*
X3882498Y3223605D02*
X5082499D01*
Y4363605D01*
X3882498D02*
X5082499D01*
X3882498Y3223605D02*
Y4363605D01*
Y1312472D02*
X5082499D01*
Y2452472D01*
X3882498D02*
X5082499D01*
X3882498Y1312472D02*
Y2452472D01*
X1977487Y1312472D02*
X3177487D01*
Y2452472D01*
X1977487D02*
X3177487D01*
X1977487Y1312472D02*
Y2452472D01*
X3882498Y5123563D02*
X5082499D01*
Y6263563D01*
X3882498D02*
X5082499D01*
X3882498Y5123563D02*
Y6263563D01*
X2236767Y8169448D02*
X2456767D01*
X2236767Y8309448D02*
X2456767D01*
Y8169448D02*
Y8309448D01*
X2236767Y8169448D02*
Y8309448D01*
X2236768Y7650792D02*
X2456768D01*
X2236768Y7790792D02*
X2456768D01*
Y7650792D02*
Y7790792D01*
X2236768Y7650792D02*
Y7790792D01*
X2236767Y7903554D02*
X2456767D01*
X2236767Y8043554D02*
X2456767D01*
Y7903554D02*
Y8043554D01*
X2236767Y7903554D02*
Y8043554D01*
X1134572Y1234972D02*
X1404572D01*
X1134572Y1389972D02*
X1404572D01*
X1134572Y1234972D02*
Y1389972D01*
X1404572Y1234972D02*
Y1389972D01*
X3747498D02*
X4017498D01*
X3747498Y1234972D02*
X4017498D01*
Y1389972D01*
X3747498Y1234972D02*
Y1389972D01*
X3042487Y1234972D02*
X3312487D01*
X3042487Y1389972D02*
X3312487D01*
X3042487Y1234972D02*
Y1389972D01*
X3312487Y1234972D02*
Y1389972D01*
X3042487Y5046063D02*
X3312487D01*
X3042487Y5201063D02*
X3312487D01*
X3042487Y5046063D02*
Y5201063D01*
X3312487Y5046063D02*
Y5201063D01*
X1188006Y5046063D02*
X1458006D01*
X1188006Y5201063D02*
X1458006D01*
X1188006Y5046063D02*
Y5201063D01*
X1458006Y5046063D02*
Y5201063D01*
X3747498Y3301105D02*
X4017498D01*
X3747498Y3146105D02*
X4017498D01*
Y3301105D01*
X3747498Y3146105D02*
Y3301105D01*
X3042487Y3146105D02*
X3312487D01*
X3042487Y3301105D02*
X3312487D01*
X3042487Y3146105D02*
Y3301105D01*
X3312487Y3146105D02*
Y3301105D01*
X1162740Y3146105D02*
X1432740D01*
X1162740Y3301105D02*
X1432740D01*
X1162740Y3146105D02*
Y3301105D01*
X1432740Y3146105D02*
Y3301105D01*
X3747498Y5201063D02*
X4017498D01*
X3747498Y5046063D02*
X4017498D01*
Y5201063D01*
X3747498Y5046063D02*
Y5201063D01*
D56*
X5359138Y1289743D02*
Y8782743D01*
X6258298D01*
Y1289743D02*
Y8782743D01*
X5359138Y1289743D02*
X6258298D01*
%TF.MD5,21e99353d674cfcb6dbf1851d5114a53*%
M02*
