G04*
G04 #@! TF.GenerationSoftware,Altium Limited,Altium Designer,25.2.1 (25)*
G04*
G04 Layer_Color=65535*
%FSLAX42Y42*%
%MOMM*%
G71*
G04*
G04 #@! TF.SameCoordinates,372558BA-D2E2-4F7E-91D4-F70FF9730948*
G04*
G04*
G04 #@! TF.FilePolarity,Positive*
G04*
G01*
G75*
%ADD10C,0.25*%
%ADD11C,0.15*%
%ADD12C,0.20*%
%ADD13C,0.25*%
D10*
X736Y6325D02*
G03*
X736Y6325I-12J0D01*
G01*
X682Y2513D02*
G03*
X682Y2513I-12J0D01*
G01*
X710Y4425D02*
G03*
X710Y4425I-12J0D01*
G01*
X2590Y6325D02*
G03*
X2590Y6325I-12J0D01*
G01*
Y4425D02*
G03*
X2590Y4425I-12J0D01*
G01*
X4495D02*
G03*
X4495Y4425I-12J0D01*
G01*
Y2513D02*
G03*
X4495Y2513I-12J0D01*
G01*
X2590D02*
G03*
X2590Y2513I-12J0D01*
G01*
X4495Y6325D02*
G03*
X4495Y6325I-12J0D01*
G01*
D11*
X5647Y8910D02*
G03*
X5647Y8910I-13J0D01*
G01*
X6271Y8301D02*
Y8795D01*
X5346Y1277D02*
Y1657D01*
Y1913D02*
Y8160D01*
X6084Y1277D02*
X6271D01*
X5736D02*
X5881D01*
X5346Y8795D02*
X5500D01*
X5346Y8415D02*
Y8795D01*
X5770D02*
X6271D01*
Y1277D02*
Y1772D01*
X5346Y1277D02*
X5533D01*
X6271Y2027D02*
Y8045D01*
D12*
X123Y5863D02*
Y6076D01*
X317Y6264D02*
X588D01*
X123Y5124D02*
Y5725D01*
Y5124D02*
X1323D01*
X858Y6263D02*
X1130Y6264D01*
X1323Y5124D02*
Y5725D01*
Y5863D02*
X1323Y6076D01*
X70Y2051D02*
Y2265D01*
X263Y2452D02*
X535D01*
X70Y1312D02*
Y1913D01*
Y1312D02*
X1270D01*
X805Y2452D02*
X1076Y2452D01*
X1270Y1312D02*
Y1913D01*
Y2051D02*
X1270Y2265D01*
X98Y3963D02*
Y4176D01*
X291Y4364D02*
X563D01*
X98Y3224D02*
Y3825D01*
Y3224D02*
X1298D01*
X833Y4364D02*
X1104Y4364D01*
X1298Y3224D02*
Y3825D01*
Y3963D02*
X1298Y4176D01*
X1977Y5863D02*
Y6076D01*
X2171Y6264D02*
X2442D01*
X1977Y5124D02*
Y5725D01*
Y5124D02*
X3177D01*
X2712Y6263D02*
X2984Y6264D01*
X3177Y5124D02*
Y5725D01*
Y5863D02*
X3178Y6076D01*
X1977Y3963D02*
Y4176D01*
X2171Y4364D02*
X2442D01*
X1977Y3224D02*
Y3825D01*
Y3224D02*
X3177D01*
X2712Y4364D02*
X2984Y4364D01*
X3177Y3224D02*
Y3825D01*
Y3963D02*
X3178Y4176D01*
X3882Y3963D02*
Y4176D01*
X4076Y4364D02*
X4347D01*
X3882Y3224D02*
Y3825D01*
Y3224D02*
X5082D01*
X4617Y4364D02*
X4889Y4364D01*
X5082Y3224D02*
Y3825D01*
Y3963D02*
X5083Y4176D01*
X3882Y2051D02*
Y2265D01*
X4076Y2452D02*
X4347D01*
X3882Y1312D02*
Y1913D01*
Y1312D02*
X5082D01*
X4617Y2452D02*
X4889Y2452D01*
X5082Y1312D02*
Y1913D01*
Y2051D02*
X5083Y2265D01*
X1977Y2051D02*
Y2265D01*
X2171Y2452D02*
X2442D01*
X1977Y1312D02*
Y1913D01*
Y1312D02*
X3177D01*
X2712Y2452D02*
X2984Y2452D01*
X3177Y1312D02*
Y1913D01*
Y2051D02*
X3178Y2265D01*
X3882Y5863D02*
Y6076D01*
X4076Y6264D02*
X4347D01*
X3882Y5124D02*
Y5725D01*
Y5124D02*
X5082D01*
X4617Y6263D02*
X4889Y6264D01*
X5082Y5124D02*
Y5725D01*
Y5863D02*
X5083Y6076D01*
X2342Y8174D02*
X2352D01*
X2342Y8304D02*
X2352D01*
X2342Y7656D02*
X2352D01*
X2342Y7786D02*
X2352D01*
X2342Y7909D02*
X2352D01*
X2342Y8039D02*
X2352D01*
D13*
X809Y9055D02*
X758D01*
X784D01*
Y8928D01*
X758Y8903D01*
X733D01*
X707Y8928D01*
X860Y8903D02*
X911D01*
X885D01*
Y9055D01*
X860Y9030D01*
X5085Y9741D02*
Y9614D01*
X5111Y9589D01*
X5161D01*
X5187Y9614D01*
Y9741D01*
X5238Y9589D02*
X5288D01*
X5263D01*
Y9741D01*
X5238Y9716D01*
X4778Y1214D02*
X4752Y1239D01*
X4702D01*
X4676Y1214D01*
Y1189D01*
X4702Y1163D01*
X4752D01*
X4778Y1138D01*
Y1113D01*
X4752Y1087D01*
X4702D01*
X4676Y1113D01*
X4829Y1239D02*
Y1087D01*
X4879Y1138D01*
X4930Y1087D01*
Y1239D01*
X4981Y1113D02*
X5006Y1087D01*
X5057D01*
X5083Y1113D01*
Y1214D01*
X5057Y1239D01*
X5006D01*
X4981Y1214D01*
Y1189D01*
X5006Y1163D01*
X5083D01*
X2821Y1179D02*
X2796Y1204D01*
X2745D01*
X2719Y1179D01*
Y1153D01*
X2745Y1128D01*
X2796D01*
X2821Y1103D01*
Y1077D01*
X2796Y1052D01*
X2745D01*
X2719Y1077D01*
X2872Y1204D02*
Y1052D01*
X2922Y1103D01*
X2973Y1052D01*
Y1204D01*
X3024Y1179D02*
X3049Y1204D01*
X3100D01*
X3126Y1179D01*
Y1153D01*
X3100Y1128D01*
X3126Y1103D01*
Y1077D01*
X3100Y1052D01*
X3049D01*
X3024Y1077D01*
Y1103D01*
X3049Y1128D01*
X3024Y1153D01*
Y1179D01*
X3049Y1128D02*
X3100D01*
X894Y1184D02*
X869Y1209D01*
X818D01*
X793Y1184D01*
Y1158D01*
X818Y1133D01*
X869D01*
X894Y1108D01*
Y1082D01*
X869Y1057D01*
X818D01*
X793Y1082D01*
X945Y1209D02*
Y1057D01*
X996Y1108D01*
X1047Y1057D01*
Y1209D01*
X1097D02*
X1199D01*
Y1184D01*
X1097Y1082D01*
Y1057D01*
X4792Y3086D02*
X4767Y3111D01*
X4716D01*
X4691Y3086D01*
Y3060D01*
X4716Y3035D01*
X4767D01*
X4792Y3009D01*
Y2984D01*
X4767Y2959D01*
X4716D01*
X4691Y2984D01*
X4843Y3111D02*
Y2959D01*
X4894Y3009D01*
X4945Y2959D01*
Y3111D01*
X5097D02*
X5046Y3086D01*
X4996Y3035D01*
Y2984D01*
X5021Y2959D01*
X5072D01*
X5097Y2984D01*
Y3009D01*
X5072Y3035D01*
X4996D01*
X2816Y3091D02*
X2791Y3116D01*
X2740D01*
X2714Y3091D01*
Y3065D01*
X2740Y3040D01*
X2791D01*
X2816Y3014D01*
Y2989D01*
X2791Y2964D01*
X2740D01*
X2714Y2989D01*
X2867Y3116D02*
Y2964D01*
X2918Y3014D01*
X2968Y2964D01*
Y3116D01*
X3121D02*
X3019D01*
Y3040D01*
X3070Y3065D01*
X3095D01*
X3121Y3040D01*
Y2989D01*
X3095Y2964D01*
X3044D01*
X3019Y2989D01*
X929Y3076D02*
X904Y3101D01*
X853D01*
X827Y3076D01*
Y3050D01*
X853Y3025D01*
X904D01*
X929Y3000D01*
Y2974D01*
X904Y2949D01*
X853D01*
X827Y2974D01*
X980Y3101D02*
Y2949D01*
X1031Y3000D01*
X1081Y2949D01*
Y3101D01*
X1208Y2949D02*
Y3101D01*
X1132Y3025D01*
X1234D01*
X4723Y4978D02*
X4697Y5003D01*
X4647D01*
X4621Y4978D01*
Y4952D01*
X4647Y4927D01*
X4697D01*
X4723Y4901D01*
Y4876D01*
X4697Y4851D01*
X4647D01*
X4621Y4876D01*
X4774Y5003D02*
Y4851D01*
X4824Y4901D01*
X4875Y4851D01*
Y5003D01*
X4926Y4978D02*
X4951Y5003D01*
X5002D01*
X5027Y4978D01*
Y4952D01*
X5002Y4927D01*
X4977D01*
X5002D01*
X5027Y4901D01*
Y4876D01*
X5002Y4851D01*
X4951D01*
X4926Y4876D01*
X2821Y4968D02*
X2796Y4993D01*
X2745D01*
X2719Y4968D01*
Y4942D01*
X2745Y4917D01*
X2796D01*
X2821Y4891D01*
Y4866D01*
X2796Y4841D01*
X2745D01*
X2719Y4866D01*
X2872Y4993D02*
Y4841D01*
X2922Y4891D01*
X2973Y4841D01*
Y4993D01*
X3126Y4841D02*
X3024D01*
X3126Y4942D01*
Y4968D01*
X3100Y4993D01*
X3049D01*
X3024Y4968D01*
X954Y4978D02*
X929Y5003D01*
X878D01*
X853Y4978D01*
Y4952D01*
X878Y4927D01*
X929D01*
X954Y4901D01*
Y4876D01*
X929Y4851D01*
X878D01*
X853Y4876D01*
X1005Y5003D02*
Y4851D01*
X1056Y4901D01*
X1107Y4851D01*
Y5003D01*
X1158Y4851D02*
X1208D01*
X1183D01*
Y5003D01*
X1158Y4978D01*
X1603Y7649D02*
Y7801D01*
X1679D01*
X1704Y7776D01*
Y7725D01*
X1679Y7699D01*
X1603D01*
X1653D02*
X1704Y7649D01*
X1857Y7801D02*
X1755D01*
Y7725D01*
X1806Y7750D01*
X1831D01*
X1857Y7725D01*
Y7674D01*
X1831Y7649D01*
X1780D01*
X1755Y7674D01*
X1612Y7900D02*
Y8052D01*
X1689D01*
X1714Y8027D01*
Y7976D01*
X1689Y7951D01*
X1612D01*
X1663D02*
X1714Y7900D01*
X1841D02*
Y8052D01*
X1765Y7976D01*
X1866D01*
X1622Y8175D02*
Y8328D01*
X1698D01*
X1724Y8302D01*
Y8251D01*
X1698Y8226D01*
X1622D01*
X1673D02*
X1724Y8175D01*
X1876D02*
X1775D01*
X1876Y8277D01*
Y8302D01*
X1851Y8328D01*
X1800D01*
X1775Y8302D01*
X6030Y8914D02*
Y9067D01*
X6107D01*
X6132Y9041D01*
Y8990D01*
X6107Y8965D01*
X6030D01*
X6081D02*
X6132Y8914D01*
X6183Y9041D02*
X6208Y9067D01*
X6259D01*
X6284Y9041D01*
Y9016D01*
X6259Y8990D01*
X6234D01*
X6259D01*
X6284Y8965D01*
Y8940D01*
X6259Y8914D01*
X6208D01*
X6183Y8940D01*
M02*
