G04*
G04 #@! TF.GenerationSoftware,Altium Limited,Altium Designer,25.2.1 (25)*
G04*
G04 Layer_Color=12632256*
%FSLAX43Y43*%
%MOMM*%
G71*
G04*
G04 #@! TF.SameCoordinates,240BC811-237E-46BC-B66A-058C9D4012AB*
G04*
G04*
G04 #@! TF.FilePolarity,Positive*
G04*
G01*
G75*
%ADD23C,2.032*%
%ADD24R,2.032X2.032*%
%ADD26C,1.900*%
%ADD27R,1.900X1.900*%
%ADD28C,2.000*%
D23*
X62278Y18993D02*
D03*
Y81731D02*
D03*
X53896Y17850D02*
D03*
Y82874D02*
D03*
X59827Y13659D02*
D03*
X56347D02*
D03*
D24*
Y87065D02*
D03*
D26*
X2150Y61746D02*
D03*
X12310D02*
D03*
X1616Y23635D02*
D03*
X11776D02*
D03*
X1897Y42746D02*
D03*
X12057D02*
D03*
X20695Y61746D02*
D03*
X30855D02*
D03*
X20695Y42746D02*
D03*
X30855D02*
D03*
X39745D02*
D03*
X49905D02*
D03*
X39745Y23635D02*
D03*
X49905D02*
D03*
X20695D02*
D03*
X30855D02*
D03*
X39745Y61746D02*
D03*
X49905D02*
D03*
D27*
X7230D02*
D03*
X6696Y23635D02*
D03*
X6977Y42746D02*
D03*
X25775Y61746D02*
D03*
Y42746D02*
D03*
X44825D02*
D03*
Y23635D02*
D03*
X25775D02*
D03*
X44825Y61746D02*
D03*
D28*
X7230Y52856D02*
D03*
X6696Y14745D02*
D03*
X6977Y33856D02*
D03*
X25775Y52856D02*
D03*
Y33856D02*
D03*
X44825D02*
D03*
Y14745D02*
D03*
X25775D02*
D03*
X44825Y52856D02*
D03*
M02*
