G04*
G04 #@! TF.GenerationSoftware,Altium Limited,Altium Designer,25.2.1 (25)*
G04*
G04 Layer_Color=16711935*
%FSLAX43Y43*%
%MOMM*%
G71*
G04*
G04 #@! TF.SameCoordinates,37798F80-2AC8-4B0B-9607-FE0DC02C65D2*
G04*
G04*
G04 #@! TF.FilePolarity,Positive*
G04*
G01*
G75*
%ADD11C,0.152*%
%ADD12C,0.200*%
%ADD49C,0.127*%
%ADD53C,0.000*%
%ADD54C,0.100*%
%ADD55C,0.025*%
G36*
X59357Y22905D02*
X56817D01*
Y78023D01*
X59357D01*
Y22905D01*
D02*
G37*
D11*
X56817D02*
X59357D01*
Y77820D01*
X56817D02*
X59357D01*
X56817Y22905D02*
Y77820D01*
D12*
X46049Y9898D02*
G03*
X46049Y9898I-100J0D01*
G01*
X24282Y90868D02*
G03*
X24282Y90868I-100J0D01*
G01*
X42639Y91211D02*
G03*
X42639Y91211I-100J0D01*
G01*
X15551Y9800D02*
G03*
X15551Y9800I-100J0D01*
G01*
X8510Y48795D02*
G03*
X8510Y48795I-100J0D01*
G01*
X8683Y29960D02*
G03*
X8683Y29960I-100J0D01*
G01*
X55788Y45595D02*
G03*
X55788Y45595I-100J0D01*
G01*
X55961Y26760D02*
G03*
X55961Y26760I-100J0D01*
G01*
X55788Y73070D02*
G03*
X55788Y73070I-100J0D01*
G01*
X8510Y76270D02*
G03*
X8510Y76270I-100J0D01*
G01*
D49*
X45049Y8648D02*
X50049D01*
X45049Y3648D02*
Y8648D01*
Y3648D02*
X50049D01*
Y8648D01*
X20082Y92118D02*
X25082D01*
Y97118D01*
X20082D02*
X25082D01*
X20082Y92118D02*
Y97118D01*
X38439Y92461D02*
X43439D01*
Y97461D01*
X38439D02*
X43439D01*
X38439Y92461D02*
Y97461D01*
X14551Y8550D02*
X19551D01*
X14551Y3550D02*
Y8550D01*
Y3550D02*
X19551D01*
Y8550D01*
X7160Y44695D02*
Y49695D01*
X2160D02*
X7160D01*
X2160Y44695D02*
Y49695D01*
Y44695D02*
X7160D01*
X7333Y25860D02*
Y30860D01*
X2333D02*
X7333D01*
X2333Y25860D02*
Y30860D01*
Y25860D02*
X7333D01*
X56938Y49695D02*
X61938D01*
Y44695D02*
Y49695D01*
X56938Y44695D02*
X61938D01*
X56938D02*
Y49695D01*
X57111Y30860D02*
X62111D01*
Y25860D02*
Y30860D01*
X57111Y25860D02*
X62111D01*
X57111D02*
Y30860D01*
X56938Y77170D02*
X61938D01*
Y72170D02*
Y77170D01*
X56938Y72170D02*
X61938D01*
X56938D02*
Y77170D01*
X2160Y72170D02*
X7160D01*
X2160D02*
Y77170D01*
X7160D01*
Y72170D02*
Y77170D01*
D53*
X56474Y87446D02*
G03*
X56474Y87446I-127J0D01*
G01*
D54*
X1230Y51236D02*
X13230D01*
Y62636D01*
X1230D02*
X13230D01*
X1230Y51236D02*
Y62636D01*
X696Y13125D02*
X12696D01*
Y24525D01*
X696D02*
X12696D01*
X696Y13125D02*
Y24525D01*
X977Y32236D02*
X12977D01*
Y43636D01*
X977D02*
X12977D01*
X977Y32236D02*
Y43636D01*
X40238Y76522D02*
Y77922D01*
X42388Y76522D02*
Y77922D01*
X40238D02*
X42388D01*
X40238Y76522D02*
X42388D01*
X19775Y51236D02*
X31775D01*
Y62636D01*
X19775D02*
X31775D01*
X19775Y51236D02*
Y62636D01*
Y32236D02*
X31775D01*
Y43636D01*
X19775D02*
X31775D01*
X19775Y32236D02*
Y43636D01*
X38825Y32236D02*
X50825D01*
Y43636D01*
X38825D02*
X50825D01*
X38825Y32236D02*
Y43636D01*
Y13125D02*
X50825D01*
Y24525D01*
X38825D02*
X50825D01*
X38825Y13125D02*
Y24525D01*
X19775Y13125D02*
X31775D01*
Y24525D01*
X19775D02*
X31775D01*
X19775Y13125D02*
Y24525D01*
X38825Y51236D02*
X50825D01*
Y62636D01*
X38825D02*
X50825D01*
X38825Y51236D02*
Y62636D01*
X22368Y81694D02*
X24568D01*
X22368Y83094D02*
X24568D01*
Y81694D02*
Y83094D01*
X22368Y81694D02*
Y83094D01*
X22368Y76508D02*
X24568D01*
X22368Y77908D02*
X24568D01*
Y76508D02*
Y77908D01*
X22368Y76508D02*
Y77908D01*
X22368Y79036D02*
X24568D01*
X22368Y80436D02*
X24568D01*
Y79036D02*
Y80436D01*
X22368Y79036D02*
Y80436D01*
X11346Y12350D02*
X14046D01*
X11346Y13900D02*
X14046D01*
X11346Y12350D02*
Y13900D01*
X14046Y12350D02*
Y13900D01*
X37475D02*
X40175D01*
X37475Y12350D02*
X40175D01*
Y13900D01*
X37475Y12350D02*
Y13900D01*
X30425Y12350D02*
X33125D01*
X30425Y13900D02*
X33125D01*
X30425Y12350D02*
Y13900D01*
X33125Y12350D02*
Y13900D01*
X30425Y50461D02*
X33125D01*
X30425Y52011D02*
X33125D01*
X30425Y50461D02*
Y52011D01*
X33125Y50461D02*
Y52011D01*
X11880Y50461D02*
X14580D01*
X11880Y52011D02*
X14580D01*
X11880Y50461D02*
Y52011D01*
X14580Y50461D02*
Y52011D01*
X37475Y33011D02*
X40175D01*
X37475Y31461D02*
X40175D01*
Y33011D01*
X37475Y31461D02*
Y33011D01*
X30425Y31461D02*
X33125D01*
X30425Y33011D02*
X33125D01*
X30425Y31461D02*
Y33011D01*
X33125Y31461D02*
Y33011D01*
X11627Y31461D02*
X14327D01*
X11627Y33011D02*
X14327D01*
X11627Y31461D02*
Y33011D01*
X14327Y31461D02*
Y33011D01*
X37475Y52011D02*
X40175D01*
X37475Y50461D02*
X40175D01*
Y52011D01*
X37475Y50461D02*
Y52011D01*
D55*
X53591Y12897D02*
Y87827D01*
X62583D01*
Y12897D02*
Y87827D01*
X53591Y12897D02*
X62583D01*
M02*
