%TF.GenerationSoftware,Altium Limited,Altium Designer,24.6.1 (21)*%
G04 Layer_Color=16711935*
%FSLAX45Y45*%
%MOMM*%
%TF.SameCoordinates,480F301F-7D1D-4A69-AD55-030AC2FBA8A7*%
%TF.FilePolarity,Negative*%
%TF.FileFunction,Soldermask,Bot*%
%TF.Part,Single*%
G01*
G75*
%TA.AperFunction,ComponentPad*%
%ADD13C,2.03200*%
%ADD14R,2.03200X2.03200*%
%ADD27C,2.10320*%
%ADD28C,2.20320*%
%ADD29R,2.10320X2.10320*%
%TA.AperFunction,ViaPad*%
%ADD30C,1.47320*%
%TA.AperFunction,SMDPad,CuDef*%
%ADD31R,1.10320X1.15320*%
D13*
X7035800Y12052300D02*
D03*
Y5778500D02*
D03*
X7874000Y12166600D02*
D03*
Y5664200D02*
D03*
X7280910Y12585700D02*
D03*
X7628890D02*
D03*
D14*
Y5245100D02*
D03*
D27*
X4457700Y8686800D02*
D03*
X5473700D02*
D03*
X3162300Y10007600D02*
D03*
X4178300D02*
D03*
X3162300Y7289800D02*
D03*
X4178300D02*
D03*
X3162300Y8648700D02*
D03*
X4178300D02*
D03*
X5473700Y7289800D02*
D03*
X4457700D02*
D03*
X6769100D02*
D03*
X5753100D02*
D03*
X6769100Y8661400D02*
D03*
X5753100D02*
D03*
X5473700Y10007600D02*
D03*
X4457700D02*
D03*
X6769100D02*
D03*
X5753100D02*
D03*
D28*
X4965700Y7797800D02*
D03*
X3670300Y9118600D02*
D03*
Y6400800D02*
D03*
Y7759700D02*
D03*
X4965700Y6400800D02*
D03*
X6261100D02*
D03*
Y7772400D02*
D03*
X4965700Y9118600D02*
D03*
X6261100D02*
D03*
D29*
X4965700Y8686800D02*
D03*
X3670300Y10007600D02*
D03*
Y7289800D02*
D03*
Y8648700D02*
D03*
X4965700Y7289800D02*
D03*
X6261100D02*
D03*
Y8661400D02*
D03*
X4965700Y10007600D02*
D03*
X6261100D02*
D03*
D30*
X4508500Y6126500D02*
D03*
X4749800Y12090400D02*
D03*
X3949700Y7470140D02*
D03*
X5135880Y8074660D02*
D03*
X7099300Y6261100D02*
D03*
D31*
X6863100Y9105900D02*
D03*
X6548100D02*
D03*
X6901200Y7759700D02*
D03*
X6586200D02*
D03*
X5593100Y9105900D02*
D03*
X5278100D02*
D03*
X4323100Y7747000D02*
D03*
X4008100D02*
D03*
X5580400Y7785100D02*
D03*
X5265400D02*
D03*
X5580400Y6388100D02*
D03*
X5265400D02*
D03*
X4323100Y9105900D02*
D03*
X4008100D02*
D03*
X4335800Y6375400D02*
D03*
X4020800D02*
D03*
X6875800D02*
D03*
X6560800D02*
D03*
%TF.MD5,acd6e80cf8a322878b43363021b83556*%
M02*
