G04*
G04 #@! TF.GenerationSoftware,Altium Limited,Altium Designer,24.6.1 (21)*
G04*
G04 Layer_Color=16711935*
%FSLAX44Y44*%
%MOMM*%
G71*
G04*
G04 #@! TF.SameCoordinates,736086DD-486C-4D62-845F-A3B091FE1A49*
G04*
G04*
G04 #@! TF.FilePolarity,Positive*
G04*
G01*
G75*
%ADD10C,0.1524*%
%ADD31C,0.0000*%
%ADD32C,0.0254*%
%ADD33C,0.1000*%
G36*
X732790Y1166114D02*
X758190D01*
Y614934D01*
X732790D01*
Y1166114D01*
D02*
G37*
D10*
X758190D01*
X732790Y616966D02*
Y1166114D01*
Y616966D02*
X758190D01*
Y1166114D01*
D31*
X764159Y520700D02*
G03*
X764159Y520700I-1270J0D01*
G01*
D32*
X790448Y516890D02*
Y1266190D01*
X700532Y516890D02*
X790448D01*
X700532D02*
Y1266190D01*
X790448D01*
D33*
X307030Y895660D02*
X427030D01*
Y1009660D01*
X307030D02*
X427030D01*
X307030Y895660D02*
Y1009660D01*
X427780Y584030D02*
X433280D01*
X427780Y594530D02*
X433280D01*
X427780Y584030D02*
Y594530D01*
X433280Y584030D02*
Y594530D01*
X684060Y902840D02*
Y918340D01*
X657060Y902840D02*
Y918340D01*
X684060D01*
X657060Y902840D02*
X684060D01*
X687870Y768220D02*
Y783720D01*
X660870Y768220D02*
Y783720D01*
X687870D01*
X660870Y768220D02*
X687870D01*
X557060Y902840D02*
Y918340D01*
X530060Y902840D02*
Y918340D01*
X557060D01*
X530060Y902840D02*
X557060D01*
X430060Y766950D02*
Y782450D01*
X403060Y766950D02*
Y782450D01*
X430060D01*
X403060Y766950D02*
X430060D01*
X555790Y770760D02*
Y786260D01*
X528790Y770760D02*
Y786260D01*
X555790D01*
X528790Y770760D02*
X555790D01*
Y631060D02*
Y646560D01*
X528790Y631060D02*
Y646560D01*
X555790D01*
X528790Y631060D02*
X555790D01*
X430060Y902840D02*
Y918340D01*
X403060Y902840D02*
Y918340D01*
X430060D01*
X403060Y902840D02*
X430060D01*
X431330Y629790D02*
Y645290D01*
X404330Y629790D02*
Y645290D01*
X431330D01*
X404330Y629790D02*
X431330D01*
X685330D02*
Y645290D01*
X658330Y629790D02*
Y645290D01*
X685330D01*
X658330Y629790D02*
X685330D01*
X307030Y623880D02*
X427030D01*
Y737880D01*
X307030D02*
X427030D01*
X307030Y623880D02*
Y737880D01*
Y759770D02*
X427030D01*
Y873770D01*
X307030D02*
X427030D01*
X307030Y759770D02*
Y873770D01*
X392220Y584030D02*
X397720D01*
X392220Y594530D02*
X397720D01*
X392220Y584030D02*
Y594530D01*
X397720Y584030D02*
Y594530D01*
X408730Y584030D02*
X414230D01*
X408730Y594530D02*
X414230D01*
X408730Y584030D02*
Y594530D01*
X414230Y584030D02*
Y594530D01*
X436570Y623880D02*
Y737880D01*
X556570D01*
Y623880D02*
Y737880D01*
X436570Y623880D02*
X556570D01*
X566110D02*
Y737880D01*
X686110D01*
Y623880D02*
Y737880D01*
X566110Y623880D02*
X686110D01*
X436570Y763580D02*
Y877580D01*
X556570D01*
Y763580D02*
Y877580D01*
X436570Y763580D02*
X556570D01*
X566110Y761040D02*
Y875040D01*
X686110D01*
Y761040D02*
Y875040D01*
X566110Y761040D02*
X686110D01*
X436570Y895660D02*
Y1009660D01*
X556570D01*
Y895660D02*
Y1009660D01*
X436570Y895660D02*
X556570D01*
X566110D02*
Y1009660D01*
X686110D01*
Y895660D02*
Y1009660D01*
X566110Y895660D02*
X686110D01*
M02*
