%TF.GenerationSoftware,Altium Limited,Altium Designer,24.6.1 (21)*%
G04 Layer_Color=65535*
%FSLAX45Y45*%
%MOMM*%
%TF.SameCoordinates,480F301F-7D1D-4A69-AD55-030AC2FBA8A7*%
%TF.FilePolarity,Positive*%
%TF.FileFunction,Legend,Top*%
%TF.Part,Single*%
G01*
G75*
%TA.AperFunction,NonConductor*%
%ADD20C,0.15240*%
%ADD21C,0.25000*%
%ADD22C,0.20000*%
%ADD23C,0.25400*%
D20*
X7641590Y5041900D02*
G03*
X7641590Y5041900I-12700J0D01*
G01*
X6992620Y5156200D02*
Y5650723D01*
X7917180Y12294377D02*
Y12674600D01*
Y5791977D02*
Y12038823D01*
X6992620Y12674600D02*
X7179483D01*
X7382337D02*
X7527463D01*
X7763764Y5156200D02*
X7917180D01*
Y5536423D01*
X6992620Y5156200D02*
X7494016D01*
X6992620Y12180077D02*
Y12674600D01*
X7730317D02*
X7917180D01*
X6992620Y5906277D02*
Y11924523D01*
D21*
X4978200Y8836800D02*
G03*
X4978200Y8836800I-12500J0D01*
G01*
X3682800Y10157600D02*
G03*
X3682800Y10157600I-12500J0D01*
G01*
Y7439800D02*
G03*
X3682800Y7439800I-12500J0D01*
G01*
Y8798700D02*
G03*
X3682800Y8798700I-12500J0D01*
G01*
X4978200Y7439800D02*
G03*
X4978200Y7439800I-12500J0D01*
G01*
X6273600D02*
G03*
X6273600Y7439800I-12500J0D01*
G01*
Y8811400D02*
G03*
X6273600Y8811400I-12500J0D01*
G01*
X4978200Y10157600D02*
G03*
X4978200Y10157600I-12500J0D01*
G01*
X6273600D02*
G03*
X6273600Y10157600I-12500J0D01*
G01*
D22*
X4365701Y8374802D02*
Y8588101D01*
X4559198Y8775802D02*
X4830699D01*
X4365701Y7635799D02*
Y8236798D01*
Y7635799D02*
X5565699D01*
X5100701Y8775700D02*
X5372202Y8775802D01*
X5565699Y7635799D02*
Y8236798D01*
Y8374802D02*
X5565729Y8588070D01*
X3070301Y9695602D02*
Y9908901D01*
X3263798Y10096602D02*
X3535299D01*
X3070301Y8956599D02*
Y9557598D01*
Y8956599D02*
X4270299D01*
X3805301Y10096500D02*
X4076802Y10096602D01*
X4270299Y8956599D02*
Y9557598D01*
Y9695602D02*
X4270329Y9908870D01*
X3070301Y6977802D02*
Y7191101D01*
X3263798Y7378802D02*
X3535299D01*
X3070301Y6238799D02*
Y6839798D01*
Y6238799D02*
X4270299D01*
X3805301Y7378700D02*
X4076802Y7378802D01*
X4270299Y6238799D02*
Y6839798D01*
Y6977802D02*
X4270329Y7191070D01*
X3070301Y8336702D02*
Y8550001D01*
X3263798Y8737702D02*
X3535299D01*
X3070301Y7597699D02*
Y8198698D01*
Y7597699D02*
X4270299D01*
X3805301Y8737600D02*
X4076802Y8737702D01*
X4270299Y7597699D02*
Y8198698D01*
Y8336702D02*
X4270329Y8549970D01*
X5565699Y6977802D02*
X5565729Y7191070D01*
X5565699Y6238799D02*
Y6839798D01*
X5100701Y7378700D02*
X5372202Y7378802D01*
X4365701Y6238799D02*
X5565699D01*
X4365701D02*
Y6839798D01*
X4559198Y7378802D02*
X4830699D01*
X4365701Y6977802D02*
Y7191101D01*
X6861099Y6977802D02*
X6861129Y7191070D01*
X6861099Y6238799D02*
Y6839798D01*
X6396101Y7378700D02*
X6667602Y7378802D01*
X5661101Y6238799D02*
X6861099D01*
X5661101D02*
Y6839798D01*
X5854598Y7378802D02*
X6126099D01*
X5661101Y6977802D02*
Y7191101D01*
X6861099Y8349402D02*
X6861129Y8562670D01*
X6861099Y7610399D02*
Y8211398D01*
X6396101Y8750300D02*
X6667602Y8750402D01*
X5661101Y7610399D02*
X6861099D01*
X5661101D02*
Y8211398D01*
X5854598Y8750402D02*
X6126099D01*
X5661101Y8349402D02*
Y8562701D01*
X5565699Y9695602D02*
X5565729Y9908870D01*
X5565699Y8956599D02*
Y9557598D01*
X5100701Y10096500D02*
X5372202Y10096602D01*
X4365701Y8956599D02*
X5565699D01*
X4365701D02*
Y9557598D01*
X4559198Y10096602D02*
X4830699D01*
X4365701Y9695602D02*
Y9908901D01*
X6861099Y9695602D02*
X6861129Y9908870D01*
X6861099Y8956599D02*
Y9557598D01*
X6396101Y10096500D02*
X6667602Y10096602D01*
X5661101Y8956599D02*
X6861099D01*
X5661101D02*
Y9557598D01*
X5854598Y10096602D02*
X6126099D01*
X5661101Y9695602D02*
Y9908901D01*
D23*
X6718333Y12268225D02*
Y12420575D01*
X6794508D01*
X6819900Y12395183D01*
Y12344400D01*
X6794508Y12319008D01*
X6718333D01*
X6769117D02*
X6819900Y12268225D01*
X6870684D02*
X6921467D01*
X6896076D01*
Y12420575D01*
X6870684Y12395183D01*
X4477987Y9065219D02*
X4452595Y9090611D01*
X4401812D01*
X4376420Y9065219D01*
Y9039827D01*
X4401812Y9014435D01*
X4452595D01*
X4477987Y8989043D01*
Y8963652D01*
X4452595Y8938260D01*
X4401812D01*
X4376420Y8963652D01*
X4528771Y9090611D02*
Y8938260D01*
X4579554Y8989043D01*
X4630338Y8938260D01*
Y9090611D01*
X4782689D02*
X4681121D01*
Y9014435D01*
X4731905Y9039827D01*
X4757297D01*
X4782689Y9014435D01*
Y8963652D01*
X4757297Y8938260D01*
X4706513D01*
X4681121Y8963652D01*
X3327433Y12039575D02*
Y11912617D01*
X3352825Y11887225D01*
X3403608D01*
X3429000Y11912617D01*
Y12039575D01*
X3479784Y11887225D02*
X3530567D01*
X3505176D01*
Y12039575D01*
X3479784Y12014183D01*
X3182587Y10386019D02*
X3157195Y10411411D01*
X3106412D01*
X3081020Y10386019D01*
Y10360627D01*
X3106412Y10335235D01*
X3157195D01*
X3182587Y10309843D01*
Y10284452D01*
X3157195Y10259060D01*
X3106412D01*
X3081020Y10284452D01*
X3233371Y10411411D02*
Y10259060D01*
X3284154Y10309843D01*
X3334938Y10259060D01*
Y10411411D01*
X3385721Y10259060D02*
X3436505D01*
X3411113D01*
Y10411411D01*
X3385721Y10386019D01*
X4914859Y5918175D02*
Y5765824D01*
X4838683D01*
X4813292Y5791216D01*
Y5841999D01*
X4838683Y5867391D01*
X4914859D01*
X4864075D02*
X4813292Y5918175D01*
X4686333D02*
Y5765824D01*
X4762508Y5841999D01*
X4660941D01*
X3182587Y7668219D02*
X3157195Y7693611D01*
X3106412D01*
X3081020Y7668219D01*
Y7642827D01*
X3106412Y7617435D01*
X3157195D01*
X3182587Y7592043D01*
Y7566652D01*
X3157195Y7541260D01*
X3106412D01*
X3081020Y7566652D01*
X3233371Y7693611D02*
Y7541260D01*
X3284154Y7592043D01*
X3334938Y7541260D01*
Y7693611D01*
X3385721D02*
X3487289D01*
Y7668219D01*
X3385721Y7566652D01*
Y7541260D01*
X3182587Y9027119D02*
X3157195Y9052511D01*
X3106412D01*
X3081020Y9027119D01*
Y9001727D01*
X3106412Y8976335D01*
X3157195D01*
X3182587Y8950943D01*
Y8925552D01*
X3157195Y8900160D01*
X3106412D01*
X3081020Y8925552D01*
X3233371Y9052511D02*
Y8900160D01*
X3284154Y8950943D01*
X3334938Y8900160D01*
Y9052511D01*
X3461897Y8900160D02*
Y9052511D01*
X3385721Y8976335D01*
X3487289D01*
X3632159Y5956275D02*
Y5803924D01*
X3555983D01*
X3530592Y5829316D01*
Y5880099D01*
X3555983Y5905491D01*
X3632159D01*
X3581375D02*
X3530592Y5956275D01*
X3378241D02*
X3479808D01*
X3378241Y5854708D01*
Y5829316D01*
X3403633Y5803924D01*
X3454416D01*
X3479808Y5829316D01*
X4229059Y5702275D02*
Y5549924D01*
X4152883D01*
X4127492Y5575316D01*
Y5626099D01*
X4152883Y5651491D01*
X4229059D01*
X4178275D02*
X4127492Y5702275D01*
X4076708Y5575316D02*
X4051316Y5549924D01*
X4000533D01*
X3975141Y5575316D01*
Y5600708D01*
X4000533Y5626099D01*
X4025925D01*
X4000533D01*
X3975141Y5651491D01*
Y5676883D01*
X4000533Y5702275D01*
X4051316D01*
X4076708Y5676883D01*
X5773387Y7668219D02*
X5747995Y7693611D01*
X5697212D01*
X5671820Y7668219D01*
Y7642827D01*
X5697212Y7617435D01*
X5747995D01*
X5773387Y7592043D01*
Y7566652D01*
X5747995Y7541260D01*
X5697212D01*
X5671820Y7566652D01*
X5824171Y7693611D02*
Y7541260D01*
X5874954Y7592043D01*
X5925738Y7541260D01*
Y7693611D01*
X5976521Y7566652D02*
X6001913Y7541260D01*
X6052697D01*
X6078089Y7566652D01*
Y7668219D01*
X6052697Y7693611D01*
X6001913D01*
X5976521Y7668219D01*
Y7642827D01*
X6001913Y7617435D01*
X6078089D01*
X4477987Y7668219D02*
X4452595Y7693611D01*
X4401812D01*
X4376420Y7668219D01*
Y7642827D01*
X4401812Y7617435D01*
X4452595D01*
X4477987Y7592043D01*
Y7566652D01*
X4452595Y7541260D01*
X4401812D01*
X4376420Y7566652D01*
X4528771Y7693611D02*
Y7541260D01*
X4579554Y7592043D01*
X4630338Y7541260D01*
Y7693611D01*
X4681121Y7668219D02*
X4706513Y7693611D01*
X4757297D01*
X4782689Y7668219D01*
Y7642827D01*
X4757297Y7617435D01*
X4782689Y7592043D01*
Y7566652D01*
X4757297Y7541260D01*
X4706513D01*
X4681121Y7566652D01*
Y7592043D01*
X4706513Y7617435D01*
X4681121Y7642827D01*
Y7668219D01*
X4706513Y7617435D02*
X4757297D01*
X5773387Y9039819D02*
X5747995Y9065211D01*
X5697212D01*
X5671820Y9039819D01*
Y9014427D01*
X5697212Y8989035D01*
X5747995D01*
X5773387Y8963643D01*
Y8938252D01*
X5747995Y8912860D01*
X5697212D01*
X5671820Y8938252D01*
X5824171Y9065211D02*
Y8912860D01*
X5874954Y8963643D01*
X5925738Y8912860D01*
Y9065211D01*
X6078089D02*
X6027305Y9039819D01*
X5976521Y8989035D01*
Y8938252D01*
X6001913Y8912860D01*
X6052697D01*
X6078089Y8938252D01*
Y8963643D01*
X6052697Y8989035D01*
X5976521D01*
X5773387Y10386019D02*
X5747995Y10411411D01*
X5697212D01*
X5671820Y10386019D01*
Y10360627D01*
X5697212Y10335235D01*
X5747995D01*
X5773387Y10309843D01*
Y10284452D01*
X5747995Y10259060D01*
X5697212D01*
X5671820Y10284452D01*
X5824171Y10411411D02*
Y10259060D01*
X5874954Y10309843D01*
X5925738Y10259060D01*
Y10411411D01*
X5976521Y10386019D02*
X6001913Y10411411D01*
X6052697D01*
X6078089Y10386019D01*
Y10360627D01*
X6052697Y10335235D01*
X6027305D01*
X6052697D01*
X6078089Y10309843D01*
Y10284452D01*
X6052697Y10259060D01*
X6001913D01*
X5976521Y10284452D01*
X4477987Y10386019D02*
X4452595Y10411411D01*
X4401812D01*
X4376420Y10386019D01*
Y10360627D01*
X4401812Y10335235D01*
X4452595D01*
X4477987Y10309843D01*
Y10284452D01*
X4452595Y10259060D01*
X4401812D01*
X4376420Y10284452D01*
X4528771Y10411411D02*
Y10259060D01*
X4579554Y10309843D01*
X4630338Y10259060D01*
Y10411411D01*
X4782689Y10259060D02*
X4681121D01*
X4782689Y10360627D01*
Y10386019D01*
X4757297Y10411411D01*
X4706513D01*
X4681121Y10386019D01*
%TF.MD5,a3d59fb6fca212d3bf8e3d503b6e72b3*%
M02*
