G04*
G04 #@! TF.GenerationSoftware,Altium Limited,Altium Designer,24.6.1 (21)*
G04*
G04 Layer_Color=8421504*
%FSLAX44Y44*%
%MOMM*%
G71*
G04*
G04 #@! TF.SameCoordinates,D23E63C9-285A-4218-ADB9-1EE4413D613B*
G04*
G04*
G04 #@! TF.FilePolarity,Positive*
G04*
G01*
G75*
%ADD15R,0.9000X0.9500*%
%ADD16R,0.6500X0.6500*%
%ADD17O,5.0800X2.0320*%
D15*
X853950Y462280D02*
D03*
X822450Y462280D02*
D03*
X662180Y461010D02*
D03*
X630680Y461010D02*
D03*
X466600Y459740D02*
D03*
X435100Y459740D02*
D03*
X855220Y627380D02*
D03*
X823720Y627380D02*
D03*
X659640Y627380D02*
D03*
X628140Y627380D02*
D03*
X466600Y627380D02*
D03*
X435100Y627380D02*
D03*
X462790Y795020D02*
D03*
X431290Y795020D02*
D03*
X660910Y798830D02*
D03*
X629410Y798830D02*
D03*
X851410Y797560D02*
D03*
X819910Y797560D02*
D03*
D16*
X876300Y850820D02*
D03*
Y840820D02*
D03*
X880110Y518160D02*
D03*
Y508160D02*
D03*
Y678100D02*
D03*
Y668100D02*
D03*
D17*
X1132840Y1258993D02*
D03*
X955040Y949113D02*
D03*
Y974937D02*
D03*
Y1000760D02*
D03*
Y1026583D02*
D03*
Y1052407D02*
D03*
Y1078230D02*
D03*
Y1104053D02*
D03*
X953770Y1130723D02*
D03*
X955040Y1155700D02*
D03*
Y1181523D02*
D03*
Y1207347D02*
D03*
Y1233170D02*
D03*
Y1258993D02*
D03*
X1132840Y949113D02*
D03*
Y974937D02*
D03*
Y1000760D02*
D03*
Y1026583D02*
D03*
Y1052407D02*
D03*
Y1078230D02*
D03*
Y1104053D02*
D03*
Y1129877D02*
D03*
Y1155700D02*
D03*
Y1181523D02*
D03*
Y1207347D02*
D03*
Y1233170D02*
D03*
M02*
