G04*
G04 #@! TF.GenerationSoftware,Altium Limited,Altium Designer,24.6.1 (21)*
G04*
G04 Layer_Physical_Order=1*
G04 Layer_Color=255*
%FSLAX44Y44*%
%MOMM*%
G71*
G04*
G04 #@! TF.SameCoordinates,A1155FF5-20E2-49EF-A20C-19287BC56D99*
G04*
G04*
G04 #@! TF.FilePolarity,Positive*
G04*
G01*
G75*
%ADD13C,0.2540*%
%ADD14R,0.6500X0.6500*%
%ADD15O,2.0320X5.0800*%
%ADD21C,2.0320*%
%ADD22R,2.0320X2.0320*%
%ADD24C,1.9000*%
%ADD25R,1.9000X1.9000*%
%ADD26C,2.0000*%
%ADD27C,1.2700*%
D13*
X451336Y1213801D02*
G03*
X456843Y1211731I7558J11749D01*
G01*
Y1211731D02*
X474980Y1209040D01*
X433070Y1225550D02*
X451336Y1213801D01*
X433070Y1225550D02*
Y1240790D01*
X496570Y1029970D02*
X496768Y1040273D01*
Y1041415D01*
X496570Y1044194D02*
X496768Y1041415D01*
X476250Y1022350D02*
Y1025099D01*
X458047Y1043302D02*
X476250Y1025099D01*
X458047Y1043302D02*
Y1061720D01*
X510540Y974090D02*
X513588Y971042D01*
X510540Y974090D02*
Y982726D01*
Y1062990D01*
Y982726D02*
X513588Y979678D01*
X456363Y1008990D02*
X488340D01*
X496570Y1000760D01*
X401694Y1016049D02*
X449304D01*
X456363Y1008990D01*
X381424Y1036320D02*
X401694Y1016049D01*
X484717Y1044194D02*
X496570D01*
X513588Y971042D02*
Y979678D01*
Y807466D02*
Y971042D01*
Y718566D02*
Y807466D01*
X375840Y548640D02*
X411400Y584200D01*
X333756Y570404D02*
Y1010158D01*
Y564134D02*
Y570404D01*
X484717Y1044194D02*
Y1062990D01*
X355520Y548640D02*
X375840D01*
X333756Y570404D02*
X355520Y548640D01*
X315722Y1028192D02*
X333756Y1010158D01*
X352213Y1132501D02*
X381424D01*
X407247Y1106678D01*
X373380Y524510D02*
X762889D01*
X333756Y564134D02*
X373380Y524510D01*
X315722Y1028192D02*
Y1096010D01*
X352213Y1132501D01*
X381424D02*
Y1240790D01*
X407247Y1062990D02*
Y1106678D01*
X381424Y1036320D02*
Y1062990D01*
X355600Y1012190D02*
X367030Y1000760D01*
X355600Y1012190D02*
Y1062990D01*
X367030Y1000760D02*
X384048Y983742D01*
Y881888D02*
Y983742D01*
X367030Y864870D02*
X384048Y881888D01*
X367030Y864870D02*
X384048Y847852D01*
Y745998D02*
Y847852D01*
X367030Y728980D02*
X384048Y745998D01*
X479552Y885698D02*
X496570Y868680D01*
X479552Y885698D02*
Y983742D01*
X496570Y1000760D01*
X479552Y851662D02*
X496570Y868680D01*
X479552Y745998D02*
Y851662D01*
Y745998D02*
X496570Y728980D01*
X609092Y983742D02*
X626110Y1000760D01*
X609092Y883158D02*
Y983742D01*
Y883158D02*
X626110Y866140D01*
X609092Y849122D02*
X626110Y866140D01*
X609092Y745998D02*
Y849122D01*
Y745998D02*
X626110Y728980D01*
X394970Y594280D02*
Y747014D01*
X411480Y594280D02*
X461518Y644318D01*
Y701040D01*
X475996Y715518D01*
X510540D01*
X513588Y718566D01*
X536363Y1036320D02*
Y1062990D01*
Y1036320D02*
X546523Y1026160D01*
X695960D01*
X709930Y1012190D01*
Y626110D02*
Y1012190D01*
X430530Y594280D02*
X678100D01*
X709930Y626110D01*
X411400Y584200D02*
X411480Y584280D01*
X395050Y584200D02*
X411400D01*
X394970Y584280D02*
X395050Y584200D01*
X411480Y584280D02*
X420878Y584280D01*
X430530D01*
X407247Y1062990D02*
X433070D01*
X536363Y1214120D02*
Y1240790D01*
Y1214120D02*
X570907Y1179576D01*
X731520D01*
X762889Y1210945D01*
Y1258570D01*
D14*
X430530Y584280D02*
D03*
Y594280D02*
D03*
X394970Y584280D02*
D03*
Y594280D02*
D03*
X411480Y584280D02*
D03*
Y594280D02*
D03*
D15*
X329777Y1240790D02*
D03*
X639657Y1062990D02*
D03*
X613833D02*
D03*
X588010D02*
D03*
X562187D02*
D03*
X536363D02*
D03*
X510540D02*
D03*
X484717D02*
D03*
X458047Y1061720D02*
D03*
X433070Y1062990D02*
D03*
X407247D02*
D03*
X381424D02*
D03*
X355600D02*
D03*
X329777D02*
D03*
X639657Y1240790D02*
D03*
X613833D02*
D03*
X588010D02*
D03*
X562187D02*
D03*
X536363D02*
D03*
X510540D02*
D03*
X484717D02*
D03*
X458893D02*
D03*
X433070D02*
D03*
X407247D02*
D03*
X381424D02*
D03*
X355600D02*
D03*
D21*
X703580Y1205230D02*
D03*
Y577850D02*
D03*
X787400Y1216660D02*
D03*
Y566420D02*
D03*
X728091Y1258570D02*
D03*
X762889D02*
D03*
D22*
Y524510D02*
D03*
D24*
X316230Y1000760D02*
D03*
X417830D02*
D03*
X316230Y728980D02*
D03*
X417830D02*
D03*
X316230Y864870D02*
D03*
X417830D02*
D03*
X547370Y728980D02*
D03*
X445770D02*
D03*
X676910D02*
D03*
X575310D02*
D03*
X547370Y868680D02*
D03*
X445770D02*
D03*
X676910Y866140D02*
D03*
X575310D02*
D03*
X547370Y1000760D02*
D03*
X445770D02*
D03*
X676910D02*
D03*
X575310D02*
D03*
D25*
X367030D02*
D03*
Y728980D02*
D03*
Y864870D02*
D03*
X496570Y868680D02*
D03*
Y728980D02*
D03*
X626110D02*
D03*
Y866140D02*
D03*
X496570Y1000760D02*
D03*
X626110D02*
D03*
D26*
X367030Y911860D02*
D03*
Y640080D02*
D03*
Y775970D02*
D03*
X496570Y640080D02*
D03*
X626110D02*
D03*
X496570Y779780D02*
D03*
X626110Y777240D02*
D03*
X496570Y911860D02*
D03*
X626110D02*
D03*
D27*
X474980Y1209040D02*
D03*
X496570Y1029970D02*
D03*
X476250Y1022350D02*
D03*
X513588Y807466D02*
D03*
X394970Y747014D02*
D03*
X709930Y626110D02*
D03*
M02*
