%TF.GenerationSoftware,Altium Limited,Altium Designer,24.6.1 (21)*%
G04 Layer_Color=0*
%FSLAX45Y45*%
%MOMM*%
%TF.SameCoordinates,480F301F-7D1D-4A69-AD55-030AC2FBA8A7*%
%TF.FilePolarity,Positive*%
%TF.FileFunction,Plated,1,2,PTH,Drill*%
%TF.Part,Single*%
G01*
G75*
%TA.AperFunction,ComponentDrill*%
%ADD35C,1.52400*%
%ADD36C,1.40000*%
%ADD37C,1.50000*%
%TA.AperFunction,ViaDrill,NotFilled*%
%ADD38C,0.71120*%
D35*
X7035800Y12052300D02*
D03*
Y5778500D02*
D03*
X7874000Y12166600D02*
D03*
Y5664200D02*
D03*
X7280910Y12585700D02*
D03*
X7628890D02*
D03*
Y5245100D02*
D03*
D36*
X4457700Y8686800D02*
D03*
X5473700D02*
D03*
X4965700D02*
D03*
X3162300Y10007600D02*
D03*
X3670300D02*
D03*
X4178300D02*
D03*
X3162300Y7289800D02*
D03*
X3670300D02*
D03*
X4178300D02*
D03*
X3162300Y8648700D02*
D03*
X3670300D02*
D03*
X4178300D02*
D03*
X5473700Y7289800D02*
D03*
X4965700D02*
D03*
X4457700D02*
D03*
X6769100D02*
D03*
X6261100D02*
D03*
X5753100D02*
D03*
X6769100Y8661400D02*
D03*
X6261100D02*
D03*
X5753100D02*
D03*
X5473700Y10007600D02*
D03*
X4965700D02*
D03*
X4457700D02*
D03*
X6769100D02*
D03*
X6261100D02*
D03*
X5753100D02*
D03*
D37*
X4965700Y7797800D02*
D03*
X3670300Y9118600D02*
D03*
Y6400800D02*
D03*
Y7759700D02*
D03*
X4965700Y6400800D02*
D03*
X6261100D02*
D03*
Y7772400D02*
D03*
X4965700Y9118600D02*
D03*
X6261100D02*
D03*
D38*
X4508500Y6126500D02*
D03*
X4749800Y12090400D02*
D03*
X3949700Y7470140D02*
D03*
X5135880Y8074660D02*
D03*
X7099300Y6261100D02*
D03*
%TF.MD5,7cd2e78f88297262457187b41110091b*%
M02*
