G04*
G04 #@! TF.GenerationSoftware,Altium Limited,Altium Designer,24.6.1 (21)*
G04*
G04 Layer_Color=32768*
%FSLAX44Y44*%
%MOMM*%
G71*
G04*
G04 #@! TF.SameCoordinates,736086DD-486C-4D62-845F-A3B091FE1A49*
G04*
G04*
G04 #@! TF.FilePolarity,Positive*
G04*
G01*
G75*
%ADD10C,0.1524*%
%ADD33C,0.1000*%
%ADD34C,0.0500*%
G36*
X697992Y1268730D02*
X715391D01*
Y1271270D01*
X775589D01*
Y1268730D01*
X792988D01*
Y514350D01*
X775589D01*
Y511810D01*
X750189D01*
Y514350D01*
X697992D01*
Y1268730D01*
D02*
G37*
D10*
Y514350D02*
Y1268730D01*
Y514350D02*
X750189D01*
Y511810D02*
Y514350D01*
Y511810D02*
X775589D01*
Y514350D01*
X792988D01*
Y1268730D01*
X775589D02*
X792988D01*
X775589D02*
Y1271270D01*
X715391D02*
X775589D01*
X715391Y1268730D02*
Y1271270D01*
X697992Y1268730D02*
X715391D01*
D33*
X362030Y962660D02*
X372030D01*
X367030Y957660D02*
Y967660D01*
X430530Y586530D02*
Y592030D01*
X427780Y589280D02*
X433280D01*
X670560Y905590D02*
Y915590D01*
X665560Y910590D02*
X675560D01*
X674370Y770970D02*
Y780970D01*
X669370Y775970D02*
X679370D01*
X543560Y905590D02*
Y915590D01*
X538560Y910590D02*
X548560D01*
X416560Y769700D02*
Y779700D01*
X411560Y774700D02*
X421560D01*
X542290Y773510D02*
Y783510D01*
X537290Y778510D02*
X547290D01*
X542290Y633810D02*
Y643810D01*
X537290Y638810D02*
X547290D01*
X416560Y905590D02*
Y915590D01*
X411560Y910590D02*
X421560D01*
X417830Y632540D02*
Y642540D01*
X412830Y637540D02*
X422830D01*
X671830Y632540D02*
Y642540D01*
X666830Y637540D02*
X676830D01*
X362030Y690880D02*
X372030D01*
X367030Y685880D02*
Y695880D01*
X362030Y826770D02*
X372030D01*
X367030Y821770D02*
Y831770D01*
X394970Y586530D02*
Y592030D01*
X392220Y589280D02*
X397720D01*
X411480Y586530D02*
Y592030D01*
X408730Y589280D02*
X414230D01*
X496570Y685880D02*
Y695880D01*
X491570Y690880D02*
X501570D01*
X626110Y685880D02*
Y695880D01*
X621110Y690880D02*
X631110D01*
X496570Y825580D02*
Y835580D01*
X491570Y830580D02*
X501570D01*
X626110Y823040D02*
Y833040D01*
X621110Y828040D02*
X631110D01*
X496570Y957660D02*
Y967660D01*
X491570Y962660D02*
X501570D01*
X626110Y957660D02*
Y967660D01*
X621110Y962660D02*
X631110D01*
D34*
X305730Y894660D02*
Y1011260D01*
X428330D01*
Y894660D02*
Y1011260D01*
X305730Y894660D02*
X428330D01*
X425030Y578780D02*
X436030D01*
X425030Y599780D02*
X436030D01*
X425030Y578780D02*
Y599780D01*
X436030Y578780D02*
Y599780D01*
X649310Y901840D02*
Y919340D01*
X691810D01*
Y901840D02*
Y919340D01*
X649310Y901840D02*
X691810D01*
X653120Y767220D02*
Y784720D01*
X695620D01*
Y767220D02*
Y784720D01*
X653120Y767220D02*
X695620D01*
X522310Y901840D02*
Y919340D01*
X564810D01*
Y901840D02*
Y919340D01*
X522310Y901840D02*
X564810D01*
X395310Y765950D02*
Y783450D01*
X437810D01*
Y765950D02*
Y783450D01*
X395310Y765950D02*
X437810D01*
X521040Y769760D02*
Y787260D01*
X563540D01*
Y769760D02*
Y787260D01*
X521040Y769760D02*
X563540D01*
X521040Y630060D02*
Y647560D01*
X563540D01*
Y630060D02*
Y647560D01*
X521040Y630060D02*
X563540D01*
X395310Y901840D02*
Y919340D01*
X437810D01*
Y901840D02*
Y919340D01*
X395310Y901840D02*
X437810D01*
X396580Y628790D02*
Y646290D01*
X439080D01*
Y628790D02*
Y646290D01*
X396580Y628790D02*
X439080D01*
X650580D02*
Y646290D01*
X693080D01*
Y628790D02*
Y646290D01*
X650580Y628790D02*
X693080D01*
X305730Y622880D02*
Y739480D01*
X428330D01*
Y622880D02*
Y739480D01*
X305730Y622880D02*
X428330D01*
X305730Y758770D02*
Y875370D01*
X428330D01*
Y758770D02*
Y875370D01*
X305730Y758770D02*
X428330D01*
X389470Y578780D02*
X400470D01*
X389470Y599780D02*
X400470D01*
X389470Y578780D02*
Y599780D01*
X400470Y578780D02*
Y599780D01*
X405980Y578780D02*
X416980D01*
X405980Y599780D02*
X416980D01*
X405980Y578780D02*
Y599780D01*
X416980Y578780D02*
Y599780D01*
X435270Y622880D02*
X557870D01*
Y739480D01*
X435270D02*
X557870D01*
X435270Y622880D02*
Y739480D01*
X564810Y622880D02*
X687410D01*
Y739480D01*
X564810D02*
X687410D01*
X564810Y622880D02*
Y739480D01*
X435270Y762580D02*
X557870D01*
Y879180D01*
X435270D02*
X557870D01*
X435270Y762580D02*
Y879180D01*
X564810Y760040D02*
X687410D01*
Y876640D01*
X564810D02*
X687410D01*
X564810Y760040D02*
Y876640D01*
X435270Y894660D02*
X557870D01*
Y1011260D01*
X435270D02*
X557870D01*
X435270Y894660D02*
Y1011260D01*
X564810Y894660D02*
X687410D01*
Y1011260D01*
X564810D02*
X687410D01*
X564810Y894660D02*
Y1011260D01*
M02*
