G04*
G04 #@! TF.GenerationSoftware,Altium Limited,Altium Designer,24.6.1 (21)*
G04*
G04 Layer_Color=8421504*
%FSLAX44Y44*%
%MOMM*%
G71*
G04*
G04 #@! TF.SameCoordinates,736086DD-486C-4D62-845F-A3B091FE1A49*
G04*
G04*
G04 #@! TF.FilePolarity,Positive*
G04*
G01*
G75*
%ADD14O,2.0320X5.0800*%
%ADD15R,0.6500X0.6500*%
D14*
X329777Y1240790D02*
D03*
X639657Y1062990D02*
D03*
X613833D02*
D03*
X588010D02*
D03*
X562187D02*
D03*
X536363D02*
D03*
X510540D02*
D03*
X484717D02*
D03*
X458047Y1061720D02*
D03*
X433070Y1062990D02*
D03*
X407247D02*
D03*
X381424D02*
D03*
X355600D02*
D03*
X329777D02*
D03*
X639657Y1240790D02*
D03*
X613833D02*
D03*
X588010D02*
D03*
X562187D02*
D03*
X536363D02*
D03*
X510540D02*
D03*
X484717D02*
D03*
X458893D02*
D03*
X433070D02*
D03*
X407247D02*
D03*
X381424D02*
D03*
X355600D02*
D03*
D15*
X430530Y584280D02*
D03*
Y594280D02*
D03*
X394970Y584280D02*
D03*
Y594280D02*
D03*
X411480Y584280D02*
D03*
Y594280D02*
D03*
M02*
