G04*
G04 #@! TF.GenerationSoftware,Altium Limited,Altium Designer,24.6.1 (21)*
G04*
G04 Layer_Physical_Order=1*
G04 Layer_Color=255*
%FSLAX44Y44*%
%MOMM*%
G71*
G04*
G04 #@! TF.SameCoordinates,D23E63C9-285A-4218-ADB9-1EE4413D613B*
G04*
G04*
G04 #@! TF.FilePolarity,Positive*
G04*
G01*
G75*
%ADD13C,0.2540*%
%ADD15R,0.9000X0.9500*%
%ADD16R,0.6500X0.6500*%
%ADD17O,5.0800X2.0320*%
%ADD21C,2.0320*%
%ADD22R,2.0320X2.0320*%
%ADD27R,1.9000X1.9000*%
%ADD28C,2.0000*%
%ADD29C,1.9000*%
%ADD30C,1.2700*%
D13*
X876300Y850820D02*
Y868680D01*
X798830Y818890D02*
X819910Y797810D01*
X798830Y818890D02*
Y839470D01*
X896620Y1035050D02*
X939800Y1078230D01*
X901700Y510280D02*
Y1014307D01*
X877065Y823465D02*
X891540Y837940D01*
Y1055793D01*
X939800Y1104053D01*
X901700Y1014307D02*
X939800Y1052407D01*
X880110Y652520D02*
X896620Y669030D01*
X880875Y489455D02*
X901700Y510280D01*
X896620Y669030D02*
Y1035050D01*
X878840Y697230D02*
X879475Y696595D01*
Y678735D02*
Y696595D01*
Y518795D02*
Y537845D01*
Y518795D02*
X880110Y518160D01*
X878840Y538480D02*
X879475Y537845D01*
X605790Y928370D02*
X884767Y1207347D01*
X955040D01*
X798830Y991023D02*
X938530Y1130723D01*
X953770D01*
X798830Y928370D02*
Y991023D01*
X1090083Y1179830D02*
X1117600Y1207347D01*
X1032510Y1179830D02*
X1090083D01*
X1117600Y1207347D02*
X1132840D01*
X1031663Y1180677D02*
X1032510Y1179830D01*
X955040Y1181523D02*
X955887Y1180677D01*
X1031663D01*
X955040Y1155700D02*
X1008380D01*
X1032510Y1179830D01*
X1263269Y1108329D02*
Y1170940D01*
X1207347Y1052407D02*
X1263269Y1108329D01*
X1132840Y1052407D02*
X1207347D01*
X1213231Y1155700D02*
X1228471Y1170940D01*
X1132840Y1155700D02*
X1213231D01*
X641350Y1230630D02*
X952500D01*
X392430Y981710D02*
X641350Y1230630D01*
X952500D02*
X955040Y1233170D01*
X879475Y678735D02*
X880110Y678100D01*
X798830Y486150D02*
X822450Y462530D01*
X798830Y486150D02*
Y504190D01*
X412750Y482340D02*
X435100Y459990D01*
X605790Y486150D02*
X630680Y461260D01*
X605790Y486150D02*
Y504190D01*
X855220Y627630D02*
X880110Y652520D01*
X855220Y627130D02*
Y627380D01*
X880110Y652520D02*
Y668100D01*
X855220Y627380D02*
Y627630D01*
X675640Y610870D02*
X838710D01*
X483110D02*
X675640D01*
X853950Y462530D02*
X880875Y489455D01*
X880110Y490220D02*
X880875Y489455D01*
X880110Y490220D02*
Y508160D01*
X851410Y797810D02*
X877065Y823465D01*
X876300Y824230D02*
X877065Y823465D01*
X876300Y824230D02*
Y840820D01*
X853950Y462280D02*
Y462530D01*
Y462030D02*
Y462280D01*
X955040Y1181523D02*
X970280D01*
X679450Y779780D02*
X833630D01*
X478030D02*
X679450D01*
X660910Y798580D02*
X679450Y780040D01*
Y779780D02*
Y780040D01*
X660910Y798580D02*
Y798830D01*
X392430Y948690D02*
Y981710D01*
Y781050D02*
Y948690D01*
X412750Y928370D01*
X392430Y613410D02*
Y781050D01*
X412750Y760730D01*
X392430Y613410D02*
X412750Y593090D01*
X605790Y822700D02*
X629410Y799080D01*
X605790Y822700D02*
Y839470D01*
X629410Y798830D02*
Y799080D01*
X819910Y797560D02*
Y797810D01*
X798830Y652520D02*
X823720Y627630D01*
Y627380D02*
Y627630D01*
X798830Y652520D02*
Y671830D01*
X605790Y649980D02*
Y671830D01*
X628140Y627380D02*
Y627630D01*
X605790Y649980D02*
X628140Y627630D01*
X412750Y649980D02*
Y671830D01*
Y649980D02*
X435100Y627630D01*
Y627380D02*
Y627630D01*
X412750Y813810D02*
X431290Y795270D01*
X412750Y813810D02*
Y839470D01*
X431290Y795020D02*
Y795270D01*
X462790Y794770D02*
X466020Y791540D01*
X466270D01*
X462790Y794770D02*
Y795020D01*
X466270Y791540D02*
X478030Y779780D01*
X851410Y797310D02*
Y797560D01*
X848180Y794080D02*
X851410Y797310D01*
X847930Y794080D02*
X848180D01*
X833630Y779780D02*
X847930Y794080D01*
X659640Y627130D02*
X675640Y611130D01*
X659640Y627130D02*
Y627380D01*
X675640Y610870D02*
Y611130D01*
X470080Y623900D02*
X483110Y610870D01*
X466600Y627130D02*
Y627380D01*
Y627130D02*
X469830Y623900D01*
X470080D01*
X851990D02*
X855220Y627130D01*
X851740Y623900D02*
X851990D01*
X838710Y610870D02*
X851740Y623900D01*
X939800Y1104053D02*
X955040D01*
X851410Y797560D02*
Y797810D01*
X939800Y1078230D02*
X955040D01*
X939800Y1052407D02*
X955040D01*
X850720Y458800D02*
X853950Y462030D01*
X850470Y458800D02*
X850720D01*
X836170Y444500D02*
X850470Y458800D01*
X678180Y444500D02*
X836170D01*
X822450Y462280D02*
Y462530D01*
X412750Y482340D02*
Y504190D01*
X435100Y459740D02*
Y459990D01*
X630680Y461010D02*
Y461260D01*
X481840Y444500D02*
X678180D01*
Y444760D01*
X662180Y460760D02*
Y461010D01*
Y460760D02*
X678180Y444760D01*
X466600Y459490D02*
X469830Y456260D01*
X470080D01*
X481840Y444500D01*
X466600Y459490D02*
Y459740D01*
D15*
X853950Y462280D02*
D03*
X822450Y462280D02*
D03*
X662180Y461010D02*
D03*
X630680Y461010D02*
D03*
X466600Y459740D02*
D03*
X435100Y459740D02*
D03*
X855220Y627380D02*
D03*
X823720Y627380D02*
D03*
X659640Y627380D02*
D03*
X628140Y627380D02*
D03*
X466600Y627380D02*
D03*
X435100Y627380D02*
D03*
X462790Y795020D02*
D03*
X431290Y795020D02*
D03*
X660910Y798830D02*
D03*
X629410Y798830D02*
D03*
X851410Y797560D02*
D03*
X819910Y797560D02*
D03*
D16*
X876300Y850820D02*
D03*
Y840820D02*
D03*
X880110Y518160D02*
D03*
Y508160D02*
D03*
Y678100D02*
D03*
Y668100D02*
D03*
D17*
X1132840Y1258993D02*
D03*
X955040Y949113D02*
D03*
Y974937D02*
D03*
Y1000760D02*
D03*
Y1026583D02*
D03*
Y1052407D02*
D03*
Y1078230D02*
D03*
Y1104053D02*
D03*
X953770Y1130723D02*
D03*
X955040Y1155700D02*
D03*
Y1181523D02*
D03*
Y1207347D02*
D03*
Y1233170D02*
D03*
Y1258993D02*
D03*
X1132840Y949113D02*
D03*
Y974937D02*
D03*
Y1000760D02*
D03*
Y1026583D02*
D03*
Y1052407D02*
D03*
Y1078230D02*
D03*
Y1104053D02*
D03*
Y1129877D02*
D03*
Y1155700D02*
D03*
Y1181523D02*
D03*
Y1207347D02*
D03*
Y1233170D02*
D03*
D21*
X1203960Y1117600D02*
D03*
Y490220D02*
D03*
X1287780Y1129030D02*
D03*
Y478790D02*
D03*
X1228471Y1170940D02*
D03*
X1263269D02*
D03*
D22*
Y436880D02*
D03*
D27*
X605790Y760730D02*
D03*
X412750Y593090D02*
D03*
X605790D02*
D03*
X798830D02*
D03*
X412750Y760730D02*
D03*
X798830D02*
D03*
X412750Y928370D02*
D03*
X605790D02*
D03*
X798830D02*
D03*
D28*
X412750Y504190D02*
D03*
X605790D02*
D03*
X798830D02*
D03*
X412750Y671830D02*
D03*
X605790D02*
D03*
X798830D02*
D03*
X412750Y839470D02*
D03*
X605790D02*
D03*
X798830D02*
D03*
D29*
X463550Y593090D02*
D03*
X361950D02*
D03*
X656590D02*
D03*
X554990D02*
D03*
X849630D02*
D03*
X748030D02*
D03*
X463550Y760730D02*
D03*
X361950D02*
D03*
X656590D02*
D03*
X554990D02*
D03*
X849630D02*
D03*
X748030D02*
D03*
X463550Y928370D02*
D03*
X361950D02*
D03*
X656590D02*
D03*
X554990D02*
D03*
X849630D02*
D03*
X748030D02*
D03*
D30*
X876300Y868680D02*
D03*
X878840Y697230D02*
D03*
Y538480D02*
D03*
X1032510Y1179830D02*
D03*
M02*
