%TF.GenerationSoftware,Altium Limited,Altium Designer,24.6.1 (21)*%
G04 Layer_Color=8421504*
%FSLAX45Y45*%
%MOMM*%
%TF.SameCoordinates,480F301F-7D1D-4A69-AD55-030AC2FBA8A7*%
%TF.FilePolarity,Positive*%
%TF.FileFunction,Paste,Top*%
%TF.Part,Single*%
G01*
G75*
%TA.AperFunction,SMDPad,CuDef*%
%ADD11O,2.03200X5.08000*%
%ADD12R,0.65000X0.65000*%
D11*
X3297768Y12407900D02*
D03*
X6396568Y10629900D02*
D03*
X6138332D02*
D03*
X5880100D02*
D03*
X5621868D02*
D03*
X5363632D02*
D03*
X5105400D02*
D03*
X4847168D02*
D03*
X4580468Y10617200D02*
D03*
X4330700Y10629900D02*
D03*
X4072468D02*
D03*
X3814237D02*
D03*
X3556000D02*
D03*
X3297768D02*
D03*
X6396568Y12407900D02*
D03*
X6138332D02*
D03*
X5880100D02*
D03*
X5621868D02*
D03*
X5363632D02*
D03*
X5105400D02*
D03*
X4847168D02*
D03*
X4588932D02*
D03*
X4330700D02*
D03*
X4072468D02*
D03*
X3814237D02*
D03*
X3556000D02*
D03*
D12*
X4508500Y5842803D02*
D03*
Y5942802D02*
D03*
X3784600Y5842803D02*
D03*
Y5942802D02*
D03*
X4114800Y5842798D02*
D03*
Y5942802D02*
D03*
%TF.MD5,71f744e17d73456796bc431408ff5922*%
M02*
