G04*
G04 #@! TF.GenerationSoftware,Altium Limited,Altium Designer,24.6.1 (21)*
G04*
G04 Layer_Color=16711935*
%FSLAX44Y44*%
%MOMM*%
G71*
G04*
G04 #@! TF.SameCoordinates,D23E63C9-285A-4218-ADB9-1EE4413D613B*
G04*
G04*
G04 #@! TF.FilePolarity,Negative*
G04*
G01*
G75*
%ADD21C,2.0320*%
%ADD22R,2.0320X2.0320*%
%ADD23R,2.1032X2.1032*%
%ADD24C,2.2032*%
%ADD25C,2.1032*%
%ADD26C,1.4732*%
D21*
X1203960Y1117600D02*
D03*
Y490220D02*
D03*
X1287780Y1129030D02*
D03*
Y478790D02*
D03*
X1228471Y1170940D02*
D03*
X1263269D02*
D03*
D22*
Y436880D02*
D03*
D23*
X605790Y760730D02*
D03*
X412750Y593090D02*
D03*
X605790D02*
D03*
X798830D02*
D03*
X412750Y760730D02*
D03*
X798830D02*
D03*
X412750Y928370D02*
D03*
X605790D02*
D03*
X798830D02*
D03*
D24*
X412750Y504190D02*
D03*
X605790D02*
D03*
X798830D02*
D03*
X412750Y671830D02*
D03*
X605790D02*
D03*
X798830D02*
D03*
X412750Y839470D02*
D03*
X605790D02*
D03*
X798830D02*
D03*
D25*
X463550Y593090D02*
D03*
X361950D02*
D03*
X656590D02*
D03*
X554990D02*
D03*
X849630D02*
D03*
X748030D02*
D03*
X463550Y760730D02*
D03*
X361950D02*
D03*
X656590D02*
D03*
X554990D02*
D03*
X849630D02*
D03*
X748030D02*
D03*
X463550Y928370D02*
D03*
X361950D02*
D03*
X656590D02*
D03*
X554990D02*
D03*
X849630D02*
D03*
X748030D02*
D03*
D26*
X876300Y868680D02*
D03*
X878840Y697230D02*
D03*
Y538480D02*
D03*
X1032510Y1179830D02*
D03*
M02*
