G04*
G04 #@! TF.GenerationSoftware,Altium Limited,Altium Designer,24.6.1 (21)*
G04*
G04 Layer_Color=65535*
%FSLAX44Y44*%
%MOMM*%
G71*
G04*
G04 #@! TF.SameCoordinates,D23E63C9-285A-4218-ADB9-1EE4413D613B*
G04*
G04*
G04 #@! TF.FilePolarity,Positive*
G04*
G01*
G75*
%ADD10C,0.1524*%
%ADD11C,0.2500*%
%ADD12C,0.2000*%
%ADD13C,0.2540*%
%ADD14R,0.5080X1.5870*%
D10*
X1264539Y416560D02*
G03*
X1264539Y416560I-1270J0D01*
G01*
X1199642Y427990D02*
Y477443D01*
X1292098Y1141807D02*
Y1179830D01*
Y491567D02*
Y1116253D01*
X1199642Y1179830D02*
X1218328D01*
X1238614D02*
X1253126D01*
X1276756Y427990D02*
X1292098D01*
Y466012D01*
X1199642Y427990D02*
X1249782D01*
X1199642Y1130378D02*
Y1179830D01*
X1273412D02*
X1292098D01*
X1199642Y502998D02*
Y1104822D01*
D11*
X414000Y608090D02*
G03*
X414000Y608090I-1250J0D01*
G01*
X607040D02*
G03*
X607040Y608090I-1250J0D01*
G01*
X800080D02*
G03*
X800080Y608090I-1250J0D01*
G01*
X414000Y775730D02*
G03*
X414000Y775730I-1250J0D01*
G01*
X607040D02*
G03*
X607040Y775730I-1250J0D01*
G01*
X800080D02*
G03*
X800080Y775730I-1250J0D01*
G01*
X414000Y943370D02*
G03*
X414000Y943370I-1250J0D01*
G01*
X607040D02*
G03*
X607040Y943370I-1250J0D01*
G01*
X800080D02*
G03*
X800080Y943370I-1250J0D01*
G01*
D12*
X831850Y470030D02*
X844550D01*
X831850Y454530D02*
X844550D01*
Y470030D01*
X640080Y468760D02*
X652780D01*
X640080Y453260D02*
X652780D01*
Y468760D01*
X444500Y467490D02*
X457200D01*
X444500Y451990D02*
X457200D01*
Y467490D01*
X833120Y635130D02*
X845820D01*
X833120Y619630D02*
X845820D01*
Y635130D01*
X637540D02*
X650240D01*
X637540Y619630D02*
X650240D01*
Y635130D01*
X444500D02*
X457200D01*
X444500Y619630D02*
X457200D01*
Y635130D01*
X440690Y802770D02*
X453390D01*
X440690Y787270D02*
X453390D01*
Y802770D01*
X638810Y806580D02*
X651510D01*
X638810Y791080D02*
X651510D01*
Y806580D01*
X829310Y805310D02*
X842010D01*
X829310Y789810D02*
X842010D01*
Y805310D01*
X472750Y561890D02*
X472753Y583217D01*
X472750Y487990D02*
Y548090D01*
X426250Y601980D02*
X453400Y601990D01*
X352750Y487990D02*
X472750D01*
X352750D02*
Y548090D01*
X372100Y601990D02*
X399250D01*
X352750Y561890D02*
Y583220D01*
X665790Y561890D02*
X665793Y583217D01*
X665790Y487990D02*
Y548090D01*
X619290Y601980D02*
X646440Y601990D01*
X545790Y487990D02*
X665790D01*
X545790D02*
Y548090D01*
X565140Y601990D02*
X592290D01*
X545790Y561890D02*
Y583220D01*
X858830Y561890D02*
X858833Y583217D01*
X858830Y487990D02*
Y548090D01*
X812330Y601980D02*
X839480Y601990D01*
X738830Y487990D02*
X858830D01*
X738830D02*
Y548090D01*
X758180Y601990D02*
X785330D01*
X738830Y561890D02*
Y583220D01*
X472750Y729530D02*
X472753Y750857D01*
X472750Y655630D02*
Y715730D01*
X426250Y769620D02*
X453400Y769630D01*
X352750Y655630D02*
X472750D01*
X352750D02*
Y715730D01*
X372100Y769630D02*
X399250D01*
X352750Y729530D02*
Y750860D01*
X665790Y729530D02*
X665793Y750857D01*
X665790Y655630D02*
Y715730D01*
X619290Y769620D02*
X646440Y769630D01*
X545790Y655630D02*
X665790D01*
X545790D02*
Y715730D01*
X565140Y769630D02*
X592290D01*
X545790Y729530D02*
Y750860D01*
X858830Y729530D02*
X858833Y750857D01*
X858830Y655630D02*
Y715730D01*
X812330Y769620D02*
X839480Y769630D01*
X738830Y655630D02*
X858830D01*
X738830D02*
Y715730D01*
X758180Y769630D02*
X785330D01*
X738830Y729530D02*
Y750860D01*
X472750Y897170D02*
X472753Y918497D01*
X472750Y823270D02*
Y883370D01*
X426250Y937260D02*
X453400Y937270D01*
X352750Y823270D02*
X472750D01*
X352750D02*
Y883370D01*
X372100Y937270D02*
X399250D01*
X352750Y897170D02*
Y918500D01*
X665790Y897170D02*
X665793Y918497D01*
X665790Y823270D02*
Y883370D01*
X619290Y937260D02*
X646440Y937270D01*
X545790Y823270D02*
X665790D01*
X545790D02*
Y883370D01*
X565140Y937270D02*
X592290D01*
X545790Y897170D02*
Y918500D01*
X858830Y897170D02*
X858833Y918497D01*
X858830Y823270D02*
Y883370D01*
X812330Y937260D02*
X839480Y937270D01*
X738830Y823270D02*
X858830D01*
X738830D02*
Y883370D01*
X758180Y937270D02*
X785330D01*
X738830Y897170D02*
Y918500D01*
D13*
X868684Y468628D02*
Y453392D01*
X876302D01*
X878841Y455932D01*
Y466088D01*
X876302Y468628D01*
X868684D01*
X883919Y455932D02*
X886458Y453392D01*
X891537D01*
X894076Y455932D01*
Y466088D01*
X891537Y468628D01*
X886458D01*
X883919Y466088D01*
Y463549D01*
X886458Y461010D01*
X894076D01*
X675644Y468628D02*
Y453392D01*
X683262D01*
X685801Y455932D01*
Y466088D01*
X683262Y468628D01*
X675644D01*
X690879Y466088D02*
X693418Y468628D01*
X698497D01*
X701036Y466088D01*
Y463549D01*
X698497Y461010D01*
X701036Y458471D01*
Y455932D01*
X698497Y453392D01*
X693418D01*
X690879Y455932D01*
Y458471D01*
X693418Y461010D01*
X690879Y463549D01*
Y466088D01*
X693418Y461010D02*
X698497D01*
X482604Y466087D02*
Y450853D01*
X490222D01*
X492761Y453392D01*
Y463548D01*
X490222Y466087D01*
X482604D01*
X497839D02*
X507996D01*
Y463548D01*
X497839Y453392D01*
Y450853D01*
X867414Y634997D02*
Y619762D01*
X875032D01*
X877571Y622302D01*
Y632458D01*
X875032Y634997D01*
X867414D01*
X892806D02*
X887728Y632458D01*
X882649Y627380D01*
Y622302D01*
X885188Y619762D01*
X890267D01*
X892806Y622302D01*
Y624841D01*
X890267Y627380D01*
X882649D01*
X675644Y636268D02*
Y621032D01*
X683262D01*
X685801Y623572D01*
Y633728D01*
X683262Y636268D01*
X675644D01*
X701036D02*
X690879D01*
Y628650D01*
X695957Y631189D01*
X698497D01*
X701036Y628650D01*
Y623572D01*
X698497Y621032D01*
X693418D01*
X690879Y623572D01*
X482604Y636268D02*
Y621032D01*
X490222D01*
X492761Y623572D01*
Y633728D01*
X490222Y636268D01*
X482604D01*
X505457Y621032D02*
Y636268D01*
X497839Y628650D01*
X507996D01*
X483873Y802637D02*
Y787402D01*
X491491D01*
X494030Y789942D01*
Y800098D01*
X491491Y802637D01*
X483873D01*
X499108Y787402D02*
X504187D01*
X501648D01*
Y802637D01*
X499108Y800098D01*
X681994Y803907D02*
Y788672D01*
X689612D01*
X692151Y791212D01*
Y801368D01*
X689612Y803907D01*
X681994D01*
X707386Y788672D02*
X697229D01*
X707386Y798829D01*
Y801368D01*
X704847Y803907D01*
X699768D01*
X697229Y801368D01*
X864874Y803907D02*
Y788672D01*
X872492D01*
X875031Y791212D01*
Y801368D01*
X872492Y803907D01*
X864874D01*
X880109Y801368D02*
X882648Y803907D01*
X887727D01*
X890266Y801368D01*
Y798829D01*
X887727Y796290D01*
X885188D01*
X887727D01*
X890266Y793751D01*
Y791212D01*
X887727Y788672D01*
X882648D01*
X880109Y791212D01*
X894084Y839473D02*
Y854707D01*
X901702D01*
X904241Y852168D01*
Y847090D01*
X901702Y844551D01*
X894084D01*
X899163D02*
X904241Y839473D01*
X919476D02*
X909319D01*
X919476Y849629D01*
Y852168D01*
X916937Y854707D01*
X911858D01*
X909319Y852168D01*
X890274Y506732D02*
Y521968D01*
X897892D01*
X900431Y519428D01*
Y514350D01*
X897892Y511811D01*
X890274D01*
X895352D02*
X900431Y506732D01*
X913127D02*
Y521968D01*
X905509Y514350D01*
X915666D01*
X890274Y674372D02*
Y689607D01*
X897892D01*
X900431Y687068D01*
Y681990D01*
X897892Y679451D01*
X890274D01*
X895352D02*
X900431Y674372D01*
X905509Y687068D02*
X908048Y689607D01*
X913127D01*
X915666Y687068D01*
Y684529D01*
X913127Y681990D01*
X910587D01*
X913127D01*
X915666Y679451D01*
Y676912D01*
X913127Y674372D01*
X908048D01*
X905509Y676912D01*
X929894Y1304031D02*
Y1291335D01*
X932433Y1288796D01*
X937512D01*
X940051Y1291335D01*
Y1304031D01*
X945129Y1288796D02*
X950207D01*
X947668D01*
Y1304031D01*
X945129Y1301492D01*
X1196340Y1192022D02*
Y1207257D01*
X1203958D01*
X1206497Y1204718D01*
Y1199640D01*
X1203958Y1197100D01*
X1196340D01*
X1201418D02*
X1206497Y1192022D01*
X1211575D02*
X1216653D01*
X1214114D01*
Y1207257D01*
X1211575Y1204718D01*
X750059Y630932D02*
X747520Y633471D01*
X742441D01*
X739902Y630932D01*
Y628393D01*
X742441Y625854D01*
X747520D01*
X750059Y623314D01*
Y620775D01*
X747520Y618236D01*
X742441D01*
X739902Y620775D01*
X755137Y633471D02*
Y618236D01*
X760215Y623314D01*
X765294Y618236D01*
Y633471D01*
X770372Y620775D02*
X772911Y618236D01*
X777990D01*
X780529Y620775D01*
Y630932D01*
X777990Y633471D01*
X772911D01*
X770372Y630932D01*
Y628393D01*
X772911Y625854D01*
X780529D01*
X557019Y630932D02*
X554479Y633471D01*
X549401D01*
X546862Y630932D01*
Y628393D01*
X549401Y625854D01*
X554479D01*
X557019Y623314D01*
Y620775D01*
X554479Y618236D01*
X549401D01*
X546862Y620775D01*
X562097Y633471D02*
Y618236D01*
X567175Y623314D01*
X572254Y618236D01*
Y633471D01*
X577332Y630932D02*
X579871Y633471D01*
X584950D01*
X587489Y630932D01*
Y628393D01*
X584950Y625854D01*
X587489Y623314D01*
Y620775D01*
X584950Y618236D01*
X579871D01*
X577332Y620775D01*
Y623314D01*
X579871Y625854D01*
X577332Y628393D01*
Y630932D01*
X579871Y625854D02*
X584950D01*
X363979Y630932D02*
X361440Y633471D01*
X356361D01*
X353822Y630932D01*
Y628393D01*
X356361Y625854D01*
X361440D01*
X363979Y623314D01*
Y620775D01*
X361440Y618236D01*
X356361D01*
X353822Y620775D01*
X369057Y633471D02*
Y618236D01*
X374135Y623314D01*
X379214Y618236D01*
Y633471D01*
X384292D02*
X394449D01*
Y630932D01*
X384292Y620775D01*
Y618236D01*
X750059Y798572D02*
X747520Y801111D01*
X742441D01*
X739902Y798572D01*
Y796033D01*
X742441Y793493D01*
X747520D01*
X750059Y790954D01*
Y788415D01*
X747520Y785876D01*
X742441D01*
X739902Y788415D01*
X755137Y801111D02*
Y785876D01*
X760215Y790954D01*
X765294Y785876D01*
Y801111D01*
X780529D02*
X775451Y798572D01*
X770372Y793493D01*
Y788415D01*
X772911Y785876D01*
X777990D01*
X780529Y788415D01*
Y790954D01*
X777990Y793493D01*
X770372D01*
X557019Y798572D02*
X554479Y801111D01*
X549401D01*
X546862Y798572D01*
Y796033D01*
X549401Y793493D01*
X554479D01*
X557019Y790954D01*
Y788415D01*
X554479Y785876D01*
X549401D01*
X546862Y788415D01*
X562097Y801111D02*
Y785876D01*
X567175Y790954D01*
X572254Y785876D01*
Y801111D01*
X587489D02*
X577332D01*
Y793493D01*
X582411Y796033D01*
X584950D01*
X587489Y793493D01*
Y788415D01*
X584950Y785876D01*
X579871D01*
X577332Y788415D01*
X363979Y798572D02*
X361440Y801111D01*
X356361D01*
X353822Y798572D01*
Y796033D01*
X356361Y793493D01*
X361440D01*
X363979Y790954D01*
Y788415D01*
X361440Y785876D01*
X356361D01*
X353822Y788415D01*
X369057Y801111D02*
Y785876D01*
X374135Y790954D01*
X379214Y785876D01*
Y801111D01*
X391910Y785876D02*
Y801111D01*
X384292Y793493D01*
X394449D01*
X750059Y966212D02*
X747520Y968751D01*
X742441D01*
X739902Y966212D01*
Y963673D01*
X742441Y961133D01*
X747520D01*
X750059Y958594D01*
Y956055D01*
X747520Y953516D01*
X742441D01*
X739902Y956055D01*
X755137Y968751D02*
Y953516D01*
X760215Y958594D01*
X765294Y953516D01*
Y968751D01*
X770372Y966212D02*
X772911Y968751D01*
X777990D01*
X780529Y966212D01*
Y963673D01*
X777990Y961133D01*
X775451D01*
X777990D01*
X780529Y958594D01*
Y956055D01*
X777990Y953516D01*
X772911D01*
X770372Y956055D01*
X557019Y966212D02*
X554479Y968751D01*
X549401D01*
X546862Y966212D01*
Y963673D01*
X549401Y961133D01*
X554479D01*
X557019Y958594D01*
Y956055D01*
X554479Y953516D01*
X549401D01*
X546862Y956055D01*
X562097Y968751D02*
Y953516D01*
X567175Y958594D01*
X572254Y953516D01*
Y968751D01*
X587489Y953516D02*
X577332D01*
X587489Y963673D01*
Y966212D01*
X584950Y968751D01*
X579871D01*
X577332Y966212D01*
X363979D02*
X361440Y968751D01*
X356361D01*
X353822Y966212D01*
Y963673D01*
X356361Y961133D01*
X361440D01*
X363979Y958594D01*
Y956055D01*
X361440Y953516D01*
X356361D01*
X353822Y956055D01*
X369057Y968751D02*
Y953516D01*
X374135Y958594D01*
X379214Y953516D01*
Y968751D01*
X384292Y953516D02*
X389370D01*
X386831D01*
Y968751D01*
X384292Y966212D01*
D14*
X842010Y461965D02*
D03*
X650240Y460695D02*
D03*
X454660Y459425D02*
D03*
X843280Y627065D02*
D03*
X647700D02*
D03*
X454660D02*
D03*
X450850Y794705D02*
D03*
X648970Y798515D02*
D03*
X839470Y797245D02*
D03*
M02*
