G04*
G04 #@! TF.GenerationSoftware,Altium Limited,Altium Designer,24.6.1 (21)*
G04*
G04 Layer_Physical_Order=2*
G04 Layer_Color=16711680*
%FSLAX44Y44*%
%MOMM*%
G71*
G04*
G04 #@! TF.SameCoordinates,736086DD-486C-4D62-845F-A3B091FE1A49*
G04*
G04*
G04 #@! TF.FilePolarity,Positive*
G04*
G01*
G75*
%ADD13C,0.2540*%
%ADD18C,2.0320*%
%ADD19R,2.0320X2.0320*%
%ADD24C,1.9000*%
%ADD25R,1.9000X1.9000*%
%ADD26C,2.0000*%
%ADD27C,1.2700*%
%ADD28R,0.9000X0.9500*%
D13*
X474980Y1209040D02*
X524510Y1258570D01*
X728091D01*
X494626Y1031914D02*
X496570Y1029970D01*
X493776Y1037082D02*
X494626Y1036232D01*
Y1031914D02*
Y1036232D01*
X476614Y1037082D02*
X493776D01*
X487062Y1022350D02*
X495190Y1014222D01*
X612648D01*
X476250Y1022350D02*
X487062D01*
X612648Y1014222D02*
X626110Y1000760D01*
X466090Y1001268D02*
X487680Y979678D01*
X466090Y1001268D02*
Y1026558D01*
X476614Y1037082D01*
X432310Y824486D02*
Y910340D01*
X568960Y754598D02*
X668998D01*
X452162D02*
X568960D01*
X554230Y626110D02*
X683770D01*
X709930D01*
X437390D02*
X554230D01*
X559308Y910590D02*
X559310D01*
X559308D02*
Y969010D01*
X548640Y979678D02*
X559308Y969010D01*
X487680Y979678D02*
X548640D01*
X542544Y778510D02*
X558040D01*
X513588Y807466D02*
X542544Y778510D01*
X394970Y747014D02*
X423926Y775970D01*
Y816102D01*
X432310Y824486D01*
Y910340D02*
Y910590D01*
Y910340D02*
X454192Y888458D01*
X670560D01*
X686310Y904208D01*
Y910590D01*
X432310D02*
X460502D01*
X473202Y897890D01*
X553720D01*
X559310Y903480D01*
Y910590D01*
X558040Y765518D02*
Y778510D01*
Y765518D02*
X568960Y754598D01*
X690120Y775720D02*
Y775970D01*
X432310Y774450D02*
Y774700D01*
Y774450D02*
X452162Y754598D01*
X668998D02*
X690120Y775720D01*
X433580Y629920D02*
Y637540D01*
Y629920D02*
X437390Y626110D01*
X687580Y629920D02*
Y637540D01*
X683770Y626110D02*
X687580Y629920D01*
X558040D02*
Y638810D01*
X554230Y626110D02*
X558040Y629920D01*
X367030Y911860D02*
X383032D01*
X384302Y910590D01*
X400810D01*
X496570Y911860D02*
X511302D01*
X512572Y910590D01*
X527810D01*
X626110Y911860D02*
X639572D01*
X640842Y910590D01*
X654810D01*
X367030Y775970D02*
X399540D01*
X400810Y774700D01*
X496570Y779780D02*
X510794D01*
X512064Y778510D01*
X526540D01*
X626110Y777240D02*
X641604D01*
X642874Y775970D01*
X658620D01*
X367030Y640080D02*
X399540D01*
X402080Y637540D01*
X496570Y640080D02*
X525270D01*
X526540Y638810D01*
X626110Y640080D02*
X653540D01*
X656080Y637540D01*
D18*
X703580Y1205230D02*
D03*
Y577850D02*
D03*
X787400Y1216660D02*
D03*
Y566420D02*
D03*
X728091Y1258570D02*
D03*
X762889D02*
D03*
D19*
Y524510D02*
D03*
D24*
X316230Y1000760D02*
D03*
X417830D02*
D03*
X316230Y728980D02*
D03*
X417830D02*
D03*
X316230Y864870D02*
D03*
X417830D02*
D03*
X547370Y728980D02*
D03*
X445770D02*
D03*
X676910D02*
D03*
X575310D02*
D03*
X547370Y868680D02*
D03*
X445770D02*
D03*
X676910Y866140D02*
D03*
X575310D02*
D03*
X547370Y1000760D02*
D03*
X445770D02*
D03*
X676910D02*
D03*
X575310D02*
D03*
D25*
X367030D02*
D03*
Y728980D02*
D03*
Y864870D02*
D03*
X496570Y868680D02*
D03*
Y728980D02*
D03*
X626110D02*
D03*
Y866140D02*
D03*
X496570Y1000760D02*
D03*
X626110D02*
D03*
D26*
X367030Y911860D02*
D03*
Y640080D02*
D03*
Y775970D02*
D03*
X496570Y640080D02*
D03*
X626110D02*
D03*
X496570Y779780D02*
D03*
X626110Y777240D02*
D03*
X496570Y911860D02*
D03*
X626110D02*
D03*
D27*
X474980Y1209040D02*
D03*
X496570Y1029970D02*
D03*
X476250Y1022350D02*
D03*
X513588Y807466D02*
D03*
X394970Y747014D02*
D03*
X709930Y626110D02*
D03*
D28*
X686310Y910590D02*
D03*
X654810D02*
D03*
X690120Y775970D02*
D03*
X658620D02*
D03*
X559310Y910590D02*
D03*
X527810D02*
D03*
X432310Y774700D02*
D03*
X400810D02*
D03*
X558040Y778510D02*
D03*
X526540D02*
D03*
X558040Y638810D02*
D03*
X526540D02*
D03*
X432310Y910590D02*
D03*
X400810D02*
D03*
X433580Y637540D02*
D03*
X402080D02*
D03*
X687580D02*
D03*
X656080D02*
D03*
M02*
