G04*
G04 #@! TF.GenerationSoftware,Altium Limited,Altium Designer,24.6.1 (21)*
G04*
G04 Layer_Color=2752767*
%FSLAX44Y44*%
%MOMM*%
G71*
G04*
G04 #@! TF.SameCoordinates,736086DD-486C-4D62-845F-A3B091FE1A49*
G04*
G04*
G04 #@! TF.FilePolarity,Positive*
G04*
G01*
G75*
%ADD35C,0.1270*%
%ADD36C,0.1693*%
D35*
X698500Y1200150D02*
X701040Y1205230D01*
X698500Y1210310D01*
X703580Y1207770D01*
X708660Y1210310D01*
X706120Y1205230D01*
X708660Y1200150D01*
X703580Y1202690D01*
X698500Y1200150D01*
Y572770D02*
X701040Y577850D01*
X698500Y582930D01*
X703580Y580390D01*
X708660Y582930D01*
X706120Y577850D01*
X708660Y572770D01*
X703580Y575310D01*
X698500Y572770D01*
X782320Y1211580D02*
X784860Y1216660D01*
X782320Y1221740D01*
X787400Y1219200D01*
X792480Y1221740D01*
X789940Y1216660D01*
X792480Y1211580D01*
X787400Y1214120D01*
X782320Y1211580D01*
Y561340D02*
X784860Y566420D01*
X782320Y571500D01*
X787400Y568960D01*
X792480Y571500D01*
X789940Y566420D01*
X792480Y561340D01*
X787400Y563880D01*
X782320Y561340D01*
X723011Y1253490D02*
X725551Y1258570D01*
X723011Y1263650D01*
X728091Y1261110D01*
X733171Y1263650D01*
X730631Y1258570D01*
X733171Y1253490D01*
X728091Y1256030D01*
X723011Y1253490D01*
X757809D02*
X760349Y1258570D01*
X757809Y1263650D01*
X762889Y1261110D01*
X767969Y1263650D01*
X765429Y1258570D01*
X767969Y1253490D01*
X762889Y1256030D01*
X757809Y1253490D01*
Y519430D02*
X760349Y524510D01*
X757809Y529590D01*
X762889Y527050D01*
X767969Y529590D01*
X765429Y524510D01*
X767969Y519430D01*
X762889Y521970D01*
X757809Y519430D01*
X316230Y957580D02*
X311150Y967740D01*
X321310D01*
X316230Y957580D01*
Y995680D02*
X318770Y998220D01*
X321310D01*
X318770Y1000760D01*
X321310Y1003300D01*
X318770D01*
X316230Y1005840D01*
X313690Y1003300D01*
X311150D01*
X313690Y1000760D01*
X311150Y998220D01*
X313690D01*
X316230Y995680D01*
X367030D02*
X369570Y998220D01*
X372110D01*
X369570Y1000760D01*
X372110Y1003300D01*
X369570D01*
X367030Y1005840D01*
X364490Y1003300D01*
X361950D01*
X364490Y1000760D01*
X361950Y998220D01*
X364490D01*
X367030Y995680D01*
X417830D02*
X420370Y998220D01*
X422910D01*
X420370Y1000760D01*
X422910Y1003300D01*
X420370D01*
X417830Y1005840D01*
X415290Y1003300D01*
X412750D01*
X415290Y1000760D01*
X412750Y998220D01*
X415290D01*
X417830Y995680D01*
Y957580D02*
X412750Y967740D01*
X422910D01*
X417830Y957580D01*
X361950D02*
Y967740D01*
X372110D01*
Y957580D01*
X361950D01*
X316230Y685800D02*
X311150Y695960D01*
X321310D01*
X316230Y685800D01*
Y723900D02*
X318770Y726440D01*
X321310D01*
X318770Y728980D01*
X321310Y731520D01*
X318770D01*
X316230Y734060D01*
X313690Y731520D01*
X311150D01*
X313690Y728980D01*
X311150Y726440D01*
X313690D01*
X316230Y723900D01*
X367030D02*
X369570Y726440D01*
X372110D01*
X369570Y728980D01*
X372110Y731520D01*
X369570D01*
X367030Y734060D01*
X364490Y731520D01*
X361950D01*
X364490Y728980D01*
X361950Y726440D01*
X364490D01*
X367030Y723900D01*
X417830D02*
X420370Y726440D01*
X422910D01*
X420370Y728980D01*
X422910Y731520D01*
X420370D01*
X417830Y734060D01*
X415290Y731520D01*
X412750D01*
X415290Y728980D01*
X412750Y726440D01*
X415290D01*
X417830Y723900D01*
Y685800D02*
X412750Y695960D01*
X422910D01*
X417830Y685800D01*
X361950D02*
Y695960D01*
X372110D01*
Y685800D01*
X361950D01*
X316230Y821690D02*
X311150Y831850D01*
X321310D01*
X316230Y821690D01*
Y859790D02*
X318770Y862330D01*
X321310D01*
X318770Y864870D01*
X321310Y867410D01*
X318770D01*
X316230Y869950D01*
X313690Y867410D01*
X311150D01*
X313690Y864870D01*
X311150Y862330D01*
X313690D01*
X316230Y859790D01*
X367030D02*
X369570Y862330D01*
X372110D01*
X369570Y864870D01*
X372110Y867410D01*
X369570D01*
X367030Y869950D01*
X364490Y867410D01*
X361950D01*
X364490Y864870D01*
X361950Y862330D01*
X364490D01*
X367030Y859790D01*
X417830D02*
X420370Y862330D01*
X422910D01*
X420370Y864870D01*
X422910Y867410D01*
X420370D01*
X417830Y869950D01*
X415290Y867410D01*
X412750D01*
X415290Y864870D01*
X412750Y862330D01*
X415290D01*
X417830Y859790D01*
Y821690D02*
X412750Y831850D01*
X422910D01*
X417830Y821690D01*
X361950D02*
Y831850D01*
X372110D01*
Y821690D01*
X361950D01*
X496570Y863600D02*
X499110Y866140D01*
X501650D01*
X499110Y868680D01*
X501650Y871220D01*
X499110D01*
X496570Y873760D01*
X494030Y871220D01*
X491490D01*
X494030Y868680D01*
X491490Y866140D01*
X494030D01*
X496570Y863600D01*
X491490Y685800D02*
Y695960D01*
X501650D01*
Y685800D01*
X491490D01*
X547370D02*
X542290Y695960D01*
X552450D01*
X547370Y685800D01*
Y723900D02*
X549910Y726440D01*
X552450D01*
X549910Y728980D01*
X552450Y731520D01*
X549910D01*
X547370Y734060D01*
X544830Y731520D01*
X542290D01*
X544830Y728980D01*
X542290Y726440D01*
X544830D01*
X547370Y723900D01*
X496570D02*
X499110Y726440D01*
X501650D01*
X499110Y728980D01*
X501650Y731520D01*
X499110D01*
X496570Y734060D01*
X494030Y731520D01*
X491490D01*
X494030Y728980D01*
X491490Y726440D01*
X494030D01*
X496570Y723900D01*
X445770D02*
X448310Y726440D01*
X450850D01*
X448310Y728980D01*
X450850Y731520D01*
X448310D01*
X445770Y734060D01*
X443230Y731520D01*
X440690D01*
X443230Y728980D01*
X440690Y726440D01*
X443230D01*
X445770Y723900D01*
Y685800D02*
X440690Y695960D01*
X450850D01*
X445770Y685800D01*
X621030D02*
Y695960D01*
X631190D01*
Y685800D01*
X621030D01*
X676910D02*
X671830Y695960D01*
X681990D01*
X676910Y685800D01*
Y723900D02*
X679450Y726440D01*
X681990D01*
X679450Y728980D01*
X681990Y731520D01*
X679450D01*
X676910Y734060D01*
X674370Y731520D01*
X671830D01*
X674370Y728980D01*
X671830Y726440D01*
X674370D01*
X676910Y723900D01*
X626110D02*
X628650Y726440D01*
X631190D01*
X628650Y728980D01*
X631190Y731520D01*
X628650D01*
X626110Y734060D01*
X623570Y731520D01*
X621030D01*
X623570Y728980D01*
X621030Y726440D01*
X623570D01*
X626110Y723900D01*
X575310D02*
X577850Y726440D01*
X580390D01*
X577850Y728980D01*
X580390Y731520D01*
X577850D01*
X575310Y734060D01*
X572770Y731520D01*
X570230D01*
X572770Y728980D01*
X570230Y726440D01*
X572770D01*
X575310Y723900D01*
Y685800D02*
X570230Y695960D01*
X580390D01*
X575310Y685800D01*
X491490Y825500D02*
Y835660D01*
X501650D01*
Y825500D01*
X491490D01*
X547370D02*
X542290Y835660D01*
X552450D01*
X547370Y825500D01*
Y863600D02*
X549910Y866140D01*
X552450D01*
X549910Y868680D01*
X552450Y871220D01*
X549910D01*
X547370Y873760D01*
X544830Y871220D01*
X542290D01*
X544830Y868680D01*
X542290Y866140D01*
X544830D01*
X547370Y863600D01*
X445770D02*
X448310Y866140D01*
X450850D01*
X448310Y868680D01*
X450850Y871220D01*
X448310D01*
X445770Y873760D01*
X443230Y871220D01*
X440690D01*
X443230Y868680D01*
X440690Y866140D01*
X443230D01*
X445770Y863600D01*
Y825500D02*
X440690Y835660D01*
X450850D01*
X445770Y825500D01*
X621030Y822960D02*
Y833120D01*
X631190D01*
Y822960D01*
X621030D01*
X676910D02*
X671830Y833120D01*
X681990D01*
X676910Y822960D01*
Y861060D02*
X679450Y863600D01*
X681990D01*
X679450Y866140D01*
X681990Y868680D01*
X679450D01*
X676910Y871220D01*
X674370Y868680D01*
X671830D01*
X674370Y866140D01*
X671830Y863600D01*
X674370D01*
X676910Y861060D01*
X626110D02*
X628650Y863600D01*
X631190D01*
X628650Y866140D01*
X631190Y868680D01*
X628650D01*
X626110Y871220D01*
X623570Y868680D01*
X621030D01*
X623570Y866140D01*
X621030Y863600D01*
X623570D01*
X626110Y861060D01*
X575310D02*
X577850Y863600D01*
X580390D01*
X577850Y866140D01*
X580390Y868680D01*
X577850D01*
X575310Y871220D01*
X572770Y868680D01*
X570230D01*
X572770Y866140D01*
X570230Y863600D01*
X572770D01*
X575310Y861060D01*
Y822960D02*
X570230Y833120D01*
X580390D01*
X575310Y822960D01*
X491490Y957580D02*
Y967740D01*
X501650D01*
Y957580D01*
X491490D01*
X547370D02*
X542290Y967740D01*
X552450D01*
X547370Y957580D01*
Y995680D02*
X549910Y998220D01*
X552450D01*
X549910Y1000760D01*
X552450Y1003300D01*
X549910D01*
X547370Y1005840D01*
X544830Y1003300D01*
X542290D01*
X544830Y1000760D01*
X542290Y998220D01*
X544830D01*
X547370Y995680D01*
X496570D02*
X499110Y998220D01*
X501650D01*
X499110Y1000760D01*
X501650Y1003300D01*
X499110D01*
X496570Y1005840D01*
X494030Y1003300D01*
X491490D01*
X494030Y1000760D01*
X491490Y998220D01*
X494030D01*
X496570Y995680D01*
X445770D02*
X448310Y998220D01*
X450850D01*
X448310Y1000760D01*
X450850Y1003300D01*
X448310D01*
X445770Y1005840D01*
X443230Y1003300D01*
X440690D01*
X443230Y1000760D01*
X440690Y998220D01*
X443230D01*
X445770Y995680D01*
Y957580D02*
X440690Y967740D01*
X450850D01*
X445770Y957580D01*
X621030D02*
Y967740D01*
X631190D01*
Y957580D01*
X621030D01*
X676910D02*
X671830Y967740D01*
X681990D01*
X676910Y957580D01*
Y995680D02*
X679450Y998220D01*
X681990D01*
X679450Y1000760D01*
X681990Y1003300D01*
X679450D01*
X676910Y1005840D01*
X674370Y1003300D01*
X671830D01*
X674370Y1000760D01*
X671830Y998220D01*
X674370D01*
X676910Y995680D01*
X626110D02*
X628650Y998220D01*
X631190D01*
X628650Y1000760D01*
X631190Y1003300D01*
X628650D01*
X626110Y1005840D01*
X623570Y1003300D01*
X621030D01*
X623570Y1000760D01*
X621030Y998220D01*
X623570D01*
X626110Y995680D01*
X575310D02*
X577850Y998220D01*
X580390D01*
X577850Y1000760D01*
X580390Y1003300D01*
X577850D01*
X575310Y1005840D01*
X572770Y1003300D01*
X570230D01*
X572770Y1000760D01*
X570230Y998220D01*
X572770D01*
X575310Y995680D01*
Y957580D02*
X570230Y967740D01*
X580390D01*
X575310Y957580D01*
X472440Y1206500D02*
Y1203960D01*
X477520D01*
Y1206500D01*
X480060D01*
Y1211580D01*
X477520D01*
Y1214120D01*
X472440D01*
Y1211580D01*
X469900D01*
Y1206500D01*
X472440D01*
X494030Y1027430D02*
Y1024890D01*
X499110D01*
Y1027430D01*
X501650D01*
Y1032510D01*
X499110D01*
Y1035050D01*
X494030D01*
Y1032510D01*
X491490D01*
Y1027430D01*
X494030D01*
X473710Y1019810D02*
Y1017270D01*
X478790D01*
Y1019810D01*
X481330D01*
Y1024890D01*
X478790D01*
Y1027430D01*
X473710D01*
Y1024890D01*
X471170D01*
Y1019810D01*
X473710D01*
X511048Y804926D02*
Y802386D01*
X516128D01*
Y804926D01*
X518668D01*
Y810006D01*
X516128D01*
Y812546D01*
X511048D01*
Y810006D01*
X508508D01*
Y804926D01*
X511048D01*
X392430Y744474D02*
Y741934D01*
X397510D01*
Y744474D01*
X400050D01*
Y749554D01*
X397510D01*
Y752094D01*
X392430D01*
Y749554D01*
X389890D01*
Y744474D01*
X392430D01*
X707390Y623570D02*
Y621030D01*
X712470D01*
Y623570D01*
X715010D01*
Y628650D01*
X712470D01*
Y631190D01*
X707390D01*
Y628650D01*
X704850D01*
Y623570D01*
X707390D01*
D36*
X372110Y911860D02*
G03*
X372110Y911860I-5080J0D01*
G01*
Y640080D02*
G03*
X372110Y640080I-5080J0D01*
G01*
Y775970D02*
G03*
X372110Y775970I-5080J0D01*
G01*
X501650Y640080D02*
G03*
X501650Y640080I-5080J0D01*
G01*
X631190D02*
G03*
X631190Y640080I-5080J0D01*
G01*
X501650Y779780D02*
G03*
X501650Y779780I-5080J0D01*
G01*
X631190Y777240D02*
G03*
X631190Y777240I-5080J0D01*
G01*
X501650Y911860D02*
G03*
X501650Y911860I-5080J0D01*
G01*
X631190D02*
G03*
X631190Y911860I-5080J0D01*
G01*
M02*
